<svg width="73" height="73" viewBox="0 0 73 73" fill="none" xmlns="http://www.w3.org/2000/svg">
<path fill-rule="evenodd" clip-rule="evenodd" d="M37.9258 1.42578C37.9258 2.21322 37.2874 2.85156 36.5 2.85156C35.7126 2.85156 35.0742 2.21322 35.0742 1.42578C35.0742 0.638344 35.7126 0 36.5 0C37.2874 0 37.9258 0.638344 37.9258 1.42578ZM37.9258 73C40.2843 73 42.2031 71.0812 42.2031 68.7227V64.4453C44.5617 64.4453 46.4805 62.5265 46.4805 60.168V48.4609C46.4805 44.1188 48.3609 39.8111 51.7757 36.3308C55.9199 32.1065 58.0853 26.5197 57.873 20.5997C57.5584 11.8639 51.6993 4.04423 43.2933 1.14148C42.5489 0.884127 41.7372 1.2795 41.4803 2.02375C41.2233 2.76801 41.6183 3.57985 42.3625 3.83678C49.6628 6.35784 54.7509 13.1354 55.0233 20.7021C55.2072 25.8322 53.3309 30.6734 49.7401 34.3337C45.7992 38.3504 43.6289 43.3674 43.6289 48.4609V50.1875H29.3711V48.4466C29.3711 43.2575 27.2634 38.3086 23.436 34.5112C19.9079 31.0107 17.9648 26.3497 17.9648 21.3867C17.9648 13.4005 23.0498 6.33446 30.6181 3.80384C31.3649 3.55419 31.7678 2.74634 31.5182 1.99952C31.2685 1.25269 30.4607 0.850051 29.7139 1.09942C20.9808 4.01942 15.1133 12.1723 15.1133 21.3867C15.1133 27.1157 17.3558 32.4956 21.4276 36.5355C24.7112 39.7934 26.5195 44.0236 26.5195 48.4466V60.168C26.5195 62.5265 28.4383 64.4453 30.7969 64.4453V68.7227C30.7969 71.0812 32.7157 73 35.0742 73H37.9258ZM29.3711 60.168V58.7422H30.7969C31.5843 58.7422 32.2227 58.1039 32.2227 57.3164C32.2227 56.529 31.5843 55.8906 30.7969 55.8906H29.3711V53.0391H43.6289V55.8906H42.2031C41.4157 55.8906 40.7773 56.529 40.7773 57.3164C40.7773 58.1039 41.4157 58.7422 42.2031 58.7422H43.6289V60.168C43.6289 60.9542 42.9893 61.5938 42.2031 61.5938H30.7969C30.0107 61.5938 29.3711 60.9542 29.3711 60.168ZM39.3516 64.4453V68.7227C39.3516 69.5088 38.712 70.1484 37.9258 70.1484H35.0742C34.288 70.1484 33.6484 69.5088 33.6484 68.7227V64.4453H39.3516ZM9.41016 21.3867C9.41016 20.5993 8.77183 19.9609 7.98438 19.9609H1.42578C0.638322 19.9609 0 20.5993 0 21.3867C0 22.1742 0.638322 22.8125 1.42578 22.8125H7.98438C8.77183 22.8125 9.41016 22.1742 9.41016 21.3867ZM71.5742 19.9609C72.3617 19.9609 73 20.5993 73 21.3867C73 22.1742 72.3617 22.8125 71.5742 22.8125H65.0156C64.2282 22.8125 63.5898 22.1742 63.5898 21.3867C63.5898 20.5993 64.2282 19.9609 65.0156 19.9609H71.5742ZM7.57803 39.7308L12.5169 36.8793C13.1989 36.4856 13.4326 35.6136 13.0388 34.9316C12.645 34.2495 11.773 34.016 11.0912 34.4098L6.15225 37.2614C5.4703 37.655 5.23661 38.527 5.63041 39.209C6.02592 39.8942 6.89921 40.1228 7.57803 39.7308ZM60.4831 5.89418L65.422 3.04262C66.1038 2.64882 66.9759 2.88236 67.3696 3.56445C67.7634 4.2464 67.5297 5.11841 66.8477 5.51207L61.9088 8.36363C61.2302 8.75544 60.3569 8.52703 59.9612 7.8418C59.5674 7.15985 59.8011 6.28784 60.4831 5.89418ZM12.5169 5.89418L7.57803 3.04262C6.89636 2.6491 6.02421 2.8825 5.63041 3.56445C5.23661 4.2464 5.4703 5.11841 6.15225 5.51207L11.0912 8.36363C11.7701 8.75558 12.6434 8.52674 13.0388 7.8418C13.4326 7.15985 13.1989 6.28784 12.5169 5.89418ZM65.422 39.7308L60.4831 36.8793C59.8011 36.4856 59.5674 35.6136 59.9612 34.9316C60.355 34.2498 61.227 34.0163 61.9088 34.4098L66.8477 37.2614C67.5297 37.655 67.7634 38.527 67.3696 39.209C66.9742 39.8939 66.1009 40.1228 65.422 39.7308ZM26.1175 20.2363C25.5835 20.3167 25.1407 20.6919 24.9738 21.2055C24.807 21.7191 24.9446 22.283 25.3293 22.6618L29.8479 27.1128L28.8085 33.3691C28.7199 33.9018 28.9401 34.4389 29.3771 34.7563C29.8139 35.0736 30.393 35.117 30.872 34.868L36.5 31.9458L42.1278 34.8682C42.6099 35.1186 43.1886 35.0719 43.6228 34.7564C44.0598 34.4389 44.2798 33.9019 44.1914 33.3693L43.152 27.1129L47.6706 22.6619C48.0552 22.283 48.193 21.7192 48.026 21.2056C47.8591 20.6921 47.4164 20.3168 46.8824 20.2364L40.6108 19.2917L37.7752 13.6203C37.5337 13.1371 37.0401 12.832 36.5 12.832C35.9599 12.832 35.4663 13.1371 35.2248 13.6202L32.3892 19.2915L26.1175 20.2363ZM34.6086 21.2287L36.5 17.446L38.3914 21.2287C38.599 21.6438 38.9954 21.9319 39.4544 22.0009L43.6385 22.6313L40.6238 25.6008C40.2933 25.9264 40.1419 26.3925 40.2179 26.8502L40.9111 31.0233L37.1571 29.074C36.9513 28.967 36.7257 28.9136 36.5001 28.9136C36.2746 28.9136 36.049 28.967 35.8431 29.074L32.0892 31.0233L32.7824 26.8502C32.8584 26.3925 32.707 25.9264 32.3765 25.6008L29.3618 22.6313L33.5459 22.0009C34.0046 21.9319 34.4011 21.6438 34.6086 21.2287Z" fill="#F03D5E"/>
</svg>
