<svg width="83" height="83" viewBox="0 0 83 83" fill="none" xmlns="http://www.w3.org/2000/svg">
<path fill-rule="evenodd" clip-rule="evenodd" d="M77.4667 0H5.53333C2.47736 0 0 2.47736 0 5.53333V77.4667C0 80.5226 2.47736 83 5.53333 83H77.4667C80.5226 83 83 80.5226 83 77.4667V5.53333C83 2.47736 80.5226 0 77.4667 0ZM2.76667 5.53333C2.76667 4.00535 4.00535 2.76667 5.53333 2.76667H77.4667C78.9947 2.76667 80.2333 4.00535 80.2333 5.53333V13.8333H2.76667V5.53333ZM80.2333 77.4667C80.2333 78.9947 78.9947 80.2333 77.4667 80.2333H5.53333C4.00535 80.2333 2.76667 78.9947 2.76667 77.4667V16.6H80.2333V77.4667ZM8.3 9.68333C9.06399 9.68333 9.68333 9.06399 9.68333 8.3C9.68333 7.536 9.06399 6.91667 8.3 6.91667C7.536 6.91667 6.91667 7.536 6.91667 8.3C6.91667 9.06399 7.536 9.68333 8.3 9.68333ZM15.2167 8.3C15.2167 9.06399 14.5973 9.68333 13.8333 9.68333C13.0693 9.68333 12.45 9.06399 12.45 8.3C12.45 7.536 13.0693 6.91667 13.8333 6.91667C14.5973 6.91667 15.2167 7.536 15.2167 8.3ZM19.3667 9.68333C20.1307 9.68333 20.75 9.06399 20.75 8.3C20.75 7.536 20.1307 6.91667 19.3667 6.91667C18.6027 6.91667 17.9833 7.536 17.9833 8.3C17.9833 9.06399 18.6027 9.68333 19.3667 9.68333ZM69.1667 6.91667H74.7C75.464 6.91667 76.0833 7.536 76.0833 8.3C76.0833 9.06399 75.464 9.68333 74.7 9.68333H69.1667C68.4027 9.68333 67.7833 9.06399 67.7833 8.3C67.7833 7.536 68.4027 6.91667 69.1667 6.91667ZM55.3333 44.2667H66.4C68.692 44.2667 70.55 42.4087 70.55 40.1167V38.263C70.55 37.499 69.9307 36.8797 69.1667 36.8797C68.4027 36.8797 67.7833 37.499 67.7833 38.263V40.1167C67.7833 40.8807 67.164 41.5 66.4 41.5H55.3333C54.5693 41.5 53.95 40.8807 53.95 40.1167V29.05C53.95 28.286 54.5693 27.6667 55.3333 27.6667H65.487C66.251 27.6667 66.8703 27.0473 66.8703 26.2833C66.8703 25.5193 66.251 24.9 65.487 24.9H55.3333C53.0414 24.9 51.1833 26.758 51.1833 29.05V40.1167C51.1833 42.4087 53.0414 44.2667 55.3333 44.2667ZM55.7555 33.6222C56.2891 33.0886 57.1519 33.0811 57.6947 33.6053L60.9165 36.8271L72.3981 26.6264C72.9711 26.1191 73.8469 26.1724 74.3542 26.7454C74.8615 27.3184 74.8082 28.1941 74.2352 28.7014L61.7852 39.7681C61.2376 40.254 60.4062 40.2291 59.8887 39.7113L55.7387 35.5614C55.2144 35.0186 55.2219 34.1558 55.7555 33.6222ZM55.3333 73.3167H66.4C68.692 73.3167 70.55 71.4587 70.55 69.1667V67.313C70.55 66.549 69.9307 65.9297 69.1667 65.9297C68.4027 65.9297 67.7833 66.549 67.7833 67.313V69.1667C67.7833 69.9307 67.164 70.55 66.4 70.55H55.3333C54.5693 70.55 53.95 69.9307 53.95 69.1667V58.1C53.95 57.336 54.5693 56.7167 55.3333 56.7167H65.487C66.251 56.7167 66.8703 56.0973 66.8703 55.3333C66.8703 54.5693 66.251 53.95 65.487 53.95H55.3333C53.0414 53.95 51.1833 55.808 51.1833 58.1V69.1667C51.1833 71.4587 53.0414 73.3167 55.3333 73.3167ZM60.9165 65.8826L72.3981 55.6819L72.3926 55.6764C72.9656 55.1691 73.8413 55.2224 74.3486 55.7954C74.8559 56.3684 74.8027 57.2441 74.2297 57.7514L61.7797 68.8181C61.2321 69.304 60.4007 69.2791 59.8831 68.7614L55.7331 64.6114C55.2089 64.0686 55.2164 63.2058 55.75 62.6722C56.2836 62.1386 57.1464 62.1311 57.6892 62.6553L60.9165 65.8826ZM9.68333 35.9667H44.2667C45.0307 35.9667 45.65 35.3473 45.65 34.5833C45.65 33.8193 45.0307 33.2 44.2667 33.2H9.68333C8.91934 33.2 8.3 33.8193 8.3 34.5833C8.3 35.3473 8.91934 35.9667 9.68333 35.9667ZM44.2667 29.05H9.68333C8.91934 29.05 8.3 28.4307 8.3 27.6667C8.3 26.9027 8.91934 26.2833 9.68333 26.2833H44.2667C45.0307 26.2833 45.65 26.9027 45.65 27.6667C45.65 28.4307 45.0307 29.05 44.2667 29.05ZM9.68333 42.8833H29.05C29.814 42.8833 30.4333 42.264 30.4333 41.5C30.4333 40.736 29.814 40.1167 29.05 40.1167H9.68333C8.91934 40.1167 8.3 40.736 8.3 41.5C8.3 42.264 8.91934 42.8833 9.68333 42.8833ZM44.2667 65.0167H9.68333C8.91934 65.0167 8.3 64.3973 8.3 63.6333C8.3 62.8693 8.91934 62.25 9.68333 62.25H44.2667C45.0307 62.25 45.65 62.8693 45.65 63.6333C45.65 64.3973 45.0307 65.0167 44.2667 65.0167ZM9.68333 58.1H44.2667C45.0307 58.1 45.65 57.4807 45.65 56.7167C45.65 55.9527 45.0307 55.3333 44.2667 55.3333H9.68333C8.91934 55.3333 8.3 55.9527 8.3 56.7167C8.3 57.4807 8.91934 58.1 9.68333 58.1ZM29.05 71.9333H9.68333C8.91934 71.9333 8.3 71.314 8.3 70.55C8.3 69.786 8.91934 69.1667 9.68333 69.1667H29.05C29.814 69.1667 30.4333 69.786 30.4333 70.55C30.4333 71.314 29.814 71.9333 29.05 71.9333Z" fill="#F84263"/>
</svg>
