<svg width="81" height="64" viewBox="0 0 81 64" fill="none" xmlns="http://www.w3.org/2000/svg">
<path d="M77.811 0H48.4724C46.714 0 45.2835 1.43552 45.2835 3.2V11.5202C41.5029 12.2581 38.9055 15.6955 38.9055 19.36V24.8016C38.9055 25.6832 39.6214 26.4016 40.5 26.4016C41.3786 26.4016 42.0945 25.6832 42.0945 24.8016V19.36C42.0983 17.2792 43.4311 15.5019 45.2835 14.8386V60.8C45.2835 62.5645 46.714 64 48.4724 64H77.811C79.5694 64 81 62.5645 81 60.8V3.2C81 1.43552 79.5694 0 77.811 0ZM77.811 60.8H48.4724V3.2H77.811L77.8131 60.7998C77.8131 60.7998 77.8125 60.8 77.811 60.8ZM6.37795 33.44C6.37795 32.5565 7.09196 31.84 7.97244 31.84H17.8583C18.7387 31.84 19.4528 32.5565 19.4528 33.44C19.4528 34.3235 18.7387 35.04 17.8583 35.04H7.97244C7.09196 35.04 6.37795 34.3235 6.37795 33.44ZM6.37795 39.84C6.37795 38.9565 7.09196 38.24 7.97244 38.24H27.7441C28.6246 38.24 29.3386 38.9565 29.3386 39.84C29.3386 40.7235 28.6246 41.44 27.7441 41.44H7.97244C7.09196 41.44 6.37795 40.7235 6.37795 39.84ZM6.37795 8C6.37795 7.11648 7.09196 6.4 7.97244 6.4H27.7441C28.6246 6.4 29.3386 7.11648 29.3386 8C29.3386 8.88352 28.6246 9.6 27.7441 9.6H7.97244C7.09196 9.6 6.37795 8.88352 6.37795 8ZM74.622 34.24C74.622 35.1235 73.908 35.84 73.0276 35.84H53.2559C52.3754 35.84 51.6614 35.1235 51.6614 34.24C51.6614 33.3565 52.3754 32.64 53.2559 32.64H73.0276C73.908 32.64 74.622 33.3565 74.622 34.24ZM74.622 40.64C74.622 41.5235 73.908 42.24 73.0276 42.24H53.2559C52.3754 42.24 51.6614 41.5235 51.6614 40.64C51.6614 39.7565 52.3754 39.04 53.2559 39.04H73.0276C73.908 39.04 74.622 39.7565 74.622 40.64ZM64.7362 47.04C64.7362 47.9235 64.0222 48.64 63.1417 48.64H53.2559C52.3754 48.64 51.6614 47.9235 51.6614 47.04C51.6614 46.1565 52.3754 45.44 53.2559 45.44H63.1417C64.0222 45.44 64.7362 46.1565 64.7362 47.04ZM73.0276 6.4H53.2559C52.3754 6.4 51.6614 7.11648 51.6614 8V27.84C51.6614 28.7235 52.3754 29.44 53.2559 29.44H73.0276C73.908 29.44 74.622 28.7235 74.622 27.84V8C74.622 7.11648 73.908 6.4 73.0276 6.4ZM71.4331 26.24H54.8504V9.6H71.4331V26.24ZM42.0945 32.0016C42.0945 32.8832 41.3786 33.6016 40.5 33.6016C39.6214 33.6016 38.9055 32.8832 38.9055 32.0016C38.9055 31.1184 39.6214 30.4016 40.5 30.4016C41.3786 30.4016 42.0945 31.1184 42.0945 32.0016ZM40.5 37.6016C39.6214 37.6016 38.9055 38.3184 38.9055 39.2016V44.64C38.9017 46.7208 37.5689 48.4979 35.7165 49.1614V3.2C35.7165 1.43552 34.286 0 32.5276 0H3.18898C1.43057 0 0 1.43552 0 3.2V60.8C0 62.5645 1.43057 64 3.18898 64H32.5276C34.286 64 35.7165 62.5645 35.7165 60.8V52.4803C39.2193 51.8038 42.0945 48.64 42.0945 44.64V39.2016C42.0945 38.3184 41.3786 37.6016 40.5 37.6016ZM32.5276 60.8H3.18898V3.2H32.5276L32.5292 49.44H29.3386C29.3386 46.7933 27.1927 44.64 24.5551 44.64H11.1614C8.52382 44.64 6.37795 46.7933 6.37795 49.44V52.64C6.37795 55.2867 8.52382 57.44 11.1614 57.44H24.5551C27.1927 57.44 29.3386 55.2867 29.3386 52.64H32.5293L32.5296 60.7998C32.5296 60.7998 32.529 60.8 32.5276 60.8ZM26.1496 52.64C26.1496 53.5222 25.4343 54.24 24.5551 54.24H11.1614C10.2822 54.24 9.56693 53.5222 9.56693 52.64V49.44C9.56693 48.5578 10.2822 47.84 11.1614 47.84H24.5551C25.4343 47.84 26.1496 48.5578 26.1496 49.44V52.64Z" fill="#F84263"/>
</svg>
