<svg width="85" height="83" viewBox="0 0 85 83" fill="none" xmlns="http://www.w3.org/2000/svg">
<path fill-rule="evenodd" clip-rule="evenodd" d="M52.4168 0H77.9165C81.8269 0.0045395 84.9955 3.1731 85 7.08355V63.75C84.9955 67.1144 82.6291 70.0138 79.3334 70.6915V73.6668C79.3289 78.3594 75.5261 82.1622 70.8335 82.1667H8.49987C3.80733 82.1622 0.0045395 78.3594 0 73.6668V11.3332C0 6.63868 3.80539 2.83329 8.49987 2.83329C13.1944 2.83329 16.9997 6.63868 16.9997 11.3332V14.1665H45.3333V7.08355C45.3378 3.1731 48.5064 0.0045395 52.4168 0ZM77.9165 2.83329H52.4168C50.0693 2.83329 48.1666 4.73598 48.1666 7.08355V11.3332H82.1667V7.08355C82.1667 4.73598 80.264 2.83329 77.9165 2.83329ZM48.1666 52.4168H82.1667V14.1665H48.1666V52.4168ZM29.8394 24.0833L45.3333 30.4671V24.0833H29.8394ZM24.2616 40.3172L43.0311 32.5832L24.2616 24.8498C24.1494 25.0483 24.0878 25.272 24.0833 25.5003V39.6667C24.0878 39.895 24.1494 40.1181 24.2616 40.3172ZM45.3333 41.083V34.6999L29.8394 41.083H45.3333ZM14.1665 11.3332C14.1665 8.20351 11.6295 5.66658 8.49987 5.66658C5.37022 5.66658 2.83329 8.20351 2.83329 11.3332V61.6819C6.05114 58.7728 10.9486 58.7728 14.1665 61.6819V11.3332ZM8.49987 79.3334H70.8335C72.3361 79.3334 73.7777 78.7362 74.84 77.6739C75.9029 76.611 76.5001 75.1694 76.5001 73.6668V70.8335H52.4168C48.5064 70.8284 45.3378 67.6598 45.3333 63.75V58.0834H22.667C21.8842 58.0834 21.25 57.4492 21.25 56.6665C21.25 55.8844 21.8842 55.2501 22.667 55.2501H45.3333V50.9999H36.8334C36.0507 50.9999 35.4165 50.3656 35.4165 49.5835C35.4165 48.8008 36.0507 48.1666 36.8334 48.1666H45.3333V43.917H25.5003C24.689 43.915 23.8959 43.6803 23.215 43.2393C23.0982 43.1751 22.9906 43.0953 22.8959 43.0013C21.8622 42.2036 21.2545 40.9728 21.25 39.6667V25.5003C21.2545 24.2097 21.8479 22.9919 22.8622 22.1936C22.9037 22.1547 22.9478 22.119 22.9938 22.0859C23.093 22.012 23.1968 21.9458 23.3025 21.8803C23.3098 21.8771 23.3167 21.872 23.3234 21.867C23.3338 21.8593 23.3439 21.8518 23.355 21.8518C24.0029 21.4614 24.7441 21.2539 25.5003 21.25H45.3333V16.9997H16.9997V68.0003C16.9997 68.7823 16.3655 69.4166 15.5834 69.4166C14.8007 69.4166 14.1665 68.7823 14.1665 68.0003C14.1665 64.8706 11.6295 62.333 8.49987 62.333C5.37022 62.333 2.83329 64.8706 2.83329 68.0003V73.6668C2.83329 76.7965 5.37022 79.3334 8.49987 79.3334ZM52.4168 68.0003H77.9165C80.264 68.0003 82.1667 66.0969 82.1667 63.75V55.2501H48.1666V63.75C48.1666 66.0969 50.0693 68.0003 52.4168 68.0003ZM68.0003 8.49987H62.333C61.5509 8.49987 60.9167 7.86564 60.9167 7.08355C60.9167 6.30081 61.5509 5.66658 62.333 5.66658H68.0003C68.7823 5.66658 69.4166 6.30081 69.4166 7.08355C69.4166 7.86564 68.7823 8.49987 68.0003 8.49987ZM66.5833 56.6665H63.75C62.1852 56.6665 60.9167 57.9349 60.9167 59.4997V62.333C60.9167 63.8979 62.1852 65.167 63.75 65.167H66.5833C68.1481 65.167 69.4166 63.8979 69.4166 62.333V59.4997C69.4166 57.9349 68.1481 56.6665 66.5833 56.6665ZM63.75 62.333V59.4997H66.5833V62.333H63.75ZM51.9946 34.7217C51.9809 34.7112 51.9674 34.7009 51.9551 34.6882C51.3501 34.1558 51.0025 33.3892 50.9999 32.5832V19.833C51.0044 18.9614 51.4117 18.1411 52.1036 17.6106L52.1334 17.5866C52.6205 17.2099 53.2177 17.0036 53.8332 16.9997H76.5001C77.1169 17.0023 77.7154 17.2073 78.2044 17.5834L78.2413 17.6145C78.9281 18.1463 79.3308 18.9647 79.3334 19.833V32.5832C79.3308 33.3892 78.9832 34.1558 78.3782 34.6882C78.3587 34.707 78.3386 34.7213 78.3192 34.7381C77.8127 35.1726 77.1674 35.4132 76.5001 35.4165H53.8332C53.1672 35.4139 52.5245 35.1746 52.0187 34.7407C52.0165 34.7389 52.0143 34.7371 52.0121 34.7353C52.0102 34.7337 52.0082 34.7322 52.0062 34.7306L51.9946 34.7217ZM67.8855 26.2084L76.5001 31.471V20.9472L67.8855 26.2084ZM57.4459 32.5832H72.8873L65.167 27.8686L57.4459 32.5832ZM57.4459 19.833L65.167 24.5483L72.8873 19.833H57.4459ZM53.8332 31.4697L62.4478 26.2084L53.8332 20.9472V31.4697ZM53.8332 41.083H59.4997C60.2825 41.083 60.9167 40.4488 60.9167 39.6667C60.9167 38.884 60.2825 38.2497 59.4997 38.2497H53.8332C53.0511 38.2497 52.4168 38.884 52.4168 39.6667C52.4168 40.4488 53.0511 41.083 53.8332 41.083ZM65.167 38.2497H77.9165C78.6992 38.2497 79.3334 38.884 79.3334 39.6667C79.3334 40.4488 78.6992 41.083 77.9165 41.083H65.167C64.3842 41.083 63.75 40.4488 63.75 39.6667C63.75 38.884 64.3842 38.2497 65.167 38.2497ZM77.9165 43.917H53.8332C53.0511 43.917 52.4168 44.5512 52.4168 45.3333C52.4168 46.116 53.0511 46.7503 53.8332 46.7503H77.9165C78.6992 46.7503 79.3334 46.116 79.3334 45.3333C79.3334 44.5512 78.6992 43.917 77.9165 43.917ZM29.7499 50.9999H22.667C21.8842 50.9999 21.25 50.3656 21.25 49.5835C21.25 48.8008 21.8842 48.1666 22.667 48.1666H29.7499C30.5326 48.1666 31.1668 48.8008 31.1668 49.5835C31.1668 50.3656 30.5326 50.9999 29.7499 50.9999Z" fill="#F84263"/>
</svg>
