<svg width="75" height="64" viewBox="0 0 75 64" fill="none" xmlns="http://www.w3.org/2000/svg">
<path d="M38.9764 62.5116C38.9764 63.3332 38.3135 64 37.5 64C36.6865 64 36.0236 63.3332 36.0236 62.5116C36.0236 61.6915 36.6865 61.0233 37.5 61.0233C38.3135 61.0233 38.9764 61.6915 38.9764 62.5116ZM11.7558 25.8977C10.9404 25.8977 10.2794 26.564 10.2794 27.386C10.2794 28.2081 10.9404 28.8744 11.7558 28.8744H14.7638V43.7581C14.7638 44.5802 15.4248 45.2465 16.2402 45.2465C17.0556 45.2465 17.7165 44.5802 17.7165 43.7581V28.8744H20.7245C21.5399 28.8744 22.2009 28.2081 22.2009 27.386C22.2009 26.564 21.5399 25.8977 20.7245 25.8977H11.7558ZM62.8937 14.2884C66.3129 14.2884 69.0945 17.0926 69.0945 20.5395C69.0945 23.9865 66.3129 26.7907 62.8937 26.7907C59.4746 26.7907 56.6929 23.9865 56.6929 20.5395C56.6929 17.0926 59.4746 14.2884 62.8937 14.2884ZM59.6457 20.5395C59.6457 22.3451 61.1027 23.814 62.8937 23.814C64.6847 23.814 66.1417 22.3451 66.1417 20.5395C66.1417 18.734 64.6847 17.2651 62.8937 17.2651C61.1027 17.2651 59.6457 18.734 59.6457 20.5395ZM58.7598 64H44.1437C43.2976 64 42.6143 63.2786 42.6706 62.4121C42.722 61.621 43.4092 61.0233 44.1955 61.0233H57.2835V58.0465H46.3583C43.9121 58.0465 41.9291 56.0475 41.9291 53.5814V49.7116C41.9291 47.2455 43.9121 45.2465 46.3583 45.2465H57.2835V38.9953H36.9095C36.094 38.9953 35.4331 38.329 35.4331 37.507V9.82326C35.4331 9.00123 36.094 8.33488 36.9095 8.33488H57.2835V4.46512C57.2835 3.64309 56.6225 2.97674 55.8071 2.97674H19.1929C18.3775 2.97674 17.7165 3.64309 17.7165 4.46512V19.2H31.0039C31.8193 19.2 32.4803 19.8663 32.4803 20.6884V50.4558C32.4803 51.2778 31.8193 51.9442 31.0039 51.9442H17.7165V61.0233H30.8045C31.5908 61.0233 32.2781 61.621 32.3294 62.4121C32.3857 63.2786 31.7024 64 30.8563 64H16.2402C15.4248 64 14.7638 63.3337 14.7638 62.5116V51.9442H1.47638C0.660974 51.9442 0 51.2778 0 50.4558V20.6884C0 19.8663 0.660974 19.2 1.47638 19.2H14.7638V4.46512C14.7638 1.99903 16.7467 0 19.1929 0H55.8071C58.2533 0 60.2362 1.99903 60.2362 4.46512V8.33488H73.5236C74.339 8.33488 75 9.00123 75 9.82326V37.507C75 38.329 74.339 38.9953 73.5236 38.9953H60.2362V45.2465H64.0748C66.521 45.2465 68.5039 47.2455 68.5039 49.7116V53.5814C68.5039 56.0475 66.521 58.0465 64.0748 58.0465H60.2362V62.5116C60.2362 63.3337 59.5752 64 58.7598 64ZM29.5276 22.1767H2.95276V48.9674H29.5276V22.1767ZM64.0748 48.2233H46.3583C45.5442 48.2233 44.8819 48.8909 44.8819 49.7116V53.5814C44.8819 54.4021 45.5442 55.0698 46.3583 55.0698H64.0748C64.8889 55.0698 65.5512 54.4021 65.5512 53.5814V49.7116C65.5512 48.8909 64.8889 48.2233 64.0748 48.2233ZM38.3858 36.0186H61.2542L47.6246 23.1744C45.9285 21.5762 43.2713 21.5759 41.5754 23.1744L38.3858 26.1803V36.0186ZM72.0472 11.3116H38.3858V22.1054L39.559 20.9999C42.3858 18.336 46.8145 18.3361 49.641 20.9999L65.5782 36.0186H72.0472V11.3116Z" fill="#F84263"/>
</svg>
