<svg width="86" height="85" viewBox="0 0 86 85" fill="none" xmlns="http://www.w3.org/2000/svg">
<path fill-rule="evenodd" clip-rule="evenodd" d="M73.7773 9.93156H80.8713C83.222 9.93156 85.1276 11.8372 85.1276 14.1879V66.6833C85.1276 69.034 83.222 70.9397 80.8713 70.9397H55.333C55.6522 73.2155 56.8174 75.2875 58.5962 76.7426H59.5893C61.8696 76.7426 63.718 78.591 63.718 80.8712C63.718 83.1515 61.8696 84.9999 59.5893 84.9999H25.5383C23.2581 84.9999 21.4096 83.1515 21.4096 80.8712C21.4096 78.591 23.2581 76.7426 25.5383 76.7426H26.5456C28.3191 75.2851 29.4791 73.2134 29.7947 70.9397H4.25638C1.90565 70.9397 0 69.034 0 66.6833V14.1879C0 11.8372 1.90565 9.93156 4.25638 9.93156H11.3504V4.25638C11.3504 1.90565 13.256 0 15.6067 0H69.5209C71.8716 0 73.7773 1.90565 73.7773 4.25638V9.93156ZM71.1241 25.7937L74.4299 30.4189L75.9764 29.2981C76.6132 28.8464 76.7654 27.9651 76.3169 27.326L74.6711 25.0133C74.4518 24.7056 74.1187 24.4982 73.7459 24.4369C73.373 24.3757 72.9911 24.4657 72.6848 24.687L71.1241 25.7937ZM31.2135 27.8935L14.1879 50.5942V53.9142C14.1879 54.6977 14.8232 55.333 15.6067 55.333H69.5209C70.3045 55.333 70.9397 54.6977 70.9397 53.9142V44.919L66.7401 39.3148L51.786 49.9841C51.65 50.084 51.4958 50.1563 51.332 50.1969L43.2732 52.3535C42.151 52.6331 40.9714 52.2038 40.2916 51.2682C39.6117 50.3326 39.5677 49.0781 40.1802 48.0971L43.3725 43.3725L31.2135 27.8935ZM72.1173 32.0647L68.8115 27.4395L66.5131 29.0853L69.8047 33.7105L72.1173 32.0647ZM51.3178 46.8911L67.492 35.3563L64.2004 30.7453L48.0262 42.2801L51.3178 46.8911ZM48.6504 48.0262L46.0824 44.4366L42.5638 49.6578L48.6504 48.0262ZM45.1035 40.918L45.2311 40.7903L59.9582 30.2771L53.9142 22.2325L42.4361 37.5271L45.1035 40.918ZM69.0811 37.7115L70.9397 40.1944V36.3921L69.0811 37.7115ZM15.6067 2.83759C14.8232 2.83759 14.1879 3.4728 14.1879 4.25638V45.8696L30.0926 24.687C30.3576 24.3337 30.7719 24.1239 31.2135 24.1195C31.6501 24.1171 32.0636 24.316 32.3343 24.6586L40.6201 35.2145L52.7791 19.0118C53.0471 18.6546 53.4676 18.4443 53.9142 18.4443C54.3607 18.4443 54.7813 18.6546 55.0492 19.0118L62.2709 28.6313L70.9397 22.4453V4.25638C70.9397 3.4728 70.3045 2.83759 69.5209 2.83759H15.6067ZM60.6829 81.9648C60.9729 81.6748 61.1358 81.2814 61.1358 80.8712C61.1358 80.4611 60.9729 80.0677 60.6829 79.7777C60.3929 79.4877 59.9995 79.3248 59.5893 79.3248H25.5383C24.6842 79.3248 23.9918 80.0171 23.9918 80.8712C23.9918 81.7253 24.6842 82.4177 25.5383 82.4177H59.5893C59.9995 82.4177 60.3929 82.2548 60.6829 81.9648ZM32.3769 70.9397C32.111 73.0318 31.3311 75.0254 30.1068 76.7426H55.0208C53.7966 75.0254 53.0167 73.0318 52.7508 70.9397H32.3769ZM4.25638 68.1021H80.8713C81.6548 68.1021 82.29 67.4669 82.29 66.6833V63.8457H14.1879C13.4044 63.8457 12.7691 63.2105 12.7691 62.4269C12.7691 61.6433 13.4044 61.0081 14.1879 61.0081H82.29V14.1879C82.29 13.4044 81.6548 12.7691 80.8713 12.7691H73.7773V21.6082C75.0513 21.6863 76.2231 22.3321 76.9696 23.3675L78.6296 25.6802C79.9904 27.5927 79.5461 30.2459 77.6364 31.6107L73.7773 34.3632V53.9142C73.7773 56.2649 71.8716 58.1705 69.5209 58.1705H15.6067C13.256 58.1705 11.3504 56.2649 11.3504 53.9142V12.7691H4.25638C3.4728 12.7691 2.83759 13.4044 2.83759 14.1879V61.0081H8.51276C9.29634 61.0081 9.93156 61.6433 9.93156 62.4269C9.93156 63.2105 9.29634 63.8457 8.51276 63.8457H2.83759V66.6833C2.83759 67.4669 3.4728 68.1021 4.25638 68.1021ZM32.6323 14.1879C32.6323 18.1058 29.4562 21.2819 25.5383 21.2819C21.6204 21.2819 18.4443 18.1058 18.4443 14.1879C18.4443 10.27 21.6204 7.09397 25.5383 7.09397C29.4562 7.09397 32.6323 10.27 32.6323 14.1879ZM29.7947 14.1879C29.7947 11.8372 27.889 9.93155 25.5383 9.93155C23.1876 9.93155 21.2819 11.8372 21.2819 14.1879C21.2819 16.5387 23.1876 18.4443 25.5383 18.4443C27.889 18.4443 29.7947 16.5387 29.7947 14.1879Z" fill="#F84263"/>
</svg>
