<svg width="64" height="64" viewBox="0 0 64 64" fill="none" xmlns="http://www.w3.org/2000/svg">
<path fill-rule="evenodd" clip-rule="evenodd" d="M62.75 61.5H53.1821C53.5441 60.8299 53.75 60.0636 53.75 59.25V4.75C53.75 2.13088 51.6191 0 49 0H15C12.3809 0 10.25 2.13088 10.25 4.75V59.25C10.25 60.0636 10.4559 60.8299 10.8179 61.5H1.25C0.55975 61.5 0 62.0596 0 62.75C0 63.4404 0.55975 64 1.25 64H62.75C63.4403 64 64 63.4404 64 62.75C64 62.0596 63.4403 61.5 62.75 61.5ZM51.25 59.25C51.25 60.4906 50.2406 61.5 49 61.5H15C13.7594 61.5 12.75 60.4906 12.75 59.25V4.75C12.75 3.50938 13.7594 2.5 15 2.5H49C50.2406 2.5 51.25 3.50938 51.25 4.75V59.25ZM36.5 4H27.5C26.8097 4 26.25 4.55963 26.25 5.25C26.25 5.94037 26.8097 6.5 27.5 6.5H36.5C37.1903 6.5 37.75 5.94037 37.75 5.25C37.75 4.55963 37.1903 4 36.5 4ZM47.25 8H38.375C37.6847 8 37.125 8.55962 37.125 9.25C37.125 9.94038 37.6847 10.5 38.375 10.5H46V50.5028H18V47.0028H28.8682C29.5585 47.0028 30.1182 46.4431 30.1182 45.7528C30.1182 45.0624 29.5585 44.5028 28.8682 44.5028H18V10.5H25.375C26.0653 10.5 26.625 9.94038 26.625 9.25C26.625 8.55962 26.0653 8 25.375 8H16.75C16.0597 8 15.5 8.55962 15.5 9.25V51.7528C15.5 52.4431 16.0597 53.0028 16.75 53.0028H47.25C47.9403 53.0028 48.5 52.4431 48.5 51.7528V9.25C48.5 8.55962 47.9403 8 47.25 8ZM32.0156 8C32.3445 8 32.6669 8.13375 32.8994 8.36625C33.132 8.59875 33.2656 8.92125 33.2656 9.25C33.2656 9.57875 33.1319 9.90125 32.8994 10.1337C32.6667 10.3663 32.3444 10.5 32.0156 10.5C31.6869 10.5 31.3644 10.3663 31.132 10.1337C30.8983 9.90125 30.7656 9.57875 30.7656 9.25C30.7656 8.92125 30.8983 8.59875 31.132 8.36625C31.3644 8.13375 31.6856 8 32.0156 8ZM23.9553 32.0002L27.4823 28.4732C27.9705 27.9851 27.9705 27.1936 27.4822 26.7055C26.994 26.2173 26.2027 26.2173 25.7143 26.7055L21.3036 31.1163C20.8155 31.6044 20.8155 32.396 21.3036 32.8841L25.7143 37.2949C25.9585 37.5391 26.2783 37.6611 26.5982 37.6611C26.9181 37.6611 27.238 37.5389 27.4821 37.2949C27.9702 36.8068 27.9702 36.0153 27.4821 35.5272L23.9553 32.0002ZM38.2863 26.7055L42.6971 31.1163C43.1852 31.6044 43.1852 32.396 42.6971 32.8841L38.2863 37.2949C38.0422 37.5389 37.7223 37.6611 37.4024 37.6611C37.0826 37.6611 36.7627 37.5391 36.5186 37.2949C36.0303 36.8068 36.0303 36.0153 36.5184 35.5272L40.0454 32.0002L36.5184 28.4732C36.0303 27.9851 36.0303 27.1936 36.5184 26.7055C37.0069 26.2173 37.7982 26.2173 38.2863 26.7055ZM33.9202 24.9814C33.2541 24.8007 32.5673 25.1942 32.3865 25.8603L29.2315 37.4846C29.0506 38.1509 29.4441 38.8376 30.1103 39.0184C30.22 39.0482 30.3301 39.0624 30.4385 39.0624C30.9888 39.0624 31.4931 38.6962 31.6441 38.1396L34.7991 26.5153C34.98 25.849 34.5865 25.1623 33.9202 24.9814ZM28.75 57.2529C28.75 55.4609 30.2079 54.0029 32 54.0029C33.7921 54.0029 35.25 55.4609 35.25 57.2529C35.25 59.0449 33.7921 60.5029 32 60.5029C30.2079 60.5029 28.75 59.0449 28.75 57.2529ZM31.25 57.2529C31.25 57.6666 31.5864 58.0029 32 58.0029C32.4136 58.0029 32.75 57.6666 32.75 57.2529C32.75 56.8393 32.4136 56.5029 32 56.5029C31.5864 56.5029 31.25 56.8393 31.25 57.2529ZM34.7422 44.5024C35.0709 44.5024 35.3934 44.6362 35.6258 44.8687C35.8584 45.1012 35.9922 45.4237 35.9922 45.7524C35.9922 46.0812 35.8583 46.4037 35.6258 46.6362C35.3934 46.8687 35.0709 47.0024 34.7422 47.0024C34.4122 47.0024 34.0896 46.8687 33.8584 46.6362C33.6258 46.4037 33.4922 46.0812 33.4922 45.7524C33.4922 45.4237 33.6259 45.1012 33.8584 44.8687C34.0896 44.6362 34.4121 44.5024 34.7422 44.5024Z" fill="#F84263"/>
</svg>
