<svg width="83" height="83" viewBox="0 0 83 83" fill="none" xmlns="http://www.w3.org/2000/svg">
<path fill-rule="evenodd" clip-rule="evenodd" d="M6.91667 0H76.0833C77.9171 0.00219654 79.6751 0.73162 80.9717 2.02827C82.2684 3.32492 82.9978 5.08293 83 6.91667V76.0833C82.9978 77.9171 82.2684 79.6751 80.9717 80.9717C79.6751 82.2684 77.9171 82.9978 76.0833 83H6.91667C5.08293 82.9978 3.32492 82.2684 2.02827 80.9717C0.73162 79.6751 0.00219654 77.9171 0 76.0833V6.91667C0.00219654 5.08293 0.73162 3.32492 2.02827 2.02827C3.32492 0.73162 5.08293 0.00219654 6.91667 0ZM79.0178 79.0178C79.7961 78.2395 80.2333 77.184 80.2333 76.0833V19.3667H2.76667V76.0833C2.76667 77.184 3.2039 78.2395 3.98217 79.0178C4.76045 79.7961 5.81602 80.2333 6.91667 80.2333H76.0833C77.184 80.2333 78.2395 79.7961 79.0178 79.0178ZM2.76667 16.6H80.2333V6.91667C80.2333 5.81602 79.7961 4.76045 79.0178 3.98217C78.2395 3.2039 77.184 2.76667 76.0833 2.76667H6.91667C5.81602 2.76667 4.76045 3.2039 3.98217 3.98217C3.2039 4.76045 2.76667 5.81602 2.76667 6.91667V16.6ZM7.37771 6.23273C8.06018 5.77673 8.86254 5.53333 9.68333 5.53333C10.784 5.53333 11.8395 5.97056 12.6178 6.74884C13.3961 7.52711 13.8333 8.58268 13.8333 9.68333C13.8333 10.5041 13.5899 11.3065 13.1339 11.9889C12.6779 12.6714 12.0298 13.2033 11.2715 13.5174C10.5132 13.8315 9.67873 13.9137 8.87371 13.7536C8.06868 13.5935 7.32923 13.1982 6.74884 12.6178C6.16845 12.0374 5.7732 11.298 5.61307 10.493C5.45294 9.68793 5.53513 8.85351 5.84923 8.09519C6.16334 7.33688 6.69525 6.68874 7.37771 6.23273ZM8.91479 10.8335C9.14228 10.9855 9.40973 11.0667 9.68333 11.0667C10.0502 11.0667 10.4021 10.9209 10.6615 10.6615C10.9209 10.4021 11.0667 10.0502 11.0667 9.68333C11.0667 9.40973 10.9855 9.14228 10.8335 8.91479C10.6815 8.6873 10.4655 8.51 10.2127 8.4053C9.95994 8.3006 9.6818 8.2732 9.41346 8.32658C9.14511 8.37995 8.89863 8.5117 8.70517 8.70517C8.5117 8.89863 8.37995 9.14511 8.32658 9.41346C8.2732 9.6818 8.3006 9.95994 8.4053 10.2127C8.51 10.4655 8.6873 10.6815 8.91479 10.8335ZM20.75 5.53333C19.9292 5.53333 19.1268 5.77673 18.4444 6.23273C17.7619 6.68874 17.23 7.33688 16.9159 8.09519C16.6018 8.85351 16.5196 9.68793 16.6797 10.493C16.8399 11.298 17.2351 12.0374 17.8155 12.6178C18.3959 13.1982 19.1354 13.5935 19.9404 13.7536C20.7454 13.9137 21.5798 13.8315 22.3381 13.5174C23.0965 13.2033 23.7446 12.6714 24.2006 11.9889C24.6566 11.3065 24.9 10.5041 24.9 9.68333C24.9 8.58268 24.4628 7.52711 23.6845 6.74884C22.9062 5.97056 21.8507 5.53333 20.75 5.53333ZM20.75 11.0667C20.4764 11.0667 20.209 10.9855 19.9815 10.8335C19.754 10.6815 19.5767 10.4655 19.472 10.2127C19.3673 9.95994 19.3399 9.6818 19.3932 9.41346C19.4466 9.14511 19.5784 8.89863 19.7718 8.70517C19.9653 8.5117 20.2118 8.37995 20.4801 8.32658C20.7485 8.2732 21.0266 8.3006 21.2794 8.4053C21.5322 8.51 21.7482 8.6873 21.9002 8.91479C22.0522 9.14228 22.1333 9.40973 22.1333 9.68333C22.1333 10.0502 21.9876 10.4021 21.7282 10.6615C21.4687 10.9209 21.1169 11.0667 20.75 11.0667ZM29.511 6.23273C30.1935 5.77673 30.9959 5.53333 31.8167 5.53333C32.9173 5.53333 33.9729 5.97056 34.7512 6.74884C35.5294 7.52711 35.9667 8.58268 35.9667 9.68333C35.9667 10.5041 35.7233 11.3065 35.2673 11.9889C34.8113 12.6714 34.1631 13.2033 33.4048 13.5174C32.6465 13.8315 31.8121 13.9137 31.007 13.7536C30.202 13.5935 29.4626 13.1982 28.8822 12.6178C28.3018 12.0374 27.9065 11.298 27.7464 10.493C27.5863 9.68793 27.6685 8.85351 27.9826 8.09519C28.2967 7.33688 28.8286 6.68874 29.511 6.23273ZM31.0481 10.8335C31.2756 10.9855 31.5431 11.0667 31.8167 11.0667C32.1835 11.0667 32.5354 10.9209 32.7948 10.6615C33.0543 10.4021 33.2 10.0502 33.2 9.68333C33.2 9.40973 33.1189 9.14228 32.9669 8.91479C32.8149 8.6873 32.5988 8.51 32.346 8.4053C32.0933 8.3006 31.8151 8.2732 31.5468 8.32658C31.2785 8.37995 31.032 8.5117 30.8385 8.70517C30.645 8.89863 30.5133 9.14511 30.4599 9.41346C30.4065 9.6818 30.4339 9.95994 30.5386 10.2127C30.6433 10.4655 30.8206 10.6815 31.0481 10.8335ZM29.05 69.1667H27.4702C27.1644 67.9823 26.4749 66.9327 25.5093 66.1818C24.5437 65.431 23.3565 65.0212 22.1333 65.0167H11.0667C9.59913 65.0167 8.19171 65.5996 7.15401 66.6373C6.11631 67.675 5.53333 69.0825 5.53333 70.55C5.53333 72.0175 6.11631 73.4249 7.15401 74.4627C8.19171 75.5004 9.59913 76.0833 11.0667 76.0833H22.1333C23.3565 76.0787 24.5437 75.669 25.5093 74.9181C26.4749 74.1673 27.1644 73.1177 27.4702 71.9333H29.05C30.1506 71.9333 31.2062 71.4961 31.9845 70.7178C32.7628 69.9395 33.2 68.884 33.2 67.7833V62.25H36.1631C36.4689 63.4343 37.1585 64.484 38.1241 65.2348C39.0897 65.9857 40.2768 66.3954 41.5 66.4H52.5667C53.7898 66.3954 54.977 65.9857 55.9426 65.2348C56.9082 64.484 57.5978 63.4343 57.9036 62.25H59.4833C60.584 62.25 61.6395 61.8128 62.4178 61.0345C63.1961 60.2562 63.6333 59.2006 63.6333 58.1V51.1833H67.7833V53.7632C67.7802 54.2896 67.9287 54.8057 68.2111 55.25C68.4934 55.6942 68.8977 56.0478 69.3755 56.2685C69.7451 56.4427 70.1484 56.5333 70.5569 56.5341C71.2029 56.5327 71.8278 56.304 72.322 55.888L77.0766 51.9262C77.3882 51.6665 77.6389 51.3415 77.8109 50.9742C77.983 50.6069 78.0721 50.2063 78.0721 49.8007C78.0721 49.3951 77.983 48.9944 77.8109 48.6271C77.6389 48.2598 77.3882 47.9348 77.0766 47.6752L72.3207 43.7133C71.9168 43.377 71.4255 43.1626 70.9042 43.0953C70.383 43.028 69.8533 43.1105 69.3773 43.3333C68.9013 43.5561 68.4985 43.9099 68.2162 44.3532C67.934 44.7966 67.7838 45.3112 67.7833 45.8367V48.4167H63.6333V41.5C63.6333 40.3993 63.1961 39.3438 62.4178 38.5655C61.6395 37.7872 60.584 37.35 59.4833 37.35H57.9036C57.5978 36.1657 56.9082 35.116 55.9426 34.3652C54.977 33.6143 53.7898 33.2046 52.5667 33.2H41.5C40.2768 33.2046 39.0897 33.6143 38.1241 34.3652C37.1585 35.116 36.4689 36.1657 36.1631 37.35H33.2V31.8167C33.2 30.716 32.7628 29.6604 31.9845 28.8822C31.2062 28.1039 30.1506 27.6667 29.05 27.6667H27.4702C27.1644 26.4823 26.4749 25.4327 25.5093 24.6818C24.5437 23.931 23.3565 23.5212 22.1333 23.5167H11.0667C9.59913 23.5167 8.19171 24.0996 7.15401 25.1373C6.11631 26.175 5.53333 27.5825 5.53333 29.05C5.53333 30.5175 6.11631 31.925 7.15401 32.9627C8.19171 34.0004 9.59913 34.5833 11.0667 34.5833H22.1333C23.3565 34.5787 24.5437 34.169 25.5093 33.4182C26.4749 32.6673 27.1644 31.6177 27.4702 30.4333H29.05C29.4169 30.4333 29.7687 30.5791 30.0282 30.8385C30.2876 31.0979 30.4333 31.4498 30.4333 31.8167V48.4167H27.4702C27.1644 47.2323 26.4749 46.1827 25.5093 45.4318C24.5437 44.681 23.3565 44.2712 22.1333 44.2667H11.0667C9.59913 44.2667 8.19171 44.8496 7.15401 45.8873C6.11631 46.925 5.53333 48.3325 5.53333 49.8C5.53333 51.2675 6.11631 52.675 7.15401 53.7127C8.19171 54.7504 9.59913 55.3333 11.0667 55.3333H22.1333C23.3565 55.3287 24.5437 54.919 25.5093 54.1681C26.4749 53.4173 27.1644 52.3677 27.4702 51.1833H30.4333V67.7833C30.4333 68.1502 30.2876 68.5021 30.0282 68.7615C29.7687 69.0209 29.4169 69.1667 29.05 69.1667ZM22.1333 73.3167H11.0667C10.3329 73.3167 9.62919 73.0252 9.11034 72.5063C8.59149 71.9875 8.3 71.2838 8.3 70.55C8.3 69.8162 8.59149 69.1125 9.11034 68.5937C9.62919 68.0748 10.3329 67.7833 11.0667 67.7833H22.1333C22.8671 67.7833 23.5708 68.0748 24.0897 68.5937C24.6085 69.1125 24.9 69.8162 24.9 70.55C24.9 71.2838 24.6085 71.9875 24.0897 72.5063C23.5708 73.0252 22.8671 73.3167 22.1333 73.3167ZM70.55 45.8367L75.3059 49.8L70.55 53.7632V45.8367ZM52.5667 63.6333H41.5C40.7662 63.6333 40.0625 63.3418 39.5437 62.823C39.0248 62.3041 38.7333 61.6004 38.7333 60.8667C38.7333 60.1329 39.0248 59.4292 39.5437 58.9103C40.0625 58.3915 40.7662 58.1 41.5 58.1H52.5667C53.3004 58.1 54.0041 58.3915 54.523 58.9103C55.0418 59.4292 55.3333 60.1329 55.3333 60.8667C55.3333 61.6004 55.0418 62.3041 54.523 62.823C54.0041 63.3418 53.3004 63.6333 52.5667 63.6333ZM41.5 35.9667H52.5667C53.3004 35.9667 54.0041 36.2582 54.523 36.777C55.0418 37.2959 55.3333 37.9996 55.3333 38.7333C55.3333 39.4671 55.0418 40.1708 54.523 40.6897C54.0041 41.2085 53.3004 41.5 52.5667 41.5H41.5C40.7662 41.5 40.0625 41.2085 39.5437 40.6897C39.0248 40.1708 38.7333 39.4671 38.7333 38.7333C38.7333 37.9996 39.0248 37.2959 39.5437 36.777C40.0625 36.2582 40.7662 35.9667 41.5 35.9667ZM33.2 40.1167H36.1631C36.4689 41.301 37.1585 42.3506 38.1241 43.1015C39.0897 43.8523 40.2768 44.2621 41.5 44.2667H52.5667C53.7898 44.2621 54.977 43.8523 55.9426 43.1015C56.9082 42.3506 57.5978 41.301 57.9036 40.1167H59.4833C59.8502 40.1167 60.2021 40.2624 60.4615 40.5218C60.7209 40.7813 60.8667 41.1331 60.8667 41.5V58.1C60.8667 58.4669 60.7209 58.8187 60.4615 59.0782C60.2021 59.3376 59.8502 59.4833 59.4833 59.4833H57.9036C57.5978 58.299 56.9082 57.2494 55.9426 56.4985C54.977 55.7477 53.7898 55.3379 52.5667 55.3333H41.5C40.2768 55.3379 39.0897 55.7477 38.1241 56.4985C37.1585 57.2494 36.4689 58.299 36.1631 59.4833H33.2V40.1167ZM22.1333 31.8167H11.0667C10.3329 31.8167 9.62919 31.5252 9.11034 31.0063C8.59149 30.4875 8.3 29.7838 8.3 29.05C8.3 28.3162 8.59149 27.6125 9.11034 27.0937C9.62919 26.5748 10.3329 26.2833 11.0667 26.2833H22.1333C22.8671 26.2833 23.5708 26.5748 24.0897 27.0937C24.6085 27.6125 24.9 28.3162 24.9 29.05C24.9 29.7838 24.6085 30.4875 24.0897 31.0063C23.5708 31.5252 22.8671 31.8167 22.1333 31.8167ZM22.1333 52.5667H11.0667C10.3329 52.5667 9.62919 52.2752 9.11034 51.7563C8.59149 51.2375 8.3 50.5338 8.3 49.8C8.3 49.0662 8.59149 48.3625 9.11034 47.8437C9.62919 47.3248 10.3329 47.0333 11.0667 47.0333H22.1333C22.8671 47.0333 23.5708 47.3248 24.0897 47.8437C24.6085 48.3625 24.9 49.0662 24.9 49.8C24.9 50.5338 24.6085 51.2375 24.0897 51.7563C23.5708 52.2752 22.8671 52.5667 22.1333 52.5667ZM48.4167 74.7H52.5667C52.9336 74.7 53.2854 74.8457 53.5448 75.1052C53.8043 75.3646 53.95 75.7165 53.95 76.0833C53.95 76.4502 53.8043 76.8021 53.5448 77.0615C53.2854 77.3209 52.9336 77.4667 52.5667 77.4667H48.4167C48.0498 77.4667 47.6979 77.3209 47.4385 77.0615C47.1791 76.8021 47.0333 76.4502 47.0333 76.0833C47.0333 75.7165 47.1791 75.3646 47.4385 75.1052C47.6979 74.8457 48.0498 74.7 48.4167 74.7ZM67.7833 74.7H58.1C57.7331 74.7 57.3813 74.8457 57.1218 75.1052C56.8624 75.3646 56.7167 75.7165 56.7167 76.0833C56.7167 76.4502 56.8624 76.8021 57.1218 77.0615C57.3813 77.3209 57.7331 77.4667 58.1 77.4667H67.7833C68.1502 77.4667 68.5021 77.3209 68.7615 77.0615C69.0209 76.8021 69.1666 76.4502 69.1666 76.0833C69.1666 75.7165 69.0209 75.3646 68.7615 75.1052C68.5021 74.8457 68.1502 74.7 67.7833 74.7ZM73.3167 74.7H76.0833C76.4502 74.7 76.8021 74.8457 77.0615 75.1052C77.3209 75.3646 77.4667 75.7165 77.4667 76.0833C77.4667 76.4502 77.3209 76.8021 77.0615 77.0615C76.8021 77.3209 76.4502 77.4667 76.0833 77.4667H73.3167C72.9498 77.4667 72.5979 77.3209 72.3385 77.0615C72.0791 76.8021 71.9333 76.4502 71.9333 76.0833C71.9333 75.7165 72.0791 75.3646 72.3385 75.1052C72.5979 74.8457 72.9498 74.7 73.3167 74.7ZM76.0833 63.6333H69.1667C68.7998 63.6333 68.4479 63.7791 68.1885 64.0385C67.9291 64.2979 67.7833 64.6498 67.7833 65.0167C67.7833 65.3835 67.9291 65.7354 68.1885 65.9948C68.4479 66.2542 68.7998 66.4 69.1667 66.4H76.0833C76.4502 66.4 76.8021 66.2542 77.0615 65.9948C77.3209 65.7354 77.4667 65.3835 77.4667 65.0167C77.4667 64.6498 77.3209 64.2979 77.0615 64.0385C76.8021 63.7791 76.4502 63.6333 76.0833 63.6333ZM59.4833 69.1667H76.0833C76.4502 69.1667 76.8021 69.3124 77.0615 69.5718C77.3209 69.8313 77.4667 70.1831 77.4667 70.55C77.4667 70.9169 77.3209 71.2687 77.0615 71.5282C76.8021 71.7876 76.4502 71.9333 76.0833 71.9333H59.4833C59.1164 71.9333 58.7646 71.7876 58.5052 71.5282C58.2457 71.2687 58.1 70.9169 58.1 70.55C58.1 70.1831 58.2457 69.8313 58.5052 69.5718C58.7646 69.3124 59.1164 69.1667 59.4833 69.1667Z" fill="#F36B83"/>
</svg>
