<svg width="63" height="64" viewBox="0 0 63 64" fill="none" xmlns="http://www.w3.org/2000/svg">
<path fill-rule="evenodd" clip-rule="evenodd" d="M56.0493 9.43637C57.2698 9.1093 58.5449 9.27701 59.6394 9.90897C61.8986 11.2134 62.6753 14.1125 61.371 16.3716L60.1727 18.4472L50.2895 35.5653C50.2969 35.6199 50.302 35.675 50.302 35.7316V59.5111C50.302 61.8452 48.4031 63.7441 46.069 63.7441H4.23691C1.90278 63.7441 0.00390625 61.8452 0.00390625 59.5111V4.23301C0.00390625 1.89888 1.90278 0 4.23691 0H46.069C48.4031 0 50.302 1.89888 50.302 4.23301V16.6202L51.9784 13.7164V13.7163V13.7162L53.1767 11.6408C53.8084 10.5463 54.8286 9.76343 56.0493 9.43637ZM58.3944 12.0653C57.876 11.766 57.272 11.6863 56.6938 11.8415C56.1155 11.9963 55.6325 12.3672 55.333 12.8856L54.7572 13.883L58.6388 16.124L59.2146 15.1266C59.8325 14.0564 59.4646 12.6832 58.3944 12.0653ZM37.6584 43.4991L41.5399 45.7401L57.3938 18.2804L53.5122 16.0394L37.6584 43.4991ZM39.7638 47.5898L36.9446 45.9621L36.3758 50.2028L39.7638 47.5898ZM46.0689 61.2541C47.03 61.2541 47.8119 60.4722 47.8119 59.5111V39.8567L43.0737 48.0633C42.9925 48.2039 42.8845 48.3274 42.7559 48.4266L35.4997 54.0229C35.2769 54.1947 35.0086 54.2821 34.7392 54.2821C34.5251 54.2821 34.3103 54.2269 34.1168 54.1152C33.6797 53.8629 33.4383 53.3717 33.5054 52.8715L34.7238 43.7892C34.7454 43.6282 34.7983 43.473 34.8795 43.3323L36.0333 41.3341H19.0679C18.3804 41.3341 17.8229 40.7767 17.8229 40.0891C17.8229 39.4014 18.3804 38.8441 19.0679 38.8441H37.4709L47.8126 20.9313C47.8126 20.9262 47.8119 20.9213 47.8119 20.916V4.23301C47.8119 3.27186 47.03 2.49 46.0689 2.49H4.23679C3.27565 2.49 2.49379 3.27186 2.49379 4.23301V59.5111C2.49379 60.4722 3.27565 61.2541 4.23679 61.2541H46.0689ZM11.1161 5.47803H15.2246C15.9122 5.47803 16.4696 6.03541 16.4696 6.72303C16.4696 7.41064 15.9121 7.96803 15.2246 7.96803H14.4154V14.691C14.4154 15.3787 13.8578 15.936 13.1703 15.936C12.4829 15.936 11.9253 15.3787 11.9253 14.691V7.96803H11.1161C10.4286 7.96803 9.87109 7.41064 9.87109 6.72303C9.87109 6.03541 10.4286 5.47803 11.1161 5.47803ZM20.5141 15.936H22.3216C23.0091 15.936 23.5666 15.3787 23.5666 14.691C23.5666 14.0034 23.0091 13.446 22.3216 13.446H20.5141C20.3565 13.446 20.2283 13.3178 20.2283 13.1602V11.952H21.8459C22.5334 11.952 23.0909 11.3946 23.0909 10.707C23.0909 10.0194 22.5334 9.46203 21.8459 9.46203H20.2283V8.25388C20.2283 8.09627 20.3565 7.96803 20.5141 7.96803H22.3216C23.0091 7.96803 23.5666 7.41064 23.5666 6.72303C23.5666 6.03541 23.0091 5.47803 22.3216 5.47803H20.5141C18.9835 5.47803 17.7383 6.72328 17.7383 8.25388V13.1602C17.7383 14.6908 18.9835 15.936 20.5141 15.936ZM28.9175 13.446H26.7802C26.0927 13.446 25.5352 14.0034 25.5352 14.691C25.5352 15.3787 26.0927 15.936 26.7802 15.936H28.9175C30.7024 15.936 32.1545 14.4839 32.1545 12.699C32.1545 10.9142 30.7024 9.46203 28.9175 9.46203H28.7722C28.3602 9.46203 28.0252 9.127 28.0252 8.71503C28.0252 8.30306 28.3602 7.96803 28.7722 7.96803H30.2054C30.8929 7.96803 31.4504 7.41064 31.4504 6.72303C31.4504 6.03541 30.8929 5.47803 30.2054 5.47803H28.7722C26.9872 5.47803 25.5352 6.9302 25.5352 8.71503C25.5352 10.4999 26.9872 11.952 28.7722 11.952H28.9175C29.3294 11.952 29.6645 12.2871 29.6645 12.699C29.6645 13.111 29.3294 13.446 28.9175 13.446ZM35.0809 7.96803H35.8902V14.691C35.8902 15.3787 36.4477 15.936 37.1352 15.936C37.8227 15.936 38.3802 15.3787 38.3802 14.691V7.96803H39.1894C39.8769 7.96803 40.4344 7.41064 40.4344 6.72303C40.4344 6.03541 39.8769 5.47803 39.1894 5.47803H35.0809C34.3934 5.47803 33.8359 6.03541 33.8359 6.72303C33.8359 7.41064 34.3934 7.96803 35.0809 7.96803ZM9.15125 20.916H14.1313C14.8189 20.916 15.3763 21.4734 15.3763 22.161V27.141C15.3763 27.8286 14.8187 28.386 14.1313 28.386H9.15125C8.46376 28.386 7.90625 27.8286 7.90625 27.141V22.161C7.90625 21.4734 8.46376 20.916 9.15125 20.916ZM10.3963 25.896H12.8863V23.406H10.3963V25.896ZM39.4219 27.141C39.4219 27.4684 39.555 27.7896 39.7867 28.0212C40.0184 28.2528 40.3394 28.386 40.6669 28.386C40.9943 28.386 41.3155 28.2528 41.547 28.0212C41.7798 27.7896 41.9119 27.4684 41.9119 27.141C41.9119 26.8136 41.7798 26.4924 41.547 26.2608C41.3155 26.0292 40.9954 25.896 40.6669 25.896C40.3394 25.896 40.0182 26.0292 39.7867 26.2608C39.555 26.4924 39.4219 26.8136 39.4219 27.141ZM19.0692 25.896H35.69C36.3776 25.896 36.935 26.4534 36.935 27.141C36.935 27.8286 36.3775 28.386 35.69 28.386H19.0692C18.3817 28.386 17.8242 27.8286 17.8242 27.141C17.8242 26.4534 18.3817 25.896 19.0692 25.896ZM14.1313 33.8643H9.15125C8.46376 33.8643 7.90625 34.4216 7.90625 35.1093V40.0893C7.90625 40.7769 8.46376 41.3343 9.15125 41.3343H14.1313C14.8187 41.3343 15.3763 40.7769 15.3763 40.0893V35.1093C15.3763 34.4216 14.8189 33.8643 14.1313 33.8643ZM12.8863 38.8443H10.3963V36.3543H12.8863V38.8443ZM9.15125 46.812H14.1313C14.8189 46.812 15.3763 47.3694 15.3763 48.057V53.037C15.3763 53.7246 14.8187 54.282 14.1313 54.282H9.15125C8.46376 54.282 7.90625 53.7246 7.90625 53.037V48.057C7.90625 47.3694 8.46376 46.812 9.15125 46.812ZM10.3963 51.792H12.8863V49.302H10.3963V51.792ZM29.7607 51.792H19.0692C18.3817 51.792 17.8242 52.3494 17.8242 53.037C17.8242 53.7246 18.3817 54.282 19.0692 54.282H29.7607C30.4482 54.282 31.0057 53.7246 31.0057 53.037C31.0057 52.3494 30.4483 51.792 29.7607 51.792Z" fill="#F84263"/>
</svg>
