<svg width="82" height="82" viewBox="0 0 82 82" fill="none" xmlns="http://www.w3.org/2000/svg">
<path fill-rule="evenodd" clip-rule="evenodd" d="M75.1666 0H6.83339C3.06123 0.00448438 0.00448438 3.06123 0 6.83339V75.1668C0.00448438 78.9388 3.06123 81.9955 6.83339 82H75.1668C78.9388 81.9955 81.9955 78.9388 82.0002 75.1666V6.83339C81.9955 3.06123 78.9388 0.00448438 75.1666 0ZM2.73339 8.2H35.5334C36.2882 8.2 36.9 8.81196 36.9 9.56661V12.3C36.9 14.5643 38.7357 16.4 41 16.4H79.2666V19.1334H2.73339V8.2ZM6.83339 2.73339H75.1668C77.4311 2.73339 79.2668 4.5691 79.2668 6.83339V13.6668H41C40.2452 13.6668 39.6334 13.055 39.6334 12.3002V9.56661C39.6334 7.30232 37.7977 5.46661 35.5334 5.46661H2.98483C3.56187 3.83446 5.1021 2.74043 6.83339 2.73339ZM6.83339 79.2666C4.5691 79.2666 2.73339 77.4309 2.73339 75.1666V21.8666H79.2668V75.1666C79.2666 77.4311 77.4311 79.2666 75.1666 79.2666H6.83339ZM23.2334 12.3H8.2C7.44518 12.3 6.83339 12.912 6.83339 13.6666C6.83339 14.4213 7.44534 15.0332 8.2 15.0332H23.2334C23.9882 15.0332 24.6 14.4213 24.6 13.6666C24.6 12.912 23.988 12.3 23.2334 12.3ZM31.8338 11.3338C32.3674 10.8003 33.2326 10.8003 33.7662 11.3338C34.2997 11.8674 34.2997 12.7326 33.7662 13.2662L33.3658 13.6666L33.7662 14.067C34.2842 14.6032 34.2768 15.4556 33.7496 15.9828C33.2225 16.51 32.37 16.5174 31.8338 15.9994L31.4334 15.5991L31.033 15.9994C30.6898 16.3547 30.1818 16.4972 29.7039 16.3721C29.2261 16.247 28.8529 15.874 28.7279 15.3961C28.6028 14.9182 28.7453 14.4102 29.1006 14.067L29.5009 13.6666L29.1006 13.2662C28.5826 12.73 28.59 11.8777 29.1172 11.3504C29.6443 10.8232 30.4968 10.8158 31.033 11.3338L31.4334 11.7342L31.8338 11.3338ZM72.4334 9.56661C73.1881 9.56661 73.8 8.95476 73.8 8.2C73.8 7.44524 73.1881 6.83339 72.4334 6.83339C71.6786 6.83339 71.0668 7.44524 71.0668 8.2C71.0668 8.95476 71.6786 9.56661 72.4334 9.56661ZM68.3332 8.2C68.3332 8.95476 67.7214 9.56661 66.9666 9.56661C66.2119 9.56661 65.6 8.95476 65.6 8.2C65.6 7.44524 66.2119 6.83339 66.9666 6.83339C67.7214 6.83339 68.3332 7.44524 68.3332 8.2ZM61.5 9.56661C62.2548 9.56661 62.8666 8.95476 62.8666 8.2C62.8666 7.44524 62.2548 6.83339 61.5 6.83339C60.7452 6.83339 60.1334 7.44524 60.1334 8.2C60.1334 8.95476 60.7452 9.56661 61.5 9.56661ZM33.7496 39.2162C33.2225 39.7434 32.37 39.7508 31.8338 39.2328L26.3672 33.7662C25.8337 33.2326 25.8337 32.3674 26.3672 31.8338L31.8338 26.3672C32.37 25.8492 33.2223 25.8566 33.7496 26.3838C34.2768 26.9109 34.2842 27.7634 33.7662 28.2996L29.2658 32.8L33.7662 37.3004C34.2842 37.8366 34.2768 38.6889 33.7496 39.2162ZM48.2338 39.2328C48.7674 39.7663 49.6326 39.7663 50.1662 39.2328L55.6328 33.7662C56.1663 33.2326 56.1663 32.3674 55.6328 31.8338L50.1662 26.3672C49.63 25.8492 48.7775 25.8566 48.2504 26.3838C47.7232 26.9111 47.7158 27.7634 48.2338 28.2996L52.7342 32.8L48.2338 37.3004C47.7003 37.8342 47.7003 38.6992 48.2338 39.2328ZM38.6997 39.5706C38.3557 39.6854 37.9801 39.6589 37.6558 39.4966C37.3313 39.3347 37.0843 39.0506 36.9695 38.7064C36.8547 38.3624 36.8813 37.9868 37.0435 37.6625L42.5101 26.7291C42.8476 26.0536 43.6687 25.7794 44.3442 26.1168C45.0198 26.4543 45.294 27.2754 44.9565 27.9509L39.4899 38.8843C39.328 39.209 39.0437 39.4558 38.6997 39.5706ZM13.6666 45.1H12.3C11.5452 45.1 10.9334 45.712 10.9334 46.4666C10.9334 47.2214 11.5453 47.8332 12.3 47.8332H13.6666C14.4214 47.8332 15.0332 47.2213 15.0332 46.4666C15.0334 45.712 14.4214 45.1 13.6666 45.1ZM12.3 50.5666H13.6666C14.4214 50.5666 15.0332 51.1784 15.0332 51.9332C15.0332 52.688 14.4214 53.2998 13.6666 53.2998H12.3C11.5453 53.2998 10.9334 52.6879 10.9334 51.9332C10.9334 51.1786 11.5452 50.5666 12.3 50.5666ZM13.6666 56.0334H12.3C11.5452 56.0334 10.9334 56.6452 10.9334 57.4C10.9334 58.1548 11.5453 58.7666 12.3 58.7666H13.6666C14.4214 58.7666 15.0332 58.1548 15.0332 57.4C15.0332 56.6452 14.4214 56.0334 13.6666 56.0334ZM12.3 61.5H13.6666C14.4214 61.5 15.0332 62.1118 15.0332 62.8666C15.0332 63.6214 14.4214 64.2332 13.6666 64.2332H12.3C11.5453 64.2332 10.9334 63.6214 10.9334 62.8666C10.9334 62.1118 11.5452 61.5 12.3 61.5ZM13.6666 66.9666H12.3C11.5452 66.9666 10.9334 67.5784 10.9334 68.3332C10.9334 69.088 11.5453 69.6998 12.3 69.6998H13.6666C14.4214 69.6998 15.0332 69.088 15.0332 68.3332C15.0332 67.5784 14.4214 66.9666 13.6666 66.9666ZM12.3 72.4334H13.6666C14.4214 72.4334 15.0332 73.0452 15.0332 73.8C15.0332 74.5548 14.4214 75.1666 13.6666 75.1666H12.3C11.5453 75.1666 10.9334 74.5548 10.9334 73.8C10.9334 73.0452 11.5452 72.4334 12.3 72.4334ZM19.1334 47.8334H43.7334C44.4882 47.8334 45.1 47.2214 45.1 46.4668C45.1 45.712 44.4882 45.1002 43.7334 45.1002H19.1334C18.3786 45.1002 17.7668 45.7121 17.7668 46.4668C17.7666 47.2214 18.3786 47.8334 19.1334 47.8334ZM43.7334 64.2334H19.1334C18.3786 64.2334 17.7668 63.6214 17.7668 62.8666C17.7668 62.1118 18.3786 61.5 19.1334 61.5H43.7334C44.4882 61.5 45.1 62.112 45.1 62.8668C45.1 63.6216 44.4882 64.2334 43.7334 64.2334ZM64.2334 61.5H49.2C48.4452 61.5 47.8334 62.1118 47.8334 62.8666C47.8334 63.6214 48.4452 64.2332 49.2 64.2332H64.2334C64.9882 64.2332 65.6 63.6214 65.6 62.8666C65.6 62.1118 64.9882 61.5 64.2334 61.5ZM19.1334 72.4334H39.6334C40.3882 72.4334 41 73.0452 41 73.8C41 74.5548 40.3882 75.1666 39.6334 75.1666H19.1334C18.3787 75.1666 17.7668 74.5548 17.7668 73.8C17.7668 73.0452 18.3786 72.4334 19.1334 72.4334ZM57.4 72.4334H45.1C44.3452 72.4334 43.7334 73.0452 43.7334 73.8C43.7334 74.5548 44.3452 75.1666 45.1 75.1666H57.4C58.1548 75.1666 58.7666 74.5548 58.7666 73.8C58.7666 73.0452 58.1548 72.4334 57.4 72.4334ZM39.6334 58.7666H19.1334C18.3786 58.7666 17.7668 58.1548 17.7668 57.4C17.7668 56.6452 18.3786 56.0334 19.1334 56.0334H39.6334C40.3882 56.0334 41 56.6452 41 57.4C41 58.1548 40.3882 58.7666 39.6334 58.7666ZM19.1334 53.3H31.4334C32.1882 53.3 32.8 52.6882 32.8 51.9334C32.8 51.1786 32.188 50.5668 31.4334 50.5668H19.1334C18.3786 50.5668 17.7668 51.1787 17.7668 51.9334C17.7668 52.688 18.3786 53.3 19.1334 53.3ZM49.2 50.5668C49.9548 50.5668 50.5666 51.1786 50.5666 51.9334C50.5666 52.6882 49.9548 53.3 49.2 53.3H36.9C36.1452 53.3 35.5334 52.688 35.5334 51.9334C35.5334 51.1787 36.1452 50.5668 36.9 50.5668H49.2ZM19.1334 69.7H38.2668C39.0216 69.7 39.6334 69.0882 39.6334 68.3334C39.6334 67.5786 39.0214 66.9668 38.2668 66.9668H19.1334C18.3786 66.9668 17.7668 67.5786 17.7668 68.3334C17.7668 69.0882 18.3786 69.7 19.1334 69.7ZM50.5666 68.3334C50.5666 69.0882 49.9548 69.7 49.2 69.7H43.7334C42.9786 69.7 42.3668 69.0882 42.3668 68.3334C42.3668 67.5786 42.9786 66.9668 43.7334 66.9668H49.2C49.9548 66.9668 50.5666 67.5786 50.5666 68.3334ZM45.1 58.7666H53.3C54.0548 58.7666 54.6666 58.1548 54.6666 57.4C54.6666 56.6452 54.0548 56.0334 53.3 56.0334H45.1C44.3452 56.0334 43.7334 56.6452 43.7334 57.4C43.7334 58.1548 44.3452 58.7666 45.1 58.7666ZM54.6668 50.5666H64.2334C64.9882 50.5666 65.6 51.1784 65.6 51.9332C65.6 52.688 64.9882 53.2998 64.2334 53.2998H54.6668C53.912 53.2998 53.3002 52.6879 53.3002 51.9332C53.3002 51.1786 53.912 50.5666 54.6668 50.5666Z" fill="#F84263"/>
</svg>
