<svg width="57" height="68" viewBox="0 0 57 68" fill="none" xmlns="http://www.w3.org/2000/svg">
<path fill-rule="evenodd" clip-rule="evenodd" d="M54.4181 29.6778L6.72652 0.875146C5.76498 0.294493 4.81377 0 3.89933 0C1.95853 0 0 1.44429 0 4.67075V63.0793C0 66.296 1.94636 67.7359 3.87525 67.7362H3.87565C4.79445 67.7362 5.75056 67.4364 6.71726 66.8453L54.4403 37.6581C56.0714 36.6606 57.0043 35.2036 57 33.6608C56.9956 32.1179 56.0547 30.6661 54.4181 29.6778ZM40.4013 24.4423L33.6505 31.7384L9.31227 5.66655L40.4013 24.4423ZM3.1877 64.6614C2.81806 64.2349 2.76475 63.4751 2.76475 63.0793V4.67075C2.76475 4.20321 2.8301 3.52942 3.15344 3.12076L31.7677 33.773L3.1877 64.6614ZM9.51627 61.8926L33.6594 35.7994L40.3906 43.0099L9.51627 61.8926ZM52.9979 35.2995L42.7983 41.5376L35.542 33.7646L42.8175 25.9017L52.9887 32.0445C53.7793 32.522 54.2336 33.1138 54.2352 33.6684C54.2368 34.223 53.7858 34.8174 52.9979 35.2995ZM7.023 23.4365C6.25951 23.4365 5.64062 24.0554 5.64062 24.8189V25.4243C5.64062 26.1878 6.25951 26.8067 7.023 26.8067C7.78648 26.8067 8.40537 26.1878 8.40537 25.4243V24.8189C8.40537 24.0554 7.78648 23.4365 7.023 23.4365ZM5.64062 29.7984C5.64062 29.0349 6.25951 28.416 7.023 28.416C7.78648 28.416 8.40537 29.0349 8.40537 29.7984V42.931C8.40537 43.6945 7.78648 44.3134 7.023 44.3134C6.25951 44.3134 5.64062 43.6945 5.64062 42.931V29.7984Z" fill="#F84263"/>
</svg>
