<svg width="82" height="82" viewBox="0 0 82 82" fill="none" xmlns="http://www.w3.org/2000/svg">
<path fill-rule="evenodd" clip-rule="evenodd" d="M81.9998 16.4C81.9966 19.4178 79.5511 21.8634 76.5332 21.8666V21.8667H75.1671V25.9667H76.5337C79.5515 25.9699 81.9971 28.4155 82.0003 31.4333V42.3667C81.9971 45.3845 79.5515 47.8301 76.5337 47.8333H75.1671V51.9333H76.5337C79.5515 51.9365 81.9971 54.3821 82.0003 57.3999V68.3333C81.993 70.8192 80.3076 72.9863 77.9003 73.6059V77.2166C77.9003 79.8584 75.7587 82 73.117 82C70.4752 82 68.3336 79.8584 68.3336 77.2166V73.8H63.5582C64.0015 74.9616 64.2304 76.194 64.2336 77.4375V80.6332C64.2336 80.9958 64.0896 81.3435 63.8334 81.5998C63.5769 81.8562 63.2292 82.0002 62.8668 82H19.1335C18.7709 82 18.4232 81.856 18.167 81.5998C17.9106 81.3434 17.7666 80.9957 17.7667 80.6332V77.2272C17.7717 76.0584 17.9772 74.8992 18.3744 73.7999H13.6667V77.2165C13.6667 79.8582 11.5251 81.9998 8.88337 81.9998C6.2416 81.9998 4.09999 79.8582 4.09999 77.2166V73.6059C1.69269 72.9863 0.00736717 70.819 0 68.3333V57.3999C0.00320312 54.3821 2.44878 51.9365 5.4666 51.9333H6.83321V47.8333H5.4666C2.44878 47.8301 0.00320312 45.3845 0 42.3667V31.4333C0.00320312 28.4155 2.44878 25.9698 5.4666 25.9666H6.83321V21.8666H5.4666C2.44878 21.8634 0.00320312 19.4178 0 16.4V5.4666C0.00320312 2.44878 2.44878 0.00320312 5.4666 0H76.5332C79.5511 0.00320312 81.9966 2.44878 81.9998 5.4666V16.4ZM2.73322 42.3665C2.73498 43.8754 3.95777 45.0982 5.4666 45.0999H23.2333V36.444C23.2348 33.7557 23.8612 31.1045 25.0628 28.6998H5.4666C3.95777 28.7015 2.73498 29.9243 2.73322 31.4332V42.3665ZM53.2999 46.4665H56.0333L56.0346 46.46L56.0333 40.9999H53.2999V46.4665ZM72.4331 47.8333H58.3863C57.902 48.6759 57.0053 49.1967 56.0334 49.1999H53.3001V50.1461C53.2997 50.2438 53.2895 50.341 53.2693 50.4365C53.1585 50.9456 53.0241 51.4455 52.8736 51.9333H72.4331V47.8333ZM56.0336 38.2665L56.0333 36.4441C56.0792 28.4525 49.648 21.9314 41.6567 21.8666H40.3434C32.3518 21.9314 25.9206 28.4525 25.9667 36.4441L25.9664 38.2665H28.6999V35.4978C28.4929 32.8661 29.3282 30.2583 31.0262 28.2368C33.1576 25.8239 36.5128 24.6 40.9999 24.6C45.487 24.6 48.8423 25.8239 50.9738 28.2368C52.3937 29.8942 53.215 31.9812 53.3057 34.1619L53.3066 34.1665L53.3061 34.169C53.3337 34.6115 53.3316 35.0554 53.2999 35.4978V38.2665H56.0336ZM72.4331 21.8666H50.8471C52.5411 22.9662 54.0294 24.3538 55.2448 25.9666H72.4331V21.8666ZM28.6999 50.1461V49.1999H25.9666V51.3293C25.8983 52.3399 26.6548 53.2177 27.6642 53.2999H29.6011C29.2384 52.3691 28.9474 51.4118 28.7307 50.4365C28.7104 50.341 28.7001 50.2436 28.6999 50.1461ZM25.9666 40.9999V46.4665H28.6999V40.9999H25.9666ZM9.5666 25.9666H26.755C27.9704 24.3538 29.4588 22.9662 31.1526 21.8666H9.5666V25.9666ZM9.5666 51.9333H23.2907C23.2591 51.7333 23.2401 51.5316 23.2332 51.3293V47.8333H9.5666V51.9333ZM8.88337 79.2665C10.0155 79.2665 10.9334 78.3486 10.9334 77.2165V73.7999H6.83337V77.2165C6.83337 78.3486 7.75123 79.2665 8.88337 79.2665ZM5.4666 71.0665H12.3H19.8496C20.6004 70.0844 21.5375 69.2601 22.6073 68.6408L31.4706 63.5225C32.2341 63.0643 32.6941 62.2326 32.6758 61.3423V59.004C32.0078 58.053 31.4005 57.0608 30.8579 56.0331H27.6642C26.481 56.027 25.3528 55.5325 24.5466 54.6665H5.4666C3.95777 54.6683 2.73498 55.8911 2.73322 57.3999V68.3331C2.73498 69.8421 3.95777 71.0647 5.4666 71.0665ZM20.5 77.2272V79.2665V79.2673H61.4999L61.4996 77.4381C61.5236 74.8117 60.1141 72.3812 57.8227 71.0974L49.2516 66.0531C47.5852 65.1242 46.5631 63.3556 46.5903 61.448V58.9195C46.5881 58.4073 46.7473 57.9076 47.0455 57.4913C48.0875 56.0226 48.964 54.4434 49.6592 52.7823L49.6709 52.7554C50.0454 51.8622 50.3449 50.9394 50.5664 49.9965V35.4283C50.5667 35.3716 50.5702 35.315 50.5771 35.2588C50.6043 34.9094 50.6037 34.5585 50.575 34.2092C50.5748 34.202 50.5728 34.1954 50.5708 34.1888C50.5686 34.1818 50.5665 34.1747 50.5665 34.167L50.5702 34.1494C50.4755 32.6297 49.8908 31.1817 48.9036 30.0224C47.3113 28.2385 44.6528 27.3337 40.9999 27.3337C37.3309 27.3337 34.6643 28.2465 33.0762 30.0462C31.8797 31.5088 31.2879 33.3738 31.4226 35.2587C31.4295 35.3149 31.4332 35.3714 31.4333 35.4281V49.9964C31.7027 51.1317 32.0818 52.2381 32.565 53.3002H36.9691C37.2957 51.7105 38.6938 50.5688 40.3167 50.5668H42.8432C44.7293 50.5688 46.2578 52.0973 46.2598 53.9834V55.3501C46.2578 57.2362 44.7293 58.7647 42.8432 58.7667H40.3167C38.6938 58.7647 37.2955 57.623 36.969 56.0333H33.9973C34.4015 56.6966 34.7532 57.213 34.9513 57.488C35.2511 57.9045 35.4114 58.4053 35.4092 58.9187V61.3423C35.4273 63.2118 34.4436 64.948 32.8307 65.8934L23.9713 71.0098C21.7875 72.3143 20.4646 74.6838 20.5 77.2272ZM39.6333 53.9833V55.3499C39.6338 55.7271 39.9394 56.0328 40.3167 56.0333H42.8432C43.2203 56.0328 43.5261 55.7271 43.5265 55.3499V53.9833C43.5261 53.6061 43.2203 53.3004 42.8432 53.2999H40.3167C39.9394 53.3004 39.6338 53.6061 39.6333 53.9833ZM73.1165 79.2665C74.2486 79.2665 75.1665 78.3486 75.1665 77.2165V73.7999H71.0665V77.2165C71.0665 78.3486 71.9843 79.2665 73.1165 79.2665ZM79.2666 57.3999C79.2649 55.8909 78.0421 54.6683 76.5332 54.6665V54.6667H51.8212C51.1226 56.1854 50.2867 57.6374 49.324 59.0042V61.4472C49.3027 62.3647 49.7893 63.219 50.5893 63.6687L59.1576 68.7117C60.2519 69.2987 61.2174 70.0995 61.9962 71.0666H76.5332C78.0422 71.0649 79.2649 69.8421 79.2666 68.3333V57.3999ZM79.2666 31.4333C79.2649 29.9243 78.0421 28.7017 76.5332 28.6999V28.7001H56.937C58.1387 31.1048 58.7651 33.7561 58.7665 36.4443V45.1001H76.5332C78.0422 45.0983 79.2649 43.8755 79.2666 42.3667V31.4333ZM2.73322 16.4C2.73498 17.909 3.95777 19.1316 5.4666 19.1334H76.5331C78.0421 19.1316 79.2647 17.9088 79.2665 16.4V5.4666C79.2647 3.95777 78.0419 2.73498 76.5331 2.73322H5.4666C3.95777 2.73498 2.73498 3.95777 2.73322 5.4666V16.4ZM10.9307 32.8C8.66637 32.8 6.83066 34.6357 6.83066 36.9C6.83066 39.1643 8.66621 41 10.9307 41C13.194 40.9976 15.0282 39.1633 15.0306 36.9C15.0306 34.6357 13.1949 32.8 10.9307 32.8ZM10.9307 38.2666C10.1762 38.2658 9.56469 37.6545 9.56405 36.9C9.56405 36.1452 10.1758 35.5334 10.9307 35.5334C11.6855 35.5334 12.2973 36.1452 12.2973 36.9C12.2973 37.6548 11.6853 38.2666 10.9307 38.2666ZM10.9307 58.7663C8.66637 58.7663 6.83066 60.602 6.83066 62.8663C6.83066 65.1306 8.66621 66.9663 10.9307 66.9663C13.1951 66.9663 15.0306 65.1306 15.0306 62.8663C15.0281 60.603 13.194 58.7689 10.9307 58.7663ZM10.9307 64.2331C10.1758 64.2331 9.56405 63.6211 9.56405 62.8665C9.56405 62.1117 10.1758 61.4999 10.9307 61.4999C11.6855 61.4999 12.2973 62.1118 12.2973 62.8665C12.2965 63.6208 11.6852 64.2323 10.9307 64.2331ZM53.2973 61.5001H73.7972C74.552 61.5001 75.1638 60.8883 75.1638 60.1334C75.1638 59.3786 74.552 58.7668 73.7972 58.7668H53.2973C52.5425 58.7668 51.9307 59.3786 51.9307 60.1334C51.9307 60.8883 52.5425 61.5001 53.2973 61.5001ZM60.136 64.2332H73.8025C74.5574 64.2332 75.1691 64.845 75.1691 65.5998C75.1691 66.3546 74.5574 66.9664 73.8025 66.9664H60.136C59.3811 66.9664 58.7693 66.3546 58.7693 65.5998C58.7693 64.845 59.3811 64.2332 60.136 64.2332ZM73.8 35.5332H62.8666C62.112 35.5332 61.5 34.9213 61.5 34.1666C61.5 33.412 62.1118 32.8 62.8666 32.8H73.8C74.5548 32.8 75.1666 33.4118 75.1666 34.1666C75.1666 34.9213 74.5548 35.5332 73.8 35.5332ZM62.8666 41.0001H73.8C74.5548 41.0001 75.1666 40.3883 75.1666 39.6334C75.1666 38.8786 74.5548 38.2668 73.8 38.2668H62.8666C62.1118 38.2668 61.5 38.8786 61.5 39.6334C61.5 40.3883 62.112 41.0001 62.8666 41.0001ZM10.9307 6.83342C8.66637 6.83342 6.83066 8.66896 6.83066 10.9334C6.83066 13.1979 8.66621 15.0334 10.9307 15.0334C13.1951 15.0334 15.0306 13.1977 15.0306 10.9334C15.0281 8.67008 13.194 6.83582 10.9307 6.83342ZM10.9307 12.3C10.1758 12.3 9.56405 11.6882 9.56405 10.9334C9.56405 10.1786 10.1758 9.5668 10.9307 9.5668C11.6855 9.5668 12.2973 10.1786 12.2973 10.9334C12.2965 11.6879 11.6852 12.2992 10.9307 12.3ZM17.7693 10.9334C17.7693 8.66896 19.605 6.83342 21.8693 6.83342C24.1327 6.83582 25.9669 8.67008 25.9693 10.9334C25.9693 13.1977 24.1338 15.0334 21.8693 15.0334C19.6049 15.0334 17.7693 13.1979 17.7693 10.9334ZM20.5027 10.9334C20.5027 11.6882 21.1145 12.3 21.8693 12.3C22.6238 12.2992 23.2353 11.6879 23.2359 10.9334C23.2359 10.1786 22.6241 9.5668 21.8693 9.5668C21.1145 9.5668 20.5027 10.1786 20.5027 10.9334ZM73.7972 6.83342H49.1973C48.4425 6.83342 47.8307 7.44521 47.8307 8.20003C47.8307 8.95484 48.4425 9.56664 49.1973 9.56664H73.7972C74.552 9.56664 75.1638 8.95484 75.1638 8.20003C75.1638 7.44521 74.552 6.83342 73.7972 6.83342ZM49.1973 12.3H73.7972C74.552 12.3 75.1638 12.912 75.1638 13.6666C75.1638 14.4213 74.552 15.0332 73.7972 15.0332H49.1973C48.4425 15.0332 47.8307 14.4214 47.8307 13.6666C47.8307 12.9118 48.4425 12.3 49.1973 12.3Z" fill="#F36B83"/>
</svg>
