<svg width="26" height="27" viewBox="0 0 26 27" fill="none" xmlns="http://www.w3.org/2000/svg">
<path d="M7.24838 13.4043C7.24838 12.8515 7.69652 12.4033 8.24936 12.4033L15.6757 12.4033L13.4474 10.175C13.0564 9.78404 13.0564 9.15022 13.4474 8.75934C13.8384 8.36841 14.4721 8.36851 14.863 8.75934L18.8001 12.6965C19.1916 13.0881 19.1906 13.7216 18.8001 14.1122L14.863 18.0493C14.472 18.4402 13.8383 18.4402 13.4474 18.0493C13.0564 17.6584 13.0564 17.0246 13.4474 16.6337L15.6757 14.4053L8.24936 14.4053C7.69652 14.4053 7.24838 13.9572 7.24838 13.4043ZM0.375039 18.791L0.375038 8.01767C0.375038 4.59534 2.69585 2.85735 2.84634 2.64409C4.16963 1.32065 5.92925 0.591839 7.80087 0.591839L18.5742 0.591838C20.4458 0.591837 22.2054 1.3207 23.5287 2.64414C23.6777 2.85519 26 4.59504 26 8.01767L26 18.791C26 22.2132 23.6791 23.9514 23.5287 24.1645C22.2054 25.4879 20.4457 26.2168 18.5742 26.2168L7.80087 26.2168C5.92925 26.2168 4.16964 25.4879 2.8463 24.1645C2.69755 23.9537 0.37504 22.2137 0.375039 18.791ZM2.37699 18.791C2.37699 21.2989 4.10973 22.5373 4.26192 22.7489C5.2072 23.6943 6.46402 24.2148 7.80087 24.2148L18.5742 24.2148C19.911 24.2148 21.1678 23.6942 22.1131 22.749C22.2709 22.5297 23.998 21.3122 23.998 18.791L23.998 8.01767C23.998 5.50978 22.2656 4.27167 22.1132 4.05972C21.1678 3.1144 19.911 2.59379 18.5742 2.59379L7.80087 2.59379C6.46402 2.59379 5.20719 3.11435 4.26192 4.05967C4.10422 4.27898 2.37699 5.49647 2.37699 8.01767L2.37699 18.791Z" fill="#F84263"/>
</svg>
