<svg width="68" height="67" viewBox="0 0 68 67" fill="none" xmlns="http://www.w3.org/2000/svg">
<g clip-path="url(#clip0_60_459)">
<path d="M59.6332 66.4325H8.40407C6.20367 66.4325 4.41992 64.6753 4.41992 62.5078V57.0482L63.6173 44.4893V62.5078C63.6173 64.6753 61.8336 66.4325 59.6332 66.4325Z" fill="#CDBFBA"/>
<path d="M48.7945 62.5078H8.41074C6.20668 62.5078 4.41992 60.7477 4.41992 58.5766V9.82872C4.41992 7.65755 6.20668 5.89746 8.41074 5.89746H59.6265C61.8306 5.89746 63.6173 7.65755 63.6173 9.82872V47.9062C63.6173 48.9488 61.2048 49.9487 60.4564 50.6861L51.6165 59.3941C50.8681 60.1313 49.853 62.5078 48.7945 62.5078Z" fill="#F9F3F1"/>
<path d="M48.7759 62.5075C49.8343 62.5075 50.8494 62.0933 51.5979 61.3561L62.4485 50.6674C63.1969 49.9302 63.6174 48.9303 63.6174 47.8876V46.2949C63.6174 48.0738 62.1534 49.5159 60.3476 49.5159H53.6989C51.893 49.5159 50.4291 50.958 50.4291 52.7369V59.2864C50.4291 61.0653 48.9652 62.5073 47.1592 62.5073H48.7759V62.5075Z" fill="#EFE2DD"/>
<path d="M63.6172 9.82214V19.919H4.4209V9.82214C4.4209 7.65574 6.20451 5.89746 8.40504 5.89746H59.6331C61.8338 5.89746 63.6172 7.65574 63.6172 9.82214Z" fill="#F84263"/>
<path d="M15.698 12.7477C14.9381 12.7477 14.293 12.7473 13.7431 12.7473C12.0724 12.7473 10.7139 11.409 10.7139 9.76452V5.89746H12.7059V9.76452C12.7059 10.3271 13.1708 10.7849 13.7431 10.7849C14.293 10.7849 16.2479 12.7477 15.698 12.7477Z" fill="#F84263"/>
<path d="M51.8812 12.7477C51.8812 12.7477 50.4766 12.7473 49.9254 12.7473C48.256 12.7473 46.8975 11.409 46.8975 9.76452V5.89746H48.8895V9.76452C48.8895 10.3271 49.3543 10.7849 49.9254 10.7849C50.4766 10.7849 51.8812 12.2061 51.8812 12.7477Z" fill="#F84263"/>
<path d="M17.192 5.8976V3.41628C17.192 2.85309 16.7269 2.39496 16.1552 2.39496H15.6978C15.1261 2.39496 14.661 2.85309 14.661 3.41628V9.76375C14.661 10.3269 15.1262 10.7851 15.6978 10.7851C16.2479 10.7851 16.6938 11.2244 16.6938 11.7662C16.6938 12.308 16.2478 12.7473 15.6978 12.7473C14.0277 12.7473 12.6689 11.4089 12.6689 9.76363V3.41628C12.6691 1.77105 14.0278 0.432617 15.6979 0.432617H16.1553C17.8255 0.432617 19.1842 1.77105 19.1842 3.41628V5.8976H17.192Z" fill="#4D8384"/>
<path d="M53.3756 5.8976V3.41628C53.3756 2.85309 52.9104 2.39496 52.3388 2.39496H51.8814C51.3097 2.39496 50.8446 2.85309 50.8446 3.41628V9.76375C50.8446 10.3269 51.3097 10.7851 51.8814 10.7851C52.4315 10.7851 52.8775 11.2244 52.8775 11.7662C52.8775 12.308 52.4315 12.7473 51.8814 12.7473C50.2113 12.7473 48.8525 11.4089 48.8525 9.76363V3.41628C48.8527 1.77105 50.2114 0.432617 51.8814 0.432617H52.3388C54.0089 0.432617 55.3676 1.77105 55.3676 3.41628V5.8976H53.3756Z" fill="#4D8384"/>
<path d="M34.3829 46.2952H37.3435V29.4424H35.2565L30.6943 30.8767L31.3253 33.2671L34.3829 32.4305V46.2952Z" fill="#4D8384"/>
</g>
<defs>
<clipPath id="clip0_60_459">
<rect width="67" height="66" fill="white" transform="translate(0.518555 0.432617)"/>
</clipPath>
</defs>
</svg>
