<svg width="39" height="38" viewBox="0 0 39 38" fill="none" xmlns="http://www.w3.org/2000/svg">
<path fill-rule="evenodd" clip-rule="evenodd" d="M33.5473 11.1468C33.0646 7.3835 29.8696 4.46704 26.0123 4.46704C25.1732 4.46704 24.3434 4.6135 23.5343 4.90361C21.7854 1.97007 18.6026 0.125244 15.1578 0.125244C9.77116 0.125244 5.38877 4.54006 5.38877 9.96665C5.38877 10.3516 5.41612 10.7388 5.47286 11.1429C2.96938 11.6026 0.974609 13.7937 0.974609 16.4793C0.974609 19.4793 3.47368 21.9066 6.47422 21.9066H9.73057V24.1867C9.03863 24.3277 8.39467 24.6014 7.82524 24.9789L6.97837 24.132C6.55454 23.708 5.86724 23.7081 5.44333 24.132C5.01943 24.5559 5.01943 25.2431 5.44333 25.667L6.29027 26.514C5.91268 27.0834 5.639 27.7273 5.49804 28.4193H4.30332C3.70386 28.4193 3.21787 28.9053 3.21787 29.5047C3.21787 30.1042 3.70386 30.5902 4.30332 30.5902H5.49797C5.63893 31.2821 5.91268 31.926 6.2902 32.4955L5.44326 33.3424C5.01935 33.7664 5.01935 34.4536 5.44326 34.8775C5.86709 35.3014 6.5544 35.3014 6.9783 34.8775L7.82517 34.0306C8.3946 34.4081 9.03856 34.6818 9.73049 34.8228V36.0898C9.73049 36.6893 10.2165 37.1752 10.8159 37.1752C11.4154 37.1752 11.9014 36.6893 11.9014 36.0898V34.8228C12.5933 34.6818 13.2372 34.4081 13.8067 34.0306L14.6537 34.8775C15.0774 35.3014 15.7647 35.3014 16.1887 34.8775C16.6126 34.4536 16.6126 33.7664 16.1887 33.3424L15.3418 32.4955C15.7194 31.9261 15.993 31.2821 16.134 30.5902H17.3287C17.9282 30.5902 18.4142 30.1042 18.4142 29.5047C18.4142 28.9053 17.9282 28.4193 17.3287 28.4193H16.1341C15.9931 27.7273 15.7194 27.0835 15.3418 26.514L16.1888 25.667C16.6127 25.2431 16.6127 24.5559 16.1888 24.132C15.7649 23.7081 15.0776 23.7081 14.6537 24.132L13.8068 24.9789C13.2374 24.6013 12.5934 24.3277 11.9015 24.1867V21.9066H27.0978V24.1867C26.4058 24.3277 25.7619 24.6014 25.1924 24.9789L24.3455 24.132C23.9217 23.708 23.2344 23.7081 22.8104 24.132C22.3865 24.5559 22.3865 25.2431 22.8104 25.667L23.6574 26.514C23.2798 27.0834 23.0061 27.7273 22.8652 28.4193H21.6705C21.0711 28.4193 20.5851 28.9053 20.5851 29.5047C20.5851 30.1042 21.0711 30.5902 21.6705 30.5902H22.8652C23.0061 31.2821 23.2799 31.926 23.6574 32.4955L22.8104 33.3424C22.3865 33.7664 22.3865 34.4536 22.8104 34.8775C23.2343 35.3014 23.9216 35.3014 24.3455 34.8775L25.1924 34.0306C25.7619 34.4081 26.4058 34.6818 27.0978 34.8228V36.0898C27.0978 36.6893 27.5837 37.1752 28.1832 37.1752C28.7827 37.1752 29.2687 36.6893 29.2687 36.0898V34.8228C29.9606 34.6818 30.6045 34.4081 31.174 34.0306L32.0209 34.8775C32.4447 35.3014 33.132 35.3014 33.556 34.8775C33.9799 34.4536 33.9799 33.7664 33.556 33.3424L32.709 32.4955C33.0866 31.9261 33.3603 31.2821 33.5013 30.5902H34.6959C35.2954 30.5902 35.7813 30.1042 35.7813 29.5047C35.7813 28.9053 35.2954 28.4193 34.6959 28.4193H33.5013C33.3603 27.7273 33.0865 27.0835 32.709 26.514L33.556 25.667C33.9799 25.2431 33.9799 24.5559 33.556 24.132C33.1321 23.7081 32.4448 23.7081 32.0209 24.132L31.174 24.9789C30.6045 24.6013 29.9606 24.3277 29.2687 24.1867V21.9066H32.525C35.525 21.9066 38.0246 19.4799 38.0246 16.4793C38.0246 13.7821 36.0204 11.611 33.5473 11.1468ZM14.0724 29.5047C14.0724 31.3003 12.6116 32.7611 10.816 32.7611C9.02047 32.7611 7.55967 31.3003 7.55967 29.5047C7.55967 27.7092 9.02047 26.2484 10.816 26.2484C12.6116 26.2484 14.0724 27.7092 14.0724 29.5047ZM31.4396 29.5047C31.4396 31.3003 29.9788 32.7611 28.1832 32.7611C26.3877 32.7611 24.9269 31.3003 24.9269 29.5047C24.9269 27.7092 26.3877 26.2484 28.1832 26.2484C29.9788 26.2484 31.4396 27.7092 31.4396 29.5047ZM32.525 19.7357H6.47422C4.66984 19.7357 3.14551 18.2445 3.14551 16.4793C3.14551 14.7142 4.66984 13.223 6.47422 13.223H6.78118C7.49042 13.223 8.00984 12.5524 7.83197 11.8655C7.64614 11.1481 7.55967 10.5447 7.55967 9.96665C7.55967 5.73716 10.9682 2.29614 15.1578 2.29614C18.1117 2.29614 20.8192 4.0448 22.0555 6.75104C22.1789 7.02118 22.4075 7.22893 22.6882 7.32597C22.9688 7.42301 23.277 7.40072 23.541 7.26446C24.3457 6.84873 25.1772 6.63794 26.0123 6.63794C29.0049 6.63794 31.4396 9.10509 31.4396 12.1375C31.4396 12.737 31.9255 13.223 32.525 13.223C34.3294 13.223 35.8537 14.7142 35.8537 16.4793C35.8537 18.2445 34.3294 19.7357 32.525 19.7357ZM10.816 30.5902C11.4155 30.5902 11.9015 30.1042 11.9015 29.5047C11.9015 28.9053 11.4155 28.4193 10.816 28.4193C10.2165 28.4193 9.73057 28.9053 9.73057 29.5047C9.73057 30.1042 10.2165 30.5902 10.816 30.5902ZM29.2687 29.5047C29.2687 30.1042 28.7827 30.5902 28.1832 30.5902C27.5837 30.5902 27.0978 30.1042 27.0978 29.5047C27.0978 28.9053 27.5837 28.4193 28.1832 28.4193C28.7827 28.4193 29.2687 28.9053 29.2687 29.5047Z" fill="#F84263"/>
</svg>
