<svg width="73" height="72" viewBox="0 0 73 72" fill="none" xmlns="http://www.w3.org/2000/svg">
<g clip-path="url(#clip0_60_479)">
<path d="M54.8383 1.5583V54.0054L36.8948 71.7012H4.41803C3.93794 71.7012 3.54883 71.3175 3.54883 70.844V1.5583C3.54883 1.08488 3.93794 0.701172 4.41803 0.701172H53.9691C54.4492 0.701172 54.8383 1.08488 54.8383 1.5583Z" fill="#F9F3F1"/>
<path d="M54.8392 54.0059L38.2196 54.0443C37.4132 54.0461 36.7624 54.6945 36.7686 55.4895L36.8947 71.7011L54.8392 54.0059Z" fill="#CDBFBA"/>
<path d="M15.9897 22.453C18.8835 22.453 21.2294 20.1397 21.2294 17.2861C21.2294 14.4324 18.8835 12.1191 15.9897 12.1191C13.0959 12.1191 10.75 14.4324 10.75 17.2861C10.75 20.1397 13.0959 22.453 15.9897 22.453Z" fill="#F84263"/>
<path d="M20.1728 33.0881H11.5933C10.9931 33.0881 10.5068 32.6084 10.5068 32.0167C10.5068 31.425 10.9933 30.9453 11.5933 30.9453H20.1728C20.773 30.9453 21.2593 31.425 21.2593 32.0167C21.2593 32.6084 20.773 33.0881 20.1728 33.0881Z" fill="#CDBFBA"/>
<path d="M29.1944 37.4328H11.5933C10.9931 37.4328 10.5068 36.9531 10.5068 36.3614C10.5068 35.7696 10.9933 35.29 11.5933 35.29H29.1944C29.7945 35.29 30.2808 35.7697 30.2808 36.3614C30.281 36.9533 29.7945 37.4328 29.1944 37.4328Z" fill="#CDBFBA"/>
<path d="M17.8508 41.7775H11.5933C10.9931 41.7775 10.5068 41.2979 10.5068 40.7061C10.5068 40.1144 10.9933 39.6348 11.5933 39.6348H17.8508C18.451 39.6348 18.9373 40.1144 18.9373 40.7061C18.9373 41.2979 18.451 41.7775 17.8508 41.7775Z" fill="#CDBFBA"/>
<path d="M24.4297 55.9798L18.1154 58.752C17.0867 59.2037 16.0351 58.1665 16.4931 57.1523L19.3044 50.9257L20.8026 49.4482L25.9281 54.5026L24.4297 55.9798Z" fill="#396566"/>
<path d="M68.2335 12.7854L25.7227 54.7056L20.5967 49.6508L63.1075 7.73056C63.4469 7.3958 63.9974 7.3958 64.3367 7.73056L68.2334 11.5732C68.573 11.9079 68.573 12.4507 68.2335 12.7854Z" fill="#4D8384"/>
<path d="M65.073 8.4565L21.9475 50.983L20.5967 49.6509L63.1075 7.73056C63.4469 7.3958 63.9974 7.3958 64.3367 7.73056L65.073 8.4565Z" fill="#35696A"/>
<path d="M66.0524 14.9356L47.7794 32.9548L46.3454 31.5406C45.6661 30.8708 45.6661 29.786 46.3454 29.1162L62.1598 13.5215C62.8379 12.8528 63.9391 12.8517 64.6183 13.5215L66.0524 14.9356Z" fill="#35696A"/>
<path d="M48.3941 30.9342L49.8282 32.3484C50.1677 32.6832 50.7181 32.6832 51.0574 32.3484L65.4372 18.1684C65.7767 17.8336 65.7767 17.2909 65.4372 16.9563L64.0032 15.5421C63.6638 15.2073 63.1134 15.2073 62.774 15.5421L48.3941 29.7221C48.0548 30.0569 48.0548 30.5995 48.3941 30.9342Z" fill="#F84263"/>
<path d="M45.8413 16.0677H26.5557C26.0756 16.0677 25.6865 15.684 25.6865 15.2106V12.9782C25.6865 12.5048 26.0756 12.1211 26.5557 12.1211H45.8413C46.3214 12.1211 46.7105 12.5048 46.7105 12.9782V15.2107C46.7105 15.684 46.3214 16.0677 45.8413 16.0677Z" fill="#F84263"/>
<path d="M39.2677 21.1301H26.6158C26.0156 21.1301 25.5293 20.6504 25.5293 20.0587C25.5293 19.467 26.0157 18.9873 26.6158 18.9873H39.2677C39.8678 18.9873 40.3541 19.467 40.3541 20.0587C40.3541 20.6504 39.8678 21.1301 39.2677 21.1301Z" fill="#CDBFBA"/>
<path d="M19.4689 66.6311H11.5503C10.9501 66.6311 10.4639 66.1514 10.4639 65.5597C10.4639 64.968 10.9503 64.4883 11.5503 64.4883H19.4689C20.0691 64.4883 20.5554 64.968 20.5554 65.5597C20.5554 66.1514 20.0691 66.6311 19.4689 66.6311Z" fill="#CDBFBA"/>
</g>
<defs>
<clipPath id="clip0_60_479">
<rect width="72" height="71" fill="white" transform="translate(0.0185547 0.701172)"/>
</clipPath>
</defs>
</svg>
