<svg width="36" height="36" viewBox="0 0 36 36" fill="none" xmlns="http://www.w3.org/2000/svg">
<path d="M35.6911 7.5751C35.9379 7.32826 36.0466 6.97528 35.9815 6.63228C35.9164 6.28928 35.686 6.00066 35.366 5.86145L31.811 4.31438L30.5634 0.709834C30.4445 0.366345 30.1573 0.108254 29.8032 0.0267963C29.4492 -0.0545211 29.0782 0.0519793 28.8212 0.309015L26.8102 2.32113C24.1044 0.823298 21.0032 0.00477868 17.9877 0.00477868C13.183 0.00477868 8.66592 1.87684 5.26844 5.27619C1.87095 8.67555 0 13.1951 0 18.0024C0 22.8096 1.87102 27.3293 5.26851 30.7286C8.66592 34.1279 13.1831 36 17.9878 36C22.7925 36 27.3096 34.1279 30.7071 30.7286C34.1045 27.3293 35.9756 22.8097 35.9756 18.0024C35.9756 15.0076 35.231 12.0688 33.8165 9.45088L35.6911 7.5751ZM28.3045 11.9814L26.1251 11.3962L31.2015 6.35041L33.1047 7.17864L28.3045 11.9814ZM27.9074 18.0024C27.9074 23.4751 23.4574 27.9275 17.9877 27.9275C12.518 27.9275 8.06805 23.4751 8.06805 18.0024C8.06805 12.5296 12.518 8.07721 17.9877 8.07721C19.6347 8.07721 21.0384 8.40234 22.3823 9.09663L22.9261 11.6011L21.5889 12.9304C20.5719 12.2054 19.3287 11.7786 17.9876 11.7786C14.5577 11.7786 11.7673 14.5706 11.7673 18.0024C11.7673 21.4343 14.5577 24.2262 17.9876 24.2262C21.4176 24.2262 24.208 21.4343 24.208 18.0024C24.208 16.6727 23.7888 15.4392 23.0761 14.4268L24.3943 13.1165L26.9879 13.8129C27.6141 15.0958 27.9074 16.4338 27.9074 18.0024ZM22.0989 18.0024C22.0989 20.2705 20.2546 22.1158 17.9877 22.1158C15.7208 22.1158 13.8765 20.2705 13.8765 18.0024C13.8765 15.7342 15.7208 13.8889 17.9877 13.8889C18.7426 13.8889 19.4501 14.0944 20.0588 14.4512L17.2077 17.2851C16.7945 17.6958 16.7923 18.3639 17.2028 18.7773C17.4089 18.9849 17.6798 19.0888 17.9509 19.0888C18.2196 19.0888 18.4885 18.9867 18.6941 18.7823L21.5466 15.947C21.8972 16.5523 22.0989 17.254 22.0989 18.0024ZM29.1215 2.99284L29.7525 4.81587L24.7014 9.83658L24.2695 7.84761L29.1215 2.99284ZM33.8663 18.0024C33.8663 22.246 32.2146 26.2357 29.2155 29.2364C26.2165 32.2371 22.229 33.8896 17.9877 33.8896C13.7464 33.8896 9.75895 32.237 6.75988 29.2364C3.76082 26.2357 2.10915 22.246 2.10915 18.0024C2.10915 13.7587 3.76082 9.76905 6.75988 6.7684C9.75895 3.76767 13.7464 2.11509 17.9877 2.11509C20.4531 2.11509 22.9865 2.73658 25.2503 3.88184L22.371 6.7627C22.3682 6.76551 22.3657 6.76847 22.3629 6.77128C21.0099 6.23167 19.567 5.9669 17.9876 5.9669C11.3549 5.9669 5.95883 11.366 5.95883 18.0024C5.95883 24.6387 11.3549 30.0378 17.9876 30.0378C24.6203 30.0378 30.0164 24.6387 30.0164 18.0024C30.0164 16.5164 29.7958 15.1947 29.3318 13.9347C29.3429 13.9245 29.3545 13.9152 29.3651 13.9045L32.251 11.017C33.3109 13.1821 33.8663 15.5712 33.8663 18.0024Z" fill="#F65774"/>
</svg>
