<svg width="34" height="34" viewBox="0 0 34 34" fill="none" xmlns="http://www.w3.org/2000/svg">
<path fill-rule="evenodd" clip-rule="evenodd" d="M20.3219 0H31.3334C32.7441 0 33.8919 1.14776 33.8919 2.55851V13.5701C33.8919 14.1184 33.4473 14.563 32.899 14.563H29.8764C29.909 14.7509 29.9257 14.9424 29.9257 15.1356C29.9257 16.052 29.5621 16.907 28.9017 17.5428C28.2731 18.148 27.4552 18.477 26.5865 18.477C26.5429 18.477 26.4994 18.4762 26.4557 18.4745C24.7241 18.4091 23.314 17.0015 23.2456 15.2701C23.2361 15.0307 23.2518 14.7939 23.2917 14.5629H20.3218C19.7735 14.5629 19.3289 14.1184 19.3289 13.57V9.05741C19.3289 8.6658 19.5591 8.31073 19.9166 8.15093C20.2742 7.99101 20.6924 8.05654 20.9841 8.31761C21.2329 8.54036 21.5537 8.66302 21.8873 8.66295C22.2593 8.66295 22.6062 8.5154 22.8641 8.24745C23.1219 7.97975 23.2561 7.62693 23.242 7.25392C23.2155 6.55226 22.6451 5.98086 21.9434 5.95312C21.588 5.93883 21.2477 6.06149 20.9842 6.29734C20.6923 6.55868 20.2742 6.62395 19.9167 6.46408C19.5592 6.30429 19.329 5.94922 19.329 5.55761V0.992926C19.329 0.444566 19.7735 0 20.3219 0ZM28.3343 12.5771H31.906V2.55851C31.906 2.24276 31.6492 1.98585 31.3334 1.98585H21.3148V4.01506C21.5457 3.97521 21.7822 3.9592 22.0219 3.96886C23.7534 4.03731 25.161 5.44739 25.2264 7.17899C25.2612 8.09619 24.9303 8.96487 24.2947 9.6249C23.6589 10.2853 22.804 10.6489 21.8875 10.6489H21.8871C21.694 10.6489 21.5026 10.6322 21.3148 10.5996V12.5771H24.8344C25.226 12.5771 25.5812 12.8074 25.741 13.1649C25.9008 13.5224 25.8354 13.9406 25.5742 14.2323C25.3383 14.4959 25.216 14.8366 25.2301 15.1916C25.2578 15.8932 25.8291 16.4636 26.5309 16.4901C26.9052 16.5036 27.2568 16.37 27.5244 16.1123C27.7923 15.8543 27.9399 15.5074 27.9399 15.1356C27.9399 14.8019 27.8172 14.481 27.5946 14.2323C27.3333 13.9406 27.268 13.5224 27.4278 13.1649C27.5876 12.8073 27.9426 12.5771 28.3343 12.5771ZM21.5824 19.329H26.1471C26.6954 19.329 27.14 19.7735 27.14 20.3219V31.3334C27.14 32.7441 25.9922 33.8919 24.5814 33.8919H2.55851C1.14776 33.8919 0 32.7441 0 31.3333V9.31041C0 7.89966 1.14776 6.7519 2.55851 6.7519H13.5701C14.1184 6.7519 14.563 7.19647 14.563 7.74483V10.7674C14.7509 10.7348 14.9424 10.7181 15.1356 10.7181C16.052 10.7181 16.907 11.0817 17.5428 11.7421C18.1783 12.4021 18.5092 13.2708 18.4745 14.188C18.4091 15.9196 17.0015 17.3297 15.27 17.3981C15.0307 17.4077 14.7939 17.3918 14.5629 17.352V19.329H18.0824C18.4741 19.329 18.8293 19.5593 18.9891 19.9168C19.1489 20.2743 19.0835 20.6925 18.8223 20.9842C18.5864 21.2478 18.4641 21.5885 18.4782 21.9435C18.5059 22.6451 19.0772 23.2155 19.779 23.242C20.1537 23.2552 20.5048 23.1219 20.7725 22.8642C21.0404 22.6062 21.188 22.2593 21.188 21.8875C21.188 21.5538 21.0653 21.2329 20.8427 20.9842C20.5814 20.6925 20.5161 20.2743 20.6759 19.9168C20.8357 19.5592 21.1907 19.329 21.5824 19.329ZM2.55851 8.73775C2.24276 8.73775 1.98585 8.99459 1.98585 9.31041V19.329H4.01506C3.97528 19.098 3.95946 18.8612 3.96893 18.6219C4.03737 16.8905 5.44746 15.4828 7.17906 15.4174C8.09573 15.3816 8.96494 15.7136 9.62497 16.3492C10.2853 16.9849 10.6489 17.8398 10.6489 18.7563C10.6489 18.9496 10.6323 19.1411 10.5997 19.329H12.5771V15.8093C12.5771 15.4177 12.8074 15.0626 13.1649 14.9028C13.5225 14.743 13.9406 14.8084 14.2323 15.0696C14.4959 15.3055 14.8367 15.4277 15.1916 15.4137C15.8932 15.386 16.4636 14.8146 16.4901 14.1129C16.5042 13.7399 16.37 13.3871 16.1123 13.1194C15.8543 12.8514 15.5074 12.7039 15.1356 12.7039C14.8019 12.7039 14.481 12.8266 14.2323 13.0492C13.9406 13.3105 13.5223 13.3759 13.1649 13.216C12.8073 13.0562 12.5771 12.7012 12.5771 12.3095V8.73775H2.55851ZM1.98585 21.3148V31.3334C1.98585 31.6491 2.24276 31.906 2.55851 31.906H12.577V29.8764C12.3891 29.909 12.1976 29.9257 12.0043 29.9257C11.0879 29.9257 10.233 29.5621 9.59723 28.9017C8.96169 28.2417 8.63078 27.373 8.66547 26.4558C8.73087 24.7242 10.1385 23.3141 11.87 23.2457C12.1093 23.2361 12.346 23.252 12.5771 23.2918V21.3148H9.05754C8.66593 21.3148 8.31073 21.0846 8.15093 20.7271C7.99114 20.3696 8.05647 19.9514 8.31761 19.6596C8.54029 19.4109 8.66295 19.0901 8.66295 18.7563C8.66295 18.3845 8.5154 18.0376 8.24745 17.7797C7.97969 17.5218 7.62607 17.3891 7.25392 17.4018C6.55226 17.4283 5.98086 17.9987 5.95312 18.7004C5.93909 19.0553 6.06135 19.396 6.29727 19.6595C6.55861 19.9513 6.62388 20.3695 6.46408 20.727C6.30429 21.0846 5.94928 21.3148 5.55761 21.3148H1.98585ZM24.5815 31.906C24.8972 31.906 25.1541 31.6492 25.1541 31.3334V21.3149H23.1244C23.157 21.5028 23.1737 21.6943 23.1737 21.8875C23.1737 22.8039 22.8101 23.6589 22.1497 24.2947C21.4897 24.9302 20.6206 25.262 19.7038 25.2264C17.9722 25.161 16.5621 23.7534 16.4937 22.0219C16.4842 21.7826 16.5 21.5458 16.5398 21.3148H14.5629V24.8345C14.5629 25.2261 14.3326 25.5812 13.9751 25.741C13.6175 25.9009 13.1994 25.8354 12.9076 25.5742C12.644 25.3383 12.3025 25.216 11.9484 25.2301C11.2468 25.2578 10.6763 25.8292 10.6499 26.5309C10.6358 26.9039 10.7699 27.2567 11.0277 27.5244C11.2857 27.7923 11.6326 27.9399 12.0043 27.9399C12.3381 27.9399 12.659 27.8172 12.9076 27.5946C13.1994 27.3333 13.6177 27.2679 13.9751 27.4278C14.3327 27.5876 14.5629 27.9426 14.5629 28.3343V31.906H24.5815Z" fill="#F84263"/>
</svg>
