<svg width="34" height="34" viewBox="0 0 34 34" fill="none" xmlns="http://www.w3.org/2000/svg">
<path fill-rule="evenodd" clip-rule="evenodd" d="M31.1576 19.1331H32.8953C33.4457 19.1331 33.8918 19.5792 33.8919 20.1296V24.9232C33.8919 25.4735 33.4457 25.9197 32.8954 25.9197H31.1441C31.1042 26.0205 31.0625 26.1207 31.019 26.2201L32.2579 27.4589C32.4449 27.6458 32.5499 27.8993 32.5499 28.1636C32.5499 28.4279 32.4449 28.6814 32.2579 28.8682L28.8683 32.2579C28.4791 32.647 27.8482 32.647 27.459 32.2579L26.2132 31.0121C26.1162 31.0543 26.0183 31.0948 25.9198 31.1335V32.8954C25.9198 33.4457 25.4737 33.8919 24.9233 33.8919H20.1297C19.5793 33.8919 19.1332 33.4457 19.1332 32.8954V31.1335C19.0347 31.0948 18.9369 31.0543 18.8398 31.0121L17.594 32.2579C17.2049 32.647 16.5739 32.647 16.1847 32.2579L12.7951 28.8682C12.6082 28.6814 12.5032 28.4279 12.5032 28.1636C12.5032 27.8993 12.6082 27.6458 12.7951 27.4589L14.0339 26.2202C13.9904 26.1207 13.9487 26.0206 13.9088 25.9198H12.1575C11.6072 25.9198 11.161 25.4736 11.161 24.9233V24.0267H9.46681C8.91646 24.0267 8.47031 23.5806 8.47031 23.0302V21.1157C8.33984 21.065 8.21056 21.0115 8.08234 20.9552L6.72865 22.3088C6.54179 22.4957 6.28832 22.6007 6.02401 22.6007C5.75969 22.6007 5.50623 22.4958 5.31936 22.3088L1.71796 18.7074C1.32873 18.3182 1.32873 17.6872 1.71796 17.2981L3.06423 15.9517C3.00644 15.8212 2.95157 15.6893 2.89961 15.5564H0.996499C0.446154 15.5564 0 15.1103 0 14.5599V9.46674C0 8.9164 0.446154 8.47024 0.996499 8.47024H2.88537C2.9382 8.33355 2.99413 8.19805 3.05305 8.06381L1.71796 6.72865C1.32873 6.33943 1.32873 5.70852 1.71796 5.31936L5.3193 1.71789C5.70846 1.32873 6.33943 1.3286 6.72859 1.71789L8.05653 3.04576C8.19302 2.98533 8.33104 2.928 8.47024 2.87392V0.996499C8.47024 0.446154 8.9164 0 9.46674 0H14.5599C15.1103 0 15.5564 0.446154 15.5564 0.996499V2.87399C15.6956 2.92807 15.8336 2.98533 15.9702 3.04583L17.298 1.71796C17.6872 1.3288 18.3181 1.3288 18.7073 1.71796L22.3088 5.31936C22.4956 5.50623 22.6006 5.75969 22.6006 6.02401C22.6006 6.28832 22.4957 6.54179 22.3088 6.72865L20.9736 8.06381C21.0325 8.19805 21.0885 8.33355 21.1414 8.47024H23.0302C23.5805 8.47024 24.0267 8.9164 24.0267 9.46674V11.1609H24.9232C25.4735 11.1609 25.9197 11.6071 25.9197 12.1574V13.8845C26.0264 13.9265 26.1323 13.9705 26.2374 14.0164L27.4588 12.795C27.848 12.4059 28.4789 12.4059 28.8681 12.795L32.2577 16.1846C32.647 16.5738 32.647 17.2047 32.2577 17.5939L31.0294 18.8223C31.074 18.9251 31.1168 19.0287 31.1576 19.1331ZM10.4632 20.4062V22.0337H11.1609V20.1296C11.1609 19.5792 11.607 19.1331 12.1574 19.1331H13.8951C13.936 19.0287 13.9787 18.9251 14.0233 18.8223L12.795 17.5939C12.7391 17.538 12.6922 17.4768 12.6524 17.4124C12.4426 17.4371 12.2297 17.4512 12.0133 17.4512C9.0149 17.4512 6.57548 15.0118 6.57548 12.0133C6.57548 9.0149 9.0149 6.57548 12.0133 6.57548C15.0118 6.57548 17.4512 9.0149 17.4512 12.0133C17.4512 12.2297 17.4371 12.4427 17.4124 12.6524C17.4768 12.6922 17.538 12.7391 17.5939 12.795L18.8153 14.0164C18.9204 13.9705 19.0264 13.9265 19.1331 13.8845V12.1574C19.1331 11.6071 19.5792 11.1609 20.1296 11.1609H22.0337V10.4632H20.4302C19.9902 10.4632 19.6022 10.1746 19.4758 9.7531C19.3282 9.26147 19.1308 8.78268 18.8889 8.32998C18.6821 7.94287 18.7528 7.466 19.0632 7.15568L20.1949 6.02394L18.0027 3.83183L16.8768 4.95774C16.5656 5.26892 16.0873 5.33922 15.6998 5.13057C15.246 4.88625 14.7655 4.68667 14.2715 4.53727C13.851 4.41017 13.5634 4.02274 13.5634 3.58347V1.993H10.4632V3.58353C10.4632 4.02274 10.1756 4.41017 9.75515 4.53733C9.26114 4.68674 8.7807 4.88638 8.32693 5.13064C7.93943 5.33916 7.4611 5.26899 7.14992 4.95781L6.02394 3.8319L3.83183 6.02401L4.9635 7.15568C5.27375 7.466 5.34458 7.9428 5.13779 8.32984C4.89578 8.78295 4.69839 9.26174 4.55104 9.75304C4.4246 10.1745 4.03664 10.4632 3.59651 10.4632H1.993V13.5634H3.60763C4.04604 13.5634 4.43301 13.85 4.56083 14.2694C4.70938 14.757 4.9073 15.2321 5.14918 15.6814C5.35769 16.0688 5.28746 16.5472 4.97627 16.8583L3.83183 18.0027L6.02394 20.1949L7.17415 19.0447C7.48447 18.7344 7.96134 18.6637 8.34838 18.8704C8.79639 19.1098 9.26968 19.3056 9.75515 19.4523C10.1756 19.5795 10.4632 19.9669 10.4632 20.4062ZM8.56854 12.0133C8.56854 13.9128 10.1139 15.4582 12.0134 15.4582C13.9129 15.4582 15.4582 13.9128 15.4582 12.0133C15.4582 10.1139 13.9129 8.56848 12.0134 8.56848C10.1139 8.56848 8.56854 10.1139 8.56854 12.0133ZM30.4378 23.9267H31.8988V21.1261H30.4482C30.0082 21.1261 29.6202 20.8374 29.4938 20.4159C29.356 19.9569 29.1717 19.5098 28.9459 19.0873C28.7391 18.7001 28.8098 18.2233 29.1202 17.913L30.1439 16.8893L28.1635 14.9089L27.1452 15.9272C26.8341 16.2383 26.3557 16.3086 25.9682 16.1C25.5446 15.872 25.0959 15.6856 24.6347 15.5461C24.2143 15.4189 23.9267 15.0315 23.9267 14.5923V13.1539H21.1261V14.5923C21.1261 15.0315 20.8384 15.4189 20.418 15.5461C19.9568 15.6856 19.5081 15.872 19.0845 16.1C18.697 16.3088 18.2187 16.2384 17.9075 15.9272L16.8893 14.9089L14.9089 16.8893L15.9326 17.913C16.243 18.2233 16.3138 18.7001 16.1069 19.0873C15.8811 19.5098 15.6968 19.9569 15.5591 20.4159C15.4326 20.8374 15.0447 21.1261 14.6046 21.1261H13.154V23.9267H14.615C15.0534 23.9267 15.4404 24.2133 15.5682 24.6327C15.7069 25.088 15.8917 25.5314 16.1175 25.9508C16.3261 26.3383 16.2558 26.8166 15.9446 27.1278L14.909 28.1635L16.8893 30.1439L17.9303 29.1028C18.2406 28.7925 18.7174 28.7217 19.1045 28.9285C19.523 29.1519 19.9649 29.3348 20.4179 29.4717C20.8384 29.5989 21.1261 29.9863 21.1261 30.4256V31.8988H23.9267V30.4256C23.9267 29.9863 24.2144 29.5989 24.6349 29.4717C25.0879 29.3348 25.5298 29.1519 25.9483 28.9285C26.3355 28.7215 26.8121 28.7924 27.1225 29.1028L28.1636 30.1439L30.1439 28.1635L29.1082 27.1278C28.797 26.8166 28.7268 26.3383 28.9353 25.9508C29.1611 25.5313 29.346 25.0879 29.4846 24.6327C29.6124 24.2133 29.9994 23.9267 30.4378 23.9267ZM17.3498 22.5264C17.3498 19.672 19.672 17.3497 22.5264 17.3497C25.3808 17.3497 27.7031 19.6719 27.7031 22.5264C27.7031 25.3808 25.3808 27.7031 22.5264 27.7031C19.672 27.7031 17.3498 25.3807 17.3498 22.5264ZM19.3428 22.5264C19.3428 24.2818 20.771 25.7101 22.5264 25.7101C24.2818 25.7101 25.7101 24.2818 25.7101 22.5264C25.7101 20.771 24.2818 19.3428 22.5264 19.3428C20.771 19.3428 19.3428 20.771 19.3428 22.5264Z" fill="#F84263"/>
</svg>
