<svg width="34" height="34" viewBox="0 0 34 34" fill="none" xmlns="http://www.w3.org/2000/svg">
<path fill-rule="evenodd" clip-rule="evenodd" d="M33.0038 0H13.6133C13.0631 0 12.6172 0.445983 12.6172 0.996092V11.3765C12.1946 11.3334 11.7693 11.3114 11.3444 11.3112C10.5054 11.3112 9.66488 11.3958 8.84609 11.5625C8.38211 11.657 8.04875 12.065 8.04875 12.5385V14.2328C7.93799 14.2762 7.82815 14.3218 7.71925 14.3696L6.52095 13.1713C6.18619 12.8365 5.66185 12.7836 5.267 13.045C4.57067 13.5055 3.91657 14.0402 3.32283 14.6339C2.72889 15.2279 2.19419 15.882 1.73373 16.5783C1.47256 16.9731 1.52542 17.4974 1.86023 17.8321L3.05847 19.0304C3.01072 19.1393 2.9651 19.2491 2.92174 19.3599H1.22719C0.753709 19.3599 0.345644 19.6933 0.251148 20.1572C0.084535 20.9752 0 21.8158 0 22.6556C0 23.4954 0.084535 24.336 0.251148 25.154C0.345644 25.618 0.753709 25.9513 1.22719 25.9513H2.92167C2.9651 26.0621 3.01072 26.1719 3.0584 26.2808L1.86017 27.4791C1.52542 27.8139 1.47249 28.3381 1.73366 28.7329C2.19419 29.4292 2.72883 30.0834 3.32283 30.6774C3.9165 31.271 4.57067 31.8056 5.267 32.2663C5.66192 32.5275 6.18613 32.4747 6.52095 32.1399L7.71925 30.9416C7.82815 30.9894 7.93799 31.035 8.04875 31.0784V32.7727C8.04875 33.2462 8.38211 33.6542 8.84609 33.7487C9.66488 33.9155 10.5054 34 11.3446 34H33.0038C33.554 34 33.9999 33.554 33.9999 33.0039V0.996092C33.9999 0.445983 33.554 0 33.0038 0ZM12.6172 24.7504C12.2352 24.9834 11.7955 25.109 11.3444 25.109C9.9916 25.109 8.89105 24.0084 8.89105 22.6556C8.89105 21.3028 9.99166 20.2023 11.3444 20.2023C11.7955 20.2023 12.2352 20.3279 12.6172 20.5609V24.7504ZM11.3444 32.0078C10.9088 32.0078 10.4728 31.9807 10.0409 31.927V30.369C10.0409 29.9287 9.75181 29.5406 9.32993 29.4146C8.86608 29.2761 8.41618 29.0893 7.99264 28.8594C7.60496 28.6489 7.12504 28.7185 6.81307 29.0304L5.71026 30.1332C5.36714 29.866 5.03976 29.5768 4.7315 29.2686C4.42318 28.9603 4.13398 28.6329 3.86683 28.2899L4.96964 27.1871C5.28161 26.8752 5.3512 26.3951 5.1407 26.0074C4.9108 25.584 4.72407 25.1341 4.58554 24.6703C4.45957 24.2483 4.07143 23.9591 3.63109 23.9591H2.0728C2.01921 23.5276 1.99218 23.0914 1.99218 22.6555C1.99218 22.2196 2.01921 21.7835 2.0728 21.352H3.63109C4.07143 21.352 4.45957 21.0628 4.58554 20.6409C4.72407 20.1771 4.9108 19.7272 5.1407 19.3037C5.3512 18.916 5.28161 18.4361 4.96964 18.1241L3.86683 17.0213C4.13405 16.6782 4.42325 16.3508 4.7315 16.0427C5.03976 15.7343 5.36714 15.4452 5.71026 15.178L6.81307 16.2807C7.12498 16.5927 7.6049 16.6623 7.99264 16.4518C8.41611 16.2219 8.86608 16.0351 9.32993 15.8966C9.75187 15.7705 10.0409 15.3824 10.0409 14.9421V13.3842C10.8945 13.2781 11.7634 13.2769 12.6172 13.3806V18.398C12.2072 18.275 11.7789 18.2101 11.3444 18.2101C8.89311 18.2101 6.89887 20.2043 6.89887 22.6556C6.89887 25.1069 8.89317 27.1011 11.3444 27.1011C11.7789 27.1011 12.2072 27.0362 12.6172 26.9132V32.0077L11.3444 32.0078ZM32.0078 32.0078H14.6093V1.99218H32.0078V32.0078ZM19.2578 15.1759V28.1562C19.2578 28.7063 19.7038 29.1523 20.2539 29.1523C20.804 29.1523 21.25 28.7063 21.25 28.1562V15.1759C22.4838 14.7592 23.375 13.5915 23.375 12.2187C23.375 10.846 22.4838 9.67829 21.25 9.2616V5.84374C21.25 5.29363 20.804 4.84765 20.2539 4.84765C19.7038 4.84765 19.2578 5.29363 19.2578 5.84374V9.2616C18.024 9.67829 17.1328 10.846 17.1328 12.2187C17.1328 13.5915 18.024 14.7592 19.2578 15.1759ZM20.2539 11.0898C20.8764 11.0898 21.3828 11.5963 21.3828 12.2187C21.3828 12.841 20.8767 13.3472 20.2545 13.3476L20.2539 13.3476L20.2532 13.3476C19.631 13.3472 19.125 12.841 19.125 12.2187C19.125 11.5963 19.6314 11.0898 20.2539 11.0898ZM25.5664 28.1562V24.7158C24.3669 24.2803 23.5078 23.1293 23.5078 21.7812C23.5078 20.4085 24.3989 19.2408 25.6328 18.8241V5.84374C25.6328 5.29363 26.0787 4.84765 26.6289 4.84765C27.179 4.84765 27.6249 5.29363 27.6249 5.84374V18.8241C28.8588 19.2408 29.7499 20.4085 29.7499 21.7812C29.7499 23.1786 28.8269 24.3643 27.5585 24.7609V28.1562C27.5585 28.7063 27.1126 29.1523 26.5624 29.1523C26.0123 29.1523 25.5664 28.7063 25.5664 28.1562ZM27.7578 21.7812C27.7578 21.1588 27.2513 20.6523 26.6289 20.6523C26.0064 20.6523 25.5 21.1588 25.5 21.7812C25.5 22.4037 26.0064 22.9101 26.6289 22.9101C27.2513 22.9101 27.7578 22.4037 27.7578 21.7812Z" fill="#F84263"/>
</svg>
