<svg width="35" height="35" viewBox="0 0 35 35" fill="none" xmlns="http://www.w3.org/2000/svg">
<path fill-rule="evenodd" clip-rule="evenodd" d="M1.02539 0H33.9746C34.5409 0 35 0.459102 35 1.02539V25.6348C35 26.2011 34.5409 26.6602 33.9746 26.6602H21.6016V28.7793H22.9688C24.665 28.7793 26.0449 30.1593 26.0449 31.8555V33.9746C26.0449 34.5409 25.5858 35 25.0195 35H9.98047C9.41418 35 8.95508 34.5409 8.95508 33.9746V31.8555C8.95508 30.1593 10.335 28.7793 12.0312 28.7793H13.3984V26.6602H1.02539C0.459102 26.6602 0 26.2011 0 25.6348V1.02539C0 0.459102 0.459102 0 1.02539 0ZM23.9941 31.8555C23.9941 31.2901 23.5342 30.8301 22.9688 30.8301H12.0312C11.4658 30.8301 11.0059 31.2901 11.0059 31.8555V32.9492H23.9941V31.8555ZM15.4492 26.6602V28.7793H19.5508V26.6602H15.4492ZM2.05078 24.6094H32.9492V22.5244H2.05078V24.6094ZM2.05078 20.4736H32.9492V2.05078H2.05078V20.4736ZM11.6895 12.3047H9.63867C9.07238 12.3047 8.61328 11.8456 8.61328 11.2793C8.61328 10.713 9.07238 10.2539 9.63867 10.2539H11.0557L12.8231 6.71911C13.2306 5.90406 14.4246 5.98842 14.713 6.85344L17.0174 13.7668L19.2395 4.87826C19.4875 3.88637 20.8837 3.8325 21.2071 4.80272L23.0243 10.2539H25.3613C25.9276 10.2539 26.3867 10.713 26.3867 11.2793C26.3867 11.8456 25.9276 12.3047 25.3613 12.3047H22.2852C21.8438 12.3047 21.452 12.0222 21.3124 11.6037L20.3752 8.7919L18.153 17.6804C17.9047 18.6736 16.5101 18.7299 16.1854 17.7559L13.5503 9.85052L12.6066 11.7379C12.4329 12.0853 12.0779 12.3047 11.6895 12.3047Z" fill="#F84263"/>
</svg>
