<svg width="34" height="34" viewBox="0 0 34 34" fill="none" xmlns="http://www.w3.org/2000/svg">
<path fill-rule="evenodd" clip-rule="evenodd" d="M3.65234 0H30.2149C32.2288 0 33.8672 1.63844 33.8672 3.65234V26.2969C33.8672 28.3108 32.2288 29.9492 30.2149 29.9492H29.8828V33.0039C29.8828 33.554 29.4368 34 28.8867 34C28.3366 34 27.8906 33.554 27.8906 33.0039V21.9805H25.8984V33.0039C25.8984 33.554 25.4525 34 24.9023 34C24.3522 34 23.9063 33.554 23.9063 33.0039V21.9805H21.9141V33.0039C21.9141 33.554 21.4681 34 20.918 34C20.3679 34 19.9219 33.554 19.9219 33.0039V29.9492H15.9375V33.0039C15.9375 33.554 15.4915 34 14.9414 34C14.3913 34 13.9453 33.554 13.9453 33.0039V31.9414H8.96485C8.41474 31.9414 7.96875 31.4954 7.96875 30.9453C7.96875 30.3952 8.41474 29.9492 8.96485 29.9492H13.9453V27.957H10.957C10.4069 27.957 9.96094 27.511 9.96094 26.9609C9.96094 26.4108 10.4069 25.9648 10.957 25.9648H13.9453V23.9727H8.96485C8.41474 23.9727 7.96875 23.5267 7.96875 22.9766C7.96875 22.4265 8.41474 21.9805 8.96485 21.9805H13.9453V19.9883H10.957C10.4069 19.9883 9.96094 19.5423 9.96094 18.9922C9.96094 18.4421 10.4069 17.9961 10.957 17.9961H13.9453V16.0039H5.97656V33.0039C5.97656 33.554 5.53058 34 4.98047 34C4.43036 34 3.98438 33.554 3.98438 33.0039V29.9492H3.65234C1.63844 29.9492 0 28.3108 0 26.2969V3.65234C0 1.63844 1.63844 0 3.65234 0ZM30.2149 1.99219H3.65234C2.73693 1.99219 1.99219 2.73693 1.99219 3.65234V8.03516H31.875V3.65234C31.875 2.73693 31.1303 1.99219 30.2149 1.99219ZM24.9023 16.6024L22.1936 19.9883H27.6111L24.9023 16.6024ZM29.8828 27.957H30.2149C31.1303 27.957 31.875 27.2123 31.875 26.2969V10.0273H1.99219V26.2969C1.99219 27.2123 2.73693 27.957 3.65234 27.957H3.98438V15.0078C3.98438 14.4577 4.43036 14.0117 4.98047 14.0117H14.9414C15.4915 14.0117 15.9375 14.4577 15.9375 15.0078V27.957H19.9219V19.9883C19.9219 19.7621 19.9988 19.5426 20.1402 19.3661L24.1245 14.3856C24.5232 13.8873 25.2818 13.8876 25.6802 14.3856L29.6645 19.3661C29.8059 19.5426 29.8828 19.7621 29.8828 19.9883V27.957ZM25.8984 5.04688C25.8984 5.597 25.4525 6.04297 24.9023 6.04297C24.3522 6.04297 23.9062 5.597 23.9062 5.04688C23.9062 4.49675 24.3522 4.05078 24.9023 4.05078C25.4525 4.05078 25.8984 4.49675 25.8984 5.04688ZM28.8867 6.04297C29.4368 6.04297 29.8828 5.597 29.8828 5.04688C29.8828 4.49675 29.4368 4.05078 28.8867 4.05078C28.3366 4.05078 27.8906 4.49675 27.8906 5.04688C27.8906 5.597 28.3366 6.04297 28.8867 6.04297ZM21.9141 5.04688C21.9141 5.597 21.4681 6.04297 20.918 6.04297C20.3678 6.04297 19.9219 5.597 19.9219 5.04688C19.9219 4.49675 20.3678 4.05078 20.918 4.05078C21.4681 4.05078 21.9141 4.49675 21.9141 5.04688Z" fill="#F84263"/>
</svg>
