<svg width="63" height="64" viewBox="0 0 63 64" fill="none" xmlns="http://www.w3.org/2000/svg">
<path fill-rule="evenodd" clip-rule="evenodd" d="M20.6646 14.3773L24.3485 13.3001L25.2575 17.0291L25.9404 19.8299L29.3167 13.96C29.8378 13.0541 30.752 12.601 31.6663 12.601C32.5794 12.601 33.4925 13.0529 34.0141 13.957L42.0651 27.9138L36.8641 30.9177L51.6594 35.2414L55.3083 20.2654L50.089 23.2798L39.6903 5.25332C38.0166 2.35021 35.0168 0.616335 31.6658 0.615234H31.6628C28.3131 0.615234 25.3133 2.34727 23.6384 5.24818L17.927 15.1777L20.6646 14.3773ZM61.662 43.3013L55.902 33.3218L54.3136 39.839L47.8789 37.9586L51.2899 43.8686C52.3341 45.6757 51.0295 47.934 48.9436 47.934H32.8166V41.9172L21.6732 52.5667L32.8166 63.2161V57.1994H53.6375C56.9876 57.1994 59.9868 55.4681 61.6619 52.5667C63.3371 49.6653 63.337 46.2014 61.662 43.3013ZM21.2118 57.1994H9.81863C6.48685 57.1994 3.36023 55.4745 1.68468 52.5946C-0.00664252 49.6879 -0.0120222 46.211 1.6683 43.3006L12.1054 25.2297L6.89889 22.2238L21.6936 17.898L25.3446 32.8735L20.13 29.8628L12.0413 43.8675C10.9976 45.6744 12.3016 47.9335 14.3884 47.9335H21.2121L19.1392 49.9146L16.3649 52.5666L19.1392 55.2186L21.2118 57.1994Z" fill="#7BA562"/>
</svg>
