<svg width="76" height="76" viewBox="0 0 76 76" fill="none" xmlns="http://www.w3.org/2000/svg">
<g clip-path="url(#clip0_60_615)">
<path d="M74.7184 33.1683L74.2795 32.9755C73.8836 32.8009 73.6261 32.4267 73.5671 31.9976C73.4516 31.161 73.2324 30.3365 72.9103 29.5434C72.7478 29.1428 72.7827 28.6902 73.0384 28.3412L73.3211 27.9561C73.6301 27.5349 73.6284 26.9673 73.3337 26.5364C72.9291 25.9454 72.4697 25.3812 71.9449 24.8564C71.4197 24.3317 70.856 23.8717 70.265 23.4677C69.8335 23.1725 69.2665 23.1713 68.8453 23.4797L68.4597 23.7624C68.1112 24.0182 67.658 24.0536 67.2575 23.8911C66.4644 23.569 65.6404 23.3498 64.8033 23.2342C64.3747 23.1753 63.9999 22.9178 63.8254 22.5219L63.6325 22.0835C63.422 21.6052 62.9299 21.3231 62.4092 21.3631C61.6951 21.4175 60.9769 21.5337 60.26 21.7253C59.543 21.9176 58.8626 22.1762 58.2172 22.4864C57.7463 22.7124 57.4613 23.2028 57.518 23.7218L57.5666 24.1658C57.6124 24.5852 57.4516 25.0098 57.1168 25.2673C56.7707 25.5328 56.4371 25.8229 56.1201 26.1399C56.0377 26.2223 56.1555 26.5038 56.0771 26.5885L59.0131 29.5245C59.0892 29.4381 59.1682 29.3534 59.2512 29.2704C61.5371 26.9839 65.2444 26.9839 67.5304 29.2704C69.8169 31.557 69.8169 35.2637 67.5304 37.5502C67.448 37.6326 67.3633 37.7116 67.2769 37.7883L70.214 40.7254C70.2987 40.6464 70.5791 40.7632 70.6615 40.6808C70.9785 40.3638 71.2686 40.0302 71.5341 39.684C71.791 39.3492 72.2156 39.1885 72.635 39.2342L73.0796 39.2829C73.5986 39.3401 74.089 39.0551 74.315 38.5836C74.6246 37.9382 74.8832 37.2584 75.0755 36.5414C75.2677 35.8239 75.3839 35.1058 75.4383 34.3917C75.4783 33.871 75.1962 33.3789 74.7184 33.1683Z" fill="#4987AA"/>
<path d="M51.4106 15.5439L51.0622 15.2641C50.7332 15.0004 50.5466 14.5861 50.6015 14.1678C50.6588 13.7352 50.6897 13.294 50.6897 12.846C50.6897 12.3974 50.6588 11.9568 50.6015 11.5236C50.5466 11.1054 50.7332 10.6911 51.0622 10.4273L51.4106 10.1475C51.8181 9.82076 51.9634 9.27258 51.79 8.77992C51.5526 8.10414 51.2544 7.44038 50.8836 6.79723C50.5123 6.15464 50.086 5.5647 49.6202 5.0211C49.2798 4.62514 48.7322 4.47636 48.2458 4.66576L47.7995 4.83914C47.3961 4.99593 46.9492 4.91296 46.6041 4.65146C45.9306 4.14162 45.1925 3.71362 44.404 3.38059C44.0057 3.21236 43.7105 2.86733 43.6453 2.43989L43.5726 1.96725C43.493 1.45169 43.0908 1.05115 42.5775 0.955017C41.8737 0.822838 41.1493 0.749023 40.4072 0.749023C39.665 0.749023 38.9406 0.822838 38.2374 0.955017C37.7241 1.05115 37.3213 1.45112 37.2423 1.96725L37.169 2.43989C37.1038 2.86733 36.8086 3.21236 36.4097 3.38059C35.6218 3.71362 34.8837 4.14162 34.2102 4.65146C33.8651 4.91296 33.4182 4.99593 33.0148 4.83914L32.5685 4.66576C32.4312 4.61198 32.2893 4.58623 32.1485 4.58451L32.0381 5.11323L35.7952 8.86975C36.9121 7.57542 38.5635 6.75488 40.4072 6.75488C43.7711 6.75488 46.4983 9.48201 46.4983 12.846C46.4983 14.6896 45.6777 16.341 44.3834 17.458L47.4178 20.4924L48.6686 21.1075C49.0263 21.1109 49.3765 20.9547 49.6196 20.6703C50.086 20.1273 50.5123 19.5374 50.8831 18.8942C51.2544 18.2516 51.5526 17.5873 51.79 16.9121C51.9634 16.4194 51.8181 15.8707 51.4106 15.5439Z" fill="#F84263"/>
<path d="M50.4595 35.1869C50.3983 34.6673 49.9978 34.2507 49.4839 34.1523C49.4839 34.1523 46.4661 33.5727 46.0078 33.484C45.5495 33.3953 45.1935 33.048 45.0722 32.5971C44.6065 30.8701 43.9204 29.2359 43.0472 27.7213C42.8143 27.3162 42.8206 26.8189 43.0827 26.4321L45.0705 23.4973C45.3641 23.0641 45.3532 22.4862 45.0287 22.0754C44.4617 21.3567 43.8586 20.6569 43.1948 19.9931C42.5311 19.3299 41.8318 18.7268 41.1126 18.1598C40.7017 17.8353 40.1244 17.8245 39.6907 18.118L36.7564 20.1058C36.3696 20.3679 35.8723 20.3742 35.4672 20.1407C33.9526 19.2676 32.3184 18.5821 30.5914 18.1163C30.1406 17.9944 29.7927 17.6391 29.7045 17.1807L29.0362 13.7046C28.9378 13.1902 28.5212 12.7896 28.0017 12.7284C27.0918 12.6208 26.1712 12.5527 25.2322 12.5527C24.2938 12.5527 23.3725 12.6208 22.4633 12.7284C21.9437 12.7896 21.5272 13.1902 21.4287 13.7046L20.7598 17.1807C20.6717 17.6385 20.3244 17.9944 19.8735 18.1163C18.1466 18.5821 16.5124 19.2676 14.9972 20.1407C14.5926 20.3736 14.0954 20.3679 13.7086 20.1058L10.7737 18.118C10.3406 17.8245 9.7632 17.8353 9.35178 18.1592C8.6331 18.7262 7.93329 19.3294 7.26953 19.9931L12.353 27.735C15.3651 23.9448 20.0148 21.5135 25.2328 21.5135C34.3136 21.5135 41.6751 28.8749 41.6751 37.9558C41.6751 43.2876 39.1368 48.026 35.2034 51.0301L43.1954 55.919C43.8592 55.2552 44.4623 54.5554 45.0293 53.8367C45.3532 53.4259 45.3641 52.8479 45.0711 52.4148L43.0833 49.4799C42.8212 49.0931 42.8149 48.5959 43.0478 48.1913C43.921 46.6761 44.6065 45.0419 45.0722 43.315C45.1941 42.8647 45.5495 42.5168 46.0078 42.4287L49.4839 41.7603C49.9983 41.6613 50.3989 41.2448 50.4601 40.7252C50.5677 39.816 50.6358 38.8947 50.6358 37.9563C50.6358 37.0179 50.5677 36.0967 50.4595 35.1869Z" fill="#F9F3F1"/>
<path d="M70.6627 40.6811L70.0167 40.0351C69.2161 39.2351 69.1183 38.0118 69.6836 37.031C70.5511 35.5278 70.8944 33.6842 70.4658 31.7495C69.8742 29.0814 67.721 26.9281 65.0528 26.3365C63.1182 25.9079 61.2751 26.2518 59.7713 27.1187C58.7912 27.684 57.5678 27.5862 56.7673 26.7857L56.1212 26.1396C55.8042 26.4566 55.5141 26.7902 55.2486 27.1364C54.9917 27.4712 54.5671 27.632 54.1477 27.5862L53.7031 27.5375C53.1841 27.4809 52.6937 27.7659 52.4677 28.2368C52.1582 28.8822 51.8995 29.5626 51.7073 30.2795C51.515 30.9965 51.3988 31.7152 51.3445 32.4287C51.305 32.9495 51.5871 33.4421 52.0649 33.6521L52.5032 33.845C52.8992 34.0189 53.1561 34.3937 53.2156 34.8217C53.3329 35.6663 53.5601 36.4931 53.8759 37.2851C54.035 37.6839 53.9984 38.1325 53.7443 38.4792L53.4616 38.8643C53.1527 39.2855 53.1544 39.8531 53.4491 40.284C53.8536 40.8751 54.3131 41.4393 54.8384 41.964C55.3631 42.4893 55.9273 42.9487 56.5184 43.3533C56.9492 43.648 57.5163 43.6497 57.9374 43.3407L58.3231 43.058C58.6693 42.804 59.1179 42.7673 59.5167 42.9264C60.3086 43.2417 61.1355 43.4694 61.9801 43.5862C62.4086 43.6457 62.7829 43.9032 62.9574 44.2991L63.1502 44.7369C63.3602 45.2152 63.8523 45.4973 64.373 45.4578C65.0871 45.4029 65.8058 45.2873 66.5228 45.0951C67.2398 44.9028 67.9195 44.6442 68.5656 44.334C69.0365 44.108 69.3214 43.6176 69.2648 43.0986L69.2162 42.6546C69.1698 42.2352 69.3306 41.81 69.6659 41.5537C70.0121 41.2882 70.3451 40.9981 70.6627 40.6811ZM66.8135 29.9889C68.7029 31.8789 68.7029 34.9424 66.8135 36.8319C64.9235 38.7219 61.5383 39.0434 59.6489 37.1534C57.7589 35.264 58.081 31.8789 59.9705 29.9889C61.8599 28.0994 64.9235 28.0994 66.8135 29.9889Z" fill="#3A7190"/>
<path d="M43.8877 34.938C42.868 26.8504 36.3369 20.3198 28.2494 19.3013C23.1064 18.653 18.3176 20.1608 14.6635 23.043C13.7085 23.796 12.3569 23.7628 11.4969 22.9033L7.92866 19.3345C7.2649 19.9983 6.6618 20.6981 6.09474 21.4173C5.77087 21.8282 5.76 22.4055 6.05354 22.8387L8.04138 25.7735C8.30345 26.1603 8.30974 26.6576 8.07629 27.0627C7.2031 28.5773 6.5176 30.2121 6.05183 31.9385C5.92995 32.3894 5.57461 32.7373 5.11627 32.8254L1.64013 33.4937C1.12572 33.5921 0.725746 34.0087 0.663948 34.5283C0.556374 35.4381 0.488281 36.3587 0.488281 37.2977C0.488281 38.2361 0.556374 39.1568 0.663948 40.0666C0.725174 40.5862 1.12572 41.0027 1.64013 41.1017L5.11627 41.7701C5.57461 41.8582 5.92995 42.2061 6.05183 42.657C6.5176 44.3833 7.2031 46.0175 8.07629 47.5327C8.30917 47.9379 8.30288 48.4351 8.04081 48.8219L6.05297 51.7562C5.75943 52.1893 5.77087 52.7673 6.09474 53.1781C6.6618 53.8974 7.2649 54.5966 7.92866 55.2604C8.59241 55.9241 9.29165 56.5272 10.0109 57.0943C10.4218 57.4182 10.9997 57.4296 11.4328 57.1361L14.3671 55.1482C14.7539 54.8861 15.2512 54.8799 15.6563 55.1127C17.1715 55.9859 18.8057 56.672 20.5326 57.1378C20.9829 57.2591 21.3297 57.6093 21.4178 58.0676C21.5963 58.9951 21.9002 60.5773 22.0884 61.554C22.1874 62.0679 22.6028 62.4639 23.1224 62.5251C24.0316 62.6327 24.9529 62.7007 25.8913 62.7007C26.8297 62.7007 27.751 62.6327 28.6602 62.5251C29.1798 62.4639 29.5963 62.0633 29.6953 61.5495L30.3637 58.0733C30.4518 57.615 30.7997 57.2591 31.2506 57.1378C32.9769 56.672 34.6117 55.9859 36.1263 55.1127C36.5314 54.8799 37.0241 54.8827 37.4109 55.1448L40.0866 56.957C40.7875 57.4325 41.3609 57.4182 41.7717 57.0943C42.491 56.5272 43.1902 55.9241 43.8539 55.2604L40.2857 51.6921C39.4262 50.8321 39.393 49.4805 40.1461 48.5261C43.0288 44.8714 44.536 40.0821 43.8877 34.938ZM25.8913 47.5631C20.2219 47.5631 15.6254 42.9671 15.6254 37.2972C15.6254 31.6277 20.2219 27.0318 25.8913 27.0318C31.5613 27.0318 36.1572 31.6277 36.1572 37.2972C36.1572 42.9671 31.5613 47.5631 25.8913 47.5631Z" fill="#ECE0DC"/>
<path d="M24.5377 23.7334C16.5212 23.7334 10.0215 30.2325 10.0215 38.2497C10.0215 46.2662 16.5206 52.7659 24.5377 52.7659C32.5549 52.7659 39.054 46.2668 39.054 38.2497C39.054 30.2325 32.5549 23.7334 24.5377 23.7334ZM24.5377 47.5394C19.8611 47.5394 15.6279 42.9263 15.6279 38.2497C15.6279 35.9111 17.0178 33.7945 18.5502 32.2621C20.0826 30.7297 22.1997 29.7816 24.5377 29.7816C29.2144 29.7816 33.0052 33.573 33.0052 38.2497C33.0052 40.5877 32.0577 42.7048 30.5253 44.2372C28.9929 45.7696 26.8763 47.5394 24.5377 47.5394Z" fill="#D8C9C4"/>
<path d="M18.5497 44.2361C15.2429 40.9293 15.2429 35.5677 18.5497 32.2604L17.7549 31.4656C17.2365 30.9472 16.3764 31.0044 15.9272 31.5835C12.613 35.8538 12.9169 42.0245 16.8393 45.9469C20.7612 49.8688 26.9319 50.1727 31.2022 46.8585C31.7813 46.4093 31.838 45.5493 31.3201 45.0314L30.5253 44.2361C27.218 47.5428 21.8564 47.5428 18.5497 44.2361Z" fill="#BEABA4"/>
<path d="M46.6996 16.4659C47.5665 14.9622 47.9104 13.1191 47.4813 11.1845C46.8902 8.5163 44.737 6.36309 42.0682 5.77143C40.1341 5.34285 38.2905 5.68675 36.7873 6.55364C35.8066 7.11897 34.5832 7.02113 33.7832 6.22061L32.1462 4.58411C31.7863 4.57896 31.4395 4.73574 31.1952 5.0207C30.7288 5.56429 30.3025 6.15424 29.9317 6.79682C29.5604 7.43998 29.2623 8.10374 29.0248 8.77951C28.852 9.27218 28.9968 9.82035 29.4042 10.1471L29.7526 10.4269C30.0817 10.6907 30.2682 11.1049 30.2133 11.5232C30.156 11.9564 30.1257 12.397 30.1257 12.8456C30.1257 13.2936 30.1566 13.7348 30.2133 14.1674C30.2688 14.5857 30.0822 14.9999 29.7526 15.2637L29.4042 15.5435C28.9968 15.8703 28.852 16.419 29.0248 16.9117C29.2623 17.5869 29.5604 18.2512 29.9317 18.8938C30.3025 19.537 30.7288 20.1269 31.1952 20.6699C31.5351 21.0665 32.0827 21.2152 32.569 21.0258L33.0154 20.8525C33.4188 20.6957 33.8651 20.7781 34.2101 21.039C34.8905 21.5534 35.636 21.9774 36.4194 22.3144C36.8131 22.4844 37.1049 22.8271 37.1701 23.2511L37.2428 23.7238C37.3218 24.2399 37.7246 24.6399 38.2379 24.7366C38.9411 24.8682 39.6655 24.942 40.4077 24.942C41.1498 24.942 41.8742 24.8682 42.5775 24.7366C43.0907 24.6399 43.4936 24.2399 43.5725 23.7238L43.6452 23.2511C43.7104 22.8271 44.0017 22.4844 44.3959 22.3144C45.1793 21.9774 45.9249 21.5534 46.6052 21.039C46.9503 20.7781 47.3966 20.6957 47.8 20.8525L48.2463 21.0258C48.3825 21.0785 48.529 21.1054 48.6692 21.1071L47.0321 19.47C46.2321 18.6701 46.1343 17.4461 46.6996 16.4659ZM40.4077 8.00646C43.0799 8.00646 45.2462 10.1728 45.2462 12.845C45.2462 14.1811 44.7049 15.3913 43.8289 16.2668C42.9534 17.1423 41.7438 18.8635 40.4077 18.8635C37.7355 18.8635 34.8401 15.5178 34.8401 12.845C34.8401 11.5089 36.1104 10.2993 36.9859 9.42381C37.8619 8.54834 39.0716 8.00646 40.4077 8.00646Z" fill="#D92C47"/>
<path d="M43.8293 16.2671C41.9393 18.1571 38.8758 18.1571 36.9863 16.2671C35.0964 14.3777 35.0964 11.3135 36.9863 9.4241L36.2179 8.65563C35.6937 8.13207 34.7988 8.17899 34.3845 8.79296C32.4808 11.6156 32.7778 15.4803 35.2755 17.978C37.7731 20.4751 41.6378 20.7721 44.4599 18.8689C45.0745 18.4546 45.1214 17.5597 44.5978 17.0356L43.8293 16.2671Z" fill="#C2263F"/>
<path d="M66.8127 36.8316C64.9228 38.7215 61.8592 38.7215 59.9697 36.8316C58.0798 34.9421 58.0798 31.8785 59.9697 29.9886L59.2013 29.2201C58.6771 28.6965 57.7822 28.7434 57.3679 29.3574C55.4642 32.1801 55.7612 36.0448 58.2589 38.5424C60.7565 41.0401 64.6212 41.3365 67.4439 39.4334C68.0579 39.0191 68.1048 38.1242 67.5812 37.6L66.8127 36.8316Z" fill="#1C5170"/>
</g>
<defs>
<clipPath id="clip0_60_615">
<rect width="75" height="75" fill="white" transform="translate(0.488281 0.749023)"/>
</clipPath>
</defs>
</svg>
