<svg width="33" height="35" viewBox="0 0 33 35" fill="none" xmlns="http://www.w3.org/2000/svg">
<path fill-rule="evenodd" clip-rule="evenodd" d="M16.0081 26.8371C16.1448 26.8936 16.2914 26.9226 16.4394 26.9225C16.6641 26.9239 16.8842 26.8588 17.0719 26.7353C17.2596 26.6117 17.4064 26.4354 17.494 26.2284C17.5815 26.0215 17.6058 25.7933 17.5638 25.5725C17.5217 25.3518 17.4152 25.1485 17.2577 24.9882C17.1727 24.9032 9.08491 16.741 9.08491 9.91792C9.08491 7.96316 9.86143 6.08847 11.2437 4.70625C12.6259 3.32402 14.5006 2.5475 16.4553 2.5475C18.4101 2.5475 20.2848 3.32402 21.667 4.70625C23.0492 6.08847 23.8258 7.96316 23.8258 9.91792C23.8258 13.8183 21.1688 18.1651 18.9476 21.1197C18.8471 21.238 18.772 21.3756 18.7268 21.5241C18.6816 21.6725 18.6672 21.8287 18.6846 21.9829C18.702 22.1371 18.7507 22.2861 18.8279 22.4208C18.905 22.5554 19.0089 22.6729 19.1331 22.7659C19.2574 22.8589 19.3993 22.9255 19.5503 22.9615C19.7012 22.9976 19.8579 23.0024 20.0108 22.9756C20.1637 22.9488 20.3094 22.8911 20.4391 22.8058C20.5688 22.7206 20.6797 22.6097 20.7649 22.48C23.1775 19.2492 26.0789 14.4454 26.0789 9.91792C25.9958 7.41817 24.9444 5.04855 23.1467 3.30959C21.349 1.57063 18.9458 0.59848 16.4447 0.59848C13.9436 0.59848 11.5404 1.57063 9.74267 3.30959C7.94498 5.04855 6.89358 7.41817 6.81055 9.91792C6.81055 17.6656 15.281 26.2317 15.6423 26.593C15.747 26.6976 15.8713 26.7805 16.0081 26.8371ZM16.44 12.7449C15.7674 12.7449 15.1098 12.5455 14.5505 12.1718C13.9913 11.7981 13.5554 11.2669 13.298 10.6455C13.0406 10.0241 12.9732 9.34025 13.1044 8.68053C13.2357 8.02082 13.5596 7.41483 14.0352 6.93921C14.5108 6.46358 15.1168 6.13968 15.7765 6.00845C16.4362 5.87722 17.12 5.94457 17.7415 6.20198C18.3629 6.45939 18.8941 6.89529 19.2678 7.45457C19.6415 8.01385 19.8409 8.67138 19.8409 9.34402C19.8409 10.246 19.4826 11.111 18.8448 11.7488C18.207 12.3866 17.342 12.7449 16.44 12.7449ZM16.44 8.20684C16.2151 8.20684 15.9952 8.27353 15.8082 8.39849C15.6212 8.52344 15.4754 8.70105 15.3894 8.90884C15.3033 9.11663 15.2808 9.34528 15.3247 9.56587C15.3685 9.78646 15.4769 9.98909 15.6359 10.1481C15.7949 10.3072 15.9976 10.4155 16.2181 10.4593C16.4387 10.5032 16.6674 10.4807 16.8752 10.3946C17.083 10.3086 17.2606 10.1628 17.3855 9.9758C17.5105 9.78879 17.5772 9.56893 17.5772 9.34402C17.5772 9.04242 17.4574 8.75317 17.2441 8.53991C17.0308 8.32665 16.7416 8.20684 16.44 8.20684ZM0.5625 25.7853C0.5625 30.7166 7.2368 34.2876 16.4405 34.2876C25.6336 34.2876 32.3079 30.7166 32.3186 25.7747C32.3186 22.6607 30.4587 20.3864 26.8027 18.9941C26.6624 18.9374 26.5122 18.9093 26.3608 18.9114C26.2095 18.9135 26.0601 18.9458 25.9214 19.0063C25.7828 19.0669 25.6576 19.1546 25.5532 19.2641C25.4488 19.3737 25.3674 19.503 25.3136 19.6445C25.2598 19.786 25.2349 19.9368 25.2401 20.088C25.2454 20.2392 25.2808 20.3879 25.3442 20.5253C25.4077 20.6627 25.4979 20.786 25.6097 20.8881C25.7214 20.9902 25.8524 21.0689 25.995 21.1197C29.6297 22.5013 30.0442 24.4462 30.0442 25.7853C30.0442 28.8355 24.9428 32.0239 16.4405 32.0239C7.93824 32.0239 2.82623 28.8461 2.82623 25.7853C2.82623 24.4462 3.25135 22.5013 6.89671 21.1303C7.03926 21.0795 7.17025 21.0008 7.28199 20.8987C7.39373 20.7967 7.48398 20.6733 7.54744 20.5359C7.6109 20.3985 7.64629 20.2499 7.65156 20.0986C7.65682 19.9474 7.63184 19.7966 7.57808 19.6551C7.52432 19.5137 7.44287 19.3844 7.33849 19.2748C7.23412 19.1652 7.10892 19.0775 6.97023 19.017C6.83154 18.9564 6.68216 18.9241 6.53084 18.922C6.37952 18.9199 6.2293 18.948 6.08899 19.0047C2.42238 20.3864 0.5625 22.6714 0.5625 25.7853Z" fill="#F84263"/>
</svg>
