<svg width="434" height="600" viewBox="0 0 434 600" fill="none" xmlns="http://www.w3.org/2000/svg">
<path fill-rule="evenodd" clip-rule="evenodd" d="M321.364 209.167C330.661 225.881 347.705 237.642 366.919 239.809L372.187 240.428C405.966 239.499 433.547 266.426 433.547 300.163C433.547 329.876 411.544 354.947 382.104 359.28C380.245 359.589 378.695 359.589 376.836 359.899C348.945 363.303 331.28 368.256 318.575 397.969C312.067 413.444 315.166 419.015 311.137 433.562C306.488 456.466 289.134 474.108 266.511 479.37C260.313 480.917 255.045 481.536 252.256 481.846C242.649 482.465 235.521 483.703 226.844 488.036C214.138 494.226 204.531 505.369 198.953 518.368C196.474 524.868 194.924 531.987 194.615 539.415C193.995 549.319 192.445 557.676 188.107 566.652C182.838 576.866 175.401 584.913 166.724 590.175L166.414 590.484C157.117 596.365 146.27 599.46 134.804 599.46C118.379 599.46 103.504 592.651 92.6576 582.127C81.8111 571.295 75.3032 556.438 75.3032 540.034C75.3032 523.63 82.121 508.773 92.6576 497.941C103.194 487.417 117.45 480.917 133.254 480.608C133.874 480.608 134.494 480.608 134.804 480.608C135.734 480.608 136.663 480.608 137.593 480.608C169.513 479.679 193.375 453.68 193.375 421.182C193.375 397.659 207.63 376.303 229.013 367.017C243.579 359.899 253.186 362.684 268.681 358.97C283.246 355.566 295.952 346.59 304.319 334.209C310.827 324.614 313.926 314.401 314.546 302.949C314.546 301.711 314.546 300.163 314.546 298.925C313.926 289.021 311.447 278.497 305.869 270.141C305.869 270.141 301.22 263.641 300.6 263.022C292.543 253.427 282.316 246.927 271.47 243.832C264.342 241.666 257.524 241.356 250.397 240.428C220.956 238.261 197.404 214.738 195.234 185.025L194.615 178.525C192.445 145.408 162.075 119.099 133.564 120.647C117.759 120.337 103.504 113.528 92.9675 103.314C82.121 92.4814 75.6131 77.6249 75.6131 61.2208C75.6131 44.8167 82.4309 29.9602 92.9675 19.1273C102.884 7.67545 117.759 0.866211 134.184 0.866211C150.609 0.866211 165.484 7.67545 176.331 18.1988C186.867 28.7222 193.375 42.9597 193.685 59.0542C193.995 62.4589 194.305 65.554 194.615 68.9586C195.234 72.6727 196.164 76.6964 197.404 80.4105C201.742 92.1719 207.32 99.9097 214.138 105.481C231.183 119.409 240.48 119.409 258.764 120.956C282.626 123.123 303.079 139.218 310.517 161.812C316.405 178.216 311.757 191.834 321.364 209.167ZM74.0636 181.001C74.0636 181.621 74.0636 182.549 74.0636 183.168C75.3032 214.738 102.264 240.428 134.804 240.428C140.382 241.047 145.96 241.666 151.539 243.523C176.021 251.57 192.755 274.474 192.445 300.473C192.445 315.329 187.177 330.495 175.401 342.257C162.075 355.875 149.679 358.97 132.015 361.137C99.7853 361.446 75.3032 386.517 73.7537 417.158C73.7537 418.087 73.7537 419.015 73.7537 419.944C73.7537 420.872 73.7537 421.801 73.7537 423.039V423.348C72.824 438.514 66.3161 452.133 56.3993 462.347C45.5528 473.18 30.6776 479.679 14.2529 479.679C-2.17175 479.679 -17.0469 472.87 -27.8934 462.347C-38.7399 451.514 -45.2478 436.657 -45.2478 420.253C-45.2478 403.849 -38.43 388.993 -27.8934 378.16C-25.1043 375.374 -22.0053 372.898 -18.5964 370.732C-15.8073 368.875 -13.0182 367.327 -10.2291 366.089C-3.10146 362.684 4.95595 360.827 13.3232 360.827C14.8727 360.518 16.4222 360.518 18.2816 360.208C49.5815 358.351 74.3735 332.352 74.3735 300.782C74.3735 275.402 58.2587 253.427 35.0162 244.761C28.5083 242.285 22.9301 241.666 16.7321 241.047C15.8024 241.047 15.1826 241.047 14.2529 241.047C-2.17175 241.047 -17.0469 234.237 -27.8934 223.714C-38.43 213.191 -44.9379 198.953 -45.2478 183.168V180.692C-45.2478 181.001 -45.2478 181.311 -45.2478 181.93V181.621C-45.2478 165.216 -38.43 150.36 -27.8934 139.527C-17.0469 128.694 -2.17175 122.194 14.2529 122.194C30.6776 122.194 45.5528 129.004 56.3993 139.527C67.2458 149.741 74.0636 164.597 74.0636 181.001ZM-62.9121 342.876C-74.6883 354.637 -89.8734 360.208 -105.058 360.208C-138.218 360.208 -164.869 333.59 -164.869 300.473C-164.869 267.665 -138.218 240.737 -105.058 240.737C-72.2091 240.737 -45.2478 267.355 -45.2478 300.473C-45.5577 315.948 -51.4458 331.114 -62.9121 342.876Z" fill="#DEE2E7"/>
</svg>
