<svg width="350" height="476" viewBox="0 0 350 476" fill="none" xmlns="http://www.w3.org/2000/svg">
<path fill-rule="evenodd" clip-rule="evenodd" d="M386.412 166.168C393.792 179.435 407.322 188.772 422.574 190.491L426.756 190.983C453.57 190.246 475.464 211.621 475.464 238.401C475.464 261.987 457.998 281.888 434.628 285.328C433.152 285.574 431.922 285.574 430.446 285.819C408.306 288.522 394.284 292.453 384.198 316.039C379.032 328.324 381.492 332.746 378.294 344.294C374.604 362.475 360.828 376.479 342.87 380.656C337.95 381.884 333.768 382.376 331.554 382.621C323.928 383.113 318.27 384.095 311.382 387.535C301.297 392.449 293.671 401.294 289.243 411.613C287.275 416.772 286.045 422.423 285.799 428.32C285.307 436.182 284.077 442.815 280.633 449.94C276.451 458.048 270.547 464.436 263.659 468.613L263.413 468.859C256.033 473.527 247.423 475.984 238.321 475.984C225.283 475.984 213.475 470.578 204.865 462.225C196.255 453.626 191.089 441.833 191.089 428.811C191.089 415.789 196.501 403.996 204.865 395.397C213.229 387.044 224.545 381.884 237.091 381.639C237.583 381.639 238.075 381.639 238.321 381.639C239.059 381.639 239.797 381.639 240.535 381.639C265.873 380.901 284.815 360.263 284.815 334.466C284.815 315.793 296.13 298.841 313.104 291.47C324.666 285.819 332.292 288.03 344.592 285.082C356.154 282.38 366.24 275.255 372.882 265.427C378.048 257.811 380.508 249.703 381 240.612C381 239.629 381 238.401 381 237.418C380.508 229.556 378.54 221.203 374.112 214.569C374.112 214.569 370.422 209.41 369.93 208.918C363.534 201.302 355.416 196.142 346.806 193.685C341.148 191.965 335.736 191.72 330.078 190.983C306.708 189.263 288.013 170.59 286.291 147.004L285.799 141.845C284.077 115.556 259.969 94.6721 237.337 95.9006C224.791 95.6549 213.475 90.2497 205.111 82.1419C196.501 73.5427 191.335 61.7496 191.335 48.728C191.335 35.7064 196.747 23.9133 205.111 15.3141C212.983 6.22355 224.791 0.818359 237.829 0.818359C250.867 0.818359 262.675 6.22355 271.285 14.577C279.649 22.9305 284.815 34.2323 285.061 47.0082C285.307 49.7108 285.553 52.1677 285.799 54.8703C286.291 57.8185 287.029 61.0125 288.013 63.9608C291.457 73.297 295.885 79.4393 301.297 83.8617C314.826 94.9178 322.206 94.9178 336.72 96.1462C355.662 97.8661 371.898 110.642 377.802 128.577C382.476 141.599 378.786 152.409 386.412 166.168ZM190.105 143.81C190.105 144.302 190.105 145.039 190.105 145.53C191.089 170.59 212.491 190.983 238.321 190.983C242.749 191.474 247.177 191.966 251.605 193.44C271.039 199.828 284.323 218.009 284.077 238.647C284.077 250.44 279.895 262.479 270.547 271.815C259.969 282.625 250.129 285.082 236.107 286.802C210.523 287.048 191.089 306.949 189.859 331.272C189.859 332.009 189.859 332.746 189.859 333.483C189.859 334.22 189.859 334.957 189.859 335.94V336.186C189.121 348.225 183.955 359.035 176.083 367.143C167.473 375.742 155.665 380.901 142.627 380.901C129.589 380.901 117.781 375.496 109.171 367.143C100.561 358.544 95.3951 346.75 95.3951 333.729C95.3951 320.707 100.807 308.914 109.171 300.315C111.385 298.104 113.845 296.138 116.551 294.418C118.765 292.944 120.979 291.716 123.193 290.733C128.851 288.03 135.247 286.556 141.889 286.556C143.119 286.311 144.349 286.311 145.825 286.065C170.671 284.591 190.351 263.953 190.351 238.892C190.351 218.746 177.559 201.302 159.109 194.422C153.943 192.457 149.515 191.965 144.595 191.474C143.857 191.474 143.365 191.474 142.627 191.474C129.589 191.474 117.781 186.069 109.171 177.715C100.807 169.362 95.6411 158.06 95.3951 145.53V143.564C95.3951 143.81 95.3951 144.056 95.3951 144.547V144.302C95.3951 131.28 100.807 119.487 109.171 110.888C117.781 102.288 129.589 97.129 142.627 97.129C155.665 97.129 167.473 102.534 176.083 110.888C184.693 118.995 190.105 130.789 190.105 143.81ZM81.3732 272.306C72.0252 281.643 59.9713 286.065 47.9173 286.065C21.5954 286.065 0.439453 264.936 0.439453 238.647C0.439453 212.604 21.5954 191.228 47.9173 191.228C73.9932 191.228 95.3951 212.358 95.3951 238.647C95.1491 250.931 90.4752 262.97 81.3732 272.306Z" fill="#DEE2E7"/>
</svg>
