<svg width="31" height="35" viewBox="0 0 31 35" fill="none" xmlns="http://www.w3.org/2000/svg">
<path fill-rule="evenodd" clip-rule="evenodd" d="M1.84105 14.0282H2.02172C2.29111 14.0295 2.55222 13.9351 2.75853 13.7619C2.96484 13.5887 3.10296 13.3478 3.14827 13.0823C3.6405 10.1787 5.14481 7.54305 7.39459 5.64256C9.64437 3.74207 12.4943 2.69943 15.4394 2.69943C18.3844 2.69943 21.2344 3.74207 23.4842 5.64256C25.734 7.54305 27.2383 10.1787 27.7305 13.0823C27.7406 13.241 27.7839 13.3959 27.8576 13.5369C27.9313 13.6778 28.0337 13.8018 28.1583 13.9007C28.2829 13.9996 28.4268 14.0712 28.5808 14.1111C28.7348 14.1509 28.8954 14.1579 29.0523 14.1318C29.2092 14.1056 29.3589 14.0468 29.4917 13.9592C29.6244 13.8716 29.7374 13.7572 29.8231 13.6232C29.9089 13.4892 29.9656 13.3388 29.9896 13.1815C30.0135 13.0243 30.0043 12.8638 29.9624 12.7103C29.4623 9.69273 28.0274 6.90834 25.86 4.75005C23.9465 2.83794 21.5437 1.48926 18.9147 0.851693C16.2858 0.21413 13.5321 0.312276 10.9553 1.13538C8.3784 1.95849 6.07771 3.47481 4.30516 5.5183C2.53262 7.56178 1.35656 10.0536 0.905795 12.7209C0.856639 13.0183 0.92753 13.323 1.10289 13.5681C1.27826 13.8132 1.54375 13.9787 1.84105 14.0282ZM1.69923 26.6464C2.33703 27.2841 3.20206 27.6425 4.10404 27.6425C5.00602 27.6425 5.87105 27.2841 6.50885 26.6464C7.14664 26.0086 7.50495 25.1435 7.50495 24.2415V19.7034C7.50495 18.8015 7.14664 17.9364 6.50885 17.2986C5.87105 16.6608 5.00602 16.3025 4.10404 16.3025H1.84031C1.53871 16.3025 1.24946 16.4223 1.0362 16.6356C0.822935 16.8489 0.703125 17.1381 0.703125 17.4397V24.2415C0.703125 25.1435 1.06143 26.0086 1.69923 26.6464ZM2.96686 24.2415V18.5663H4.09341C4.39501 18.5663 4.68426 18.6861 4.89752 18.8993C5.11078 19.1126 5.23059 19.4018 5.23059 19.7034V24.2415C5.20331 24.5228 5.07227 24.7838 4.86303 24.9738C4.65378 25.1637 4.38131 25.2689 4.09873 25.2689C3.81614 25.2689 3.54367 25.1637 3.33443 24.9738C3.12518 24.7838 2.99415 24.5228 2.96686 24.2415ZM10.7686 7.23697C10.5212 7.22818 10.2834 7.13886 10.0913 6.98259C9.89922 6.82631 9.7634 6.61161 9.70448 6.37111C9.64556 6.1306 9.66674 5.87744 9.76482 5.65008C9.8629 5.42271 10.0325 5.23357 10.2479 5.11139C11.8576 4.29785 13.636 3.87399 15.4396 3.87399C17.2432 3.87399 19.0216 4.29785 20.6313 5.11139C20.7695 5.17751 20.8929 5.27087 20.9942 5.38587C21.0954 5.50087 21.1724 5.63515 21.2204 5.78063C21.2685 5.92611 21.2866 6.0798 21.2738 6.23247C21.261 6.38515 21.2174 6.53365 21.1457 6.66908C21.0741 6.8045 20.9758 6.92405 20.8568 7.02054C20.7378 7.11704 20.6005 7.18849 20.4532 7.23061C20.3059 7.27273 20.1516 7.28465 19.9996 7.26565C19.8476 7.24666 19.7009 7.19713 19.5685 7.12006C18.2842 6.46165 16.8616 6.11826 15.4183 6.11826C13.9751 6.11826 12.5525 6.46165 11.2682 7.12006C11.1129 7.19692 10.9419 7.23693 10.7686 7.23697ZM26.7829 16.3025H29.0573C29.357 16.3053 29.6435 16.4264 29.8545 16.6393C30.0655 16.8523 30.1838 17.1399 30.1838 17.4397V26.5159C30.181 28.0174 29.5833 29.4566 28.5216 30.5183C27.4599 31.58 26.0207 32.1778 24.5192 32.1806H18.6313C18.3643 32.9372 17.8383 33.5751 17.1463 33.9814C16.4544 34.3877 15.641 34.5363 14.8501 34.4008C14.0592 34.2653 13.3417 33.8546 12.8244 33.2411C12.3071 32.6277 12.0234 31.8511 12.0234 31.0487C12.0234 30.2463 12.3071 29.4697 12.8244 28.8563C13.3417 28.2428 14.0592 27.8321 14.8501 27.6966C15.641 27.5611 16.4544 27.7097 17.1463 28.116C17.8383 28.5223 18.3643 29.1602 18.6313 29.9168H24.5192C25.2495 29.9144 25.9596 29.6763 26.5437 29.2377C27.1278 28.7992 27.5546 28.1838 27.7607 27.4831C27.4444 27.5842 27.1149 27.638 26.7829 27.6425C25.8809 27.6425 25.0159 27.2842 24.3781 26.6464C23.7403 26.0086 23.382 25.1435 23.382 24.2416V19.7034C23.382 18.8015 23.7403 17.9364 24.3781 17.2986C25.0159 16.6608 25.8809 16.3025 26.7829 16.3025ZM14.8112 31.9889C14.9982 32.1139 15.2181 32.1806 15.443 32.1806C15.7446 32.1806 16.0338 32.0608 16.2471 31.8475C16.4603 31.6342 16.5802 31.345 16.5802 31.0434C16.5802 30.8185 16.5135 30.5986 16.3885 30.4116C16.2635 30.2246 16.0859 30.0788 15.8782 29.9928C15.6704 29.9067 15.4417 29.8842 15.2211 29.9281C15.0005 29.9719 14.7979 30.0802 14.6389 30.2393C14.4798 30.3983 14.3715 30.6009 14.3276 30.8215C14.2838 31.0421 14.3063 31.2708 14.3924 31.4786C14.4784 31.6864 14.6242 31.864 14.8112 31.9889ZM27.5525 24.9738C27.7618 24.7839 27.8928 24.5228 27.9201 24.2416L27.9307 18.5663H26.7935C26.4919 18.5663 26.2027 18.6861 25.9894 18.8993C25.7762 19.1126 25.6563 19.4018 25.6563 19.7034V24.2416C25.6836 24.5228 25.8147 24.7839 26.0239 24.9738C26.2332 25.1637 26.5056 25.2689 26.7882 25.2689C27.0708 25.2689 27.3433 25.1637 27.5525 24.9738Z" fill="#F84263"/>
</svg>
