<svg width="77" height="83" viewBox="0 0 77 83" fill="none" xmlns="http://www.w3.org/2000/svg">
<path fill-rule="evenodd" clip-rule="evenodd" d="M0.338867 61.9848C2.74465 62.7797 6.88795 62.7355 9.1378 62.581L9.8729 62.5368L9.1378 65.915C11.1872 64.7227 13.437 63.9499 15.8651 64.3474C18.8055 64.8331 21.3227 66.9748 23.372 69.0062L24.1294 69.7569L19.5406 70.5297C19.9416 70.6622 20.3648 70.7946 20.7435 70.9492C22.1469 71.5012 23.3497 72.1857 24.5304 73.113C26.2456 74.4378 27.7826 76.0938 29.2083 77.7056C31.7923 80.6422 34.599 82.7398 38.6755 82.7398C42.752 82.7398 45.5587 80.6201 48.1427 77.7056C49.5683 76.0938 51.1276 74.4378 52.8206 73.113C54.0012 72.1857 55.2041 71.5012 56.6075 70.9492C57.0085 70.7946 57.4094 70.6622 57.8104 70.5297L53.1993 69.7569L53.9567 69.0062C56.006 66.9748 58.5232 64.8552 61.4636 64.3474C63.8917 63.9499 66.1638 64.7227 68.1909 65.915L67.4558 62.5368L68.1909 62.581C70.4408 62.7355 74.584 62.8018 76.9898 61.9848C75.2746 59.9976 74.1831 57.8338 73.4703 55.2726C73.047 53.7491 72.7574 52.1814 72.4901 50.5917C72.2228 48.9577 71.9778 47.3459 71.6214 45.7341L71.3318 44.3652L72.4901 45.16C73.4925 45.8445 74.4949 46.5511 75.4973 47.2355C74.985 39.6622 72.1114 32.155 65.9188 27.3637L65.5178 27.0546L65.7851 26.6351C67.4781 23.9414 68.3691 20.9164 68.5028 17.759C68.5919 15.4407 68.28 13.1223 67.634 10.8922C66.9657 8.61801 65.9856 6.45419 64.6936 4.46701C63.7135 2.87727 62.5106 1.42 61.1963 0.0952148C60.2607 4.29037 57.699 6.82955 54.0903 9.36872C53.823 9.54536 53.578 9.74407 53.3107 9.92071L53.177 10.009L50.2812 10.2519C48.7219 10.3844 47.2071 10.826 45.8483 11.6209L45.7592 11.665L43.5984 11.9741C41.9277 12.217 40.3462 12.9898 39.0542 14.0496L38.6978 14.3367L38.3414 14.0496C37.0494 12.9898 35.4678 12.217 33.7971 11.9741L31.6363 11.665L31.5472 11.6209C30.1884 10.8481 28.6737 10.3844 27.1144 10.2519L24.2185 10.009L24.0848 9.92071C23.8175 9.74407 23.5502 9.54536 23.3052 9.36872C19.652 6.82955 17.0903 4.29037 16.1547 0.0952148C14.8181 1.42 13.6375 2.87727 12.6351 4.46701C11.3654 6.45419 10.363 8.61801 9.69469 10.8922C9.0487 13.1223 8.73684 15.4407 8.82594 17.759C8.95959 20.9164 9.85063 23.9414 11.5436 26.6572L11.8109 27.0767L11.4099 27.3858C5.21726 32.1771 2.34369 39.6842 1.83134 47.2576C2.83375 46.5731 3.83616 45.8666 4.83857 45.1821L5.99692 44.3872L5.70733 45.7562C5.35092 47.368 5.10588 49.0019 4.83857 50.6137C4.57127 52.1814 4.30396 53.7491 3.85844 55.2946C3.14562 57.8338 2.0541 59.9976 0.338867 61.9848Z" fill="white"/>
<path d="M64.8268 50.5254C63.5348 49.9072 61.7527 48.9798 60.6835 47.7654C60.5053 49.5539 60.9508 52.6451 62.3319 54.4556C59.2579 52.7334 55.471 53.2412 54.0676 54.2348C55.2259 54.3231 56.3175 54.5881 57.1194 55.0076C52.0851 55.0959 48.5655 58.5183 46.1597 64.3253C46.0706 63.9499 46.0038 63.5746 45.9369 63.1992C45.9369 54.1023 53.3993 48.0304 52.9315 43.4378C52.5751 44.4535 51.9514 45.5133 51.0604 46.3965C51.3277 45.425 51.3945 44.4755 51.1718 43.6807C50.7262 42.0026 49.5011 40.5895 48.0309 39.4634C50.9267 39.0881 53.1543 37.1009 54.1344 34.0981C53.4884 33.4798 52.6197 32.9278 51.595 32.5304C52.7088 31.8901 53.778 31.581 54.8027 31.9784C49.4565 26.5468 43.7316 38.8673 40.4348 37.2555C41.1699 38.2049 41.9496 38.5582 42.7961 38.514C42.8406 38.5361 42.8852 38.5582 42.9297 38.5803C45.1796 39.5959 48.3427 42.0468 48.9442 44.2548C49.4342 46.0211 47.073 49.4656 45.3801 50.2384C44.4222 50.68 41.5263 50.4371 39.5661 49.9734C39.4992 49.6864 39.4992 49.3773 39.5661 49.0681C39.8557 48.9136 40.123 48.7811 40.3903 48.6265C41.1254 46.4186 43.0856 45.2042 42.9297 46.8822C50.303 40.5233 27.0248 40.5233 34.3981 46.8822C34.2422 45.2042 36.2024 46.4186 36.9375 48.6265C37.2048 48.7811 37.4721 48.9136 37.7617 49.0681C37.8286 49.3773 37.8286 49.6864 37.7617 49.9734C35.8237 50.4371 32.9056 50.68 31.9478 50.2384C30.2771 49.4435 27.9158 46.0211 28.3836 44.2548C28.9851 42.0468 32.1482 39.5959 34.3981 38.5803C34.4426 38.5582 34.4872 38.5361 34.5317 38.514C35.3782 38.5361 36.1579 38.1828 36.893 37.2555C33.5962 38.8452 27.8713 26.5468 22.5251 31.9784C23.5498 31.581 24.619 31.8901 25.7328 32.5304C24.7081 32.9058 23.8171 33.4798 23.1934 34.0981C24.1735 37.1009 26.4011 39.0881 29.2969 39.4634C27.8267 40.5895 26.6016 42.0026 26.1561 43.6807C25.9333 44.4755 26.0001 45.425 26.2674 46.3965C25.3987 45.4912 24.775 44.4535 24.3963 43.4378C23.9285 48.0304 31.3909 54.1023 31.3909 63.1992C31.3463 63.5746 31.2572 63.9499 31.1681 64.3253C28.74 58.5183 25.2427 55.118 20.2084 55.0076C21.0103 54.5881 22.1019 54.3231 23.2602 54.2348C21.8568 53.2412 18.0699 52.7334 14.9959 54.4556C16.3993 52.6451 16.8225 49.576 16.6443 47.7654C15.5751 48.9798 13.8153 49.9072 12.501 50.5254C12.1223 45.0496 13.2138 41.2961 15.7755 37.1451C13.3252 37.0788 10.2289 37.7854 8.15723 38.9777C11.7882 31.2056 17.6467 26.7676 25.1314 26.7013C23.8839 26.1493 22.6365 25.8402 21.4113 25.7298C20.6985 25.2441 20.1639 24.5375 19.6515 23.4998C20.1193 23.7647 21.3668 23.853 21.9682 23.4998C20.1639 23.1686 19.0946 21.9321 18.7159 20.232C19.3842 21.0268 20.6094 21.5788 22.3469 21.5347C20.4535 18.0019 16.3102 17.0525 15.3078 13.8068C14.1717 16.103 13.9267 19.0838 14.4835 21.9763C13.1247 17.9798 13.548 13.1444 15.486 9.10376C19.4733 14.7341 28.6287 14.4912 29.6534 22.9257C30.1434 21.4464 30.2325 20.1436 30.0098 18.9734C30.3216 17.8253 30.4107 16.4784 30.1211 15.4407C31.9032 16.3901 32.9724 18.4214 33.4848 20.8723C34.7545 19.967 35.5564 18.576 35.8237 16.9421C36.8039 17.4941 37.8731 18.7526 38.675 20.9827C39.477 18.7526 40.5462 17.4941 41.5263 16.9421C41.7936 18.5539 42.5956 19.967 43.8653 20.8723C44.3776 18.4214 45.4469 16.3901 47.2289 15.4407C46.9616 16.4784 47.0507 17.8473 47.3403 18.9734C47.1176 20.1436 47.1844 21.4243 47.6967 22.9257C48.7214 14.5133 57.8768 14.7341 61.8641 9.10376C63.8021 13.1444 64.2254 17.9798 62.8665 21.9542C63.4234 19.0617 63.1784 16.081 62.0423 13.7847C61.0176 17.0304 56.8966 17.9798 55.0032 21.5126C56.7407 21.5788 57.9659 21.0048 58.6341 20.2099C58.2332 21.9321 57.1862 23.1465 55.3819 23.4777C55.9833 23.831 57.2085 23.7426 57.6986 23.4777C57.2085 24.5154 56.6516 25.222 55.9388 25.7077C54.7136 25.8181 53.4662 26.1273 52.2187 26.6793C59.7256 26.7455 65.5842 31.1835 69.1929 38.9556C67.1212 37.7633 64.0249 37.0567 61.5745 37.123C64.114 41.274 65.2055 45.0275 64.8268 50.5254ZM32.7942 72.6714C36.5143 76.7783 40.8358 76.7783 44.5558 72.6714C42.1501 80.2006 35.2 80.2006 32.7942 72.6714Z" fill="#3C87E4"/>
<path d="M64.827 50.5254C63.535 49.9072 61.7529 48.9798 60.6837 47.7654C60.6614 48.0525 60.6391 48.3837 60.6391 48.7149L52.7535 45.2704C52.9317 44.6301 52.9986 44.0119 52.9317 43.4378C52.7535 43.9677 52.4862 44.4976 52.1521 45.0275L51.3056 44.6522C51.3056 44.321 51.261 43.9898 51.1719 43.6807C50.7264 42.0026 49.5013 40.5895 48.0311 39.4634C50.9269 39.0881 53.1545 37.1009 54.1346 34.0981C53.4886 33.4798 52.6199 32.9278 51.5952 32.5304C51.7734 32.42 51.9516 32.3317 52.1075 32.2434C56.0726 32.6408 60.1268 34.2747 63.0449 37.1671C62.5326 37.123 62.0202 37.1009 61.5302 37.123C64.1142 41.274 65.2057 45.0275 64.827 50.5254ZM42.9522 36.6151C42.0166 37.2775 41.1701 37.6087 40.435 37.2555C40.8583 37.8075 41.2815 38.1387 41.7493 38.3374C40.5909 38.6023 39.3881 38.4478 38.6752 37.7633C37.9624 38.4478 36.7372 38.6023 35.6012 38.3374C36.0467 38.1387 36.4922 37.7854 36.9154 37.2555C36.1803 37.6087 35.3339 37.2775 34.3983 36.6151C37.5169 35.754 36.8932 31.5589 34.2423 28.556L36.4699 28.4677L38.6752 30.5432L40.8805 28.4677L43.1081 28.556C40.4573 31.5589 39.8336 35.7761 42.9522 36.6151ZM25.2207 32.2434C25.3989 32.3317 25.5771 32.42 25.733 32.5304C24.7083 32.9057 23.8173 33.4798 23.1936 34.0981C24.1737 37.1009 26.4013 39.0881 29.2971 39.4634C27.8269 40.5895 26.6018 42.0026 26.1562 43.6807C26.0671 43.9898 26.0226 44.2989 26.0226 44.6522L25.1761 45.0275C24.842 44.5197 24.5969 43.9677 24.3965 43.4378C24.3296 44.034 24.3965 44.6301 24.5747 45.2704L16.689 48.7149C16.689 48.3616 16.689 48.0525 16.6445 47.7654C15.5752 48.9798 13.8155 49.9072 12.5012 50.5254C12.1225 45.0496 13.214 41.2961 15.7757 37.1451C15.2857 37.123 14.7733 37.1451 14.261 37.1892C17.2014 34.2968 21.2556 32.6629 25.2207 32.2434ZM12.3453 37.4542C10.8305 37.7633 9.33803 38.2711 8.17969 38.9556C10.9196 33.1045 14.907 29.1301 19.9413 27.4962C15.4416 29.7042 13.0581 33.524 12.3453 37.4542ZM22.904 25.9285C22.4139 25.8181 21.9238 25.7519 21.4338 25.7077C20.721 25.222 20.1863 24.5154 19.674 23.4777C20.1418 23.7426 21.3892 23.831 21.9907 23.4777C20.1863 23.1465 19.1171 21.91 18.7384 20.2099C19.4067 21.0048 20.6318 21.5567 22.3694 21.5126C20.4759 17.9798 16.3326 17.0304 15.3302 13.7847C14.1941 16.081 13.9491 19.0617 14.506 21.9542C13.1249 17.9798 13.5482 13.1444 15.4861 9.10376C15.5084 9.14792 15.553 9.19208 15.5975 9.23624C16.6222 13.5639 25.8889 18.2889 22.904 25.9285ZM61.7529 9.23624C61.7975 9.19208 61.8198 9.14792 61.8643 9.10376C63.8023 13.1444 64.2256 17.9798 62.8667 21.9542C63.4236 19.0617 63.1786 16.081 62.0425 13.7847C61.0178 17.0304 56.8968 17.9798 55.0034 21.5126C56.7409 21.5788 57.9661 21.0048 58.6343 20.2099C58.2334 21.9321 57.1864 23.1465 55.3821 23.4777C55.9835 23.831 57.2087 23.7426 57.6987 23.4777C57.2087 24.5154 56.6518 25.222 55.939 25.7077C55.4489 25.7519 54.9588 25.8181 54.4688 25.9285C51.4615 18.2889 60.7283 13.5639 61.7529 9.23624ZM57.4092 27.5183C62.4212 29.1522 66.4308 33.1045 69.1708 38.9777C68.0124 38.2932 66.52 37.7854 65.0052 37.4763C64.2701 33.524 61.9089 29.7042 57.4092 27.5183Z" fill="#1B4F8F"/>
<path d="M64.8268 50.525C63.5348 49.9068 61.7527 48.9795 60.6835 47.7651C60.5053 49.5535 60.9508 52.6447 62.3319 54.4552C59.2578 52.733 55.471 53.2409 54.0676 54.2344C55.2259 54.3228 56.3174 54.5877 57.1194 55.0072C52.085 55.0956 48.5655 58.5179 46.1597 64.3249C46.0706 63.9495 46.0038 63.5742 45.9369 63.1988C45.9369 54.102 53.3993 48.03 52.9315 43.4374C52.5751 44.4531 51.9514 45.5129 51.0604 46.3961C51.3277 45.4246 51.3945 44.4752 51.1717 43.6803C50.7262 42.0022 49.5011 40.5891 48.0308 39.4631C49.3006 39.3085 50.4589 38.8228 51.4168 38.072C54.5354 37.785 58.055 38.5578 60.6389 41.2074C59.7256 40.8983 57.4758 40.3021 56.0724 41.0749C59.4806 41.5827 63.0893 44.4531 64.8268 50.525ZM46.9839 41.3619C47.9417 42.2893 48.6991 43.305 48.9664 44.2544C49.4565 46.0208 47.0953 49.4652 45.4023 50.238C44.4445 50.6796 41.5486 50.4367 39.5883 49.973C39.5215 49.686 39.5215 49.3769 39.5883 49.0678C39.8779 48.9132 40.1452 48.7807 40.4125 48.6262C41.1476 46.4182 43.1079 45.2038 42.952 46.8819C44.5336 45.5129 44.6895 44.4531 44.0658 43.6803C44.4222 43.2608 44.6895 42.775 44.8454 42.1568C45.5582 42.5984 46.026 43.3491 46.3379 44.2544C46.5829 43.2387 46.4493 41.7373 45.5805 41.0307C46.026 41.097 46.4938 41.2074 46.9839 41.3619ZM33.2843 43.7024C32.6606 44.4752 32.8165 45.5571 34.3981 46.904C34.2421 45.2259 36.2024 46.4403 36.9375 48.6483C37.2048 48.8028 37.4721 48.9353 37.7617 49.0899C37.8285 49.399 37.8285 49.7081 37.7617 49.9951C35.8237 50.4588 32.9056 50.7017 31.9477 50.2601C30.2771 49.4652 27.9158 46.0428 28.3836 44.2765C28.6509 43.305 29.4083 42.2893 30.3662 41.384C30.8339 41.2295 31.324 41.1191 31.7695 41.0307C30.8785 41.7594 30.7671 43.2387 31.0122 44.2544C31.324 43.3491 31.7918 42.6205 32.5046 42.1568C32.6606 42.775 32.9279 43.2829 33.2843 43.7024ZM25.911 38.0941C26.8689 38.8228 28.0272 39.3085 29.2969 39.4851C27.8267 40.6112 26.6015 42.0243 26.156 43.7024C25.9333 44.4973 26.0001 45.4467 26.2674 46.4182C25.3987 45.5129 24.7749 44.4752 24.3962 43.4595C23.9285 48.0521 31.3908 54.124 31.3908 63.2209C31.3463 63.5963 31.2572 63.9716 31.1681 64.347C28.74 58.54 25.2427 55.1397 20.2084 55.0293C21.0103 54.6098 22.1018 54.3448 23.2602 54.2565C21.8568 53.2629 18.0699 52.7551 14.9959 54.4773C16.3992 52.6668 16.8225 49.5977 16.6443 47.7871C15.575 49.0015 13.8152 49.9289 12.501 50.5471C14.2608 44.4752 17.8472 41.6269 21.2331 41.1191C19.8297 40.3463 17.5799 40.9424 16.6665 41.2515C19.2728 38.5799 22.7701 37.8071 25.911 38.0941ZM32.7942 72.6711C36.5143 76.7779 40.8358 76.7779 44.5558 72.6711C42.15 80.2003 35.2 80.2003 32.7942 72.6711Z" fill="white"/>
<path d="M26.1115 34.9153C26.5793 34.6062 27.3144 34.2971 27.9381 34.1425C29.3192 35.3128 30.7226 36.6596 32.0592 37.5428C29.4529 37.9844 26.9357 37.1454 26.1115 34.9153ZM34.4427 41.5393C37.0267 40.4574 40.3012 40.4574 42.8852 41.5393C40.524 38.6027 36.8262 38.6027 34.4427 41.5393ZM38.6751 28.5784C36.9376 27.1212 34.4872 26.9004 31.725 27.5407C34.2867 28.1589 37.4945 30.4994 38.6751 33.2373C39.8557 30.4994 43.0411 28.1589 45.6251 27.5407C42.8629 26.9004 40.4126 27.1212 38.6751 28.5784ZM73.5144 43.8576C72.2669 36.8363 68.2127 30.4552 63.1116 27.4745C69.0369 20.718 67.0321 8.94953 61.8864 3.09839C60.3494 8.81705 52.5083 11.3562 48.9665 15.6839C49.1447 14.1824 49.7461 12.7472 50.4144 11.9082C47.5854 12.1511 45.0682 13.5863 43.5535 16.1696C43.197 15.5514 43.3307 14.2266 43.8208 13.6304C42.1055 13.8733 40.0562 14.9552 38.6751 16.8541C37.3162 14.9552 35.2669 13.8733 33.5294 13.6304C34.0194 14.2266 34.1531 15.5735 33.7967 16.1696C32.2819 13.5863 29.7425 12.1511 26.9357 11.9082C27.604 12.7693 28.2055 14.1824 28.3837 15.6839C24.8418 11.3562 17.0007 8.81705 15.4637 3.09839H15.4414C10.318 8.97161 8.29091 20.718 14.2163 27.4745C9.09284 30.4773 5.06092 36.8584 3.81348 43.8576C4.81589 43.1511 7.48898 41.6717 9.24877 41.2081C6.35292 44.6967 6.90981 55.295 3.92486 59.5784C5.48416 59.446 8.33546 58.5628 9.87249 57.4146C9.4047 58.4303 8.24636 59.9538 6.86526 60.7487C8.38001 61.3007 11.4095 60.7707 13.0802 59.8213C12.3005 60.6603 11.6768 61.9851 11.3872 63.332C19.2951 59.8434 22.7479 67.0414 28.3837 71.347C27.0694 70.9937 25.7774 70.9716 24.5522 71.2807C28.9406 72.473 31.1681 81.1283 38.6528 81.1283C46.1375 81.1283 48.365 72.473 52.7534 71.2807C51.5282 70.9716 50.2139 70.9937 48.9219 71.347C54.5577 67.0635 58.0104 59.8434 65.9183 63.332C65.6288 61.9631 65.005 60.6603 64.2254 59.8213C65.8961 60.7707 68.9256 61.3007 70.4403 60.7487C69.0815 59.9538 67.9232 58.4303 67.4331 57.4146C68.9701 58.5628 71.8214 59.446 73.3807 59.5784C70.3958 55.295 70.9527 44.7188 68.0568 41.2081C69.8612 41.6717 72.512 43.1732 73.5144 43.8576ZM45.291 37.5428C46.6275 36.6596 48.0309 35.3128 49.412 34.1425C50.0357 34.2971 50.7708 34.6062 51.2386 34.9153C50.4144 37.1454 47.8972 37.9844 45.291 37.5428ZM64.8268 50.5257C63.5348 49.9075 61.7528 48.9801 60.6835 47.7658C60.5053 49.5542 60.9508 52.6454 62.3319 54.4559C59.2579 52.7337 55.471 53.2415 54.0676 54.2351C55.226 54.3235 56.3175 54.5884 57.1194 55.0079C52.0851 55.0962 48.5655 58.5186 46.1597 64.3256C46.0706 63.9502 46.0038 63.5749 45.937 63.1995C45.937 54.1027 53.3994 48.0307 52.9316 43.4381C52.5752 44.4538 51.9514 45.5136 51.0604 46.3968C51.3277 45.4253 51.3945 44.4759 51.1718 43.681C50.7263 42.0029 49.5011 40.5898 48.0309 39.4638C50.9267 39.0884 53.1543 37.1012 54.1345 34.0984C53.4885 33.4802 52.6197 32.9282 51.595 32.5307C52.7088 31.8904 53.778 31.5813 54.8027 31.9787C49.4565 26.5471 43.7317 38.8676 40.4349 37.2558C41.17 38.2052 41.9496 38.5585 42.7961 38.5143C42.8406 38.5364 42.8852 38.5585 42.9297 38.5806C45.1796 39.5962 48.3428 42.0471 48.9442 44.2551C49.4343 46.0215 47.073 49.4659 45.3801 50.2387C44.4222 50.6803 41.5264 50.4374 39.5661 49.9737C39.4993 49.6867 39.4993 49.3776 39.5661 49.0685C39.8557 48.9139 40.123 48.7814 40.3903 48.6269C41.1254 46.4189 43.0857 45.2045 42.9297 46.8826C50.303 40.5236 27.0248 40.5236 34.3981 46.8826C34.2422 45.2045 36.2025 46.4189 36.9376 48.6269C37.2049 48.7814 37.4722 48.9139 37.7618 49.0685C37.8286 49.3776 37.8286 49.6867 37.7618 49.9737C35.8238 50.4374 32.9056 50.6803 31.9478 50.2387C30.2771 49.4438 27.9159 46.0215 28.3837 44.2551C28.9851 42.0471 32.1483 39.5962 34.3981 38.5806C34.4427 38.5585 34.4872 38.5364 34.5318 38.5143C35.3783 38.5364 36.1579 38.1831 36.893 37.2558C33.5962 38.8455 27.8713 26.5471 22.5251 31.9787C23.5498 31.5813 24.6191 31.8904 25.7328 32.5307C24.7082 32.9061 23.8171 33.4802 23.1934 34.0984C24.1735 37.1012 26.4011 39.0884 29.297 39.4638C27.8268 40.5898 26.6016 42.0029 26.1561 43.681C25.9333 44.4759 26.0002 45.4253 26.2675 46.3968C25.3987 45.4915 24.775 44.4538 24.3963 43.4381C23.9285 48.0307 31.3909 54.1027 31.3909 63.1995C31.3463 63.5749 31.2572 63.9502 31.1681 64.3256C28.7401 58.5186 25.2428 55.1183 20.2084 55.0079C21.0104 54.5884 22.1019 54.3235 23.2602 54.2351C21.8569 53.2415 18.07 52.7337 14.9959 54.4559C16.3993 52.6454 16.8225 49.5763 16.6443 47.7658C15.5751 48.9801 13.8153 49.9075 12.501 50.5257C12.1223 45.0499 13.2139 41.2964 15.7756 37.1454C13.3252 37.0792 10.2289 37.7857 8.15725 38.978C11.7882 31.2059 17.6467 26.7679 25.1314 26.7017C23.884 26.1497 22.6365 25.8406 21.4113 25.7302C20.6985 25.2444 20.1639 24.5378 19.6516 23.5001C20.1193 23.7651 21.3668 23.8534 21.9682 23.5001C20.1639 23.1689 19.0947 21.9324 18.716 20.2323C19.3842 21.0272 20.6094 21.5792 22.3469 21.535C20.4535 18.0022 16.3102 17.0528 15.3078 13.8071C14.1717 16.1034 13.9267 19.0841 14.4836 21.9766C13.1248 17.9802 13.548 13.1447 15.486 9.10409C19.4733 14.7344 28.6287 14.4915 29.6534 22.926C30.1434 21.4467 30.2325 20.144 30.0098 18.9737C30.3217 17.8256 30.4108 16.4787 30.1212 15.441C31.9032 16.3904 32.9725 18.4218 33.4848 20.8726C34.7545 19.9673 35.5565 18.5763 35.8238 16.9424C36.8039 17.4944 37.8731 18.7529 38.6751 20.983C39.477 18.7529 40.5462 17.4944 41.5264 16.9424C41.7937 18.5542 42.5956 19.9673 43.8653 20.8726C44.3777 18.4218 45.4469 16.3904 47.229 15.441C46.9617 16.4787 47.0508 17.8477 47.3403 18.9737C47.1176 20.144 47.1844 21.4246 47.6968 22.926C48.7214 14.5136 57.8768 14.7344 61.8642 9.10409C63.8021 13.1447 64.2254 17.9802 62.8666 21.9545C63.4235 19.0621 63.1784 16.0813 62.0424 13.785C61.0177 17.0307 56.8967 17.9802 55.0032 21.5129C56.7407 21.5792 57.9659 21.0051 58.6342 20.2102C58.2332 21.9324 57.1862 23.1468 55.3819 23.478C55.9833 23.8313 57.2085 23.743 57.6986 23.478C57.2085 24.5158 56.6516 25.2223 55.9388 25.7081C54.7136 25.8185 53.4662 26.1276 52.2187 26.6796C59.7257 26.7458 65.5842 31.1839 69.1929 38.9559C67.1212 37.7636 64.0249 37.0571 61.5746 37.1233C64.114 41.2743 65.2055 45.0279 64.8268 50.5257ZM42.9743 58.5628C43.197 57.2821 42.952 55.7145 42.5733 54.5884C42.6179 55.2729 42.3951 56.134 42.0833 56.5094C42.061 56.0678 42.0833 55.6482 41.8605 55.2287C40.3903 54.4118 36.9376 54.4118 35.4896 55.2287C35.2669 55.6482 35.2891 56.0678 35.2669 56.5094C34.955 56.134 34.71 55.2729 34.7768 54.5884C34.3981 55.6924 34.1531 57.2821 34.3758 58.5628C33.2398 57.2159 32.527 54.9196 32.3487 52.9766C34.554 53.1091 36.5589 52.8883 38.6751 52.2259C40.7244 52.8662 42.8852 53.1091 45.0014 52.9766C44.8232 54.9196 44.1104 57.2159 42.9743 58.5628ZM34.5318 66.8206C34.8436 67.8804 35.2 69.139 35.8683 70.0443C37.8063 71.1041 39.5661 71.1041 41.4818 70.0443C42.1278 69.1169 42.5065 67.8804 42.8184 66.8206C43.3307 67.7259 43.3975 69.9118 42.9075 71.0158C41.3036 73.5108 36.0243 73.5108 34.4427 71.0158C33.9526 69.9118 34.0417 67.7259 34.5318 66.8206ZM32.7943 72.6718C36.5143 76.7786 40.8358 76.7786 44.5559 72.6718C42.1501 80.201 35.2 80.201 32.7943 72.6718Z" fill="#161515"/>
<path d="M34.5316 66.8199C34.8434 67.8797 35.1998 69.1383 35.8681 70.0435C37.8061 71.1034 39.5659 71.1034 41.4816 70.0435C42.1276 69.1162 42.5063 67.8797 42.8182 66.8199C43.3305 67.7252 43.3973 69.9111 42.9073 71.0151C41.3034 73.5101 36.0241 73.5101 34.4425 71.0151C33.9524 69.9111 34.0415 67.7252 34.5316 66.8199ZM26.1113 34.9146C26.5791 34.6055 27.3142 34.2964 27.9379 34.1418C29.319 35.3121 30.7224 36.6589 32.059 37.5421C29.4527 37.9837 26.9355 37.1447 26.1113 34.9146ZM45.2908 37.5421C46.6273 36.6589 48.0307 35.3121 49.4118 34.1418C50.0355 34.2964 50.7706 34.6055 51.2384 34.9146C50.4142 37.1447 47.897 37.9837 45.2908 37.5421ZM42.9741 58.5621C43.1968 57.2814 42.9518 55.7138 42.5731 54.5877C42.6177 55.2722 42.3949 56.1333 42.0831 56.5086C42.0608 56.0671 42.0831 55.6475 41.8603 55.228C40.3901 54.4111 36.9374 54.4111 35.4894 55.228C35.2667 55.6475 35.2889 56.0671 35.2667 56.5086C34.9548 56.1333 34.7098 55.2722 34.7766 54.5877C34.3979 55.6917 34.1529 57.2814 34.3756 58.5621C33.2396 57.2152 32.5268 54.9189 32.3485 52.9759C34.5538 53.1084 36.5587 52.8876 38.6749 52.2252C40.7242 52.8655 42.885 53.1084 45.0012 52.9759C44.823 54.9189 44.1102 57.2152 42.9741 58.5621Z" fill="white"/>
</svg>
