<svg width="495" height="344" viewBox="0 0 495 344" fill="none" xmlns="http://www.w3.org/2000/svg">
<rect x="340.041" y="0.448853" width="154.556" height="343.329" rx="10" fill="#F84263" fill-opacity="0.05"/>
<path opacity="0.6" d="M6.51815 25.8474C8.53315 25.8474 9.88515 24.6254 9.88515 22.7664C9.88515 20.8164 8.49415 19.8804 6.72615 19.8804C6.11515 19.8804 5.71215 19.9844 5.28315 20.1404L5.42615 18.0084H9.48215V16.5914H4.04815L3.78815 21.0504L4.75015 21.6874C5.21815 21.4664 5.77715 21.2844 6.42715 21.2844C7.53215 21.2844 8.31215 21.8694 8.31215 22.7924C8.31215 23.7674 7.59715 24.3914 6.50515 24.3914C5.66015 24.3914 4.89315 23.9754 4.16515 23.2994L3.17715 24.4564C4.03515 25.2884 5.12715 25.8474 6.51815 25.8474ZM14.3451 25.8474C16.3601 25.8474 17.7121 24.6254 17.7121 22.7664C17.7121 20.8164 16.3211 19.8804 14.5531 19.8804C13.9421 19.8804 13.5391 19.9844 13.1101 20.1404L13.2531 18.0084H17.3091V16.5914H11.8751L11.6151 21.0504L12.5771 21.6874C13.0451 21.4664 13.6041 21.2844 14.2541 21.2844C15.3591 21.2844 16.1391 21.8694 16.1391 22.7924C16.1391 23.7674 15.4241 24.3914 14.3321 24.3914C13.4871 24.3914 12.7201 23.9754 11.9921 23.2994L11.0041 24.4564C11.8621 25.2884 12.9541 25.8474 14.3451 25.8474ZM22.913 25.8474C25.305 25.8474 26.891 23.7414 26.891 21.1414C26.891 18.5154 25.318 16.4354 22.939 16.4354C20.547 16.4354 18.961 18.5414 18.961 21.1414C18.961 23.7674 20.521 25.8474 22.913 25.8474ZM22.939 24.4044C21.522 24.4044 20.612 22.9354 20.612 21.1414C20.612 19.3084 21.509 17.8784 22.913 17.8784C24.317 17.8784 25.24 19.3474 25.24 21.1414C25.24 22.9614 24.356 24.4044 22.939 24.4044Z" fill="#AEBDD1"/>
<rect x="60.5967" y="19.4747" width="8" height="251.659" rx="4" fill="#D8E2EF"/>
<rect x="60.5967" y="251.243" width="9" height="19.8906" rx="4.5" fill="#C3D1E3"/>
<path opacity="0.6" d="M53.4618 295.361H54.6498L54.7818 293.711H60.2048V295.361H61.3268L61.5138 292.501H60.5568V286.011H55.1888V287.1C55.1888 289.674 54.8478 291.236 54.2098 292.501H53.4618V295.361ZM55.6508 292.501C56.1788 291.434 56.4868 289.894 56.4868 288.112V287.232H59.2038V292.501H55.6508ZM62.5007 293.711H68.2647V292.501H63.8537V290.433H67.7147V289.223H63.8537V287.221H68.2097V286.011H62.5007V293.711ZM69.6499 293.711H71.0029V291.478L72.2019 290.246L74.8309 293.711H76.4699L73.1259 289.322L76.3269 286.011H74.6659L71.0029 289.883V286.011H69.6499V293.711Z" fill="#7890B3"/>
<path d="M401.473 322.988C402.914 322.988 403.794 322.46 404.597 321.624L403.728 320.744C403.068 321.36 402.463 321.745 401.517 321.745C400.043 321.745 398.976 320.513 398.976 319.006C398.976 317.477 400.043 316.267 401.517 316.267C402.397 316.267 403.057 316.652 403.673 317.224L404.542 316.223C403.805 315.519 402.947 315.024 401.528 315.024C399.196 315.024 397.557 316.817 397.557 319.006C397.557 321.239 399.229 322.988 401.473 322.988ZM407.691 322.856H409.055V316.41H411.497V315.156H405.249V316.41H407.691V322.856ZM412.052 322.856H413.438L414.23 320.997H417.871L418.652 322.856H420.082L416.694 315.101H415.44L412.052 322.856ZM414.725 319.798L416.045 316.718L417.376 319.798H414.725ZM421.182 322.944C422.7 322.944 423.591 321.965 423.591 317.07V316.377H426.253V322.856H427.606V315.156H422.326V316.674C422.326 321.283 421.6 321.778 420.819 321.778C420.654 321.778 420.478 321.745 420.379 321.712L420.247 322.823C420.456 322.878 420.885 322.944 421.182 322.944ZM433.047 322.988C435.412 322.988 437.084 321.173 437.084 319.006C437.084 316.817 435.434 315.024 433.069 315.024C430.704 315.024 429.032 316.839 429.032 319.006C429.032 321.195 430.682 322.988 433.047 322.988ZM433.069 321.745C431.54 321.745 430.451 320.502 430.451 319.006C430.451 317.488 431.518 316.267 433.047 316.267C434.576 316.267 435.665 317.51 435.665 319.006C435.665 320.524 434.598 321.745 433.069 321.745Z" fill="#676F79"/>
<path d="M177.015 322.856H180.436C182.196 322.856 183.296 322.02 183.296 320.48C183.296 318.995 182.196 318.148 180.502 318.148H178.357V316.377H182.757V315.156H177.015V322.856ZM178.357 321.646V319.292H180.381C181.382 319.292 181.943 319.677 181.943 320.425C181.943 321.371 181.305 321.646 180.139 321.646H178.357ZM184.604 322.856H187.706C189.488 322.856 190.61 321.888 190.61 320.337C190.61 318.786 189.444 317.928 187.717 317.928H185.946V315.156H184.604V322.856ZM185.946 321.646V319.105H187.662C188.685 319.105 189.268 319.534 189.268 320.326C189.268 321.195 188.685 321.646 187.684 321.646H185.946ZM191.523 322.856H192.865V315.156H191.523V322.856ZM194.622 322.944C196.14 322.944 197.031 321.965 197.031 317.07V316.377H199.693V322.856H201.046V315.156H195.766V316.674C195.766 321.283 195.04 321.778 194.259 321.778C194.094 321.778 193.918 321.745 193.819 321.712L193.687 322.823C193.896 322.878 194.325 322.944 194.622 322.944ZM206.487 322.988C208.852 322.988 210.524 321.173 210.524 319.006C210.524 316.817 208.874 315.024 206.509 315.024C204.144 315.024 202.472 316.839 202.472 319.006C202.472 321.195 204.122 322.988 206.487 322.988ZM206.509 321.745C204.98 321.745 203.891 320.502 203.891 319.006C203.891 317.488 204.958 316.267 206.487 316.267C208.016 316.267 209.105 317.51 209.105 319.006C209.105 320.524 208.038 321.745 206.509 321.745Z" fill="#676F79"/>
<rect x="111.597" y="19.4747" width="8" height="251.659" rx="4" fill="#D8E2EF"/>
<rect x="111.597" y="251.243" width="8" height="19.8906" rx="4" fill="#C3D1E3"/>
<path opacity="0.6" d="M101.49 293.711H103.085L104.999 291.049H106.704V293.711H108.046V286.011H104.625C102.843 286.011 101.754 286.968 101.754 288.464C101.754 289.74 102.513 290.521 103.591 290.818L101.49 293.711ZM104.713 289.872C103.745 289.872 103.118 289.355 103.118 288.552C103.118 287.716 103.723 287.232 104.735 287.232H106.704V289.872H104.713ZM109.803 293.711H111.156V290.466H114.83V293.711H116.183V286.011H114.83V289.212H111.156V286.011H109.803V293.711ZM117.94 293.711H121.504C123.22 293.711 124.353 292.974 124.353 291.599C124.353 290.532 123.726 290.015 122.824 289.707C123.396 289.41 123.924 288.915 123.924 287.991C123.924 287.452 123.748 287.034 123.407 286.693C122.967 286.253 122.274 286.011 121.394 286.011H117.94V293.711ZM119.271 289.256V287.21H121.218C122.087 287.21 122.571 287.584 122.571 288.189C122.571 288.915 121.988 289.256 121.119 289.256H119.271ZM119.271 292.512V290.4H121.416C122.483 290.4 123 290.785 123 291.434C123 292.149 122.439 292.512 121.515 292.512H119.271Z" fill="#7890B3"/>
<rect x="161.597" y="19.4747" width="8" height="251.659" rx="4" fill="#D8E2EF"/>
<rect x="161.597" y="259.892" width="8" height="11.2425" rx="4" fill="#C3D1E3"/>
<path opacity="0.6" d="M157.611 294.008H158.953V293.172C161.384 293.172 162.803 291.764 162.803 289.806C162.803 287.837 161.362 286.462 158.953 286.462V285.736H157.611V286.462C155.202 286.462 153.761 287.837 153.761 289.795C153.761 291.764 155.191 293.172 157.611 293.172V294.008ZM157.611 291.973C156.093 291.973 155.147 291.181 155.147 289.817C155.147 288.475 156.093 287.672 157.611 287.672V291.973ZM158.953 291.973V287.672C160.482 287.672 161.417 288.475 161.417 289.817C161.417 291.181 160.482 291.973 158.953 291.973ZM164.101 293.711H169.865V292.501H165.454V290.433H169.315V289.223H165.454V287.221H169.81V286.011H164.101V293.711ZM171.25 293.711H174.814C176.53 293.711 177.663 292.974 177.663 291.599C177.663 290.532 177.036 290.015 176.134 289.707C176.706 289.41 177.234 288.915 177.234 287.991C177.234 287.452 177.058 287.034 176.717 286.693C176.277 286.253 175.584 286.011 174.704 286.011H171.25V293.711ZM172.581 289.256V287.21H174.528C175.397 287.21 175.881 287.584 175.881 288.189C175.881 288.915 175.298 289.256 174.429 289.256H172.581ZM172.581 292.512V290.4H174.726C175.793 290.4 176.31 290.785 176.31 291.434C176.31 292.149 175.749 292.512 174.825 292.512H172.581Z" fill="#7890B3"/>
<rect x="211.597" y="19.4747" width="8" height="251.659" rx="4" fill="#D8E2EF"/>
<rect x="211.597" y="245.19" width="8" height="25.9443" rx="4" fill="#C3D1E3"/>
<path opacity="0.6" d="M204.005 293.711H205.336V288.211L207.745 291.819H207.789L210.22 288.189V293.711H211.573V286.011H210.132L207.789 289.652L205.446 286.011H204.005V293.711ZM212.675 293.711H214.061L214.853 291.852H218.494L219.275 293.711H220.705L217.317 285.956H216.063L212.675 293.711ZM215.348 290.653L216.668 287.573L217.999 290.653H215.348ZM221.805 293.711H223.158V291.236H224.687C226.381 291.236 227.767 290.334 227.767 288.607C227.767 287.034 226.634 286.011 224.841 286.011H221.805V293.711ZM223.158 290.015V287.243H224.731C225.743 287.243 226.392 287.716 226.392 288.618C226.392 289.443 225.754 290.015 224.731 290.015H223.158Z" fill="#7890B3"/>
<rect x="262.597" y="19.4747" width="8" height="251.659" rx="4" fill="#D8E2EF"/>
<rect x="262.597" y="237.406" width="8" height="33.7275" rx="4" fill="#C3D1E3"/>
<path opacity="0.6" d="M254.857 293.711H256.243L257.035 291.852H260.676L261.457 293.711H262.887L259.499 285.956H258.245L254.857 293.711ZM257.53 290.653L258.85 287.573L260.181 290.653H257.53ZM263.987 293.711H265.34V287.232H268.915V293.711H270.268V286.011H263.987V293.711ZM272.028 293.711H273.381V291.236H274.91C276.604 291.236 277.99 290.334 277.99 288.607C277.99 287.034 276.857 286.011 275.064 286.011H272.028V293.711ZM273.381 290.015V287.243H274.954C275.966 287.243 276.615 287.716 276.615 288.618C276.615 289.443 275.977 290.015 274.954 290.015H273.381Z" fill="#7890B3"/>
<rect x="312.597" y="19.4747" width="8" height="251.659" rx="4" fill="#D8E2EF"/>
<rect x="312.597" y="250.456" width="8" height="20.6783" rx="4" fill="#C3D1E3"/>
<path d="M305.17 293.711H306.501V288.211L308.91 291.819H308.954L311.385 288.189V293.711H312.738V286.011H311.297L308.954 289.652L306.611 286.011H305.17V293.711ZM313.84 293.711H315.226L316.018 291.852H319.659L320.44 293.711H321.87L318.482 285.956H317.228L313.84 293.711ZM316.513 290.653L317.833 287.573L319.164 290.653H316.513ZM326.259 285.406C327.194 285.406 327.843 284.812 327.986 283.866L327.172 283.712C327.029 284.174 326.754 284.46 326.259 284.46C325.764 284.46 325.478 284.174 325.346 283.712L324.521 283.866C324.675 284.812 325.324 285.406 326.259 285.406ZM322.97 293.711H324.246L328.129 288.101V293.711H329.46V286.011H328.195L324.301 291.632V286.011H322.97V293.711Z" fill="#5C8398"/>
<rect x="362.597" y="19.4747" width="8" height="251.659" rx="4" fill="#F0D9DD"/>
<rect x="362.597" y="200.989" width="8" height="70.1454" rx="4" fill="#F84263"/>
<path d="M350.556 293.711H351.832L355.715 288.101V293.711H357.046V286.011H355.781L351.887 291.632V286.011H350.556V293.711ZM365.104 293.843C367.304 293.843 368.822 292.072 368.822 289.861C368.822 287.628 367.315 285.879 365.126 285.879C363.146 285.879 361.705 287.331 361.452 289.234H360.176V286.011H358.823V293.711H360.176V290.444H361.441C361.683 292.391 363.102 293.843 365.104 293.843ZM365.126 292.622C363.762 292.622 362.805 291.401 362.805 289.861C362.805 288.299 363.74 287.111 365.104 287.111C366.468 287.111 367.436 288.321 367.436 289.861C367.436 291.423 366.49 292.622 365.126 292.622ZM370.236 293.711H371.589V290.466H375.263V293.711H376.616V286.011H375.263V289.212H371.589V286.011H370.236V293.711ZM378.374 293.711H381.476C383.258 293.711 384.38 292.743 384.38 291.192C384.38 289.641 383.214 288.783 381.487 288.783H379.716V286.011H378.374V293.711ZM379.716 292.501V289.96H381.432C382.455 289.96 383.038 290.389 383.038 291.181C383.038 292.05 382.455 292.501 381.454 292.501H379.716Z" fill="#5C8398"/>
<rect x="413.597" y="19.4747" width="8" height="251.659" rx="4" fill="#F0D9DD"/>
<rect x="413.597" y="136.657" width="8" height="134.477" rx="4" fill="#F84263"/>
<path d="M400.397 293.711H401.673L405.556 288.101V293.711H406.887V286.011H405.622L401.728 291.632V286.011H400.397V293.711ZM414.944 293.843C417.144 293.843 418.662 292.072 418.662 289.861C418.662 287.628 417.155 285.879 414.966 285.879C412.986 285.879 411.545 287.331 411.292 289.234H410.016V286.011H408.663V293.711H410.016V290.444H411.281C411.523 292.391 412.942 293.843 414.944 293.843ZM414.966 292.622C413.602 292.622 412.645 291.401 412.645 289.861C412.645 288.299 413.58 287.111 414.944 287.111C416.308 287.111 417.276 288.321 417.276 289.861C417.276 291.423 416.33 292.622 414.966 292.622ZM420.077 293.799C421.595 293.799 422.486 292.82 422.486 287.925V287.232H425.148V293.711H426.501V286.011H421.221V287.529C421.221 292.138 420.495 292.633 419.714 292.633C419.549 292.633 419.373 292.6 419.274 292.567L419.142 293.678C419.351 293.733 419.78 293.799 420.077 293.799ZM428.268 293.711H431.37C433.152 293.711 434.274 292.743 434.274 291.192C434.274 289.641 433.108 288.783 431.381 288.783H429.61V286.011H428.268V293.711ZM429.61 292.501V289.96H431.326C432.349 289.96 432.932 290.389 432.932 291.181C432.932 292.05 432.349 292.501 431.348 292.501H429.61Z" fill="#5C8398"/>
<rect x="463.597" y="19.4747" width="8" height="251.659" rx="4" fill="#F0D9DD"/>
<rect x="463.597" y="70.2345" width="8" height="200.9" rx="4" fill="#F84263"/>
<path d="M457.391 293.711H458.777L459.569 291.852H463.21L463.991 293.711H465.421L462.033 285.956H460.779L457.391 293.711ZM460.064 290.653L461.384 287.573L462.715 290.653H460.064ZM466.521 293.711H470.085C471.801 293.711 472.934 292.974 472.934 291.599C472.934 290.532 472.307 290.015 471.405 289.707C471.977 289.41 472.505 288.915 472.505 287.991C472.505 287.452 472.329 287.034 471.988 286.693C471.548 286.253 470.855 286.011 469.975 286.011H466.521V293.711ZM467.852 289.256V287.21H469.799C470.668 287.21 471.152 287.584 471.152 288.189C471.152 288.915 470.569 289.256 469.7 289.256H467.852ZM467.852 292.512V290.4H469.997C471.064 290.4 471.581 290.785 471.581 291.434C471.581 292.149 471.02 292.512 470.096 292.512H467.852ZM474.24 293.711H475.582V287.232H479.421V286.011H474.24V293.711Z" fill="#5C8398"/>
<path opacity="0.6" d="M5.358 51.0134C7.373 51.0134 8.725 49.7914 8.725 47.9324C8.725 45.9824 7.334 45.0464 5.566 45.0464C4.955 45.0464 4.552 45.1504 4.123 45.3064L4.266 43.1744H8.322V41.7574H2.888L2.628 46.2164L3.59 46.8534C4.058 46.6324 4.617 46.4504 5.267 46.4504C6.372 46.4504 7.152 47.0354 7.152 47.9584C7.152 48.9334 6.437 49.5574 5.345 49.5574C4.5 49.5574 3.733 49.1414 3.005 48.4654L2.017 49.6224C2.875 50.4544 3.967 51.0134 5.358 51.0134ZM13.9259 51.0134C16.3179 51.0134 17.9039 48.9074 17.9039 46.3074C17.9039 43.6814 16.3309 41.6014 13.9519 41.6014C11.5599 41.6014 9.97391 43.7074 9.97391 46.3074C9.97391 48.9334 11.5339 51.0134 13.9259 51.0134ZM13.9519 49.5704C12.5349 49.5704 11.6249 48.1014 11.6249 46.3074C11.6249 44.4744 12.5219 43.0444 13.9259 43.0444C15.3299 43.0444 16.2529 44.5134 16.2529 46.3074C16.2529 48.1274 15.3689 49.5704 13.9519 49.5704ZM23.0731 51.0134C25.4651 51.0134 27.0511 48.9074 27.0511 46.3074C27.0511 43.6814 25.4781 41.6014 23.0991 41.6014C20.7071 41.6014 19.1211 43.7074 19.1211 46.3074C19.1211 48.9334 20.6811 51.0134 23.0731 51.0134ZM23.0991 49.5704C21.6821 49.5704 20.7721 48.1014 20.7721 46.3074C20.7721 44.4744 21.6691 43.0444 23.0731 43.0444C24.4771 43.0444 25.4001 44.5134 25.4001 46.3074C25.4001 48.1274 24.5161 49.5704 23.0991 49.5704Z" fill="#AEBDD1"/>
<path opacity="0.6" d="M7.04129 76.0234H8.57529V73.9824H9.87529V72.6694H8.57529V66.8584H7.21029L2.15329 72.8384L2.45229 73.9824H7.04129V76.0234ZM4.05129 72.6694L7.04129 69.0684V72.6694H4.05129ZM14.2259 76.1794C16.2409 76.1794 17.5929 74.9574 17.5929 73.0984C17.5929 71.1484 16.2019 70.2124 14.4339 70.2124C13.8229 70.2124 13.4199 70.3164 12.9909 70.4724L13.1339 68.3404H17.1899V66.9234H11.7559L11.4959 71.3824L12.4579 72.0194C12.9259 71.7984 13.4849 71.6164 14.1349 71.6164C15.2399 71.6164 16.0199 72.2014 16.0199 73.1244C16.0199 74.0994 15.3049 74.7234 14.2129 74.7234C13.3679 74.7234 12.6009 74.3074 11.8729 73.6314L10.8849 74.7884C11.7429 75.6204 12.8349 76.1794 14.2259 76.1794ZM22.7938 76.1794C25.1858 76.1794 26.7718 74.0734 26.7718 71.4734C26.7718 68.8474 25.1988 66.7674 22.8198 66.7674C20.4278 66.7674 18.8418 68.8734 18.8418 71.4734C18.8418 74.0994 20.4018 76.1794 22.7938 76.1794ZM22.8198 74.7364C21.4028 74.7364 20.4928 73.2674 20.4928 71.4734C20.4928 69.6404 21.3898 68.2104 22.7938 68.2104C24.1978 68.2104 25.1208 69.6794 25.1208 71.4734C25.1208 73.2934 24.2368 74.7364 22.8198 74.7364Z" fill="#AEBDD1"/>
<path opacity="0.6" d="M6.88114 100.325H8.41514V98.2836H9.71514V96.9706H8.41514V91.1596H7.05014L1.99314 97.1396L2.29214 98.2836H6.88114V100.325ZM3.89114 96.9706L6.88114 93.3696V96.9706H3.89114ZM14.8068 100.481C17.1988 100.481 18.7848 98.3746 18.7848 95.7746C18.7848 93.1486 17.2118 91.0686 14.8328 91.0686C12.4408 91.0686 10.8548 93.1746 10.8548 95.7746C10.8548 98.4006 12.4148 100.481 14.8068 100.481ZM14.8328 99.0376C13.4158 99.0376 12.5058 97.5686 12.5058 95.7746C12.5058 93.9416 13.4028 92.5116 14.8068 92.5116C16.2108 92.5116 17.1338 93.9806 17.1338 95.7746C17.1338 97.5946 16.2498 99.0376 14.8328 99.0376ZM23.954 100.481C26.346 100.481 27.932 98.3746 27.932 95.7746C27.932 93.1486 26.359 91.0686 23.98 91.0686C21.588 91.0686 20.002 93.1746 20.002 95.7746C20.002 98.4006 21.562 100.481 23.954 100.481ZM23.98 99.0376C22.563 99.0376 21.653 97.5686 21.653 95.7746C21.653 93.9416 22.55 92.5116 23.954 92.5116C25.358 92.5116 26.281 93.9806 26.281 95.7746C26.281 97.5946 25.397 99.0376 23.98 99.0376Z" fill="#AEBDD1"/>
<path opacity="0.6" d="M6.63454 125.647C8.51954 125.647 9.81954 124.451 9.81954 122.774C9.81954 121.136 8.58454 120.395 7.14154 120.187L9.67654 117.587V116.391H3.65754V117.782H7.59654L5.13954 120.395L5.39954 121.396H6.14054C7.41454 121.396 8.23354 121.903 8.23354 122.8C8.23354 123.658 7.55754 124.204 6.66054 124.204C5.64654 124.204 4.91854 123.775 4.26854 123.008L3.15054 124.048C3.91754 124.984 5.04854 125.647 6.63454 125.647ZM14.3197 125.647C16.3347 125.647 17.6867 124.425 17.6867 122.566C17.6867 120.616 16.2957 119.68 14.5277 119.68C13.9167 119.68 13.5137 119.784 13.0847 119.94L13.2277 117.808H17.2837V116.391H11.8497L11.5897 120.85L12.5517 121.487C13.0197 121.266 13.5787 121.084 14.2287 121.084C15.3337 121.084 16.1137 121.669 16.1137 122.592C16.1137 123.567 15.3987 124.191 14.3067 124.191C13.4617 124.191 12.6947 123.775 11.9667 123.099L10.9787 124.256C11.8367 125.088 12.9287 125.647 14.3197 125.647ZM22.8876 125.647C25.2796 125.647 26.8656 123.541 26.8656 120.941C26.8656 118.315 25.2926 116.235 22.9136 116.235C20.5216 116.235 18.9356 118.341 18.9356 120.941C18.9356 123.567 20.4956 125.647 22.8876 125.647ZM22.9136 124.204C21.4966 124.204 20.5866 122.735 20.5866 120.941C20.5866 119.108 21.4836 117.678 22.8876 117.678C24.2916 117.678 25.2146 119.147 25.2146 120.941C25.2146 122.761 24.3306 124.204 22.9136 124.204Z" fill="#AEBDD1"/>
<path opacity="0.6" d="M5.47439 150.813C7.35939 150.813 8.65939 149.617 8.65939 147.94C8.65939 146.302 7.42439 145.561 5.98139 145.353L8.51639 142.753V141.557H2.49739V142.948H6.43639L3.97939 145.561L4.23939 146.562H4.98039C6.25439 146.562 7.07339 147.069 7.07339 147.966C7.07339 148.824 6.39739 149.37 5.50039 149.37C4.48639 149.37 3.75839 148.941 3.10839 148.174L1.99039 149.214C2.75739 150.15 3.88839 150.813 5.47439 150.813ZM13.9005 150.813C16.2925 150.813 17.8785 148.707 17.8785 146.107C17.8785 143.481 16.3055 141.401 13.9265 141.401C11.5345 141.401 9.94852 143.507 9.94852 146.107C9.94852 148.733 11.5085 150.813 13.9005 150.813ZM13.9265 149.37C12.5095 149.37 11.5995 147.901 11.5995 146.107C11.5995 144.274 12.4965 142.844 13.9005 142.844C15.3045 142.844 16.2275 144.313 16.2275 146.107C16.2275 147.927 15.3435 149.37 13.9265 149.37ZM23.0477 150.813C25.4397 150.813 27.0257 148.707 27.0257 146.107C27.0257 143.481 25.4527 141.401 23.0737 141.401C20.6817 141.401 19.0957 143.507 19.0957 146.107C19.0957 148.733 20.6557 150.813 23.0477 150.813ZM23.0737 149.37C21.6567 149.37 20.7467 147.901 20.7467 146.107C20.7467 144.274 21.6437 142.844 23.0477 142.844C24.4517 142.844 25.3747 144.313 25.3747 146.107C25.3747 147.927 24.4907 149.37 23.0737 149.37Z" fill="#AEBDD1"/>
<path opacity="0.6" d="M3.26028 175.823H9.83828V174.419H5.50928L7.38128 172.859C8.98028 171.533 9.74728 170.766 9.74728 169.336C9.74728 167.685 8.52528 166.593 6.74428 166.593C5.11928 166.593 4.26128 167.282 3.39028 168.504L4.52128 169.388C5.22328 168.478 5.79528 168.023 6.62728 168.023C7.45928 168.023 8.09628 168.543 8.09628 169.44C8.09628 170.259 7.64128 170.844 6.39328 171.897L3.26028 174.562V175.823ZM14.2879 175.979C16.3029 175.979 17.6549 174.757 17.6549 172.898C17.6549 170.948 16.2639 170.012 14.4959 170.012C13.8849 170.012 13.4819 170.116 13.0529 170.272L13.1959 168.14H17.2519V166.723H11.8179L11.5579 171.182L12.5199 171.819C12.9879 171.598 13.5469 171.416 14.1969 171.416C15.3019 171.416 16.0819 172.001 16.0819 172.924C16.0819 173.899 15.3669 174.523 14.2749 174.523C13.4299 174.523 12.6629 174.107 11.9349 173.431L10.9469 174.588C11.8049 175.42 12.8969 175.979 14.2879 175.979ZM22.8559 175.979C25.2479 175.979 26.8339 173.873 26.8339 171.273C26.8339 168.647 25.2609 166.567 22.8819 166.567C20.4899 166.567 18.9039 168.673 18.9039 171.273C18.9039 173.899 20.4639 175.979 22.8559 175.979ZM22.8819 174.536C21.4649 174.536 20.5549 173.067 20.5549 171.273C20.5549 169.44 21.4519 168.01 22.8559 168.01C24.2599 168.01 25.1829 169.479 25.1829 171.273C25.1829 173.093 24.2989 174.536 22.8819 174.536Z" fill="#AEBDD1"/>
<path opacity="0.6" d="M2.10013 200.989H8.67813V199.585H4.34913L6.22113 198.025C7.82013 196.699 8.58713 195.932 8.58713 194.502C8.58713 192.851 7.36513 191.759 5.58413 191.759C3.95913 191.759 3.10113 192.448 2.23013 193.67L3.36113 194.554C4.06313 193.644 4.63513 193.189 5.46713 193.189C6.29913 193.189 6.93613 193.709 6.93613 194.606C6.93613 195.425 6.48113 196.01 5.23313 197.063L2.10013 199.728V200.989ZM13.8688 201.145C16.2608 201.145 17.8468 199.039 17.8468 196.439C17.8468 193.813 16.2738 191.733 13.8948 191.733C11.5028 191.733 9.91678 193.839 9.91678 196.439C9.91678 199.065 11.4768 201.145 13.8688 201.145ZM13.8948 199.702C12.4778 199.702 11.5678 198.233 11.5678 196.439C11.5678 194.606 12.4648 193.176 13.8688 193.176C15.2728 193.176 16.1958 194.645 16.1958 196.439C16.1958 198.259 15.3118 199.702 13.8948 199.702ZM23.016 201.145C25.408 201.145 26.994 199.039 26.994 196.439C26.994 193.813 25.421 191.733 23.042 191.733C20.65 191.733 19.064 193.839 19.064 196.439C19.064 199.065 20.624 201.145 23.016 201.145ZM23.042 199.702C21.625 199.702 20.715 198.233 20.715 196.439C20.715 194.606 21.612 193.176 23.016 193.176C24.42 193.176 25.343 194.645 25.343 196.439C25.343 198.259 24.459 199.702 23.042 199.702Z" fill="#AEBDD1"/>
<path opacity="0.6" d="M3.84646 225.29H5.43246V216.125H4.31446L1.87046 216.905L2.20846 218.205L3.84646 217.75V225.29ZM10.3788 225.446C12.3938 225.446 13.7458 224.224 13.7458 222.365C13.7458 220.415 12.3548 219.479 10.5868 219.479C9.97576 219.479 9.57276 219.583 9.14376 219.739L9.28676 217.607H13.3428V216.19H7.90876L7.64876 220.649L8.61076 221.286C9.07876 221.065 9.63776 220.883 10.2878 220.883C11.3928 220.883 12.1728 221.468 12.1728 222.391C12.1728 223.366 11.4578 223.99 10.3658 223.99C9.52076 223.99 8.75376 223.574 8.02576 222.898L7.03776 224.055C7.89576 224.887 8.98776 225.446 10.3788 225.446ZM18.9467 225.446C21.3387 225.446 22.9247 223.34 22.9247 220.74C22.9247 218.114 21.3517 216.034 18.9727 216.034C16.5807 216.034 14.9947 218.14 14.9947 220.74C14.9947 223.366 16.5547 225.446 18.9467 225.446ZM18.9727 224.003C17.5557 224.003 16.6457 222.534 16.6457 220.74C16.6457 218.907 17.5427 217.477 18.9467 217.477C20.3507 217.477 21.2737 218.946 21.2737 220.74C21.2737 222.56 20.3897 224.003 18.9727 224.003Z" fill="#AEBDD1"/>
<path opacity="0.6" d="M3.6863 250.456H5.27231V241.291H4.15431L1.7103 242.071L2.0483 243.371L3.6863 242.916V250.456ZM10.9596 250.612C13.3516 250.612 14.9376 248.506 14.9376 245.906C14.9376 243.28 13.3646 241.2 10.9856 241.2C8.5936 241.2 7.0076 243.306 7.0076 245.906C7.0076 248.532 8.5676 250.612 10.9596 250.612ZM10.9856 249.169C9.5686 249.169 8.6586 247.7 8.6586 245.906C8.6586 244.073 9.5556 242.643 10.9596 242.643C12.3636 242.643 13.2866 244.112 13.2866 245.906C13.2866 247.726 12.4026 249.169 10.9856 249.169ZM20.1068 250.612C22.4988 250.612 24.0848 248.506 24.0848 245.906C24.0848 243.28 22.5118 241.2 20.1328 241.2C17.7408 241.2 16.1548 243.306 16.1548 245.906C16.1548 248.532 17.7148 250.612 20.1068 250.612ZM20.1328 249.169C18.7158 249.169 17.8058 247.7 17.8058 245.906C17.8058 244.073 18.7028 242.643 20.1068 242.643C21.5108 242.643 22.4338 244.112 22.4338 245.906C22.4338 247.726 21.5498 249.169 20.1328 249.169Z" fill="#AEBDD1"/>
<path opacity="0.6" d="M8.43161 275.778C10.4466 275.778 11.7986 274.556 11.7986 272.697C11.7986 270.747 10.4076 269.811 8.63961 269.811C8.02861 269.811 7.62561 269.915 7.19661 270.071L7.33961 267.939H11.3956V266.522H5.96161L5.70161 270.981L6.66361 271.618C7.13161 271.397 7.69061 271.215 8.34061 271.215C9.44561 271.215 10.2256 271.8 10.2256 272.723C10.2256 273.698 9.51061 274.322 8.41861 274.322C7.57361 274.322 6.80661 273.906 6.07861 273.23L5.09061 274.387C5.94861 275.219 7.04061 275.778 8.43161 275.778ZM16.9995 275.778C19.3915 275.778 20.9775 273.672 20.9775 271.072C20.9775 268.446 19.4045 266.366 17.0255 266.366C14.6335 266.366 13.0475 268.472 13.0475 271.072C13.0475 273.698 14.6075 275.778 16.9995 275.778ZM17.0255 274.335C15.6085 274.335 14.6985 272.866 14.6985 271.072C14.6985 269.239 15.5955 267.809 16.9995 267.809C18.4035 267.809 19.3265 269.278 19.3265 271.072C19.3265 272.892 18.4425 274.335 17.0255 274.335Z" fill="#AEBDD1"/>
</svg>
