<svg width="107" height="25" viewBox="0 0 107 25" fill="none" xmlns="http://www.w3.org/2000/svg">
<path fill-rule="evenodd" clip-rule="evenodd" d="M31.944 6.45747L30.7759 8.64781H28.2936L31.579 2.36883C31.6377 2.27102 31.6912 2.1837 31.7407 2.10264C31.8763 1.88116 31.9832 1.70649 32.0901 1.49269C32.2361 1.27365 32.4552 0.981608 32.6012 0.835584C32.7472 0.616549 32.9662 0.470528 33.1853 0.397516C33.4043 0.324504 33.6963 0.251489 33.9884 0.251489C34.2805 0.251489 34.5725 0.324504 34.7915 0.397516C35.0105 0.543529 35.2297 0.689571 35.3756 0.835584C35.5946 0.981608 35.7407 1.20064 35.8867 1.49269C35.9098 1.52737 35.9348 1.56387 35.961 1.60222C36.1002 1.80603 36.2748 2.06156 36.3978 2.36883L39.6833 8.64781H37.3469L36.1058 6.45747H31.944ZM34.0614 2.51485L33.0392 4.26712H35.0836L34.0614 2.51485ZM40.7784 0.251489H42.8228V6.38446H50.489V0.105469H52.7524V6.09241C52.7524 6.38446 52.6794 6.6765 52.5334 6.96855C52.3873 7.2606 52.1682 7.55264 51.9492 7.77168C51.7302 8.06372 51.4382 8.20975 51.1461 8.35577C50.8541 8.50179 50.562 8.57481 50.2699 8.57481H43.3338C43.0419 8.57481 42.6768 8.50179 42.3847 8.35577C42.0927 8.20975 41.8006 8.06372 41.5816 7.77168C41.3626 7.47964 41.1435 7.18758 40.9975 6.89554C40.8515 6.60349 40.7784 6.31145 40.7784 5.94639V0.251489ZM53.9935 2.36883V0.251489H65.8944V2.36883H61.0027V8.64781H58.8853V2.36883H53.9935ZM68.961 0.397506C69.326 0.324498 69.691 0.251489 70.0561 0.251489H76.335C76.7001 0.251489 77.0652 0.324504 77.3572 0.470526C77.7223 0.616549 78.0144 0.835586 78.2334 1.05462C78.4524 1.34667 78.6715 1.63871 78.8175 1.93076C78.9634 2.29582 79.0365 2.58786 79.0365 2.95292V6.09241C79.0365 6.38446 78.9634 6.74952 78.8175 7.04156C78.6715 7.33361 78.4524 7.62566 78.2334 7.84469C77.9414 8.13674 77.6493 8.28276 77.3572 8.42878C76.9922 8.57481 76.7001 8.64781 76.335 8.64781H69.8371C69.472 8.64781 69.107 8.57481 68.8149 8.42878C68.4498 8.28276 68.1578 8.06372 67.9388 7.84469C67.6467 7.55264 67.5007 7.2606 67.3547 6.96855C67.2086 6.60349 67.1356 6.23843 67.1356 5.87338V2.73388C67.1356 2.36883 67.2086 2.00376 67.3547 1.71172C67.5007 1.41968 67.7197 1.12763 68.0118 0.908594C68.3039 0.68956 68.5959 0.543529 68.961 0.397506ZM76.7001 6.45747V2.44183H69.253V6.45747H76.7001ZM2.3744 14.7078C2.73946 14.5617 3.25054 14.4887 3.68861 14.4887H13.6911V16.9711H2.88548H0.330078C0.403085 16.6791 0.476094 16.4601 0.5491 16.2411C0.768135 15.876 0.987184 15.5839 1.27923 15.2918C1.3587 15.2442 1.4347 15.1965 1.50951 15.1495C1.77835 14.9809 2.03169 14.822 2.3744 14.7078ZM0.330078 20.4757V17.9933H2.81246H13.7642V20.4757H3.17752H0.330078ZM0.512607 21.8629C0.476103 21.7352 0.4396 21.6073 0.403094 21.4978H6.53606H13.6911V24.0532H3.68861C3.25054 24.0532 2.88548 23.9802 2.44741 23.8342C2.00934 23.6882 1.64428 23.4692 1.35223 23.1771C1.06019 22.958 0.841154 22.593 0.622119 22.2279C0.585614 22.1185 0.54911 21.9907 0.512607 21.8629ZM17.6338 18.0663H26.3952C26.8332 18.0663 27.2713 18.1393 27.7824 18.3584C28.1475 18.5044 28.5125 18.7234 28.8046 19.0155C29.0966 19.3075 29.3156 19.5995 29.4616 19.9646C29.6077 20.3296 29.6807 20.6947 29.6807 21.1328C29.6807 21.5709 29.5347 21.936 29.3886 22.301C29.1697 22.6661 28.9506 22.958 28.6585 23.2501C28.3665 23.4692 28.0014 23.6882 27.6363 23.8342C27.2713 23.9802 26.9062 24.0532 26.4682 24.0532H15.6625V21.6439H27.1983V20.4757H18.2909C17.8529 20.4757 17.4147 20.4026 17.0497 20.2567C16.6846 20.1107 16.3196 19.9646 16.0276 19.6725C15.7355 19.3805 15.4434 19.0885 15.2975 18.7234C15.0784 18.3584 15.0054 17.9933 15.0054 17.5553C15.0054 17.1171 15.0784 16.6791 15.2975 16.314C15.5164 15.949 15.7355 15.5839 16.1006 15.3649C16.4656 15.0728 16.8307 14.9268 17.2687 14.7808C17.7068 14.6348 18.1449 14.5617 18.583 14.5617H29.0236V16.8981H17.6338V18.0663ZM30.9219 16.8981V14.4887H44.502V16.8981H38.9531V23.9802H36.5438V16.8981H30.9219ZM47.8605 14.7078C48.2256 14.5617 48.7367 14.4887 49.1748 14.4887H59.1773V16.9711H48.9557H45.8162C45.8527 16.8616 45.8892 16.7339 45.9258 16.6061C45.9622 16.4783 45.9988 16.3505 46.0353 16.241C46.2543 15.876 46.4734 15.5839 46.7654 15.2918C46.8449 15.2442 46.9209 15.1965 46.9957 15.1495C47.2645 14.9809 47.5179 14.822 47.8605 14.7078ZM45.7433 20.4757V17.9933H48.0796H59.1043V20.4757H49.1748H45.7433ZM45.9258 21.8629C45.8892 21.7352 45.8528 21.6073 45.8162 21.4978H49.1018H59.1043V24.0532H49.1018C48.6637 24.0532 48.2987 23.9802 47.8605 23.8342C47.4225 23.6882 47.0574 23.4692 46.7654 23.1771C46.4734 22.958 46.2543 22.593 46.0353 22.2279C45.9988 22.1185 45.9622 21.9907 45.9258 21.8629ZM60.4186 16.8981V14.4887H73.9987V16.8981H68.4498V23.9802H66.0404V16.8981H60.4186ZM75.2399 14.4887H77.9413V24.1262H75.2399V14.4887ZM82.9061 14.4887H92.8356V16.8981H81.7379V21.5709H92.9088V23.9802H82.468C82.03 23.9802 81.6648 23.9072 81.2998 23.7612C80.9347 23.6152 80.5698 23.3961 80.2777 23.1771C80.0519 23.0078 79.8697 22.7511 79.6974 22.5084C79.6469 22.4372 79.5972 22.3672 79.5476 22.301C79.3285 22.0089 79.2555 21.6439 79.2555 21.2058V17.9933C79.2555 16.8251 79.5476 15.9489 80.2046 15.3649C80.8617 14.7808 81.7379 14.4887 82.9061 14.4887ZM98.1658 21.4978L96.8515 23.9802V23.9072H94.0042L97.7271 16.7521C97.8142 16.6081 97.9004 16.4754 97.9822 16.3497C98.108 16.1566 98.2227 15.9798 98.3114 15.803C98.3571 15.7419 98.4002 15.6841 98.4407 15.6289C98.595 15.4194 98.7225 15.2462 98.8957 15.0728C98.9543 15.034 99.0121 14.9899 99.0715 14.9448C99.2361 14.8205 99.4111 14.6883 99.6257 14.6348C99.9178 14.5618 100.21 14.4887 100.575 14.4887C100.94 14.4887 101.232 14.4887 101.451 14.6348C101.67 14.7808 101.889 14.9268 102.109 15.1458C102.327 15.2918 102.546 15.5839 102.692 15.876C102.825 16.0521 102.93 16.2549 103.041 16.4682C103.114 16.6084 103.189 16.7533 103.276 16.8981L107 23.9802H104.372L102.911 21.4978H98.1658ZM99.4068 19.0885H101.67L100.575 17.0441L99.4068 19.0885Z" fill="white"/>
</svg>
