<svg width="495" height="344" viewBox="0 0 495 344" fill="none" xmlns="http://www.w3.org/2000/svg">
<rect x="288.597" y="0.51709" width="206" height="343.329" rx="10" fill="#F84263" fill-opacity="0.05"/>
<path opacity="0.6" d="M6.51815 25.9155C8.53315 25.9155 9.88515 24.6935 9.88515 22.8345C9.88515 20.8845 8.49415 19.9485 6.72615 19.9485C6.11515 19.9485 5.71215 20.0525 5.28315 20.2085L5.42615 18.0765H9.48215V16.6595H4.04815L3.78815 21.1185L4.75015 21.7555C5.21815 21.5345 5.77715 21.3525 6.42715 21.3525C7.53215 21.3525 8.31215 21.9375 8.31215 22.8605C8.31215 23.8355 7.59715 24.4595 6.50515 24.4595C5.66015 24.4595 4.89315 24.0435 4.16515 23.3675L3.17715 24.5245C4.03515 25.3565 5.12715 25.9155 6.51815 25.9155ZM14.3451 25.9155C16.3601 25.9155 17.7121 24.6935 17.7121 22.8345C17.7121 20.8845 16.3211 19.9485 14.5531 19.9485C13.9421 19.9485 13.5391 20.0525 13.1101 20.2085L13.2531 18.0765H17.3091V16.6595H11.8751L11.6151 21.1185L12.5771 21.7555C13.0451 21.5345 13.6041 21.3525 14.2541 21.3525C15.3591 21.3525 16.1391 21.9375 16.1391 22.8605C16.1391 23.8355 15.4241 24.4595 14.3321 24.4595C13.4871 24.4595 12.7201 24.0435 11.9921 23.3675L11.0041 24.5245C11.8621 25.3565 12.9541 25.9155 14.3451 25.9155ZM22.913 25.9155C25.305 25.9155 26.891 23.8095 26.891 21.2095C26.891 18.5835 25.318 16.5035 22.939 16.5035C20.547 16.5035 18.961 18.6095 18.961 21.2095C18.961 23.8355 20.521 25.9155 22.913 25.9155ZM22.939 24.4725C21.522 24.4725 20.612 23.0035 20.612 21.2095C20.612 19.3765 21.509 17.9465 22.913 17.9465C24.317 17.9465 25.24 19.4155 25.24 21.2095C25.24 23.0295 24.356 24.4725 22.939 24.4725Z" fill="#AEBDD1"/>
<rect x="60.5967" y="19.5428" width="8" height="251.659" rx="4" fill="#D8E2EF"/>
<rect x="60.5967" y="251.312" width="8" height="19.8906" rx="4" fill="#C3D1E3"/>
<path opacity="0.6" d="M53.4618 295.429H54.6498L54.7818 293.779H60.2048V295.429H61.3268L61.5138 292.569H60.5568V286.079H55.1888V287.168C55.1888 289.742 54.8478 291.304 54.2098 292.569H53.4618V295.429ZM55.6508 292.569C56.1788 291.502 56.4868 289.962 56.4868 288.18V287.3H59.2038V292.569H55.6508ZM62.5007 293.779H68.2647V292.569H63.8537V290.501H67.7147V289.291H63.8537V287.289H68.2097V286.079H62.5007V293.779ZM69.6499 293.779H71.0029V291.546L72.2019 290.314L74.8309 293.779H76.4699L73.1259 289.39L76.3269 286.079H74.6659L71.0029 289.951V286.079H69.6499V293.779Z" fill="#7890B3"/>
<path d="M374.818 323.056C376.259 323.056 377.139 322.528 377.942 321.692L377.073 320.812C376.413 321.428 375.808 321.813 374.862 321.813C373.388 321.813 372.321 320.581 372.321 319.074C372.321 317.545 373.388 316.335 374.862 316.335C375.742 316.335 376.402 316.72 377.018 317.292L377.887 316.291C377.15 315.587 376.292 315.092 374.873 315.092C372.541 315.092 370.902 316.885 370.902 319.074C370.902 321.307 372.574 323.056 374.818 323.056ZM381.036 322.924H382.4V316.478H384.842V315.224H378.594V316.478H381.036V322.924ZM385.396 322.924H386.782L387.574 321.065H391.215L391.996 322.924H393.426L390.038 315.169H388.784L385.396 322.924ZM388.069 319.866L389.389 316.786L390.72 319.866H388.069ZM394.527 323.012C396.045 323.012 396.936 322.033 396.936 317.138V316.445H399.598V322.924H400.951V315.224H395.671V316.742C395.671 321.351 394.945 321.846 394.164 321.846C393.999 321.846 393.823 321.813 393.724 321.78L393.592 322.891C393.801 322.946 394.23 323.012 394.527 323.012ZM406.392 323.056C408.757 323.056 410.429 321.241 410.429 319.074C410.429 316.885 408.779 315.092 406.414 315.092C404.049 315.092 402.377 316.907 402.377 319.074C402.377 321.263 404.027 323.056 406.392 323.056ZM406.414 321.813C404.885 321.813 403.796 320.57 403.796 319.074C403.796 317.556 404.863 316.335 406.392 316.335C407.921 316.335 409.01 317.578 409.01 319.074C409.01 320.592 407.943 321.813 406.414 321.813Z" fill="#676F79"/>
<path d="M153.327 322.924H156.748C158.508 322.924 159.608 322.088 159.608 320.548C159.608 319.063 158.508 318.216 156.814 318.216H154.669V316.445H159.069V315.224H153.327V322.924ZM154.669 321.714V319.36H156.693C157.694 319.36 158.255 319.745 158.255 320.493C158.255 321.439 157.617 321.714 156.451 321.714H154.669ZM160.917 322.924H164.019C165.801 322.924 166.923 321.956 166.923 320.405C166.923 318.854 165.757 317.996 164.03 317.996H162.259V315.224H160.917V322.924ZM162.259 321.714V319.173H163.975C164.998 319.173 165.581 319.602 165.581 320.394C165.581 321.263 164.998 321.714 163.997 321.714H162.259ZM167.836 322.924H169.178V315.224H167.836V322.924ZM170.934 323.012C172.452 323.012 173.343 322.033 173.343 317.138V316.445H176.005V322.924H177.358V315.224H172.078V316.742C172.078 321.351 171.352 321.846 170.571 321.846C170.406 321.846 170.23 321.813 170.131 321.78L169.999 322.891C170.208 322.946 170.637 323.012 170.934 323.012ZM182.799 323.056C185.164 323.056 186.836 321.241 186.836 319.074C186.836 316.885 185.186 315.092 182.821 315.092C180.456 315.092 178.784 316.907 178.784 319.074C178.784 321.263 180.434 323.056 182.799 323.056ZM182.821 321.813C181.292 321.813 180.203 320.57 180.203 319.074C180.203 317.556 181.27 316.335 182.799 316.335C184.328 316.335 185.417 317.578 185.417 319.074C185.417 320.592 184.35 321.813 182.821 321.813Z" fill="#676F79"/>
<rect x="111.597" y="19.5428" width="8" height="251.659" rx="4" fill="#D8E2EF"/>
<rect x="111.597" y="251.312" width="8" height="19.8906" rx="4" fill="#C3D1E3"/>
<path opacity="0.6" d="M101.49 293.779H103.085L104.999 291.117H106.704V293.779H108.046V286.079H104.625C102.843 286.079 101.754 287.036 101.754 288.532C101.754 289.808 102.513 290.589 103.591 290.886L101.49 293.779ZM104.713 289.94C103.745 289.94 103.118 289.423 103.118 288.62C103.118 287.784 103.723 287.3 104.735 287.3H106.704V289.94H104.713ZM109.803 293.779H111.156V290.534H114.83V293.779H116.183V286.079H114.83V289.28H111.156V286.079H109.803V293.779ZM117.94 293.779H121.504C123.22 293.779 124.353 293.042 124.353 291.667C124.353 290.6 123.726 290.083 122.824 289.775C123.396 289.478 123.924 288.983 123.924 288.059C123.924 287.52 123.748 287.102 123.407 286.761C122.967 286.321 122.274 286.079 121.394 286.079H117.94V293.779ZM119.271 289.324V287.278H121.218C122.087 287.278 122.571 287.652 122.571 288.257C122.571 288.983 121.988 289.324 121.119 289.324H119.271ZM119.271 292.58V290.468H121.416C122.483 290.468 123 290.853 123 291.502C123 292.217 122.439 292.58 121.515 292.58H119.271Z" fill="#7890B3"/>
<rect x="161.597" y="19.5428" width="8" height="251.659" rx="4" fill="#D8E2EF"/>
<rect x="161.597" y="259.96" width="8" height="11.2425" rx="4" fill="#C3D1E3"/>
<path opacity="0.6" d="M157.611 294.076H158.953V293.24C161.384 293.24 162.803 291.832 162.803 289.874C162.803 287.905 161.362 286.53 158.953 286.53V285.804H157.611V286.53C155.202 286.53 153.761 287.905 153.761 289.863C153.761 291.832 155.191 293.24 157.611 293.24V294.076ZM157.611 292.041C156.093 292.041 155.147 291.249 155.147 289.885C155.147 288.543 156.093 287.74 157.611 287.74V292.041ZM158.953 292.041V287.74C160.482 287.74 161.417 288.543 161.417 289.885C161.417 291.249 160.482 292.041 158.953 292.041ZM164.101 293.779H169.865V292.569H165.454V290.501H169.315V289.291H165.454V287.289H169.81V286.079H164.101V293.779ZM171.25 293.779H174.814C176.53 293.779 177.663 293.042 177.663 291.667C177.663 290.6 177.036 290.083 176.134 289.775C176.706 289.478 177.234 288.983 177.234 288.059C177.234 287.52 177.058 287.102 176.717 286.761C176.277 286.321 175.584 286.079 174.704 286.079H171.25V293.779ZM172.581 289.324V287.278H174.528C175.397 287.278 175.881 287.652 175.881 288.257C175.881 288.983 175.298 289.324 174.429 289.324H172.581ZM172.581 292.58V290.468H174.726C175.793 290.468 176.31 290.853 176.31 291.502C176.31 292.217 175.749 292.58 174.825 292.58H172.581Z" fill="#7890B3"/>
<rect x="211.597" y="19.5428" width="8" height="251.659" rx="4" fill="#D8E2EF"/>
<rect x="211.597" y="245.258" width="8" height="25.9443" rx="4" fill="#C3D1E3"/>
<path opacity="0.6" d="M204.005 293.779H205.336V288.279L207.745 291.887H207.789L210.22 288.257V293.779H211.573V286.079H210.132L207.789 289.72L205.446 286.079H204.005V293.779ZM212.675 293.779H214.061L214.853 291.92H218.494L219.275 293.779H220.705L217.317 286.024H216.063L212.675 293.779ZM215.348 290.721L216.668 287.641L217.999 290.721H215.348ZM221.805 293.779H223.158V291.304H224.687C226.381 291.304 227.767 290.402 227.767 288.675C227.767 287.102 226.634 286.079 224.841 286.079H221.805V293.779ZM223.158 290.083V287.311H224.731C225.743 287.311 226.392 287.784 226.392 288.686C226.392 289.511 225.754 290.083 224.731 290.083H223.158Z" fill="#7890B3"/>
<rect x="262.597" y="19.5428" width="8" height="251.659" rx="4" fill="#D8E2EF"/>
<rect x="262.597" y="237.475" width="8" height="33.7275" rx="4" fill="#C3D1E3"/>
<path opacity="0.6" d="M254.857 293.779H256.243L257.035 291.92H260.676L261.457 293.779H262.887L259.499 286.024H258.245L254.857 293.779ZM257.53 290.721L258.85 287.641L260.181 290.721H257.53ZM263.987 293.779H265.34V287.3H268.915V293.779H270.268V286.079H263.987V293.779ZM272.028 293.779H273.381V291.304H274.91C276.604 291.304 277.99 290.402 277.99 288.675C277.99 287.102 276.857 286.079 275.064 286.079H272.028V293.779ZM273.381 290.083V287.311H274.954C275.966 287.311 276.615 287.784 276.615 288.686C276.615 289.511 275.977 290.083 274.954 290.083H273.381Z" fill="#7890B3"/>
<rect x="312.597" y="19.5428" width="8" height="251.659" rx="4" fill="#F0D9DD"/>
<rect x="312.597" y="163.966" width="8" height="107.236" rx="4" fill="#F84263"/>
<path d="M305.17 293.779H306.501V288.279L308.91 291.887H308.954L311.385 288.257V293.779H312.738V286.079H311.297L308.954 289.72L306.611 286.079H305.17V293.779ZM313.84 293.779H315.226L316.018 291.92H319.659L320.44 293.779H321.87L318.482 286.024H317.228L313.84 293.779ZM316.513 290.721L317.833 287.641L319.164 290.721H316.513ZM326.259 285.474C327.194 285.474 327.843 284.88 327.986 283.934L327.172 283.78C327.029 284.242 326.754 284.528 326.259 284.528C325.764 284.528 325.478 284.242 325.346 283.78L324.521 283.934C324.675 284.88 325.324 285.474 326.259 285.474ZM322.97 293.779H324.246L328.129 288.169V293.779H329.46V286.079H328.195L324.301 291.7V286.079H322.97V293.779Z" fill="#5C8398"/>
<rect x="362.597" y="19.5428" width="8" height="251.659" rx="4" fill="#F0D9DD"/>
<rect x="362.597" y="145.805" width="8" height="125.397" rx="4" fill="#F84263"/>
<path d="M350.556 293.779H351.832L355.715 288.169V293.779H357.046V286.079H355.781L351.887 291.7V286.079H350.556V293.779ZM365.104 293.911C367.304 293.911 368.822 292.14 368.822 289.929C368.822 287.696 367.315 285.947 365.126 285.947C363.146 285.947 361.705 287.399 361.452 289.302H360.176V286.079H358.823V293.779H360.176V290.512H361.441C361.683 292.459 363.102 293.911 365.104 293.911ZM365.126 292.69C363.762 292.69 362.805 291.469 362.805 289.929C362.805 288.367 363.74 287.179 365.104 287.179C366.468 287.179 367.436 288.389 367.436 289.929C367.436 291.491 366.49 292.69 365.126 292.69ZM370.236 293.779H371.589V290.534H375.263V293.779H376.616V286.079H375.263V289.28H371.589V286.079H370.236V293.779ZM378.374 293.779H381.476C383.258 293.779 384.38 292.811 384.38 291.26C384.38 289.709 383.214 288.851 381.487 288.851H379.716V286.079H378.374V293.779ZM379.716 292.569V290.028H381.432C382.455 290.028 383.038 290.457 383.038 291.249C383.038 292.118 382.455 292.569 381.454 292.569H379.716Z" fill="#5C8398"/>
<rect x="413.597" y="19.5428" width="8" height="251.659" rx="4" fill="#F0D9DD"/>
<rect x="413.597" y="109.483" width="8" height="161.719" rx="4" fill="#F84263"/>
<path d="M400.397 293.779H401.673L405.556 288.169V293.779H406.887V286.079H405.622L401.728 291.7V286.079H400.397V293.779ZM414.944 293.911C417.144 293.911 418.662 292.14 418.662 289.929C418.662 287.696 417.155 285.947 414.966 285.947C412.986 285.947 411.545 287.399 411.292 289.302H410.016V286.079H408.663V293.779H410.016V290.512H411.281C411.523 292.459 412.942 293.911 414.944 293.911ZM414.966 292.69C413.602 292.69 412.645 291.469 412.645 289.929C412.645 288.367 413.58 287.179 414.944 287.179C416.308 287.179 417.276 288.389 417.276 289.929C417.276 291.491 416.33 292.69 414.966 292.69ZM420.077 293.867C421.595 293.867 422.486 292.888 422.486 287.993V287.3H425.148V293.779H426.501V286.079H421.221V287.597C421.221 292.206 420.495 292.701 419.714 292.701C419.549 292.701 419.373 292.668 419.274 292.635L419.142 293.746C419.351 293.801 419.78 293.867 420.077 293.867ZM428.268 293.779H431.37C433.152 293.779 434.274 292.811 434.274 291.26C434.274 289.709 433.108 288.851 431.381 288.851H429.61V286.079H428.268V293.779ZM429.61 292.569V290.028H431.326C432.349 290.028 432.932 290.457 432.932 291.249C432.932 292.118 432.349 292.569 431.348 292.569H429.61Z" fill="#5C8398"/>
<rect x="463.597" y="19.5428" width="8" height="251.659" rx="4" fill="#F0D9DD"/>
<rect x="463.597" y="81.8091" width="8" height="189.393" rx="4" fill="#F84263"/>
<path d="M457.391 293.779H458.777L459.569 291.92H463.21L463.991 293.779H465.421L462.033 286.024H460.779L457.391 293.779ZM460.064 290.721L461.384 287.641L462.715 290.721H460.064ZM466.521 293.779H470.085C471.801 293.779 472.934 293.042 472.934 291.667C472.934 290.6 472.307 290.083 471.405 289.775C471.977 289.478 472.505 288.983 472.505 288.059C472.505 287.52 472.329 287.102 471.988 286.761C471.548 286.321 470.855 286.079 469.975 286.079H466.521V293.779ZM467.852 289.324V287.278H469.799C470.668 287.278 471.152 287.652 471.152 288.257C471.152 288.983 470.569 289.324 469.7 289.324H467.852ZM467.852 292.58V290.468H469.997C471.064 290.468 471.581 290.853 471.581 291.502C471.581 292.217 471.02 292.58 470.096 292.58H467.852ZM474.24 293.779H475.582V287.3H479.421V286.079H474.24V293.779Z" fill="#5C8398"/>
<path opacity="0.6" d="M5.358 51.0815C7.373 51.0815 8.725 49.8595 8.725 48.0005C8.725 46.0505 7.334 45.1145 5.566 45.1145C4.955 45.1145 4.552 45.2185 4.123 45.3745L4.266 43.2425H8.322V41.8255H2.888L2.628 46.2845L3.59 46.9215C4.058 46.7005 4.617 46.5185 5.267 46.5185C6.372 46.5185 7.152 47.1035 7.152 48.0265C7.152 49.0015 6.437 49.6255 5.345 49.6255C4.5 49.6255 3.733 49.2095 3.005 48.5335L2.017 49.6905C2.875 50.5225 3.967 51.0815 5.358 51.0815ZM13.9259 51.0815C16.3179 51.0815 17.9039 48.9755 17.9039 46.3755C17.9039 43.7495 16.3309 41.6695 13.9519 41.6695C11.5599 41.6695 9.97391 43.7755 9.97391 46.3755C9.97391 49.0015 11.5339 51.0815 13.9259 51.0815ZM13.9519 49.6385C12.5349 49.6385 11.6249 48.1695 11.6249 46.3755C11.6249 44.5425 12.5219 43.1125 13.9259 43.1125C15.3299 43.1125 16.2529 44.5815 16.2529 46.3755C16.2529 48.1955 15.3689 49.6385 13.9519 49.6385ZM23.0731 51.0815C25.4651 51.0815 27.0511 48.9755 27.0511 46.3755C27.0511 43.7495 25.4781 41.6695 23.0991 41.6695C20.7071 41.6695 19.1211 43.7755 19.1211 46.3755C19.1211 49.0015 20.6811 51.0815 23.0731 51.0815ZM23.0991 49.6385C21.6821 49.6385 20.7721 48.1695 20.7721 46.3755C20.7721 44.5425 21.6691 43.1125 23.0731 43.1125C24.4771 43.1125 25.4001 44.5815 25.4001 46.3755C25.4001 48.1955 24.5161 49.6385 23.0991 49.6385Z" fill="#AEBDD1"/>
<path opacity="0.6" d="M7.04129 76.0916H8.57529V74.0506H9.87529V72.7376H8.57529V66.9266H7.21029L2.15329 72.9066L2.45229 74.0506H7.04129V76.0916ZM4.05129 72.7376L7.04129 69.1366V72.7376H4.05129ZM14.2259 76.2476C16.2409 76.2476 17.5929 75.0256 17.5929 73.1666C17.5929 71.2166 16.2019 70.2806 14.4339 70.2806C13.8229 70.2806 13.4199 70.3846 12.9909 70.5406L13.1339 68.4086H17.1899V66.9916H11.7559L11.4959 71.4506L12.4579 72.0876C12.9259 71.8666 13.4849 71.6846 14.1349 71.6846C15.2399 71.6846 16.0199 72.2696 16.0199 73.1926C16.0199 74.1676 15.3049 74.7916 14.2129 74.7916C13.3679 74.7916 12.6009 74.3756 11.8729 73.6996L10.8849 74.8566C11.7429 75.6886 12.8349 76.2476 14.2259 76.2476ZM22.7938 76.2476C25.1858 76.2476 26.7718 74.1416 26.7718 71.5416C26.7718 68.9156 25.1988 66.8356 22.8198 66.8356C20.4278 66.8356 18.8418 68.9416 18.8418 71.5416C18.8418 74.1676 20.4018 76.2476 22.7938 76.2476ZM22.8198 74.8046C21.4028 74.8046 20.4928 73.3356 20.4928 71.5416C20.4928 69.7086 21.3898 68.2786 22.7938 68.2786C24.1978 68.2786 25.1208 69.7476 25.1208 71.5416C25.1208 73.3616 24.2368 74.8046 22.8198 74.8046Z" fill="#AEBDD1"/>
<path opacity="0.6" d="M6.88114 100.393H8.41514V98.3518H9.71514V97.0388H8.41514V91.2278H7.05014L1.99314 97.2078L2.29214 98.3518H6.88114V100.393ZM3.89114 97.0388L6.88114 93.4378V97.0388H3.89114ZM14.8068 100.549C17.1988 100.549 18.7848 98.4428 18.7848 95.8428C18.7848 93.2168 17.2118 91.1368 14.8328 91.1368C12.4408 91.1368 10.8548 93.2428 10.8548 95.8428C10.8548 98.4688 12.4148 100.549 14.8068 100.549ZM14.8328 99.1058C13.4158 99.1058 12.5058 97.6368 12.5058 95.8428C12.5058 94.0098 13.4028 92.5798 14.8068 92.5798C16.2108 92.5798 17.1338 94.0488 17.1338 95.8428C17.1338 97.6628 16.2498 99.1058 14.8328 99.1058ZM23.954 100.549C26.346 100.549 27.932 98.4428 27.932 95.8428C27.932 93.2168 26.359 91.1368 23.98 91.1368C21.588 91.1368 20.002 93.2428 20.002 95.8428C20.002 98.4688 21.562 100.549 23.954 100.549ZM23.98 99.1058C22.563 99.1058 21.653 97.6368 21.653 95.8428C21.653 94.0098 22.55 92.5798 23.954 92.5798C25.358 92.5798 26.281 94.0488 26.281 95.8428C26.281 97.6628 25.397 99.1058 23.98 99.1058Z" fill="#AEBDD1"/>
<path opacity="0.6" d="M6.63454 125.715C8.51954 125.715 9.81954 124.519 9.81954 122.842C9.81954 121.204 8.58454 120.463 7.14154 120.255L9.67654 117.655V116.459H3.65754V117.85H7.59654L5.13954 120.463L5.39954 121.464H6.14054C7.41454 121.464 8.23354 121.971 8.23354 122.868C8.23354 123.726 7.55754 124.272 6.66054 124.272C5.64654 124.272 4.91854 123.843 4.26854 123.076L3.15054 124.116C3.91754 125.052 5.04854 125.715 6.63454 125.715ZM14.3197 125.715C16.3347 125.715 17.6867 124.493 17.6867 122.634C17.6867 120.684 16.2957 119.748 14.5277 119.748C13.9167 119.748 13.5137 119.852 13.0847 120.008L13.2277 117.876H17.2837V116.459H11.8497L11.5897 120.918L12.5517 121.555C13.0197 121.334 13.5787 121.152 14.2287 121.152C15.3337 121.152 16.1137 121.737 16.1137 122.66C16.1137 123.635 15.3987 124.259 14.3067 124.259C13.4617 124.259 12.6947 123.843 11.9667 123.167L10.9787 124.324C11.8367 125.156 12.9287 125.715 14.3197 125.715ZM22.8876 125.715C25.2796 125.715 26.8656 123.609 26.8656 121.009C26.8656 118.383 25.2926 116.303 22.9136 116.303C20.5216 116.303 18.9356 118.409 18.9356 121.009C18.9356 123.635 20.4956 125.715 22.8876 125.715ZM22.9136 124.272C21.4966 124.272 20.5866 122.803 20.5866 121.009C20.5866 119.176 21.4836 117.746 22.8876 117.746C24.2916 117.746 25.2146 119.215 25.2146 121.009C25.2146 122.829 24.3306 124.272 22.9136 124.272Z" fill="#AEBDD1"/>
<path opacity="0.6" d="M5.47439 150.881C7.35939 150.881 8.65939 149.685 8.65939 148.008C8.65939 146.37 7.42439 145.629 5.98139 145.421L8.51639 142.821V141.625H2.49739V143.016H6.43639L3.97939 145.629L4.23939 146.63H4.98039C6.25439 146.63 7.07339 147.137 7.07339 148.034C7.07339 148.892 6.39739 149.438 5.50039 149.438C4.48639 149.438 3.75839 149.009 3.10839 148.242L1.99039 149.282C2.75739 150.218 3.88839 150.881 5.47439 150.881ZM13.9005 150.881C16.2925 150.881 17.8785 148.775 17.8785 146.175C17.8785 143.549 16.3055 141.469 13.9265 141.469C11.5345 141.469 9.94852 143.575 9.94852 146.175C9.94852 148.801 11.5085 150.881 13.9005 150.881ZM13.9265 149.438C12.5095 149.438 11.5995 147.969 11.5995 146.175C11.5995 144.342 12.4965 142.912 13.9005 142.912C15.3045 142.912 16.2275 144.381 16.2275 146.175C16.2275 147.995 15.3435 149.438 13.9265 149.438ZM23.0477 150.881C25.4397 150.881 27.0257 148.775 27.0257 146.175C27.0257 143.549 25.4527 141.469 23.0737 141.469C20.6817 141.469 19.0957 143.575 19.0957 146.175C19.0957 148.801 20.6557 150.881 23.0477 150.881ZM23.0737 149.438C21.6567 149.438 20.7467 147.969 20.7467 146.175C20.7467 144.342 21.6437 142.912 23.0477 142.912C24.4517 142.912 25.3747 144.381 25.3747 146.175C25.3747 147.995 24.4907 149.438 23.0737 149.438Z" fill="#AEBDD1"/>
<path opacity="0.6" d="M3.26028 175.891H9.83828V174.487H5.50928L7.38128 172.927C8.98028 171.601 9.74728 170.834 9.74728 169.404C9.74728 167.753 8.52528 166.661 6.74428 166.661C5.11928 166.661 4.26128 167.35 3.39028 168.572L4.52128 169.456C5.22328 168.546 5.79528 168.091 6.62728 168.091C7.45928 168.091 8.09628 168.611 8.09628 169.508C8.09628 170.327 7.64128 170.912 6.39328 171.965L3.26028 174.63V175.891ZM14.2879 176.047C16.3029 176.047 17.6549 174.825 17.6549 172.966C17.6549 171.016 16.2639 170.08 14.4959 170.08C13.8849 170.08 13.4819 170.184 13.0529 170.34L13.1959 168.208H17.2519V166.791H11.8179L11.5579 171.25L12.5199 171.887C12.9879 171.666 13.5469 171.484 14.1969 171.484C15.3019 171.484 16.0819 172.069 16.0819 172.992C16.0819 173.967 15.3669 174.591 14.2749 174.591C13.4299 174.591 12.6629 174.175 11.9349 173.499L10.9469 174.656C11.8049 175.488 12.8969 176.047 14.2879 176.047ZM22.8559 176.047C25.2479 176.047 26.8339 173.941 26.8339 171.341C26.8339 168.715 25.2609 166.635 22.8819 166.635C20.4899 166.635 18.9039 168.741 18.9039 171.341C18.9039 173.967 20.4639 176.047 22.8559 176.047ZM22.8819 174.604C21.4649 174.604 20.5549 173.135 20.5549 171.341C20.5549 169.508 21.4519 168.078 22.8559 168.078C24.2599 168.078 25.1829 169.547 25.1829 171.341C25.1829 173.161 24.2989 174.604 22.8819 174.604Z" fill="#AEBDD1"/>
<path opacity="0.6" d="M2.10013 201.057H8.67813V199.653H4.34913L6.22113 198.093C7.82013 196.767 8.58713 196 8.58713 194.57C8.58713 192.919 7.36513 191.827 5.58413 191.827C3.95913 191.827 3.10113 192.516 2.23013 193.738L3.36113 194.622C4.06313 193.712 4.63513 193.257 5.46713 193.257C6.29913 193.257 6.93613 193.777 6.93613 194.674C6.93613 195.493 6.48113 196.078 5.23313 197.131L2.10013 199.796V201.057ZM13.8688 201.213C16.2608 201.213 17.8468 199.107 17.8468 196.507C17.8468 193.881 16.2738 191.801 13.8948 191.801C11.5028 191.801 9.91678 193.907 9.91678 196.507C9.91678 199.133 11.4768 201.213 13.8688 201.213ZM13.8948 199.77C12.4778 199.77 11.5678 198.301 11.5678 196.507C11.5678 194.674 12.4648 193.244 13.8688 193.244C15.2728 193.244 16.1958 194.713 16.1958 196.507C16.1958 198.327 15.3118 199.77 13.8948 199.77ZM23.016 201.213C25.408 201.213 26.994 199.107 26.994 196.507C26.994 193.881 25.421 191.801 23.042 191.801C20.65 191.801 19.064 193.907 19.064 196.507C19.064 199.133 20.624 201.213 23.016 201.213ZM23.042 199.77C21.625 199.77 20.715 198.301 20.715 196.507C20.715 194.674 21.612 193.244 23.016 193.244C24.42 193.244 25.343 194.713 25.343 196.507C25.343 198.327 24.459 199.77 23.042 199.77Z" fill="#AEBDD1"/>
<path opacity="0.6" d="M3.84646 225.358H5.43246V216.193H4.31446L1.87046 216.973L2.20846 218.273L3.84646 217.818V225.358ZM10.3788 225.514C12.3938 225.514 13.7458 224.292 13.7458 222.433C13.7458 220.483 12.3548 219.547 10.5868 219.547C9.97576 219.547 9.57276 219.651 9.14376 219.807L9.28676 217.675H13.3428V216.258H7.90876L7.64876 220.717L8.61076 221.354C9.07876 221.133 9.63776 220.951 10.2878 220.951C11.3928 220.951 12.1728 221.536 12.1728 222.459C12.1728 223.434 11.4578 224.058 10.3658 224.058C9.52076 224.058 8.75376 223.642 8.02576 222.966L7.03776 224.123C7.89576 224.955 8.98776 225.514 10.3788 225.514ZM18.9467 225.514C21.3387 225.514 22.9247 223.408 22.9247 220.808C22.9247 218.182 21.3517 216.102 18.9727 216.102C16.5807 216.102 14.9947 218.208 14.9947 220.808C14.9947 223.434 16.5547 225.514 18.9467 225.514ZM18.9727 224.071C17.5557 224.071 16.6457 222.602 16.6457 220.808C16.6457 218.975 17.5427 217.545 18.9467 217.545C20.3507 217.545 21.2737 219.014 21.2737 220.808C21.2737 222.628 20.3897 224.071 18.9727 224.071Z" fill="#AEBDD1"/>
<path opacity="0.6" d="M3.6863 250.524H5.27231V241.359H4.15431L1.7103 242.139L2.0483 243.439L3.6863 242.984V250.524ZM10.9596 250.68C13.3516 250.68 14.9376 248.574 14.9376 245.974C14.9376 243.348 13.3646 241.268 10.9856 241.268C8.5936 241.268 7.0076 243.374 7.0076 245.974C7.0076 248.6 8.5676 250.68 10.9596 250.68ZM10.9856 249.237C9.5686 249.237 8.6586 247.768 8.6586 245.974C8.6586 244.141 9.5556 242.711 10.9596 242.711C12.3636 242.711 13.2866 244.18 13.2866 245.974C13.2866 247.794 12.4026 249.237 10.9856 249.237ZM20.1068 250.68C22.4988 250.68 24.0848 248.574 24.0848 245.974C24.0848 243.348 22.5118 241.268 20.1328 241.268C17.7408 241.268 16.1548 243.374 16.1548 245.974C16.1548 248.6 17.7148 250.68 20.1068 250.68ZM20.1328 249.237C18.7158 249.237 17.8058 247.768 17.8058 245.974C17.8058 244.141 18.7028 242.711 20.1068 242.711C21.5108 242.711 22.4338 244.18 22.4338 245.974C22.4338 247.794 21.5498 249.237 20.1328 249.237Z" fill="#AEBDD1"/>
<path opacity="0.6" d="M8.43161 275.846C10.4466 275.846 11.7986 274.624 11.7986 272.765C11.7986 270.815 10.4076 269.879 8.63961 269.879C8.02861 269.879 7.62561 269.983 7.19661 270.139L7.33961 268.007H11.3956V266.59H5.96161L5.70161 271.049L6.66361 271.686C7.13161 271.465 7.69061 271.283 8.34061 271.283C9.44561 271.283 10.2256 271.868 10.2256 272.791C10.2256 273.766 9.51061 274.39 8.41861 274.39C7.57361 274.39 6.80661 273.974 6.07861 273.298L5.09061 274.455C5.94861 275.287 7.04061 275.846 8.43161 275.846ZM16.9995 275.846C19.3915 275.846 20.9775 273.74 20.9775 271.14C20.9775 268.514 19.4045 266.434 17.0255 266.434C14.6335 266.434 13.0475 268.54 13.0475 271.14C13.0475 273.766 14.6075 275.846 16.9995 275.846ZM17.0255 274.403C15.6085 274.403 14.6985 272.934 14.6985 271.14C14.6985 269.307 15.5955 267.877 16.9995 267.877C18.4035 267.877 19.3265 269.346 19.3265 271.14C19.3265 272.96 18.4425 274.403 17.0255 274.403Z" fill="#AEBDD1"/>
</svg>
