<svg width="495" height="345" viewBox="0 0 495 345" fill="none" xmlns="http://www.w3.org/2000/svg">
<rect x="192.788" y="0.711426" width="301.809" height="343.329" rx="10" fill="#F84263" fill-opacity="0.05"/>
<path opacity="0.6" d="M6.51815 26.11C8.53315 26.11 9.88515 24.888 9.88515 23.029C9.88515 21.079 8.49415 20.143 6.72615 20.143C6.11515 20.143 5.71215 20.247 5.28315 20.403L5.42615 18.271H9.48215V16.854H4.04815L3.78815 21.313L4.75015 21.95C5.21815 21.729 5.77715 21.547 6.42715 21.547C7.53215 21.547 8.31215 22.132 8.31215 23.055C8.31215 24.03 7.59715 24.654 6.50515 24.654C5.66015 24.654 4.89315 24.238 4.16515 23.562L3.17715 24.719C4.03515 25.551 5.12715 26.11 6.51815 26.11ZM14.3451 26.11C16.3601 26.11 17.7121 24.888 17.7121 23.029C17.7121 21.079 16.3211 20.143 14.5531 20.143C13.9421 20.143 13.5391 20.247 13.1101 20.403L13.2531 18.271H17.3091V16.854H11.8751L11.6151 21.313L12.5771 21.95C13.0451 21.729 13.6041 21.547 14.2541 21.547C15.3591 21.547 16.1391 22.132 16.1391 23.055C16.1391 24.03 15.4241 24.654 14.3321 24.654C13.4871 24.654 12.7201 24.238 11.9921 23.562L11.0041 24.719C11.8621 25.551 12.9541 26.11 14.3451 26.11ZM22.913 26.11C25.305 26.11 26.891 24.004 26.891 21.404C26.891 18.778 25.318 16.698 22.939 16.698C20.547 16.698 18.961 18.804 18.961 21.404C18.961 24.03 20.521 26.11 22.913 26.11ZM22.939 24.667C21.522 24.667 20.612 23.198 20.612 21.404C20.612 19.571 21.509 18.141 22.913 18.141C24.317 18.141 25.24 19.61 25.24 21.404C25.24 23.224 24.356 24.667 22.939 24.667Z" fill="#AEBDD1"/>
<rect x="60.5967" y="19.7373" width="8" height="251.659" rx="4" fill="#D8E2EF"/>
<rect x="60.5967" y="251.506" width="8" height="19.8906" rx="4" fill="#C3D1E3"/>
<path opacity="0.6" d="M53.4618 295.623H54.6498L54.7818 293.973H60.2048V295.623H61.3268L61.5138 292.763H60.5568V286.273H55.1888V287.362C55.1888 289.936 54.8478 291.498 54.2098 292.763H53.4618V295.623ZM55.6508 292.763C56.1788 291.696 56.4868 290.156 56.4868 288.374V287.494H59.2038V292.763H55.6508ZM62.5007 293.973H68.2647V292.763H63.8537V290.695H67.7147V289.485H63.8537V287.483H68.2097V286.273H62.5007V293.973ZM69.6499 293.973H71.0029V291.74L72.2019 290.508L74.8309 293.973H76.4699L73.1259 289.584L76.3269 286.273H74.6659L71.0029 290.145V286.273H69.6499V293.973Z" fill="#7890B3"/>
<path d="M327.846 323.251C329.287 323.251 330.167 322.723 330.97 321.887L330.101 321.007C329.441 321.623 328.836 322.008 327.89 322.008C326.416 322.008 325.349 320.776 325.349 319.269C325.349 317.74 326.416 316.53 327.89 316.53C328.77 316.53 329.43 316.915 330.046 317.487L330.915 316.486C330.178 315.782 329.32 315.287 327.901 315.287C325.569 315.287 323.93 317.08 323.93 319.269C323.93 321.502 325.602 323.251 327.846 323.251ZM334.064 323.119H335.428V316.673H337.87V315.419H331.622V316.673H334.064V323.119ZM338.425 323.119H339.811L340.603 321.26H344.244L345.025 323.119H346.455L343.067 315.364H341.813L338.425 323.119ZM341.098 320.061L342.418 316.981L343.749 320.061H341.098ZM347.556 323.207C349.074 323.207 349.965 322.228 349.965 317.333V316.64H352.627V323.119H353.98V315.419H348.7V316.937C348.7 321.546 347.974 322.041 347.193 322.041C347.028 322.041 346.852 322.008 346.753 321.975L346.621 323.086C346.83 323.141 347.259 323.207 347.556 323.207ZM359.421 323.251C361.786 323.251 363.458 321.436 363.458 319.269C363.458 317.08 361.808 315.287 359.443 315.287C357.078 315.287 355.406 317.102 355.406 319.269C355.406 321.458 357.056 323.251 359.421 323.251ZM359.443 322.008C357.914 322.008 356.825 320.765 356.825 319.269C356.825 317.751 357.892 316.53 359.421 316.53C360.95 316.53 362.039 317.773 362.039 319.269C362.039 320.787 360.972 322.008 359.443 322.008Z" fill="#676F79"/>
<path d="M96.4094 323.119H99.8304C101.59 323.119 102.69 322.283 102.69 320.743C102.69 319.258 101.59 318.411 99.8964 318.411H97.7514V316.64H102.151V315.419H96.4094V323.119ZM97.7514 321.909V319.555H99.7754C100.776 319.555 101.337 319.94 101.337 320.688C101.337 321.634 100.699 321.909 99.5334 321.909H97.7514ZM103.999 323.119H107.101C108.883 323.119 110.005 322.151 110.005 320.6C110.005 319.049 108.839 318.191 107.112 318.191H105.341V315.419H103.999V323.119ZM105.341 321.909V319.368H107.057C108.08 319.368 108.663 319.797 108.663 320.589C108.663 321.458 108.08 321.909 107.079 321.909H105.341ZM110.918 323.119H112.26V315.419H110.918V323.119ZM114.016 323.207C115.534 323.207 116.425 322.228 116.425 317.333V316.64H119.087V323.119H120.44V315.419H115.16V316.937C115.16 321.546 114.434 322.041 113.653 322.041C113.488 322.041 113.312 322.008 113.213 321.975L113.081 323.086C113.29 323.141 113.719 323.207 114.016 323.207ZM125.881 323.251C128.246 323.251 129.918 321.436 129.918 319.269C129.918 317.08 128.268 315.287 125.903 315.287C123.538 315.287 121.866 317.102 121.866 319.269C121.866 321.458 123.516 323.251 125.881 323.251ZM125.903 322.008C124.374 322.008 123.285 320.765 123.285 319.269C123.285 317.751 124.352 316.53 125.881 316.53C127.41 316.53 128.499 317.773 128.499 319.269C128.499 320.787 127.432 322.008 125.903 322.008Z" fill="#676F79"/>
<rect x="111.597" y="19.7373" width="8" height="251.659" rx="4" fill="#D8E2EF"/>
<rect x="111.597" y="251.506" width="8" height="19.8906" rx="4" fill="#C3D1E3"/>
<path opacity="0.6" d="M101.49 293.973H103.085L104.999 291.311H106.704V293.973H108.046V286.273H104.625C102.843 286.273 101.754 287.23 101.754 288.726C101.754 290.002 102.513 290.783 103.591 291.08L101.49 293.973ZM104.713 290.134C103.745 290.134 103.118 289.617 103.118 288.814C103.118 287.978 103.723 287.494 104.735 287.494H106.704V290.134H104.713ZM109.803 293.973H111.156V290.728H114.83V293.973H116.183V286.273H114.83V289.474H111.156V286.273H109.803V293.973ZM117.94 293.973H121.504C123.22 293.973 124.353 293.236 124.353 291.861C124.353 290.794 123.726 290.277 122.824 289.969C123.396 289.672 123.924 289.177 123.924 288.253C123.924 287.714 123.748 287.296 123.407 286.955C122.967 286.515 122.274 286.273 121.394 286.273H117.94V293.973ZM119.271 289.518V287.472H121.218C122.087 287.472 122.571 287.846 122.571 288.451C122.571 289.177 121.988 289.518 121.119 289.518H119.271ZM119.271 292.774V290.662H121.416C122.483 290.662 123 291.047 123 291.696C123 292.411 122.439 292.774 121.515 292.774H119.271Z" fill="#7890B3"/>
<rect x="161.597" y="19.7373" width="8" height="251.659" rx="4" fill="#D8E2EF"/>
<rect x="161.597" y="260.154" width="8" height="11.2425" rx="4" fill="#C3D1E3"/>
<path opacity="0.6" d="M157.611 294.27H158.953V293.434C161.384 293.434 162.803 292.026 162.803 290.068C162.803 288.099 161.362 286.724 158.953 286.724V285.998H157.611V286.724C155.202 286.724 153.761 288.099 153.761 290.057C153.761 292.026 155.191 293.434 157.611 293.434V294.27ZM157.611 292.235C156.093 292.235 155.147 291.443 155.147 290.079C155.147 288.737 156.093 287.934 157.611 287.934V292.235ZM158.953 292.235V287.934C160.482 287.934 161.417 288.737 161.417 290.079C161.417 291.443 160.482 292.235 158.953 292.235ZM164.101 293.973H169.865V292.763H165.454V290.695H169.315V289.485H165.454V287.483H169.81V286.273H164.101V293.973ZM171.25 293.973H174.814C176.53 293.973 177.663 293.236 177.663 291.861C177.663 290.794 177.036 290.277 176.134 289.969C176.706 289.672 177.234 289.177 177.234 288.253C177.234 287.714 177.058 287.296 176.717 286.955C176.277 286.515 175.584 286.273 174.704 286.273H171.25V293.973ZM172.581 289.518V287.472H174.528C175.397 287.472 175.881 287.846 175.881 288.451C175.881 289.177 175.298 289.518 174.429 289.518H172.581ZM172.581 292.774V290.662H174.726C175.793 290.662 176.31 291.047 176.31 291.696C176.31 292.411 175.749 292.774 174.825 292.774H172.581Z" fill="#7890B3"/>
<rect x="211.597" y="19.7373" width="8" height="251.659" rx="4" fill="#F0D9DD"/>
<rect x="211.597" y="162.085" width="8" height="109.311" rx="4" fill="#F84263"/>
<path opacity="0.6" d="M204.005 293.973H205.336V288.473L207.745 292.081H207.789L210.22 288.451V293.973H211.573V286.273H210.132L207.789 289.914L205.446 286.273H204.005V293.973ZM212.675 293.973H214.061L214.853 292.114H218.494L219.275 293.973H220.705L217.317 286.218H216.063L212.675 293.973ZM215.348 290.915L216.668 287.835L217.999 290.915H215.348ZM221.805 293.973H223.158V291.498H224.687C226.381 291.498 227.767 290.596 227.767 288.869C227.767 287.296 226.634 286.273 224.841 286.273H221.805V293.973ZM223.158 290.277V287.505H224.731C225.743 287.505 226.392 287.978 226.392 288.88C226.392 289.705 225.754 290.277 224.731 290.277H223.158Z" fill="#7890B3"/>
<rect x="262.597" y="19.7373" width="8" height="251.659" rx="4" fill="#F0D9DD"/>
<rect x="262.597" y="176.085" width="8" height="95.3113" rx="4" fill="#F84263"/>
<path opacity="0.6" d="M254.857 293.973H256.243L257.035 292.114H260.676L261.457 293.973H262.887L259.499 286.218H258.245L254.857 293.973ZM257.53 290.915L258.85 287.835L260.181 290.915H257.53ZM263.987 293.973H265.34V287.494H268.915V293.973H270.268V286.273H263.987V293.973ZM272.028 293.973H273.381V291.498H274.91C276.604 291.498 277.99 290.596 277.99 288.869C277.99 287.296 276.857 286.273 275.064 286.273H272.028V293.973ZM273.381 290.277V287.505H274.954C275.966 287.505 276.615 287.978 276.615 288.88C276.615 289.705 275.977 290.277 274.954 290.277H273.381Z" fill="#7890B3"/>
<rect x="312.597" y="19.7373" width="8" height="251.659" rx="4" fill="#F0D9DD"/>
<rect x="312.597" y="176.085" width="8" height="95.3113" rx="4" fill="#F84263"/>
<path d="M305.17 293.973H306.501V288.473L308.91 292.081H308.954L311.385 288.451V293.973H312.738V286.273H311.297L308.954 289.914L306.611 286.273H305.17V293.973ZM313.84 293.973H315.226L316.018 292.114H319.659L320.44 293.973H321.87L318.482 286.218H317.228L313.84 293.973ZM316.513 290.915L317.833 287.835L319.164 290.915H316.513ZM326.259 285.668C327.194 285.668 327.843 285.074 327.986 284.128L327.172 283.974C327.029 284.436 326.754 284.722 326.259 284.722C325.764 284.722 325.478 284.436 325.346 283.974L324.521 284.128C324.675 285.074 325.324 285.668 326.259 285.668ZM322.97 293.973H324.246L328.129 288.363V293.973H329.46V286.273H328.195L324.301 291.894V286.273H322.97V293.973Z" fill="#5C8398"/>
<rect x="362.597" y="19.7373" width="8" height="251.659" rx="4" fill="#F0D9DD"/>
<rect x="362.597" y="152.486" width="8" height="118.911" rx="4" fill="#F84263"/>
<path d="M350.556 293.973H351.832L355.715 288.363V293.973H357.046V286.273H355.781L351.887 291.894V286.273H350.556V293.973ZM365.104 294.105C367.304 294.105 368.822 292.334 368.822 290.123C368.822 287.89 367.315 286.141 365.126 286.141C363.146 286.141 361.705 287.593 361.452 289.496H360.176V286.273H358.823V293.973H360.176V290.706H361.441C361.683 292.653 363.102 294.105 365.104 294.105ZM365.126 292.884C363.762 292.884 362.805 291.663 362.805 290.123C362.805 288.561 363.74 287.373 365.104 287.373C366.468 287.373 367.436 288.583 367.436 290.123C367.436 291.685 366.49 292.884 365.126 292.884ZM370.236 293.973H371.589V290.728H375.263V293.973H376.616V286.273H375.263V289.474H371.589V286.273H370.236V293.973ZM378.374 293.973H381.476C383.258 293.973 384.38 293.005 384.38 291.454C384.38 289.903 383.214 289.045 381.487 289.045H379.716V286.273H378.374V293.973ZM379.716 292.763V290.222H381.432C382.455 290.222 383.038 290.651 383.038 291.443C383.038 292.312 382.455 292.763 381.454 292.763H379.716Z" fill="#5C8398"/>
<rect x="413.597" y="19.7373" width="8" height="251.659" rx="4" fill="#F0D9DD"/>
<rect x="413.597" y="136.919" width="8" height="134.477" rx="4" fill="#F84263"/>
<path d="M400.397 293.973H401.673L405.556 288.363V293.973H406.887V286.273H405.622L401.728 291.894V286.273H400.397V293.973ZM414.944 294.105C417.144 294.105 418.662 292.334 418.662 290.123C418.662 287.89 417.155 286.141 414.966 286.141C412.986 286.141 411.545 287.593 411.292 289.496H410.016V286.273H408.663V293.973H410.016V290.706H411.281C411.523 292.653 412.942 294.105 414.944 294.105ZM414.966 292.884C413.602 292.884 412.645 291.663 412.645 290.123C412.645 288.561 413.58 287.373 414.944 287.373C416.308 287.373 417.276 288.583 417.276 290.123C417.276 291.685 416.33 292.884 414.966 292.884ZM420.077 294.061C421.595 294.061 422.486 293.082 422.486 288.187V287.494H425.148V293.973H426.501V286.273H421.221V287.791C421.221 292.4 420.495 292.895 419.714 292.895C419.549 292.895 419.373 292.862 419.274 292.829L419.142 293.94C419.351 293.995 419.78 294.061 420.077 294.061ZM428.268 293.973H431.37C433.152 293.973 434.274 293.005 434.274 291.454C434.274 289.903 433.108 289.045 431.381 289.045H429.61V286.273H428.268V293.973ZM429.61 292.763V290.222H431.326C432.349 290.222 432.932 290.651 432.932 291.443C432.932 292.312 432.349 292.763 431.348 292.763H429.61Z" fill="#5C8398"/>
<rect x="463.597" y="19.7373" width="8" height="251.659" rx="4" fill="#F0D9DD"/>
<rect x="463.597" y="70.4971" width="8" height="200.9" rx="4" fill="#F84263"/>
<path d="M457.391 293.973H458.777L459.569 292.114H463.21L463.991 293.973H465.421L462.033 286.218H460.779L457.391 293.973ZM460.064 290.915L461.384 287.835L462.715 290.915H460.064ZM466.521 293.973H470.085C471.801 293.973 472.934 293.236 472.934 291.861C472.934 290.794 472.307 290.277 471.405 289.969C471.977 289.672 472.505 289.177 472.505 288.253C472.505 287.714 472.329 287.296 471.988 286.955C471.548 286.515 470.855 286.273 469.975 286.273H466.521V293.973ZM467.852 289.518V287.472H469.799C470.668 287.472 471.152 287.846 471.152 288.451C471.152 289.177 470.569 289.518 469.7 289.518H467.852ZM467.852 292.774V290.662H469.997C471.064 290.662 471.581 291.047 471.581 291.696C471.581 292.411 471.02 292.774 470.096 292.774H467.852ZM474.24 293.973H475.582V287.494H479.421V286.273H474.24V293.973Z" fill="#5C8398"/>
<path opacity="0.6" d="M5.358 51.276C7.373 51.276 8.725 50.054 8.725 48.195C8.725 46.245 7.334 45.309 5.566 45.309C4.955 45.309 4.552 45.413 4.123 45.569L4.266 43.437H8.322V42.02H2.888L2.628 46.479L3.59 47.116C4.058 46.895 4.617 46.713 5.267 46.713C6.372 46.713 7.152 47.298 7.152 48.221C7.152 49.196 6.437 49.82 5.345 49.82C4.5 49.82 3.733 49.404 3.005 48.728L2.017 49.885C2.875 50.717 3.967 51.276 5.358 51.276ZM13.9259 51.276C16.3179 51.276 17.9039 49.17 17.9039 46.57C17.9039 43.944 16.3309 41.864 13.9519 41.864C11.5599 41.864 9.97391 43.97 9.97391 46.57C9.97391 49.196 11.5339 51.276 13.9259 51.276ZM13.9519 49.833C12.5349 49.833 11.6249 48.364 11.6249 46.57C11.6249 44.737 12.5219 43.307 13.9259 43.307C15.3299 43.307 16.2529 44.776 16.2529 46.57C16.2529 48.39 15.3689 49.833 13.9519 49.833ZM23.0731 51.276C25.4651 51.276 27.0511 49.17 27.0511 46.57C27.0511 43.944 25.4781 41.864 23.0991 41.864C20.7071 41.864 19.1211 43.97 19.1211 46.57C19.1211 49.196 20.6811 51.276 23.0731 51.276ZM23.0991 49.833C21.6821 49.833 20.7721 48.364 20.7721 46.57C20.7721 44.737 21.6691 43.307 23.0731 43.307C24.4771 43.307 25.4001 44.776 25.4001 46.57C25.4001 48.39 24.5161 49.833 23.0991 49.833Z" fill="#AEBDD1"/>
<path opacity="0.6" d="M7.04129 76.286H8.57529V74.245H9.87529V72.932H8.57529V67.121H7.21029L2.15329 73.101L2.45229 74.245H7.04129V76.286ZM4.05129 72.932L7.04129 69.331V72.932H4.05129ZM14.2259 76.442C16.2409 76.442 17.5929 75.22 17.5929 73.361C17.5929 71.411 16.2019 70.475 14.4339 70.475C13.8229 70.475 13.4199 70.579 12.9909 70.735L13.1339 68.603H17.1899V67.186H11.7559L11.4959 71.645L12.4579 72.282C12.9259 72.061 13.4849 71.879 14.1349 71.879C15.2399 71.879 16.0199 72.464 16.0199 73.387C16.0199 74.362 15.3049 74.986 14.2129 74.986C13.3679 74.986 12.6009 74.57 11.8729 73.894L10.8849 75.051C11.7429 75.883 12.8349 76.442 14.2259 76.442ZM22.7938 76.442C25.1858 76.442 26.7718 74.336 26.7718 71.736C26.7718 69.11 25.1988 67.03 22.8198 67.03C20.4278 67.03 18.8418 69.136 18.8418 71.736C18.8418 74.362 20.4018 76.442 22.7938 76.442ZM22.8198 74.999C21.4028 74.999 20.4928 73.53 20.4928 71.736C20.4928 69.903 21.3898 68.473 22.7938 68.473C24.1978 68.473 25.1208 69.942 25.1208 71.736C25.1208 73.556 24.2368 74.999 22.8198 74.999Z" fill="#AEBDD1"/>
<path opacity="0.6" d="M6.88114 100.587H8.41514V98.5462H9.71514V97.2332H8.41514V91.4222H7.05014L1.99314 97.4022L2.29214 98.5462H6.88114V100.587ZM3.89114 97.2332L6.88114 93.6322V97.2332H3.89114ZM14.8068 100.743C17.1988 100.743 18.7848 98.6372 18.7848 96.0372C18.7848 93.4112 17.2118 91.3312 14.8328 91.3312C12.4408 91.3312 10.8548 93.4372 10.8548 96.0372C10.8548 98.6632 12.4148 100.743 14.8068 100.743ZM14.8328 99.3002C13.4158 99.3002 12.5058 97.8312 12.5058 96.0372C12.5058 94.2042 13.4028 92.7742 14.8068 92.7742C16.2108 92.7742 17.1338 94.2432 17.1338 96.0372C17.1338 97.8572 16.2498 99.3002 14.8328 99.3002ZM23.954 100.743C26.346 100.743 27.932 98.6372 27.932 96.0372C27.932 93.4112 26.359 91.3312 23.98 91.3312C21.588 91.3312 20.002 93.4372 20.002 96.0372C20.002 98.6632 21.562 100.743 23.954 100.743ZM23.98 99.3002C22.563 99.3002 21.653 97.8312 21.653 96.0372C21.653 94.2042 22.55 92.7742 23.954 92.7742C25.358 92.7742 26.281 94.2432 26.281 96.0372C26.281 97.8572 25.397 99.3002 23.98 99.3002Z" fill="#AEBDD1"/>
<path opacity="0.6" d="M6.63454 125.909C8.51954 125.909 9.81954 124.713 9.81954 123.036C9.81954 121.398 8.58454 120.657 7.14154 120.449L9.67654 117.849V116.653H3.65754V118.044H7.59654L5.13954 120.657L5.39954 121.658H6.14054C7.41454 121.658 8.23354 122.165 8.23354 123.062C8.23354 123.92 7.55754 124.466 6.66054 124.466C5.64654 124.466 4.91854 124.037 4.26854 123.27L3.15054 124.31C3.91754 125.246 5.04854 125.909 6.63454 125.909ZM14.3197 125.909C16.3347 125.909 17.6867 124.687 17.6867 122.828C17.6867 120.878 16.2957 119.942 14.5277 119.942C13.9167 119.942 13.5137 120.046 13.0847 120.202L13.2277 118.07H17.2837V116.653H11.8497L11.5897 121.112L12.5517 121.749C13.0197 121.528 13.5787 121.346 14.2287 121.346C15.3337 121.346 16.1137 121.931 16.1137 122.854C16.1137 123.829 15.3987 124.453 14.3067 124.453C13.4617 124.453 12.6947 124.037 11.9667 123.361L10.9787 124.518C11.8367 125.35 12.9287 125.909 14.3197 125.909ZM22.8876 125.909C25.2796 125.909 26.8656 123.803 26.8656 121.203C26.8656 118.577 25.2926 116.497 22.9136 116.497C20.5216 116.497 18.9356 118.603 18.9356 121.203C18.9356 123.829 20.4956 125.909 22.8876 125.909ZM22.9136 124.466C21.4966 124.466 20.5866 122.997 20.5866 121.203C20.5866 119.37 21.4836 117.94 22.8876 117.94C24.2916 117.94 25.2146 119.409 25.2146 121.203C25.2146 123.023 24.3306 124.466 22.9136 124.466Z" fill="#AEBDD1"/>
<path opacity="0.6" d="M5.47439 151.075C7.35939 151.075 8.65939 149.879 8.65939 148.202C8.65939 146.564 7.42439 145.823 5.98139 145.615L8.51639 143.015V141.819H2.49739V143.21H6.43639L3.97939 145.823L4.23939 146.824H4.98039C6.25439 146.824 7.07339 147.331 7.07339 148.228C7.07339 149.086 6.39739 149.632 5.50039 149.632C4.48639 149.632 3.75839 149.203 3.10839 148.436L1.99039 149.476C2.75739 150.412 3.88839 151.075 5.47439 151.075ZM13.9005 151.075C16.2925 151.075 17.8785 148.969 17.8785 146.369C17.8785 143.743 16.3055 141.663 13.9265 141.663C11.5345 141.663 9.94852 143.769 9.94852 146.369C9.94852 148.995 11.5085 151.075 13.9005 151.075ZM13.9265 149.632C12.5095 149.632 11.5995 148.163 11.5995 146.369C11.5995 144.536 12.4965 143.106 13.9005 143.106C15.3045 143.106 16.2275 144.575 16.2275 146.369C16.2275 148.189 15.3435 149.632 13.9265 149.632ZM23.0477 151.075C25.4397 151.075 27.0257 148.969 27.0257 146.369C27.0257 143.743 25.4527 141.663 23.0737 141.663C20.6817 141.663 19.0957 143.769 19.0957 146.369C19.0957 148.995 20.6557 151.075 23.0477 151.075ZM23.0737 149.632C21.6567 149.632 20.7467 148.163 20.7467 146.369C20.7467 144.536 21.6437 143.106 23.0477 143.106C24.4517 143.106 25.3747 144.575 25.3747 146.369C25.3747 148.189 24.4907 149.632 23.0737 149.632Z" fill="#AEBDD1"/>
<path opacity="0.6" d="M3.26028 176.085H9.83828V174.681H5.50928L7.38128 173.121C8.98028 171.795 9.74728 171.028 9.74728 169.598C9.74728 167.947 8.52528 166.855 6.74428 166.855C5.11928 166.855 4.26128 167.544 3.39028 168.766L4.52128 169.65C5.22328 168.74 5.79528 168.285 6.62728 168.285C7.45928 168.285 8.09628 168.805 8.09628 169.702C8.09628 170.521 7.64128 171.106 6.39328 172.159L3.26028 174.824V176.085ZM14.2879 176.241C16.3029 176.241 17.6549 175.019 17.6549 173.16C17.6549 171.21 16.2639 170.274 14.4959 170.274C13.8849 170.274 13.4819 170.378 13.0529 170.534L13.1959 168.402H17.2519V166.985H11.8179L11.5579 171.444L12.5199 172.081C12.9879 171.86 13.5469 171.678 14.1969 171.678C15.3019 171.678 16.0819 172.263 16.0819 173.186C16.0819 174.161 15.3669 174.785 14.2749 174.785C13.4299 174.785 12.6629 174.369 11.9349 173.693L10.9469 174.85C11.8049 175.682 12.8969 176.241 14.2879 176.241ZM22.8559 176.241C25.2479 176.241 26.8339 174.135 26.8339 171.535C26.8339 168.909 25.2609 166.829 22.8819 166.829C20.4899 166.829 18.9039 168.935 18.9039 171.535C18.9039 174.161 20.4639 176.241 22.8559 176.241ZM22.8819 174.798C21.4649 174.798 20.5549 173.329 20.5549 171.535C20.5549 169.702 21.4519 168.272 22.8559 168.272C24.2599 168.272 25.1829 169.741 25.1829 171.535C25.1829 173.355 24.2989 174.798 22.8819 174.798Z" fill="#AEBDD1"/>
<path opacity="0.6" d="M2.10013 201.251H8.67813V199.847H4.34913L6.22113 198.287C7.82013 196.961 8.58713 196.194 8.58713 194.764C8.58713 193.113 7.36513 192.021 5.58413 192.021C3.95913 192.021 3.10113 192.71 2.23013 193.932L3.36113 194.816C4.06313 193.906 4.63513 193.451 5.46713 193.451C6.29913 193.451 6.93613 193.971 6.93613 194.868C6.93613 195.687 6.48113 196.272 5.23313 197.325L2.10013 199.99V201.251ZM13.8688 201.407C16.2608 201.407 17.8468 199.301 17.8468 196.701C17.8468 194.075 16.2738 191.995 13.8948 191.995C11.5028 191.995 9.91678 194.101 9.91678 196.701C9.91678 199.327 11.4768 201.407 13.8688 201.407ZM13.8948 199.964C12.4778 199.964 11.5678 198.495 11.5678 196.701C11.5678 194.868 12.4648 193.438 13.8688 193.438C15.2728 193.438 16.1958 194.907 16.1958 196.701C16.1958 198.521 15.3118 199.964 13.8948 199.964ZM23.016 201.407C25.408 201.407 26.994 199.301 26.994 196.701C26.994 194.075 25.421 191.995 23.042 191.995C20.65 191.995 19.064 194.101 19.064 196.701C19.064 199.327 20.624 201.407 23.016 201.407ZM23.042 199.964C21.625 199.964 20.715 198.495 20.715 196.701C20.715 194.868 21.612 193.438 23.016 193.438C24.42 193.438 25.343 194.907 25.343 196.701C25.343 198.521 24.459 199.964 23.042 199.964Z" fill="#AEBDD1"/>
<path opacity="0.6" d="M3.84646 225.552H5.43246V216.387H4.31446L1.87046 217.167L2.20846 218.467L3.84646 218.012V225.552ZM10.3788 225.708C12.3938 225.708 13.7458 224.486 13.7458 222.627C13.7458 220.677 12.3548 219.741 10.5868 219.741C9.97576 219.741 9.57276 219.845 9.14376 220.001L9.28676 217.869H13.3428V216.452H7.90876L7.64876 220.911L8.61076 221.548C9.07876 221.327 9.63776 221.145 10.2878 221.145C11.3928 221.145 12.1728 221.73 12.1728 222.653C12.1728 223.628 11.4578 224.252 10.3658 224.252C9.52076 224.252 8.75376 223.836 8.02576 223.16L7.03776 224.317C7.89576 225.149 8.98776 225.708 10.3788 225.708ZM18.9467 225.708C21.3387 225.708 22.9247 223.602 22.9247 221.002C22.9247 218.376 21.3517 216.296 18.9727 216.296C16.5807 216.296 14.9947 218.402 14.9947 221.002C14.9947 223.628 16.5547 225.708 18.9467 225.708ZM18.9727 224.265C17.5557 224.265 16.6457 222.796 16.6457 221.002C16.6457 219.169 17.5427 217.739 18.9467 217.739C20.3507 217.739 21.2737 219.208 21.2737 221.002C21.2737 222.822 20.3897 224.265 18.9727 224.265Z" fill="#AEBDD1"/>
<path opacity="0.6" d="M3.6863 250.718H5.27231V241.553H4.15431L1.7103 242.333L2.0483 243.633L3.6863 243.178V250.718ZM10.9596 250.874C13.3516 250.874 14.9376 248.768 14.9376 246.168C14.9376 243.542 13.3646 241.462 10.9856 241.462C8.5936 241.462 7.0076 243.568 7.0076 246.168C7.0076 248.794 8.5676 250.874 10.9596 250.874ZM10.9856 249.431C9.5686 249.431 8.6586 247.962 8.6586 246.168C8.6586 244.335 9.5556 242.905 10.9596 242.905C12.3636 242.905 13.2866 244.374 13.2866 246.168C13.2866 247.988 12.4026 249.431 10.9856 249.431ZM20.1068 250.874C22.4988 250.874 24.0848 248.768 24.0848 246.168C24.0848 243.542 22.5118 241.462 20.1328 241.462C17.7408 241.462 16.1548 243.568 16.1548 246.168C16.1548 248.794 17.7148 250.874 20.1068 250.874ZM20.1328 249.431C18.7158 249.431 17.8058 247.962 17.8058 246.168C17.8058 244.335 18.7028 242.905 20.1068 242.905C21.5108 242.905 22.4338 244.374 22.4338 246.168C22.4338 247.988 21.5498 249.431 20.1328 249.431Z" fill="#AEBDD1"/>
<path opacity="0.6" d="M8.43161 276.04C10.4466 276.04 11.7986 274.818 11.7986 272.959C11.7986 271.009 10.4076 270.073 8.63961 270.073C8.02861 270.073 7.62561 270.177 7.19661 270.333L7.33961 268.201H11.3956V266.784H5.96161L5.70161 271.243L6.66361 271.88C7.13161 271.659 7.69061 271.477 8.34061 271.477C9.44561 271.477 10.2256 272.062 10.2256 272.985C10.2256 273.96 9.51061 274.584 8.41861 274.584C7.57361 274.584 6.80661 274.168 6.07861 273.492L5.09061 274.649C5.94861 275.481 7.04061 276.04 8.43161 276.04ZM16.9995 276.04C19.3915 276.04 20.9775 273.934 20.9775 271.334C20.9775 268.708 19.4045 266.628 17.0255 266.628C14.6335 266.628 13.0475 268.734 13.0475 271.334C13.0475 273.96 14.6075 276.04 16.9995 276.04ZM17.0255 274.597C15.6085 274.597 14.6985 273.128 14.6985 271.334C14.6985 269.501 15.5955 268.071 16.9995 268.071C18.4035 268.071 19.3265 269.54 19.3265 271.334C19.3265 273.154 18.4425 274.597 17.0255 274.597Z" fill="#AEBDD1"/>
</svg>
