<svg width="495" height="344" viewBox="0 0 495 344" fill="none" xmlns="http://www.w3.org/2000/svg">
<rect x="288.597" y="0.222961" width="206" height="343.329" rx="10" fill="#F84263" fill-opacity="0.05"/>
<path opacity="0.6" d="M6.51815 25.6215C8.53315 25.6215 9.88515 24.3995 9.88515 22.5405C9.88515 20.5905 8.49415 19.6545 6.72615 19.6545C6.11515 19.6545 5.71215 19.7585 5.28315 19.9145L5.42615 17.7825H9.48215V16.3655H4.04815L3.78815 20.8245L4.75015 21.4615C5.21815 21.2405 5.77715 21.0585 6.42715 21.0585C7.53215 21.0585 8.31215 21.6435 8.31215 22.5665C8.31215 23.5415 7.59715 24.1655 6.50515 24.1655C5.66015 24.1655 4.89315 23.7495 4.16515 23.0735L3.17715 24.2305C4.03515 25.0625 5.12715 25.6215 6.51815 25.6215ZM14.3451 25.6215C16.3601 25.6215 17.7121 24.3995 17.7121 22.5405C17.7121 20.5905 16.3211 19.6545 14.5531 19.6545C13.9421 19.6545 13.5391 19.7585 13.1101 19.9145L13.2531 17.7825H17.3091V16.3655H11.8751L11.6151 20.8245L12.5771 21.4615C13.0451 21.2405 13.6041 21.0585 14.2541 21.0585C15.3591 21.0585 16.1391 21.6435 16.1391 22.5665C16.1391 23.5415 15.4241 24.1655 14.3321 24.1655C13.4871 24.1655 12.7201 23.7495 11.9921 23.0735L11.0041 24.2305C11.8621 25.0625 12.9541 25.6215 14.3451 25.6215ZM22.913 25.6215C25.305 25.6215 26.891 23.5155 26.891 20.9155C26.891 18.2895 25.318 16.2095 22.939 16.2095C20.547 16.2095 18.961 18.3155 18.961 20.9155C18.961 23.5415 20.521 25.6215 22.913 25.6215ZM22.939 24.1785C21.522 24.1785 20.612 22.7095 20.612 20.9155C20.612 19.0825 21.509 17.6525 22.913 17.6525C24.317 17.6525 25.24 19.1215 25.24 20.9155C25.24 22.7355 24.356 24.1785 22.939 24.1785Z" fill="#AEBDD1"/>
<rect x="60.5967" y="19.2487" width="8" height="251.659" rx="4" fill="#D8E2EF"/>
<rect x="60.5967" y="251.017" width="9" height="19.8906" rx="4.5" fill="#C3D1E3"/>
<path opacity="0.6" d="M53.4618 295.135H54.6498L54.7818 293.485H60.2048V295.135H61.3268L61.5138 292.275H60.5568V285.785H55.1888V286.874C55.1888 289.448 54.8478 291.01 54.2098 292.275H53.4618V295.135ZM55.6508 292.275C56.1788 291.208 56.4868 289.668 56.4868 287.886V287.006H59.2038V292.275H55.6508ZM62.5007 293.485H68.2647V292.275H63.8537V290.207H67.7147V288.997H63.8537V286.995H68.2097V285.785H62.5007V293.485ZM69.6499 293.485H71.0029V291.252L72.2019 290.02L74.8309 293.485H76.4699L73.1259 289.096L76.3269 285.785H74.6659L71.0029 289.657V285.785H69.6499V293.485Z" fill="#7890B3"/>
<path d="M374.818 322.762C376.259 322.762 377.139 322.234 377.942 321.398L377.073 320.518C376.413 321.134 375.808 321.519 374.862 321.519C373.388 321.519 372.321 320.287 372.321 318.78C372.321 317.251 373.388 316.041 374.862 316.041C375.742 316.041 376.402 316.426 377.018 316.998L377.887 315.997C377.15 315.293 376.292 314.798 374.873 314.798C372.541 314.798 370.902 316.591 370.902 318.78C370.902 321.013 372.574 322.762 374.818 322.762ZM381.036 322.63H382.4V316.184H384.842V314.93H378.594V316.184H381.036V322.63ZM385.396 322.63H386.782L387.574 320.771H391.215L391.996 322.63H393.426L390.038 314.875H388.784L385.396 322.63ZM388.069 319.572L389.389 316.492L390.72 319.572H388.069ZM394.527 322.718C396.045 322.718 396.936 321.739 396.936 316.844V316.151H399.598V322.63H400.951V314.93H395.671V316.448C395.671 321.057 394.945 321.552 394.164 321.552C393.999 321.552 393.823 321.519 393.724 321.486L393.592 322.597C393.801 322.652 394.23 322.718 394.527 322.718ZM406.392 322.762C408.757 322.762 410.429 320.947 410.429 318.78C410.429 316.591 408.779 314.798 406.414 314.798C404.049 314.798 402.377 316.613 402.377 318.78C402.377 320.969 404.027 322.762 406.392 322.762ZM406.414 321.519C404.885 321.519 403.796 320.276 403.796 318.78C403.796 317.262 404.863 316.041 406.392 316.041C407.921 316.041 409.01 317.284 409.01 318.78C409.01 320.298 407.943 321.519 406.414 321.519Z" fill="#676F79"/>
<path d="M153.327 322.63H156.748C158.508 322.63 159.608 321.794 159.608 320.254C159.608 318.769 158.508 317.922 156.814 317.922H154.669V316.151H159.069V314.93H153.327V322.63ZM154.669 321.42V319.066H156.693C157.694 319.066 158.255 319.451 158.255 320.199C158.255 321.145 157.617 321.42 156.451 321.42H154.669ZM160.917 322.63H164.019C165.801 322.63 166.923 321.662 166.923 320.111C166.923 318.56 165.757 317.702 164.03 317.702H162.259V314.93H160.917V322.63ZM162.259 321.42V318.879H163.975C164.998 318.879 165.581 319.308 165.581 320.1C165.581 320.969 164.998 321.42 163.997 321.42H162.259ZM167.836 322.63H169.178V314.93H167.836V322.63ZM170.934 322.718C172.452 322.718 173.343 321.739 173.343 316.844V316.151H176.005V322.63H177.358V314.93H172.078V316.448C172.078 321.057 171.352 321.552 170.571 321.552C170.406 321.552 170.23 321.519 170.131 321.486L169.999 322.597C170.208 322.652 170.637 322.718 170.934 322.718ZM182.799 322.762C185.164 322.762 186.836 320.947 186.836 318.78C186.836 316.591 185.186 314.798 182.821 314.798C180.456 314.798 178.784 316.613 178.784 318.78C178.784 320.969 180.434 322.762 182.799 322.762ZM182.821 321.519C181.292 321.519 180.203 320.276 180.203 318.78C180.203 317.262 181.27 316.041 182.799 316.041C184.328 316.041 185.417 317.284 185.417 318.78C185.417 320.298 184.35 321.519 182.821 321.519Z" fill="#676F79"/>
<rect x="111.597" y="19.2487" width="8" height="251.659" rx="4" fill="#D8E2EF"/>
<rect x="111.597" y="251.017" width="8" height="19.8906" rx="4" fill="#C3D1E3"/>
<path opacity="0.6" d="M101.49 293.485H103.085L104.999 290.823H106.704V293.485H108.046V285.785H104.625C102.843 285.785 101.754 286.742 101.754 288.238C101.754 289.514 102.513 290.295 103.591 290.592L101.49 293.485ZM104.713 289.646C103.745 289.646 103.118 289.129 103.118 288.326C103.118 287.49 103.723 287.006 104.735 287.006H106.704V289.646H104.713ZM109.803 293.485H111.156V290.24H114.83V293.485H116.183V285.785H114.83V288.986H111.156V285.785H109.803V293.485ZM117.94 293.485H121.504C123.22 293.485 124.353 292.748 124.353 291.373C124.353 290.306 123.726 289.789 122.824 289.481C123.396 289.184 123.924 288.689 123.924 287.765C123.924 287.226 123.748 286.808 123.407 286.467C122.967 286.027 122.274 285.785 121.394 285.785H117.94V293.485ZM119.271 289.03V286.984H121.218C122.087 286.984 122.571 287.358 122.571 287.963C122.571 288.689 121.988 289.03 121.119 289.03H119.271ZM119.271 292.286V290.174H121.416C122.483 290.174 123 290.559 123 291.208C123 291.923 122.439 292.286 121.515 292.286H119.271Z" fill="#7890B3"/>
<rect x="161.597" y="19.2487" width="8" height="251.659" rx="4" fill="#D8E2EF"/>
<rect x="161.597" y="259.666" width="8" height="11.2425" rx="4" fill="#C3D1E3"/>
<path opacity="0.6" d="M157.611 293.782H158.953V292.946C161.384 292.946 162.803 291.538 162.803 289.58C162.803 287.611 161.362 286.236 158.953 286.236V285.51H157.611V286.236C155.202 286.236 153.761 287.611 153.761 289.569C153.761 291.538 155.191 292.946 157.611 292.946V293.782ZM157.611 291.747C156.093 291.747 155.147 290.955 155.147 289.591C155.147 288.249 156.093 287.446 157.611 287.446V291.747ZM158.953 291.747V287.446C160.482 287.446 161.417 288.249 161.417 289.591C161.417 290.955 160.482 291.747 158.953 291.747ZM164.101 293.485H169.865V292.275H165.454V290.207H169.315V288.997H165.454V286.995H169.81V285.785H164.101V293.485ZM171.25 293.485H174.814C176.53 293.485 177.663 292.748 177.663 291.373C177.663 290.306 177.036 289.789 176.134 289.481C176.706 289.184 177.234 288.689 177.234 287.765C177.234 287.226 177.058 286.808 176.717 286.467C176.277 286.027 175.584 285.785 174.704 285.785H171.25V293.485ZM172.581 289.03V286.984H174.528C175.397 286.984 175.881 287.358 175.881 287.963C175.881 288.689 175.298 289.03 174.429 289.03H172.581ZM172.581 292.286V290.174H174.726C175.793 290.174 176.31 290.559 176.31 291.208C176.31 291.923 175.749 292.286 174.825 292.286H172.581Z" fill="#7890B3"/>
<rect x="211.597" y="19.2487" width="8" height="251.659" rx="4" fill="#D8E2EF"/>
<rect x="211.597" y="244.964" width="8" height="25.9443" rx="4" fill="#C3D1E3"/>
<path opacity="0.6" d="M204.005 293.485H205.336V287.985L207.745 291.593H207.789L210.22 287.963V293.485H211.573V285.785H210.132L207.789 289.426L205.446 285.785H204.005V293.485ZM212.675 293.485H214.061L214.853 291.626H218.494L219.275 293.485H220.705L217.317 285.73H216.063L212.675 293.485ZM215.348 290.427L216.668 287.347L217.999 290.427H215.348ZM221.805 293.485H223.158V291.01H224.687C226.381 291.01 227.767 290.108 227.767 288.381C227.767 286.808 226.634 285.785 224.841 285.785H221.805V293.485ZM223.158 289.789V287.017H224.731C225.743 287.017 226.392 287.49 226.392 288.392C226.392 289.217 225.754 289.789 224.731 289.789H223.158Z" fill="#7890B3"/>
<rect x="262.597" y="19.2487" width="8" height="251.659" rx="4" fill="#D8E2EF"/>
<rect x="262.597" y="237.181" width="8" height="33.7275" rx="4" fill="#C3D1E3"/>
<path opacity="0.6" d="M254.857 293.485H256.243L257.035 291.626H260.676L261.457 293.485H262.887L259.499 285.73H258.245L254.857 293.485ZM257.53 290.427L258.85 287.347L260.181 290.427H257.53ZM263.987 293.485H265.34V287.006H268.915V293.485H270.268V285.785H263.987V293.485ZM272.028 293.485H273.381V291.01H274.91C276.604 291.01 277.99 290.108 277.99 288.381C277.99 286.808 276.857 285.785 275.064 285.785H272.028V293.485ZM273.381 289.789V287.017H274.954C275.966 287.017 276.615 287.49 276.615 288.392C276.615 289.217 275.977 289.789 274.954 289.789H273.381Z" fill="#7890B3"/>
<rect x="312.597" y="19.2487" width="8" height="251.659" rx="4" fill="#F0D9DD"/>
<rect x="312.597" y="163.672" width="8" height="107.236" rx="4" fill="#F84263"/>
<path d="M305.17 293.485H306.501V287.985L308.91 291.593H308.954L311.385 287.963V293.485H312.738V285.785H311.297L308.954 289.426L306.611 285.785H305.17V293.485ZM313.84 293.485H315.226L316.018 291.626H319.659L320.44 293.485H321.87L318.482 285.73H317.228L313.84 293.485ZM316.513 290.427L317.833 287.347L319.164 290.427H316.513ZM326.259 285.18C327.194 285.18 327.843 284.586 327.986 283.64L327.172 283.486C327.029 283.948 326.754 284.234 326.259 284.234C325.764 284.234 325.478 283.948 325.346 283.486L324.521 283.64C324.675 284.586 325.324 285.18 326.259 285.18ZM322.97 293.485H324.246L328.129 287.875V293.485H329.46V285.785H328.195L324.301 291.406V285.785H322.97V293.485Z" fill="#5C8398"/>
<rect x="362.597" y="19.2487" width="8" height="251.659" rx="4" fill="#F0D9DD"/>
<rect x="362.597" y="145.511" width="8" height="125.397" rx="4" fill="#F84263"/>
<path d="M350.556 293.485H351.832L355.715 287.875V293.485H357.046V285.785H355.781L351.887 291.406V285.785H350.556V293.485ZM365.104 293.617C367.304 293.617 368.822 291.846 368.822 289.635C368.822 287.402 367.315 285.653 365.126 285.653C363.146 285.653 361.705 287.105 361.452 289.008H360.176V285.785H358.823V293.485H360.176V290.218H361.441C361.683 292.165 363.102 293.617 365.104 293.617ZM365.126 292.396C363.762 292.396 362.805 291.175 362.805 289.635C362.805 288.073 363.74 286.885 365.104 286.885C366.468 286.885 367.436 288.095 367.436 289.635C367.436 291.197 366.49 292.396 365.126 292.396ZM370.236 293.485H371.589V290.24H375.263V293.485H376.616V285.785H375.263V288.986H371.589V285.785H370.236V293.485ZM378.374 293.485H381.476C383.258 293.485 384.38 292.517 384.38 290.966C384.38 289.415 383.214 288.557 381.487 288.557H379.716V285.785H378.374V293.485ZM379.716 292.275V289.734H381.432C382.455 289.734 383.038 290.163 383.038 290.955C383.038 291.824 382.455 292.275 381.454 292.275H379.716Z" fill="#5C8398"/>
<rect x="413.597" y="19.2487" width="8" height="251.659" rx="4" fill="#F0D9DD"/>
<rect x="413.597" y="109.189" width="8" height="161.719" rx="4" fill="#F84263"/>
<path d="M400.397 293.485H401.673L405.556 287.875V293.485H406.887V285.785H405.622L401.728 291.406V285.785H400.397V293.485ZM414.944 293.617C417.144 293.617 418.662 291.846 418.662 289.635C418.662 287.402 417.155 285.653 414.966 285.653C412.986 285.653 411.545 287.105 411.292 289.008H410.016V285.785H408.663V293.485H410.016V290.218H411.281C411.523 292.165 412.942 293.617 414.944 293.617ZM414.966 292.396C413.602 292.396 412.645 291.175 412.645 289.635C412.645 288.073 413.58 286.885 414.944 286.885C416.308 286.885 417.276 288.095 417.276 289.635C417.276 291.197 416.33 292.396 414.966 292.396ZM420.077 293.573C421.595 293.573 422.486 292.594 422.486 287.699V287.006H425.148V293.485H426.501V285.785H421.221V287.303C421.221 291.912 420.495 292.407 419.714 292.407C419.549 292.407 419.373 292.374 419.274 292.341L419.142 293.452C419.351 293.507 419.78 293.573 420.077 293.573ZM428.268 293.485H431.37C433.152 293.485 434.274 292.517 434.274 290.966C434.274 289.415 433.108 288.557 431.381 288.557H429.61V285.785H428.268V293.485ZM429.61 292.275V289.734H431.326C432.349 289.734 432.932 290.163 432.932 290.955C432.932 291.824 432.349 292.275 431.348 292.275H429.61Z" fill="#5C8398"/>
<rect x="463.597" y="19.2487" width="8" height="251.659" rx="4" fill="#F0D9DD"/>
<rect x="463.597" y="81.515" width="8" height="189.393" rx="4" fill="#F84263"/>
<path d="M457.391 293.485H458.777L459.569 291.626H463.21L463.991 293.485H465.421L462.033 285.73H460.779L457.391 293.485ZM460.064 290.427L461.384 287.347L462.715 290.427H460.064ZM466.521 293.485H470.085C471.801 293.485 472.934 292.748 472.934 291.373C472.934 290.306 472.307 289.789 471.405 289.481C471.977 289.184 472.505 288.689 472.505 287.765C472.505 287.226 472.329 286.808 471.988 286.467C471.548 286.027 470.855 285.785 469.975 285.785H466.521V293.485ZM467.852 289.03V286.984H469.799C470.668 286.984 471.152 287.358 471.152 287.963C471.152 288.689 470.569 289.03 469.7 289.03H467.852ZM467.852 292.286V290.174H469.997C471.064 290.174 471.581 290.559 471.581 291.208C471.581 291.923 471.02 292.286 470.096 292.286H467.852ZM474.24 293.485H475.582V287.006H479.421V285.785H474.24V293.485Z" fill="#5C8398"/>
<path opacity="0.6" d="M5.358 50.7875C7.373 50.7875 8.725 49.5655 8.725 47.7065C8.725 45.7565 7.334 44.8205 5.566 44.8205C4.955 44.8205 4.552 44.9245 4.123 45.0805L4.266 42.9485H8.322V41.5315H2.888L2.628 45.9905L3.59 46.6275C4.058 46.4065 4.617 46.2245 5.267 46.2245C6.372 46.2245 7.152 46.8095 7.152 47.7325C7.152 48.7075 6.437 49.3315 5.345 49.3315C4.5 49.3315 3.733 48.9155 3.005 48.2395L2.017 49.3965C2.875 50.2285 3.967 50.7875 5.358 50.7875ZM13.9259 50.7875C16.3179 50.7875 17.9039 48.6815 17.9039 46.0815C17.9039 43.4555 16.3309 41.3755 13.9519 41.3755C11.5599 41.3755 9.97391 43.4815 9.97391 46.0815C9.97391 48.7075 11.5339 50.7875 13.9259 50.7875ZM13.9519 49.3445C12.5349 49.3445 11.6249 47.8755 11.6249 46.0815C11.6249 44.2485 12.5219 42.8185 13.9259 42.8185C15.3299 42.8185 16.2529 44.2875 16.2529 46.0815C16.2529 47.9015 15.3689 49.3445 13.9519 49.3445ZM23.0731 50.7875C25.4651 50.7875 27.0511 48.6815 27.0511 46.0815C27.0511 43.4555 25.4781 41.3755 23.0991 41.3755C20.7071 41.3755 19.1211 43.4815 19.1211 46.0815C19.1211 48.7075 20.6811 50.7875 23.0731 50.7875ZM23.0991 49.3445C21.6821 49.3445 20.7721 47.8755 20.7721 46.0815C20.7721 44.2485 21.6691 42.8185 23.0731 42.8185C24.4771 42.8185 25.4001 44.2875 25.4001 46.0815C25.4001 47.9015 24.5161 49.3445 23.0991 49.3445Z" fill="#AEBDD1"/>
<path opacity="0.6" d="M7.04129 75.7975H8.57529V73.7565H9.87529V72.4435H8.57529V66.6325H7.21029L2.15329 72.6125L2.45229 73.7565H7.04129V75.7975ZM4.05129 72.4435L7.04129 68.8425V72.4435H4.05129ZM14.2259 75.9535C16.2409 75.9535 17.5929 74.7315 17.5929 72.8725C17.5929 70.9225 16.2019 69.9865 14.4339 69.9865C13.8229 69.9865 13.4199 70.0905 12.9909 70.2465L13.1339 68.1145H17.1899V66.6975H11.7559L11.4959 71.1565L12.4579 71.7935C12.9259 71.5725 13.4849 71.3905 14.1349 71.3905C15.2399 71.3905 16.0199 71.9755 16.0199 72.8985C16.0199 73.8735 15.3049 74.4975 14.2129 74.4975C13.3679 74.4975 12.6009 74.0815 11.8729 73.4055L10.8849 74.5625C11.7429 75.3945 12.8349 75.9535 14.2259 75.9535ZM22.7938 75.9535C25.1858 75.9535 26.7718 73.8475 26.7718 71.2475C26.7718 68.6215 25.1988 66.5415 22.8198 66.5415C20.4278 66.5415 18.8418 68.6475 18.8418 71.2475C18.8418 73.8735 20.4018 75.9535 22.7938 75.9535ZM22.8198 74.5105C21.4028 74.5105 20.4928 73.0415 20.4928 71.2475C20.4928 69.4145 21.3898 67.9845 22.7938 67.9845C24.1978 67.9845 25.1208 69.4535 25.1208 71.2475C25.1208 73.0675 24.2368 74.5105 22.8198 74.5105Z" fill="#AEBDD1"/>
<path opacity="0.6" d="M6.88114 100.099H8.41514V98.0576H9.71514V96.7446H8.41514V90.9336H7.05014L1.99314 96.9136L2.29214 98.0576H6.88114V100.099ZM3.89114 96.7446L6.88114 93.1436V96.7446H3.89114ZM14.8068 100.255C17.1988 100.255 18.7848 98.1486 18.7848 95.5486C18.7848 92.9226 17.2118 90.8426 14.8328 90.8426C12.4408 90.8426 10.8548 92.9486 10.8548 95.5486C10.8548 98.1746 12.4148 100.255 14.8068 100.255ZM14.8328 98.8116C13.4158 98.8116 12.5058 97.3426 12.5058 95.5486C12.5058 93.7156 13.4028 92.2856 14.8068 92.2856C16.2108 92.2856 17.1338 93.7546 17.1338 95.5486C17.1338 97.3686 16.2498 98.8116 14.8328 98.8116ZM23.954 100.255C26.346 100.255 27.932 98.1486 27.932 95.5486C27.932 92.9226 26.359 90.8426 23.98 90.8426C21.588 90.8426 20.002 92.9486 20.002 95.5486C20.002 98.1746 21.562 100.255 23.954 100.255ZM23.98 98.8116C22.563 98.8116 21.653 97.3426 21.653 95.5486C21.653 93.7156 22.55 92.2856 23.954 92.2856C25.358 92.2856 26.281 93.7546 26.281 95.5486C26.281 97.3686 25.397 98.8116 23.98 98.8116Z" fill="#AEBDD1"/>
<path opacity="0.6" d="M6.63454 125.421C8.51954 125.421 9.81954 124.225 9.81954 122.548C9.81954 120.91 8.58454 120.169 7.14154 119.961L9.67654 117.361V116.165H3.65754V117.556H7.59654L5.13954 120.169L5.39954 121.17H6.14054C7.41454 121.17 8.23354 121.677 8.23354 122.574C8.23354 123.432 7.55754 123.978 6.66054 123.978C5.64654 123.978 4.91854 123.549 4.26854 122.782L3.15054 123.822C3.91754 124.758 5.04854 125.421 6.63454 125.421ZM14.3197 125.421C16.3347 125.421 17.6867 124.199 17.6867 122.34C17.6867 120.39 16.2957 119.454 14.5277 119.454C13.9167 119.454 13.5137 119.558 13.0847 119.714L13.2277 117.582H17.2837V116.165H11.8497L11.5897 120.624L12.5517 121.261C13.0197 121.04 13.5787 120.858 14.2287 120.858C15.3337 120.858 16.1137 121.443 16.1137 122.366C16.1137 123.341 15.3987 123.965 14.3067 123.965C13.4617 123.965 12.6947 123.549 11.9667 122.873L10.9787 124.03C11.8367 124.862 12.9287 125.421 14.3197 125.421ZM22.8876 125.421C25.2796 125.421 26.8656 123.315 26.8656 120.715C26.8656 118.089 25.2926 116.009 22.9136 116.009C20.5216 116.009 18.9356 118.115 18.9356 120.715C18.9356 123.341 20.4956 125.421 22.8876 125.421ZM22.9136 123.978C21.4966 123.978 20.5866 122.509 20.5866 120.715C20.5866 118.882 21.4836 117.452 22.8876 117.452C24.2916 117.452 25.2146 118.921 25.2146 120.715C25.2146 122.535 24.3306 123.978 22.9136 123.978Z" fill="#AEBDD1"/>
<path opacity="0.6" d="M5.47439 150.587C7.35939 150.587 8.65939 149.391 8.65939 147.714C8.65939 146.076 7.42439 145.335 5.98139 145.127L8.51639 142.527V141.331H2.49739V142.722H6.43639L3.97939 145.335L4.23939 146.336H4.98039C6.25439 146.336 7.07339 146.843 7.07339 147.74C7.07339 148.598 6.39739 149.144 5.50039 149.144C4.48639 149.144 3.75839 148.715 3.10839 147.948L1.99039 148.988C2.75739 149.924 3.88839 150.587 5.47439 150.587ZM13.9005 150.587C16.2925 150.587 17.8785 148.481 17.8785 145.881C17.8785 143.255 16.3055 141.175 13.9265 141.175C11.5345 141.175 9.94852 143.281 9.94852 145.881C9.94852 148.507 11.5085 150.587 13.9005 150.587ZM13.9265 149.144C12.5095 149.144 11.5995 147.675 11.5995 145.881C11.5995 144.048 12.4965 142.618 13.9005 142.618C15.3045 142.618 16.2275 144.087 16.2275 145.881C16.2275 147.701 15.3435 149.144 13.9265 149.144ZM23.0477 150.587C25.4397 150.587 27.0257 148.481 27.0257 145.881C27.0257 143.255 25.4527 141.175 23.0737 141.175C20.6817 141.175 19.0957 143.281 19.0957 145.881C19.0957 148.507 20.6557 150.587 23.0477 150.587ZM23.0737 149.144C21.6567 149.144 20.7467 147.675 20.7467 145.881C20.7467 144.048 21.6437 142.618 23.0477 142.618C24.4517 142.618 25.3747 144.087 25.3747 145.881C25.3747 147.701 24.4907 149.144 23.0737 149.144Z" fill="#AEBDD1"/>
<path opacity="0.6" d="M3.26028 175.597H9.83828V174.193H5.50928L7.38128 172.633C8.98028 171.307 9.74728 170.54 9.74728 169.11C9.74728 167.459 8.52528 166.367 6.74428 166.367C5.11928 166.367 4.26128 167.056 3.39028 168.278L4.52128 169.162C5.22328 168.252 5.79528 167.797 6.62728 167.797C7.45928 167.797 8.09628 168.317 8.09628 169.214C8.09628 170.033 7.64128 170.618 6.39328 171.671L3.26028 174.336V175.597ZM14.2879 175.753C16.3029 175.753 17.6549 174.531 17.6549 172.672C17.6549 170.722 16.2639 169.786 14.4959 169.786C13.8849 169.786 13.4819 169.89 13.0529 170.046L13.1959 167.914H17.2519V166.497H11.8179L11.5579 170.956L12.5199 171.593C12.9879 171.372 13.5469 171.19 14.1969 171.19C15.3019 171.19 16.0819 171.775 16.0819 172.698C16.0819 173.673 15.3669 174.297 14.2749 174.297C13.4299 174.297 12.6629 173.881 11.9349 173.205L10.9469 174.362C11.8049 175.194 12.8969 175.753 14.2879 175.753ZM22.8559 175.753C25.2479 175.753 26.8339 173.647 26.8339 171.047C26.8339 168.421 25.2609 166.341 22.8819 166.341C20.4899 166.341 18.9039 168.447 18.9039 171.047C18.9039 173.673 20.4639 175.753 22.8559 175.753ZM22.8819 174.31C21.4649 174.31 20.5549 172.841 20.5549 171.047C20.5549 169.214 21.4519 167.784 22.8559 167.784C24.2599 167.784 25.1829 169.253 25.1829 171.047C25.1829 172.867 24.2989 174.31 22.8819 174.31Z" fill="#AEBDD1"/>
<path opacity="0.6" d="M2.10013 200.763H8.67813V199.359H4.34913L6.22113 197.799C7.82013 196.473 8.58713 195.706 8.58713 194.276C8.58713 192.625 7.36513 191.533 5.58413 191.533C3.95913 191.533 3.10113 192.222 2.23013 193.444L3.36113 194.328C4.06313 193.418 4.63513 192.963 5.46713 192.963C6.29913 192.963 6.93613 193.483 6.93613 194.38C6.93613 195.199 6.48113 195.784 5.23313 196.837L2.10013 199.502V200.763ZM13.8688 200.919C16.2608 200.919 17.8468 198.813 17.8468 196.213C17.8468 193.587 16.2738 191.507 13.8948 191.507C11.5028 191.507 9.91678 193.613 9.91678 196.213C9.91678 198.839 11.4768 200.919 13.8688 200.919ZM13.8948 199.476C12.4778 199.476 11.5678 198.007 11.5678 196.213C11.5678 194.38 12.4648 192.95 13.8688 192.95C15.2728 192.95 16.1958 194.419 16.1958 196.213C16.1958 198.033 15.3118 199.476 13.8948 199.476ZM23.016 200.919C25.408 200.919 26.994 198.813 26.994 196.213C26.994 193.587 25.421 191.507 23.042 191.507C20.65 191.507 19.064 193.613 19.064 196.213C19.064 198.839 20.624 200.919 23.016 200.919ZM23.042 199.476C21.625 199.476 20.715 198.007 20.715 196.213C20.715 194.38 21.612 192.95 23.016 192.95C24.42 192.95 25.343 194.419 25.343 196.213C25.343 198.033 24.459 199.476 23.042 199.476Z" fill="#AEBDD1"/>
<path opacity="0.6" d="M3.84646 225.064H5.43246V215.899H4.31446L1.87046 216.679L2.20846 217.979L3.84646 217.524V225.064ZM10.3788 225.22C12.3938 225.22 13.7458 223.998 13.7458 222.139C13.7458 220.189 12.3548 219.253 10.5868 219.253C9.97576 219.253 9.57276 219.357 9.14376 219.513L9.28676 217.381H13.3428V215.964H7.90876L7.64876 220.423L8.61076 221.06C9.07876 220.839 9.63776 220.657 10.2878 220.657C11.3928 220.657 12.1728 221.242 12.1728 222.165C12.1728 223.14 11.4578 223.764 10.3658 223.764C9.52076 223.764 8.75376 223.348 8.02576 222.672L7.03776 223.829C7.89576 224.661 8.98776 225.22 10.3788 225.22ZM18.9467 225.22C21.3387 225.22 22.9247 223.114 22.9247 220.514C22.9247 217.888 21.3517 215.808 18.9727 215.808C16.5807 215.808 14.9947 217.914 14.9947 220.514C14.9947 223.14 16.5547 225.22 18.9467 225.22ZM18.9727 223.777C17.5557 223.777 16.6457 222.308 16.6457 220.514C16.6457 218.681 17.5427 217.251 18.9467 217.251C20.3507 217.251 21.2737 218.72 21.2737 220.514C21.2737 222.334 20.3897 223.777 18.9727 223.777Z" fill="#AEBDD1"/>
<path opacity="0.6" d="M3.6863 250.23H5.27231V241.065H4.15431L1.7103 241.845L2.0483 243.145L3.6863 242.69V250.23ZM10.9596 250.386C13.3516 250.386 14.9376 248.28 14.9376 245.68C14.9376 243.054 13.3646 240.974 10.9856 240.974C8.5936 240.974 7.0076 243.08 7.0076 245.68C7.0076 248.306 8.5676 250.386 10.9596 250.386ZM10.9856 248.943C9.5686 248.943 8.6586 247.474 8.6586 245.68C8.6586 243.847 9.5556 242.417 10.9596 242.417C12.3636 242.417 13.2866 243.886 13.2866 245.68C13.2866 247.5 12.4026 248.943 10.9856 248.943ZM20.1068 250.386C22.4988 250.386 24.0848 248.28 24.0848 245.68C24.0848 243.054 22.5118 240.974 20.1328 240.974C17.7408 240.974 16.1548 243.08 16.1548 245.68C16.1548 248.306 17.7148 250.386 20.1068 250.386ZM20.1328 248.943C18.7158 248.943 17.8058 247.474 17.8058 245.68C17.8058 243.847 18.7028 242.417 20.1068 242.417C21.5108 242.417 22.4338 243.886 22.4338 245.68C22.4338 247.5 21.5498 248.943 20.1328 248.943Z" fill="#AEBDD1"/>
<path opacity="0.6" d="M8.43161 275.552C10.4466 275.552 11.7986 274.33 11.7986 272.471C11.7986 270.521 10.4076 269.585 8.63961 269.585C8.02861 269.585 7.62561 269.689 7.19661 269.845L7.33961 267.713H11.3956V266.296H5.96161L5.70161 270.755L6.66361 271.392C7.13161 271.171 7.69061 270.989 8.34061 270.989C9.44561 270.989 10.2256 271.574 10.2256 272.497C10.2256 273.472 9.51061 274.096 8.41861 274.096C7.57361 274.096 6.80661 273.68 6.07861 273.004L5.09061 274.161C5.94861 274.993 7.04061 275.552 8.43161 275.552ZM16.9995 275.552C19.3915 275.552 20.9775 273.446 20.9775 270.846C20.9775 268.22 19.4045 266.14 17.0255 266.14C14.6335 266.14 13.0475 268.246 13.0475 270.846C13.0475 273.472 14.6075 275.552 16.9995 275.552ZM17.0255 274.109C15.6085 274.109 14.6985 272.64 14.6985 270.846C14.6985 269.013 15.5955 267.583 16.9995 267.583C18.4035 267.583 19.3265 269.052 19.3265 270.846C19.3265 272.666 18.4425 274.109 17.0255 274.109Z" fill="#AEBDD1"/>
</svg>
