<svg width="528" height="344" viewBox="0 0 528 344" fill="none" xmlns="http://www.w3.org/2000/svg">
<rect x="320.587" y="0.649414" width="207.01" height="343.329" rx="10" fill="#F84263" fill-opacity="0.05"/>
<rect x="93.5967" y="19.675" width="8" height="251.659" rx="4" fill="#D8E2EF"/>
<rect x="93.5967" y="201.189" width="8" height="70.1455" rx="4" fill="#C3D1E3"/>
<path opacity="0.6" d="M86.4618 295.561H87.6498L87.7818 293.911H93.2048V295.561H94.3268L94.5138 292.701H93.5568V286.211H88.1888V287.3C88.1888 289.874 87.8478 291.436 87.2098 292.701H86.4618V295.561ZM88.6508 292.701C89.1788 291.634 89.4868 290.094 89.4868 288.312V287.432H92.2038V292.701H88.6508ZM95.5007 293.911H101.265V292.701H96.8537V290.633H100.715V289.423H96.8537V287.421H101.21V286.211H95.5007V293.911ZM102.65 293.911H104.003V291.678L105.202 290.446L107.831 293.911H109.47L106.126 289.522L109.327 286.211H107.666L104.003 290.083V286.211H102.65V293.911Z" fill="#7890B3"/>
<path d="M408.247 323.188C409.688 323.188 410.568 322.66 411.371 321.824L410.502 320.944C409.842 321.56 409.237 321.945 408.291 321.945C406.817 321.945 405.75 320.713 405.75 319.206C405.75 317.677 406.817 316.467 408.291 316.467C409.171 316.467 409.831 316.852 410.447 317.424L411.316 316.423C410.579 315.719 409.721 315.224 408.302 315.224C405.97 315.224 404.331 317.017 404.331 319.206C404.331 321.439 406.003 323.188 408.247 323.188ZM414.465 323.056H415.829V316.61H418.271V315.356H412.023V316.61H414.465V323.056ZM418.826 323.056H420.212L421.004 321.197H424.645L425.426 323.056H426.856L423.468 315.301H422.214L418.826 323.056ZM421.499 319.998L422.819 316.918L424.15 319.998H421.499ZM427.956 323.144C429.474 323.144 430.365 322.165 430.365 317.27V316.577H433.027V323.056H434.38V315.356H429.1V316.874C429.1 321.483 428.374 321.978 427.593 321.978C427.428 321.978 427.252 321.945 427.153 321.912L427.021 323.023C427.23 323.078 427.659 323.144 427.956 323.144ZM439.821 323.188C442.186 323.188 443.858 321.373 443.858 319.206C443.858 317.017 442.208 315.224 439.843 315.224C437.478 315.224 435.806 317.039 435.806 319.206C435.806 321.395 437.456 323.188 439.821 323.188ZM439.843 321.945C438.314 321.945 437.225 320.702 437.225 319.206C437.225 317.688 438.292 316.467 439.821 316.467C441.35 316.467 442.439 317.71 442.439 319.206C442.439 320.724 441.372 321.945 439.843 321.945Z" fill="#676F79"/>
<path d="M129.409 323.056H132.83C134.59 323.056 135.69 322.22 135.69 320.68C135.69 319.195 134.59 318.348 132.896 318.348H130.751V316.577H135.151V315.356H129.409V323.056ZM130.751 321.846V319.492H132.775C133.776 319.492 134.337 319.877 134.337 320.625C134.337 321.571 133.699 321.846 132.533 321.846H130.751ZM136.999 323.056H140.101C141.883 323.056 143.005 322.088 143.005 320.537C143.005 318.986 141.839 318.128 140.112 318.128H138.341V315.356H136.999V323.056ZM138.341 321.846V319.305H140.057C141.08 319.305 141.663 319.734 141.663 320.526C141.663 321.395 141.08 321.846 140.079 321.846H138.341ZM143.918 323.056H145.26V315.356H143.918V323.056ZM147.016 323.144C148.534 323.144 149.425 322.165 149.425 317.27V316.577H152.087V323.056H153.44V315.356H148.16V316.874C148.16 321.483 147.434 321.978 146.653 321.978C146.488 321.978 146.312 321.945 146.213 321.912L146.081 323.023C146.29 323.078 146.719 323.144 147.016 323.144ZM158.881 323.188C161.246 323.188 162.918 321.373 162.918 319.206C162.918 317.017 161.268 315.224 158.903 315.224C156.538 315.224 154.866 317.039 154.866 319.206C154.866 321.395 156.516 323.188 158.881 323.188ZM158.903 321.945C157.374 321.945 156.285 320.702 156.285 319.206C156.285 317.688 157.352 316.467 158.881 316.467C160.41 316.467 161.499 317.71 161.499 319.206C161.499 320.724 160.432 321.945 158.903 321.945Z" fill="#676F79"/>
<rect x="144.597" y="19.675" width="8" height="251.659" rx="4" fill="#D8E2EF"/>
<rect x="144.597" y="211.49" width="8" height="59.8442" rx="4" fill="#C3D1E3"/>
<path opacity="0.6" d="M134.49 293.911H136.085L137.999 291.249H139.704V293.911H141.046V286.211H137.625C135.843 286.211 134.754 287.168 134.754 288.664C134.754 289.94 135.513 290.721 136.591 291.018L134.49 293.911ZM137.713 290.072C136.745 290.072 136.118 289.555 136.118 288.752C136.118 287.916 136.723 287.432 137.735 287.432H139.704V290.072H137.713ZM142.803 293.911H144.156V290.666H147.83V293.911H149.183V286.211H147.83V289.412H144.156V286.211H142.803V293.911ZM150.94 293.911H154.504C156.22 293.911 157.353 293.174 157.353 291.799C157.353 290.732 156.726 290.215 155.824 289.907C156.396 289.61 156.924 289.115 156.924 288.191C156.924 287.652 156.748 287.234 156.407 286.893C155.967 286.453 155.274 286.211 154.394 286.211H150.94V293.911ZM152.271 289.456V287.41H154.218C155.087 287.41 155.571 287.784 155.571 288.389C155.571 289.115 154.988 289.456 154.119 289.456H152.271ZM152.271 292.712V290.6H154.416C155.483 290.6 156 290.985 156 291.634C156 292.349 155.439 292.712 154.515 292.712H152.271Z" fill="#7890B3"/>
<rect x="194.597" y="19.675" width="8" height="251.659" rx="4" fill="#D8E2EF"/>
<rect x="194.597" y="217.153" width="8" height="54.1812" rx="4" fill="#C3D1E3"/>
<path opacity="0.6" d="M190.611 294.208H191.953V293.372C194.384 293.372 195.803 291.964 195.803 290.006C195.803 288.037 194.362 286.662 191.953 286.662V285.936H190.611V286.662C188.202 286.662 186.761 288.037 186.761 289.995C186.761 291.964 188.191 293.372 190.611 293.372V294.208ZM190.611 292.173C189.093 292.173 188.147 291.381 188.147 290.017C188.147 288.675 189.093 287.872 190.611 287.872V292.173ZM191.953 292.173V287.872C193.482 287.872 194.417 288.675 194.417 290.017C194.417 291.381 193.482 292.173 191.953 292.173ZM197.101 293.911H202.865V292.701H198.454V290.633H202.315V289.423H198.454V287.421H202.81V286.211H197.101V293.911ZM204.25 293.911H207.814C209.53 293.911 210.663 293.174 210.663 291.799C210.663 290.732 210.036 290.215 209.134 289.907C209.706 289.61 210.234 289.115 210.234 288.191C210.234 287.652 210.058 287.234 209.717 286.893C209.277 286.453 208.584 286.211 207.704 286.211H204.25V293.911ZM205.581 289.456V287.41H207.528C208.397 287.41 208.881 287.784 208.881 288.389C208.881 289.115 208.298 289.456 207.429 289.456H205.581ZM205.581 292.712V290.6H207.726C208.793 290.6 209.31 290.985 209.31 291.634C209.31 292.349 208.749 292.712 207.825 292.712H205.581Z" fill="#7890B3"/>
<rect x="244.597" y="19.675" width="8" height="251.659" rx="4" fill="#D8E2EF"/>
<rect x="244.597" y="206.132" width="8" height="65.2018" rx="4" fill="#C3D1E3"/>
<path opacity="0.6" d="M237.005 293.911H238.336V288.411L240.745 292.019H240.789L243.22 288.389V293.911H244.573V286.211H243.132L240.789 289.852L238.446 286.211H237.005V293.911ZM245.675 293.911H247.061L247.853 292.052H251.494L252.275 293.911H253.705L250.317 286.156H249.063L245.675 293.911ZM248.348 290.853L249.668 287.773L250.999 290.853H248.348ZM254.805 293.911H256.158V291.436H257.687C259.381 291.436 260.767 290.534 260.767 288.807C260.767 287.234 259.634 286.211 257.841 286.211H254.805V293.911ZM256.158 290.215V287.443H257.731C258.743 287.443 259.392 287.916 259.392 288.818C259.392 289.643 258.754 290.215 257.731 290.215H256.158Z" fill="#7890B3"/>
<rect x="295.597" y="19.675" width="8" height="251.659" rx="4" fill="#D8E2EF"/>
<rect x="295.597" y="197.017" width="8" height="74.317" rx="4" fill="#C3D1E3"/>
<path opacity="0.6" d="M287.857 293.911H289.243L290.035 292.052H293.676L294.457 293.911H295.887L292.499 286.156H291.245L287.857 293.911ZM290.53 290.853L291.85 287.773L293.181 290.853H290.53ZM296.987 293.911H298.34V287.432H301.915V293.911H303.268V286.211H296.987V293.911ZM305.028 293.911H306.381V291.436H307.91C309.604 291.436 310.99 290.534 310.99 288.807C310.99 287.234 309.857 286.211 308.064 286.211H305.028V293.911ZM306.381 290.215V287.443H307.954C308.966 287.443 309.615 287.916 309.615 288.818C309.615 289.643 308.977 290.215 307.954 290.215H306.381Z" fill="#7890B3"/>
<rect x="345.597" y="19.675" width="8" height="251.659" rx="4" fill="#F0D9DD"/>
<rect x="345.597" y="111.691" width="8" height="159.643" rx="4" fill="#F84263"/>
<path d="M338.17 293.911H339.501V288.411L341.91 292.019H341.954L344.385 288.389V293.911H345.738V286.211H344.297L341.954 289.852L339.611 286.211H338.17V293.911ZM346.84 293.911H348.226L349.018 292.052H352.659L353.44 293.911H354.87L351.482 286.156H350.228L346.84 293.911ZM349.513 290.853L350.833 287.773L352.164 290.853H349.513ZM359.259 285.606C360.194 285.606 360.843 285.012 360.986 284.066L360.172 283.912C360.029 284.374 359.754 284.66 359.259 284.66C358.764 284.66 358.478 284.374 358.346 283.912L357.521 284.066C357.675 285.012 358.324 285.606 359.259 285.606ZM355.97 293.911H357.246L361.129 288.301V293.911H362.46V286.211H361.195L357.301 291.832V286.211H355.97V293.911Z" fill="#5C8398"/>
<rect x="395.597" y="19.675" width="8" height="251.659" rx="4" fill="#F0D9DD"/>
<rect x="395.597" y="116.901" width="8" height="154.433" rx="4" fill="#F84263"/>
<path d="M383.556 293.911H384.832L388.715 288.301V293.911H390.046V286.211H388.781L384.887 291.832V286.211H383.556V293.911ZM398.104 294.043C400.304 294.043 401.822 292.272 401.822 290.061C401.822 287.828 400.315 286.079 398.126 286.079C396.146 286.079 394.705 287.531 394.452 289.434H393.176V286.211H391.823V293.911H393.176V290.644H394.441C394.683 292.591 396.102 294.043 398.104 294.043ZM398.126 292.822C396.762 292.822 395.805 291.601 395.805 290.061C395.805 288.499 396.74 287.311 398.104 287.311C399.468 287.311 400.436 288.521 400.436 290.061C400.436 291.623 399.49 292.822 398.126 292.822ZM403.236 293.911H404.589V290.666H408.263V293.911H409.616V286.211H408.263V289.412H404.589V286.211H403.236V293.911ZM411.374 293.911H414.476C416.258 293.911 417.38 292.943 417.38 291.392C417.38 289.841 416.214 288.983 414.487 288.983H412.716V286.211H411.374V293.911ZM412.716 292.701V290.16H414.432C415.455 290.16 416.038 290.589 416.038 291.381C416.038 292.25 415.455 292.701 414.454 292.701H412.716Z" fill="#5C8398"/>
<rect x="446.597" y="19.675" width="8" height="251.659" rx="4" fill="#F0D9DD"/>
<rect x="446.597" y="106.049" width="8" height="165.285" rx="4" fill="#F84263"/>
<path d="M433.397 293.911H434.673L438.556 288.301V293.911H439.887V286.211H438.622L434.728 291.832V286.211H433.397V293.911ZM447.944 294.043C450.144 294.043 451.662 292.272 451.662 290.061C451.662 287.828 450.155 286.079 447.966 286.079C445.986 286.079 444.545 287.531 444.292 289.434H443.016V286.211H441.663V293.911H443.016V290.644H444.281C444.523 292.591 445.942 294.043 447.944 294.043ZM447.966 292.822C446.602 292.822 445.645 291.601 445.645 290.061C445.645 288.499 446.58 287.311 447.944 287.311C449.308 287.311 450.276 288.521 450.276 290.061C450.276 291.623 449.33 292.822 447.966 292.822ZM453.077 293.999C454.595 293.999 455.486 293.02 455.486 288.125V287.432H458.148V293.911H459.501V286.211H454.221V287.729C454.221 292.338 453.495 292.833 452.714 292.833C452.549 292.833 452.373 292.8 452.274 292.767L452.142 293.878C452.351 293.933 452.78 293.999 453.077 293.999ZM461.268 293.911H464.37C466.152 293.911 467.274 292.943 467.274 291.392C467.274 289.841 466.108 288.983 464.381 288.983H462.61V286.211H461.268V293.911ZM462.61 292.701V290.16H464.326C465.349 290.16 465.932 290.589 465.932 291.381C465.932 292.25 465.349 292.701 464.348 292.701H462.61Z" fill="#5C8398"/>
<rect x="496.597" y="19.675" width="8" height="251.659" rx="4" fill="#F0D9DD"/>
<rect x="496.597" y="70.4348" width="8" height="200.9" rx="4" fill="#F84263"/>
<path d="M490.391 293.911H491.777L492.569 292.052H496.21L496.991 293.911H498.421L495.033 286.156H493.779L490.391 293.911ZM493.064 290.853L494.384 287.773L495.715 290.853H493.064ZM499.521 293.911H503.085C504.801 293.911 505.934 293.174 505.934 291.799C505.934 290.732 505.307 290.215 504.405 289.907C504.977 289.61 505.505 289.115 505.505 288.191C505.505 287.652 505.329 287.234 504.988 286.893C504.548 286.453 503.855 286.211 502.975 286.211H499.521V293.911ZM500.852 289.456V287.41H502.799C503.668 287.41 504.152 287.784 504.152 288.389C504.152 289.115 503.569 289.456 502.7 289.456H500.852ZM500.852 292.712V290.6H502.997C504.064 290.6 504.581 290.985 504.581 291.634C504.581 292.349 504.02 292.712 503.096 292.712H500.852ZM507.24 293.911H508.582V287.432H512.421V286.211H507.24V293.911Z" fill="#5C8398"/>
<path opacity="0.6" d="M24.8375 29.8352C26.8525 29.8352 28.2045 28.6132 28.2045 26.7542C28.2045 24.8042 26.8135 23.8682 25.0455 23.8682C24.4345 23.8682 24.0315 23.9722 23.6025 24.1282L23.7455 21.9962H27.8015V20.5792H22.3675L22.1075 25.0382L23.0695 25.6752C23.5375 25.4542 24.0965 25.2722 24.7465 25.2722C25.8515 25.2722 26.6315 25.8572 26.6315 26.7802C26.6315 27.7552 25.9165 28.3792 24.8245 28.3792C23.9795 28.3792 23.2125 27.9632 22.4845 27.2872L21.4965 28.4442C22.3545 29.2762 23.4465 29.8352 24.8375 29.8352ZM33.4054 29.8352C35.7974 29.8352 37.3834 27.7292 37.3834 25.1292C37.3834 22.5032 35.8104 20.4232 33.4314 20.4232C31.0394 20.4232 29.4534 22.5292 29.4534 25.1292C29.4534 27.7552 31.0134 29.8352 33.4054 29.8352ZM33.4314 28.3922C32.0144 28.3922 31.1044 26.9232 31.1044 25.1292C31.1044 23.2962 32.0014 21.8662 33.4054 21.8662C34.8094 21.8662 35.7324 23.3352 35.7324 25.1292C35.7324 26.9492 34.8484 28.3922 33.4314 28.3922ZM42.5526 29.8352C44.9446 29.8352 46.5306 27.7292 46.5306 25.1292C46.5306 22.5032 44.9576 20.4232 42.5786 20.4232C40.1866 20.4232 38.6006 22.5292 38.6006 25.1292C38.6006 27.7552 40.1606 29.8352 42.5526 29.8352ZM42.5786 28.3922C41.1616 28.3922 40.2516 26.9232 40.2516 25.1292C40.2516 23.2962 41.1486 21.8662 42.5526 21.8662C43.9566 21.8662 44.8796 23.3352 44.8796 25.1292C44.8796 26.9492 43.9956 28.3922 42.5786 28.3922ZM51.6998 29.8352C54.0918 29.8352 55.6778 27.7292 55.6778 25.1292C55.6778 22.5032 54.1048 20.4232 51.7258 20.4232C49.3338 20.4232 47.7478 22.5292 47.7478 25.1292C47.7478 27.7552 49.3078 29.8352 51.6998 29.8352ZM51.7258 28.3922C50.3088 28.3922 49.3988 26.9232 49.3988 25.1292C49.3988 23.2962 50.2958 21.8662 51.6998 21.8662C53.1038 21.8662 54.0268 23.3352 54.0268 25.1292C54.0268 26.9492 53.1428 28.3922 51.7258 28.3922Z" fill="#AEBDD1"/>
<path opacity="0.6" d="M26.8001 54.2444H28.3341V52.2034H29.6341V50.8904H28.3341V45.0794H26.9691L21.9121 51.0594L22.2111 52.2034H26.8001V54.2444ZM23.8101 50.8904L26.8001 47.2894V50.8904H23.8101ZM33.9847 54.4004C35.9997 54.4004 37.3517 53.1784 37.3517 51.3194C37.3517 49.3694 35.9607 48.4334 34.1927 48.4334C33.5817 48.4334 33.1787 48.5374 32.7497 48.6934L32.8927 46.5614H36.9487V45.1444H31.5147L31.2547 49.6034L32.2167 50.2404C32.6847 50.0194 33.2437 49.8374 33.8937 49.8374C34.9987 49.8374 35.7787 50.4224 35.7787 51.3454C35.7787 52.3204 35.0637 52.9444 33.9717 52.9444C33.1267 52.9444 32.3597 52.5284 31.6317 51.8524L30.6437 53.0094C31.5017 53.8414 32.5937 54.4004 33.9847 54.4004ZM42.5526 54.4004C44.9446 54.4004 46.5306 52.2944 46.5306 49.6944C46.5306 47.0684 44.9576 44.9884 42.5786 44.9884C40.1866 44.9884 38.6006 47.0944 38.6006 49.6944C38.6006 52.3204 40.1606 54.4004 42.5526 54.4004ZM42.5786 52.9574C41.1616 52.9574 40.2516 51.4884 40.2516 49.6944C40.2516 47.8614 41.1486 46.4314 42.5526 46.4314C43.9566 46.4314 44.8796 47.9004 44.8796 49.6944C44.8796 51.5144 43.9956 52.9574 42.5786 52.9574ZM51.6998 54.4004C54.0918 54.4004 55.6778 52.2944 55.6778 49.6944C55.6778 47.0684 54.1048 44.9884 51.7258 44.9884C49.3338 44.9884 47.7478 47.0944 47.7478 49.6944C47.7478 52.3204 49.3078 54.4004 51.6998 54.4004ZM51.7258 52.9574C50.3088 52.9574 49.3988 51.4884 49.3988 49.6944C49.3988 47.8614 50.2958 46.4314 51.6998 46.4314C53.1038 46.4314 54.0268 47.9004 54.0268 49.6944C54.0268 51.5144 53.1428 52.9574 51.7258 52.9574Z" fill="#AEBDD1"/>
<path opacity="0.6" d="M25.4797 78.8096H27.0137V76.7686H28.3137V75.4556H27.0137V69.6446H25.6487L20.5917 75.6246L20.8907 76.7686H25.4797V78.8096ZM22.4897 75.4556L25.4797 71.8546V75.4556H22.4897ZM33.4054 78.9656C35.7974 78.9656 37.3834 76.8596 37.3834 74.2596C37.3834 71.6336 35.8104 69.5536 33.4314 69.5536C31.0394 69.5536 29.4534 71.6596 29.4534 74.2596C29.4534 76.8856 31.0134 78.9656 33.4054 78.9656ZM33.4314 77.5226C32.0144 77.5226 31.1044 76.0536 31.1044 74.2596C31.1044 72.4266 32.0014 70.9966 33.4054 70.9966C34.8094 70.9966 35.7324 72.4656 35.7324 74.2596C35.7324 76.0796 34.8484 77.5226 33.4314 77.5226ZM42.5526 78.9656C44.9446 78.9656 46.5306 76.8596 46.5306 74.2596C46.5306 71.6336 44.9576 69.5536 42.5786 69.5536C40.1866 69.5536 38.6006 71.6596 38.6006 74.2596C38.6006 76.8856 40.1606 78.9656 42.5526 78.9656ZM42.5786 77.5226C41.1616 77.5226 40.2516 76.0536 40.2516 74.2596C40.2516 72.4266 41.1486 70.9966 42.5526 70.9966C43.9566 70.9966 44.8796 72.4656 44.8796 74.2596C44.8796 76.0796 43.9956 77.5226 42.5786 77.5226ZM51.6998 78.9656C54.0918 78.9656 55.6778 76.8596 55.6778 74.2596C55.6778 71.6336 54.1048 69.5536 51.7258 69.5536C49.3338 69.5536 47.7478 71.6596 47.7478 74.2596C47.7478 76.8856 49.3078 78.9656 51.6998 78.9656ZM51.7258 77.5226C50.3088 77.5226 49.3988 76.0536 49.3988 74.2596C49.3988 72.4266 50.2958 70.9966 51.6998 70.9966C53.1038 70.9966 54.0268 72.4656 54.0268 74.2596C54.0268 76.0796 53.1428 77.5226 51.7258 77.5226Z" fill="#AEBDD1"/>
<path opacity="0.6" d="M26.2996 102.654C28.1846 102.654 29.4846 101.458 29.4846 99.7806C29.4846 98.1426 28.2496 97.4016 26.8066 97.1936L29.3416 94.5936V93.3976H23.3226V94.7886H27.2616L24.8046 97.4016L25.0646 98.4026H25.8056C27.0796 98.4026 27.8986 98.9096 27.8986 99.8066C27.8986 100.665 27.2226 101.211 26.3256 101.211C25.3116 101.211 24.5836 100.782 23.9336 100.015L22.8156 101.055C23.5826 101.991 24.7136 102.654 26.2996 102.654ZM33.9847 102.654C35.9997 102.654 37.3517 101.432 37.3517 99.5726C37.3517 97.6226 35.9607 96.6866 34.1927 96.6866C33.5817 96.6866 33.1787 96.7906 32.7497 96.9466L32.8927 94.8146H36.9487V93.3976H31.5147L31.2547 97.8566L32.2167 98.4936C32.6847 98.2726 33.2437 98.0906 33.8937 98.0906C34.9987 98.0906 35.7787 98.6756 35.7787 99.5986C35.7787 100.574 35.0637 101.198 33.9717 101.198C33.1267 101.198 32.3597 100.782 31.6317 100.106L30.6437 101.263C31.5017 102.095 32.5937 102.654 33.9847 102.654ZM42.5526 102.654C44.9446 102.654 46.5306 100.548 46.5306 97.9476C46.5306 95.3216 44.9576 93.2416 42.5786 93.2416C40.1866 93.2416 38.6006 95.3476 38.6006 97.9476C38.6006 100.574 40.1606 102.654 42.5526 102.654ZM42.5786 101.211C41.1616 101.211 40.2516 99.7416 40.2516 97.9476C40.2516 96.1146 41.1486 94.6846 42.5526 94.6846C43.9566 94.6846 44.8796 96.1536 44.8796 97.9476C44.8796 99.7676 43.9956 101.211 42.5786 101.211ZM51.6998 102.654C54.0918 102.654 55.6778 100.548 55.6778 97.9476C55.6778 95.3216 54.1048 93.2416 51.7258 93.2416C49.3338 93.2416 47.7478 95.3476 47.7478 97.9476C47.7478 100.574 49.3078 102.654 51.6998 102.654ZM51.7258 101.211C50.3088 101.211 49.3988 99.7416 49.3988 97.9476C49.3988 96.1146 50.2958 94.6846 51.6998 94.6846C53.1038 94.6846 54.0268 96.1536 54.0268 97.9476C54.0268 99.7676 53.1428 101.211 51.7258 101.211Z" fill="#AEBDD1"/>
<path opacity="0.6" d="M24.9792 127.218C26.8642 127.218 28.1642 126.022 28.1642 124.345C28.1642 122.707 26.9292 121.966 25.4862 121.758L28.0212 119.158V117.962H22.0022V119.353H25.9412L23.4842 121.966L23.7442 122.967H24.4852C25.7592 122.967 26.5782 123.474 26.5782 124.371C26.5782 125.229 25.9022 125.775 25.0052 125.775C23.9912 125.775 23.2632 125.346 22.6132 124.579L21.4952 125.619C22.2622 126.555 23.3932 127.218 24.9792 127.218ZM33.4054 127.218C35.7974 127.218 37.3834 125.112 37.3834 122.512C37.3834 119.886 35.8104 117.806 33.4314 117.806C31.0394 117.806 29.4534 119.912 29.4534 122.512C29.4534 125.138 31.0134 127.218 33.4054 127.218ZM33.4314 125.775C32.0144 125.775 31.1044 124.306 31.1044 122.512C31.1044 120.679 32.0014 119.249 33.4054 119.249C34.8094 119.249 35.7324 120.718 35.7324 122.512C35.7324 124.332 34.8484 125.775 33.4314 125.775ZM42.5526 127.218C44.9446 127.218 46.5306 125.112 46.5306 122.512C46.5306 119.886 44.9576 117.806 42.5786 117.806C40.1866 117.806 38.6006 119.912 38.6006 122.512C38.6006 125.138 40.1606 127.218 42.5526 127.218ZM42.5786 125.775C41.1616 125.775 40.2516 124.306 40.2516 122.512C40.2516 120.679 41.1486 119.249 42.5526 119.249C43.9566 119.249 44.8796 120.718 44.8796 122.512C44.8796 124.332 43.9956 125.775 42.5786 125.775ZM51.6998 127.218C54.0918 127.218 55.6778 125.112 55.6778 122.512C55.6778 119.886 54.1048 117.806 51.7258 117.806C49.3338 117.806 47.7478 119.912 47.7478 122.512C47.7478 125.138 49.3078 127.218 51.6998 127.218ZM51.7258 125.775C50.3088 125.775 49.3988 124.306 49.3988 122.512C49.3988 120.679 50.2958 119.249 51.6998 119.249C53.1038 119.249 54.0268 120.718 54.0268 122.512C54.0268 124.332 53.1428 125.775 51.7258 125.775Z" fill="#AEBDD1"/>
<path opacity="0.6" d="M22.957 151.628H29.535V150.224H25.206L27.078 148.664C28.677 147.338 29.444 146.571 29.444 145.141C29.444 143.49 28.222 142.398 26.441 142.398C24.816 142.398 23.958 143.087 23.087 144.309L24.218 145.193C24.92 144.283 25.492 143.828 26.324 143.828C27.156 143.828 27.793 144.348 27.793 145.245C27.793 146.064 27.338 146.649 26.09 147.702L22.957 150.367V151.628ZM33.9847 151.784C35.9997 151.784 37.3517 150.562 37.3517 148.703C37.3517 146.753 35.9607 145.817 34.1927 145.817C33.5817 145.817 33.1787 145.921 32.7497 146.077L32.8927 143.945H36.9487V142.528H31.5147L31.2547 146.987L32.2167 147.624C32.6847 147.403 33.2437 147.221 33.8937 147.221C34.9987 147.221 35.7787 147.806 35.7787 148.729C35.7787 149.704 35.0637 150.328 33.9717 150.328C33.1267 150.328 32.3597 149.912 31.6317 149.236L30.6437 150.393C31.5017 151.225 32.5937 151.784 33.9847 151.784ZM42.5526 151.784C44.9446 151.784 46.5306 149.678 46.5306 147.078C46.5306 144.452 44.9576 142.372 42.5786 142.372C40.1866 142.372 38.6006 144.478 38.6006 147.078C38.6006 149.704 40.1606 151.784 42.5526 151.784ZM42.5786 150.341C41.1616 150.341 40.2516 148.872 40.2516 147.078C40.2516 145.245 41.1486 143.815 42.5526 143.815C43.9566 143.815 44.8796 145.284 44.8796 147.078C44.8796 148.898 43.9956 150.341 42.5786 150.341ZM51.6998 151.784C54.0918 151.784 55.6778 149.678 55.6778 147.078C55.6778 144.452 54.1048 142.372 51.7258 142.372C49.3338 142.372 47.7478 144.478 47.7478 147.078C47.7478 149.704 49.3078 151.784 51.6998 151.784ZM51.7258 150.341C50.3088 150.341 49.3988 148.872 49.3988 147.078C49.3988 145.245 50.2958 143.815 51.6998 143.815C53.1038 143.815 54.0268 145.284 54.0268 147.078C54.0268 148.898 53.1428 150.341 51.7258 150.341Z" fill="#AEBDD1"/>
<path opacity="0.6" d="M21.6367 176.193H28.2147V174.789H23.8857L25.7577 173.229C27.3567 171.903 28.1237 171.136 28.1237 169.706C28.1237 168.055 26.9017 166.963 25.1207 166.963C23.4957 166.963 22.6377 167.652 21.7667 168.874L22.8977 169.758C23.5997 168.848 24.1717 168.393 25.0037 168.393C25.8357 168.393 26.4727 168.913 26.4727 169.81C26.4727 170.629 26.0177 171.214 24.7697 172.267L21.6367 174.932V176.193ZM33.4054 176.349C35.7974 176.349 37.3834 174.243 37.3834 171.643C37.3834 169.017 35.8104 166.937 33.4314 166.937C31.0394 166.937 29.4534 169.043 29.4534 171.643C29.4534 174.269 31.0134 176.349 33.4054 176.349ZM33.4314 174.906C32.0144 174.906 31.1044 173.437 31.1044 171.643C31.1044 169.81 32.0014 168.38 33.4054 168.38C34.8094 168.38 35.7324 169.849 35.7324 171.643C35.7324 173.463 34.8484 174.906 33.4314 174.906ZM42.5526 176.349C44.9446 176.349 46.5306 174.243 46.5306 171.643C46.5306 169.017 44.9576 166.937 42.5786 166.937C40.1866 166.937 38.6006 169.043 38.6006 171.643C38.6006 174.269 40.1606 176.349 42.5526 176.349ZM42.5786 174.906C41.1616 174.906 40.2516 173.437 40.2516 171.643C40.2516 169.81 41.1486 168.38 42.5526 168.38C43.9566 168.38 44.8796 169.849 44.8796 171.643C44.8796 173.463 43.9956 174.906 42.5786 174.906ZM51.6998 176.349C54.0918 176.349 55.6778 174.243 55.6778 171.643C55.6778 169.017 54.1048 166.937 51.7258 166.937C49.3338 166.937 47.7478 169.043 47.7478 171.643C47.7478 174.269 49.3078 176.349 51.6998 176.349ZM51.7258 174.906C50.3088 174.906 49.3988 173.437 49.3988 171.643C49.3988 169.81 50.2958 168.38 51.6998 168.38C53.1038 168.38 54.0268 169.849 54.0268 171.643C54.0268 173.463 53.1428 174.906 51.7258 174.906Z" fill="#AEBDD1"/>
<path opacity="0.6" d="M26.4524 200.758H28.0384V191.593H26.9204L24.4764 192.373L24.8144 193.673L26.4524 193.218V200.758ZM32.9847 200.914C34.9997 200.914 36.3517 199.692 36.3517 197.833C36.3517 195.883 34.9607 194.947 33.1927 194.947C32.5817 194.947 32.1787 195.051 31.7497 195.207L31.8927 193.075H35.9487V191.658H30.5147L30.2547 196.117L31.2167 196.754C31.6847 196.533 32.2437 196.351 32.8937 196.351C33.9987 196.351 34.7787 196.936 34.7787 197.859C34.7787 198.834 34.0637 199.458 32.9717 199.458C32.1267 199.458 31.3597 199.042 30.6317 198.366L29.6437 199.523C30.5017 200.355 31.5937 200.914 32.9847 200.914ZM41.5526 200.914C43.9446 200.914 45.5306 198.808 45.5306 196.208C45.5306 193.582 43.9576 191.502 41.5786 191.502C39.1866 191.502 37.6006 193.608 37.6006 196.208C37.6006 198.834 39.1606 200.914 41.5526 200.914ZM41.5786 199.471C40.1616 199.471 39.2516 198.002 39.2516 196.208C39.2516 194.375 40.1486 192.945 41.5526 192.945C42.9566 192.945 43.8796 194.414 43.8796 196.208C43.8796 198.028 42.9956 199.471 41.5786 199.471ZM50.6998 200.914C53.0918 200.914 54.6778 198.808 54.6778 196.208C54.6778 193.582 53.1048 191.502 50.7258 191.502C48.3338 191.502 46.7478 193.608 46.7478 196.208C46.7478 198.834 48.3078 200.914 50.6998 200.914ZM50.7258 199.471C49.3088 199.471 48.3988 198.002 48.3988 196.208C48.3988 194.375 49.2958 192.945 50.6998 192.945C52.1038 192.945 53.0268 194.414 53.0268 196.208C53.0268 198.028 52.1428 199.471 50.7258 199.471Z" fill="#AEBDD1"/>
<path opacity="0.6" d="M26.1321 224.446H27.7181V215.281H26.6001L24.1561 216.061L24.4941 217.361L26.1321 216.906V224.446ZM33.4054 224.602C35.7974 224.602 37.3834 222.496 37.3834 219.896C37.3834 217.27 35.8104 215.19 33.4314 215.19C31.0394 215.19 29.4534 217.296 29.4534 219.896C29.4534 222.522 31.0134 224.602 33.4054 224.602ZM33.4314 223.159C32.0144 223.159 31.1044 221.69 31.1044 219.896C31.1044 218.063 32.0014 216.633 33.4054 216.633C34.8094 216.633 35.7324 218.102 35.7324 219.896C35.7324 221.716 34.8484 223.159 33.4314 223.159ZM42.5526 224.602C44.9446 224.602 46.5306 222.496 46.5306 219.896C46.5306 217.27 44.9576 215.19 42.5786 215.19C40.1866 215.19 38.6006 217.296 38.6006 219.896C38.6006 222.522 40.1606 224.602 42.5526 224.602ZM42.5786 223.159C41.1616 223.159 40.2516 221.69 40.2516 219.896C40.2516 218.063 41.1486 216.633 42.5526 216.633C43.9566 216.633 44.8796 218.102 44.8796 219.896C44.8796 221.716 43.9956 223.159 42.5786 223.159ZM51.6998 224.602C54.0918 224.602 55.6778 222.496 55.6778 219.896C55.6778 217.27 54.1048 215.19 51.7258 215.19C49.3338 215.19 47.7478 217.296 47.7478 219.896C47.7478 222.522 49.3078 224.602 51.6998 224.602ZM51.7258 223.159C50.3088 223.159 49.3988 221.69 49.3988 219.896C49.3988 218.063 50.2958 216.633 51.6998 216.633C53.1038 216.633 54.0268 218.102 54.0268 219.896C54.0268 221.716 53.1428 223.159 51.7258 223.159Z" fill="#AEBDD1"/>
<path opacity="0.6" d="M33.9847 249.167C35.9997 249.167 37.3517 247.945 37.3517 246.086C37.3517 244.136 35.9607 243.2 34.1927 243.2C33.5817 243.2 33.1787 243.304 32.7497 243.46L32.8927 241.328H36.9487V239.911H31.5147L31.2547 244.37L32.2167 245.007C32.6847 244.786 33.2437 244.604 33.8937 244.604C34.9987 244.604 35.7787 245.189 35.7787 246.112C35.7787 247.087 35.0637 247.711 33.9717 247.711C33.1267 247.711 32.3597 247.295 31.6317 246.619L30.6437 247.776C31.5017 248.608 32.5937 249.167 33.9847 249.167ZM42.5526 249.167C44.9446 249.167 46.5306 247.061 46.5306 244.461C46.5306 241.835 44.9576 239.755 42.5786 239.755C40.1866 239.755 38.6006 241.861 38.6006 244.461C38.6006 247.087 40.1606 249.167 42.5526 249.167ZM42.5786 247.724C41.1616 247.724 40.2516 246.255 40.2516 244.461C40.2516 242.628 41.1486 241.198 42.5526 241.198C43.9566 241.198 44.8796 242.667 44.8796 244.461C44.8796 246.281 43.9956 247.724 42.5786 247.724ZM51.6998 249.167C54.0918 249.167 55.6778 247.061 55.6778 244.461C55.6778 241.835 54.1048 239.755 51.7258 239.755C49.3338 239.755 47.7478 241.861 47.7478 244.461C47.7478 247.087 49.3078 249.167 51.6998 249.167ZM51.7258 247.724C50.3088 247.724 49.3988 246.255 49.3988 244.461C49.3988 242.628 50.2958 241.198 51.6998 241.198C53.1038 241.198 54.0268 242.667 54.0268 244.461C54.0268 246.281 53.1428 247.724 51.7258 247.724Z" fill="#AEBDD1"/>
<path opacity="0.6" d="M51.6998 271.1C54.0918 271.1 55.6778 268.994 55.6778 266.394C55.6778 263.768 54.1048 261.688 51.7258 261.688C49.3338 261.688 47.7478 263.794 47.7478 266.394C47.7478 269.02 49.3078 271.1 51.6998 271.1ZM51.7258 269.657C50.3088 269.657 49.3988 268.188 49.3988 266.394C49.3988 264.561 50.2958 263.131 51.6998 263.131C53.1038 263.131 54.0268 264.6 54.0268 266.394C54.0268 268.214 53.1428 269.657 51.7258 269.657Z" fill="#AEBDD1"/>
</svg>
