<svg width="434" height="598" viewBox="0 0 434 598" fill="none" xmlns="http://www.w3.org/2000/svg">
<path fill-rule="evenodd" clip-rule="evenodd" d="M321.936 208.104C331.233 224.818 348.277 236.579 367.491 238.746L372.759 239.365C406.539 238.436 434.12 265.364 434.12 299.1C434.12 328.813 412.117 353.884 382.676 358.217C380.817 358.526 379.267 358.526 377.408 358.836C349.517 362.241 331.853 367.193 319.147 396.906C312.639 412.381 315.738 417.953 311.709 432.5C307.061 455.403 289.706 473.045 267.084 478.307C260.886 479.855 255.617 480.474 252.828 480.783C243.221 481.402 236.094 482.64 227.416 486.973C214.711 493.164 205.104 504.306 199.525 517.305C197.046 523.805 195.497 530.924 195.187 538.352C194.567 548.257 193.018 556.613 188.679 565.589C183.411 575.803 175.973 583.85 167.296 589.112L166.986 589.422C157.689 595.302 146.842 598.397 135.376 598.397C118.952 598.397 104.076 591.588 93.2298 581.065C82.3833 570.232 75.8755 555.375 75.8755 538.971C75.8755 522.567 82.6933 507.711 93.2298 496.878C103.766 486.354 118.022 479.855 133.827 479.545C134.447 479.545 135.066 479.545 135.376 479.545C136.306 479.545 137.236 479.545 138.165 479.545C170.085 478.617 193.947 452.618 193.947 420.119C193.947 396.596 208.203 375.24 229.586 365.955C244.151 358.836 253.758 361.622 269.253 357.907C283.818 354.503 296.524 345.527 304.891 333.147C311.399 323.552 314.498 313.338 315.118 301.886C315.118 300.648 315.118 299.1 315.118 297.862C314.498 287.958 312.019 277.435 306.441 269.078C306.441 269.078 301.792 262.578 301.173 261.959C293.115 252.364 282.889 245.865 272.042 242.769C264.914 240.603 258.097 240.293 250.969 239.365C221.528 237.198 197.976 213.675 195.807 183.962L195.187 177.463C193.018 144.345 162.647 118.037 134.137 119.584C118.332 119.275 104.076 112.465 93.5397 102.252C82.6932 91.4187 76.1853 76.5621 76.1853 60.1581C76.1853 43.754 83.0031 28.8975 93.5397 18.0646C103.457 6.6127 118.332 -0.196533 134.756 -0.196533C151.181 -0.196533 166.056 6.6127 176.903 17.1361C187.439 27.6594 193.947 41.8969 194.257 57.9915C194.567 61.3961 194.877 64.4912 195.187 67.8958C195.807 71.61 196.736 75.6336 197.976 79.3477C202.315 91.1091 207.893 98.8469 214.711 104.418C231.755 118.346 241.052 118.346 259.336 119.894C283.198 122.06 303.652 138.155 311.089 160.749C316.977 177.153 312.329 190.772 321.936 208.104ZM74.6358 179.939C74.6358 180.558 74.6358 181.486 74.6358 182.105C75.8755 213.675 102.837 239.365 135.376 239.365C140.954 239.984 146.533 240.603 152.111 242.46C176.593 250.507 193.327 273.411 193.018 299.41C193.018 314.266 187.749 329.432 175.973 341.194C162.647 354.812 150.251 357.907 132.587 360.074C100.358 360.384 75.8755 385.454 74.326 416.095C74.326 417.024 74.326 417.953 74.326 418.881C74.326 419.81 74.326 420.738 74.326 421.976V422.286C73.3963 437.452 66.8884 451.07 56.9716 461.284C46.1251 472.117 31.2499 478.617 14.8252 478.617C-1.59949 478.617 -16.4747 471.807 -27.3212 461.284C-38.1677 450.451 -44.6756 435.595 -44.6756 419.191C-44.6756 402.786 -37.8578 387.93 -27.3212 377.097C-24.5321 374.312 -21.4331 371.835 -18.0242 369.669C-15.2351 367.812 -12.446 366.264 -9.65688 365.026C-2.52919 361.622 5.52821 359.765 13.8955 359.765C15.445 359.455 16.9945 359.455 18.8539 359.145C50.1538 357.288 74.9458 331.29 74.9458 299.719C74.9458 274.34 58.831 252.364 35.5885 243.698C29.0806 241.222 23.5024 240.603 17.3044 239.984C16.3747 239.984 15.7549 239.984 14.8252 239.984C-1.59949 239.984 -16.4747 233.175 -27.3212 222.651C-37.8578 212.128 -44.3657 197.89 -44.6756 182.105V179.629C-44.6756 179.939 -44.6756 180.248 -44.6756 180.867V180.558C-44.6756 164.154 -37.8578 149.297 -27.3212 138.464C-16.4747 127.631 -1.59949 121.132 14.8252 121.132C31.2499 121.132 46.1251 127.941 56.9716 138.464C67.8181 148.678 74.6358 163.535 74.6358 179.939ZM-62.3398 341.813C-74.116 353.574 -89.3011 359.145 -104.486 359.145C-137.645 359.145 -164.297 332.528 -164.297 299.41C-164.297 266.602 -137.645 239.674 -104.486 239.674C-71.6368 239.674 -44.6756 266.292 -44.6756 299.41C-44.9855 314.885 -50.8736 330.051 -62.3398 341.813Z" fill="url(#paint0_linear_92_1419)"/>
<defs>
<linearGradient id="paint0_linear_92_1419" x1="134.911" y1="-0.196533" x2="134.911" y2="598.397" gradientUnits="userSpaceOnUse">
<stop stop-color="#DE3352"/>
<stop offset="1" stop-color="#DE3352" stop-opacity="0"/>
</linearGradient>
</defs>
</svg>
