<svg width="26" height="27" viewBox="0 0 26 27" fill="none" xmlns="http://www.w3.org/2000/svg">
<path d="M18.7516 13.4043C18.7516 13.9571 18.3035 14.4053 17.7506 14.4053H10.3243L12.5526 16.6336C12.9436 17.0246 12.9436 17.6584 12.5526 18.0493C12.1616 18.4402 11.5279 18.4401 11.137 18.0493L7.19986 14.1121C6.80838 13.7205 6.80938 13.087 7.19986 12.6964L11.137 8.75925C11.528 8.36842 12.1617 8.36837 12.5526 8.75925C12.9436 9.15018 12.9436 9.784 12.5526 10.1749L10.3243 12.4033H17.7506C18.3035 12.4033 18.7516 12.8514 18.7516 13.4043ZM25.625 8.01763L25.625 18.7909C25.625 22.2133 23.3041 23.9513 23.1537 24.1645C21.8304 25.4879 20.0707 26.2168 18.1991 26.2168L7.42583 26.2168C5.55421 26.2168 3.79465 25.4879 2.47126 24.1645C2.32231 23.9534 0 22.2136 0 18.7909L0 8.01763C0 4.5954 2.32091 2.8572 2.47131 2.64405C3.79465 1.32066 5.55426 0.591797 7.42583 0.591797L18.1991 0.591797C20.0707 0.591797 21.8304 1.32066 23.1537 2.6441C23.3024 2.8549 25.625 4.59495 25.625 8.01763ZM23.623 8.01763C23.623 5.50974 21.8903 4.27133 21.7381 4.05967C20.7928 3.1143 19.536 2.59375 18.1991 2.59375L7.42583 2.59375C6.08898 2.59375 4.83216 3.11435 3.88689 4.05962C3.72913 4.27894 2.00195 5.49642 2.00195 8.01763L2.00195 18.7909C2.00195 21.2988 3.73439 22.5369 3.88684 22.7489C4.83216 23.6942 6.08898 24.2148 7.42583 24.2148L18.1991 24.2148C19.536 24.2148 20.7928 23.6943 21.7381 22.7489C21.8958 22.5296 23.623 21.3121 23.623 18.7909L23.623 8.01763Z" fill="#ACB8C0"/>
</svg>
