<svg width="81" height="45" viewBox="0 0 81 45" fill="none" xmlns="http://www.w3.org/2000/svg">
<g clip-path="url(#clip0_190_7865)">
<path d="M4.38873 17.2686H0.823242V44.2152H10.4429V41.1152H4.38873V17.2686Z" fill="black"/>
<path d="M16.3028 17.2686H12.6895V44.2152H22.333V41.1152H16.3028V17.2686Z" fill="black"/>
<path d="M31.4513 37.6574C31.4513 39.279 31.7146 41.4252 29.4173 41.4252C27.1201 41.4252 27.3355 39.0882 27.3355 37.4666V26.1633H23.9854V37.6574C23.9854 41.7352 24.6554 44.5252 29.5848 44.5252C33.7007 44.5252 34.8254 42.069 34.8254 38.3728V26.1633H31.4513V37.6574Z" fill="black"/>
<path d="M52.0315 25.8771C50.1889 25.8771 49.0163 26.8309 48.2985 28.381H48.2027C47.8438 26.8071 46.5755 25.8771 44.9483 25.8771C43.2254 25.8771 42.0529 26.8548 41.3828 28.381H41.335V26.1394H37.9609V44.1913H41.3111V32.7449C41.4068 31.2187 41.2153 28.8817 43.3451 28.8817C45.2833 28.8817 45.2834 30.5033 45.2834 31.9341V44.1913H48.6574V32.7449C48.6574 31.1233 48.3942 28.8817 50.7871 28.8817C52.4622 28.8817 52.6297 30.2172 52.6297 31.5764V44.1913H56.0037V30.241C56.0037 27.8563 55.1901 25.8771 52.0315 25.8771Z" fill="black"/>
<path d="M66.2937 28.1664H66.2458C65.7911 27.2125 65.169 26.4494 64.2597 26.0917C63.8529 25.9486 63.4461 25.8771 62.9914 25.8771C58.7559 25.8771 58.6123 31.9341 58.6123 34.9388C58.6123 37.8481 58.708 44.5013 62.8957 44.5013C63.4461 44.5013 63.8529 44.4059 64.2597 44.2867C65.2168 43.8813 65.7433 43.0228 66.2458 41.902H66.2937V44.1913H69.6677V26.1394H66.2937V28.1664ZM64.3075 41.5205C64.2597 41.5205 64.2597 41.5205 64.2597 41.5205C61.771 41.4251 62.0581 36.6796 62.0581 35.2011C62.0581 33.7703 61.7949 28.9533 64.2597 28.9056C64.2597 28.9056 64.2597 28.9056 64.3075 28.9056C66.5569 28.9056 66.4372 33.7465 66.4372 35.2011C66.4372 36.6081 66.5569 41.5205 64.3075 41.5205Z" fill="black"/>
<path d="M79.5308 29.168L80.1051 29.2157V25.901C78.2625 25.901 77.0421 26.8549 76.2764 28.4049H76.1807V26.1633H72.8545V44.2152H76.2285V32.8642C76.2285 30.5511 77.0421 29.168 79.5308 29.168Z" fill="black"/>
<path d="M78.6658 40.4476C77.6368 40.4476 76.8232 41.2584 76.8232 42.2361C76.8232 43.2615 77.6368 44.0723 78.6658 44.0723C79.6709 44.0723 80.5084 43.2615 80.5084 42.2361C80.5084 41.2584 79.6469 40.4476 78.6658 40.4476ZM78.6658 43.7385C77.8043 43.7385 77.1822 43.0707 77.1822 42.26C77.1822 41.4492 77.8043 40.7815 78.6658 40.7815C79.4794 40.7815 80.1494 41.4492 80.1494 42.26C80.1494 43.0469 79.4794 43.7385 78.6658 43.7385Z" fill="black"/>
<path d="M79.5999 41.8784C79.5999 41.6637 79.552 41.473 79.3845 41.3299C79.2409 41.2345 79.0256 41.2345 78.8341 41.2345H78.6427H77.877V43.2138H78.2838V42.3553H78.6427L79.0974 43.2138H79.552L79.0495 42.3553C79.4324 42.3791 79.5999 42.2599 79.5999 41.8784ZM78.882 42.1168H78.6666H78.3077V41.5445H78.6666H78.7623C78.9777 41.5445 79.2649 41.5445 79.2649 41.8068C79.2409 42.0691 79.0734 42.1168 78.882 42.1168Z" fill="black"/>
<path d="M51.9071 11.7839C45.3983 11.7839 38.052 16.4579 36.7119 22.658H67.4852C66.193 16.4102 58.4877 11.7839 51.9071 11.7839Z" fill="#E50A0B"/>
<path d="M76.6331 15.0268C76.6331 15.0268 74.0727 14.8361 72.0387 17.1253C69.9569 19.9154 67.9229 19.8677 67.9229 19.8677C68.545 20.6308 68.7365 21.7039 68.904 22.6578H79.1936C78.715 19.9154 77.9014 17.4115 76.6331 15.0268Z" fill="#E50A0B"/>
<path d="M71.6286 16.3625C73.6147 14.0732 76.1752 14.264 76.1752 14.264C73.9258 10.4008 70.7671 7.18154 66.9623 4.84457V4.79688C66.9623 4.79688 64.3062 6.01305 63.4926 8.92234C62.8226 12.3324 60.9561 13.1432 60.9561 13.1432H60.9082C63.6601 14.6217 66.0052 16.6009 67.4888 19.0571C67.5127 19.0571 69.5467 19.1525 71.6286 16.3625Z" fill="#E50A0B"/>
<path d="M52.7442 5.82215C53.9168 9.08913 52.6964 10.8061 52.6964 10.8061H52.6485C55.1372 10.9492 57.6019 11.5692 59.9948 12.7377L60.0427 12.69C60.0427 12.69 61.9331 11.8315 62.6031 8.46912C63.4167 5.51214 66.025 4.34366 66.025 4.34366H66.1208C62.3399 2.14977 58.0805 0.790511 53.6775 0.528198C53.7014 0.528198 51.9306 2.91286 52.7442 5.82215Z" fill="#E50A0B"/>
<path d="M43.3193 13.0954C46.0234 11.5692 48.4642 10.8538 51.6229 10.8061C51.6229 10.8061 52.8433 9.06534 51.7186 5.8222C50.905 2.86522 52.6279 0.432861 52.6279 0.432861C46.9327 0.432861 43.1997 1.50596 39.371 3.43754C39.371 3.43754 38.9642 6.39452 41.046 8.6361C43.6065 10.9731 43.3193 13.0954 43.3193 13.0954Z" fill="#E50A0B"/>
<path d="M42.3386 13.6677L42.3865 13.62C42.3865 13.62 42.6497 11.5215 40.0893 9.18456C38.0074 6.99067 38.4142 4.03369 38.4142 4.03369C33.7719 6.58528 30.3739 9.87611 27.957 13.7393C27.957 13.7393 29.2732 16.3385 32.2404 17.0539C35.6623 17.6024 36.6195 19.4863 36.6195 19.4863C37.8638 17.0539 39.85 15.1939 42.3386 13.6677Z" fill="#E50A0B"/>
<path d="M27.4746 14.6216C27.4746 14.6216 27.4746 14.6471 27.5002 14.6726C27.5002 14.6471 27.5258 14.6471 27.5258 14.6216H27.4746Z" fill="#E50A0B"/>
<path d="M31.7858 17.9362C29.0339 17.3162 27.6938 14.9792 27.5263 14.6454C25.5163 18.1747 25.0616 19.9155 24.583 22.634H35.3273C35.5188 21.8709 35.7341 21.1078 36.1888 20.3447C36.1409 20.3686 35.2077 18.4847 31.7858 17.9362Z" fill="#E50A0B"/>
</g>
<defs>
<clipPath id="clip0_190_7865">
<rect width="79.685" height="44.0924" fill="white" transform="translate(0.823242 0.432861)"/>
</clipPath>
</defs>
</svg>
