<svg width="42" height="43" viewBox="0 0 42 43" fill="none" xmlns="http://www.w3.org/2000/svg">
<path fill-rule="evenodd" clip-rule="evenodd" d="M33.8164 14.9401C34.4629 16.104 35.6484 16.923 36.9846 17.0738L37.351 17.1169C39.7003 17.0523 41.6185 18.9274 41.6185 21.2766C41.6185 23.3457 40.0882 25.0915 38.0407 25.3932C37.9114 25.4148 37.8036 25.4148 37.6743 25.4363C35.7346 25.6734 34.5061 26.0182 33.6224 28.0873C33.1698 29.165 33.3853 29.5529 33.1051 30.5659C32.7818 32.1608 31.5749 33.3893 30.0015 33.7557C29.5705 33.8635 29.2041 33.9066 29.0101 33.9281C28.3419 33.9712 27.8462 34.0574 27.2428 34.3592C26.3591 34.7902 25.691 35.5661 25.303 36.4714C25.1306 36.924 25.0228 37.4197 25.0013 37.937C24.9582 38.6266 24.8504 39.2086 24.5487 39.8336C24.1823 40.5448 23.665 41.1052 23.0615 41.4716L23.04 41.4932C22.3934 41.9027 21.639 42.1182 20.8416 42.1182C19.6993 42.1182 18.6647 41.644 17.9104 40.9112C17.156 40.1569 16.7034 39.1224 16.7034 37.9801C16.7034 36.8378 17.1776 35.8032 17.9104 35.0489C18.6432 34.3161 19.6346 33.8635 20.7338 33.8419C20.7769 33.8419 20.82 33.8419 20.8416 33.8419C20.9062 33.8419 20.9709 33.8419 21.0355 33.8419C23.2555 33.7773 24.9151 31.9668 24.9151 29.7038C24.9151 28.0658 25.9065 26.5786 27.3936 25.932C28.4066 25.4363 29.0747 25.6303 30.1524 25.3717C31.1654 25.1346 32.049 24.5095 32.631 23.6474C33.0836 22.9793 33.2991 22.2681 33.3422 21.4706C33.3422 21.3844 33.3422 21.2766 33.3422 21.1904C33.2991 20.5007 33.1267 19.7679 32.7387 19.186C32.7387 19.186 32.4154 18.7334 32.3723 18.6903C31.8119 18.0222 31.1007 17.5695 30.3464 17.354C29.8506 17.2031 29.3765 17.1816 28.8808 17.1169C26.8333 16.9661 25.1952 15.3281 25.0444 13.259L25.0013 12.8064C24.8504 10.5002 22.7382 8.66823 20.7554 8.776C19.6562 8.75444 18.6647 8.28028 17.9319 7.56904C17.1776 6.81469 16.725 5.78016 16.725 4.63786C16.725 3.49556 17.1991 2.46102 17.9319 1.70667C18.6216 0.90922 19.6562 0.435059 20.7985 0.435059C21.9408 0.435059 22.9753 0.90922 23.7296 1.64202C24.4624 2.37481 24.915 3.36624 24.9366 4.48699C24.9582 4.72407 24.9797 4.9396 25.0013 5.17668C25.0444 5.43531 25.109 5.7155 25.1952 5.97413C25.497 6.79314 25.8849 7.33196 26.3591 7.71991C27.5445 8.68979 28.1911 8.68979 29.4627 8.79755C31.1223 8.94842 32.5447 10.0692 33.062 11.6425C33.4715 12.7848 33.1482 13.7331 33.8164 14.9401ZM16.6172 12.9788C16.6172 13.0219 16.6172 13.0866 16.6172 13.1297C16.7034 15.3281 18.5785 17.1169 20.8416 17.1169C21.2295 17.16 21.6175 17.2031 22.0054 17.3325C23.7081 17.8928 24.8719 19.4877 24.8504 21.2982C24.8504 22.3327 24.484 23.3888 23.665 24.2078C22.7382 25.1561 21.8761 25.3717 20.6476 25.5225C18.4061 25.5441 16.7034 27.2899 16.5957 29.4236C16.5957 29.4882 16.5957 29.5529 16.5957 29.6176C16.5957 29.6822 16.5957 29.7469 16.5957 29.8331V29.8546C16.531 30.9107 16.0784 31.8591 15.3887 32.5703C14.6344 33.3246 13.5998 33.7773 12.4575 33.7773C11.3152 33.7773 10.2807 33.3031 9.52634 32.5703C8.77199 31.816 8.31938 30.7814 8.31938 29.6391C8.31938 28.4968 8.79355 27.4623 9.52634 26.7079C9.72032 26.514 9.93585 26.3415 10.1729 26.1907C10.3669 26.0614 10.5609 25.9536 10.7549 25.8674C11.2506 25.6303 11.8109 25.501 12.3929 25.501C12.5006 25.4794 12.6084 25.4794 12.7377 25.4579C14.9145 25.3286 16.6388 23.5181 16.6388 21.3197C16.6388 19.5524 15.518 18.0222 13.9016 17.4187C13.449 17.2463 13.061 17.2031 12.6299 17.16C12.5653 17.16 12.5222 17.16 12.4575 17.16C11.3152 17.16 10.2807 16.6859 9.52634 15.9531C8.79355 15.2203 8.34094 14.2289 8.31938 13.1297V12.9572C8.31938 12.9788 8.31938 13.0003 8.31938 13.0435V13.0219C8.31938 11.8796 8.79355 10.8451 9.52634 10.0907C10.2807 9.33637 11.3152 8.88376 12.4575 8.88376C13.5998 8.88376 14.6344 9.35792 15.3887 10.0907C16.1431 10.802 16.6172 11.8365 16.6172 12.9788ZM7.09088 24.2509C6.27187 25.0699 5.21578 25.4579 4.15969 25.4579C1.85354 25.4579 0 23.6043 0 21.2982C0 19.0136 1.85354 17.1385 4.15969 17.1385C6.44429 17.1385 8.31938 18.992 8.31938 21.2982C8.29783 22.3758 7.88833 23.4319 7.09088 24.2509Z" fill="#F84263"/>
</svg>
