<svg width="186" height="39" viewBox="0 0 186 39" fill="none" xmlns="http://www.w3.org/2000/svg">
<path d="M54.3988 20.7129V16.6022H63.1306C62.8093 15.4304 62.1478 14.5137 61.1461 13.8522C60.1633 13.1718 58.9253 12.8316 57.4322 12.8316C56.4116 12.8316 55.3721 13.03 54.3137 13.4269C53.2742 13.8239 52.3953 14.4665 51.6771 15.3548L48.7854 12.5197C49.7304 11.2534 50.9873 10.3084 52.556 9.68473C54.1247 9.04212 55.8068 8.72082 57.6023 8.72082C60.7208 8.72082 63.1873 9.62803 65.0017 11.4424C66.8161 13.2568 67.7233 15.7044 67.7233 18.7851C67.7233 21.8092 66.7972 24.2756 64.945 26.1845C63.1117 28.0745 60.5885 29.0195 57.3755 29.0195C53.4443 29.0195 50.4959 27.602 48.5303 24.767L51.4503 22.2722C52.7166 24.0299 54.7295 24.9088 57.4889 24.9088C59.0198 24.9088 60.2956 24.5308 61.3162 23.7748C62.3557 23.0188 62.9794 21.9982 63.1873 20.7129H54.3988Z" fill="#4C6A3A"/>
<path d="M70.4175 28.7927V8.94762H74.8118V16.6872L82.438 8.94762H88.1647L79.5462 17.7362L88.7317 28.7927H82.9483L76.2293 20.6846L74.8118 22.1305V28.7927H70.4175Z" fill="#4C6A3A"/>
<path d="M88.03 18.8702C88.03 15.9974 89.0128 13.5687 90.9784 11.5842C92.963 9.59968 95.3916 8.60742 98.2644 8.60742C101.118 8.60742 103.528 9.59023 105.494 11.5558C107.478 13.5026 108.47 15.9407 108.47 18.8702C108.47 21.7808 107.478 24.2189 105.494 26.1845C103.528 28.1501 101.118 29.1329 98.2644 29.1329C95.4105 29.1329 92.9913 28.1596 91.0068 26.2129C89.0223 24.2473 88.03 21.7997 88.03 18.8702ZM94.2387 14.5326C93.1425 15.6477 92.5944 17.0936 92.5944 18.8702C92.5944 20.6468 93.1425 22.0927 94.2387 23.2078C95.3538 24.3229 96.6957 24.8804 98.2644 24.8804C99.8709 24.8804 101.213 24.3323 102.29 23.2361C103.367 22.121 103.906 20.6657 103.906 18.8702C103.906 17.0936 103.339 15.6477 102.205 14.5326C101.09 13.4175 99.7765 12.8599 98.2644 12.8599C96.6957 12.8599 95.3538 13.4175 94.2387 14.5326Z" fill="#4C6A3A"/>
<path d="M111.171 28.7927V8.94762H120.044C124.618 8.94762 126.905 10.6392 126.905 14.0223C126.905 15.7422 126.263 17.1597 124.977 18.2748C126.697 19.0875 127.557 20.6279 127.557 22.8959C127.557 24.8993 126.858 26.383 125.459 27.3469C124.061 28.3108 122.18 28.7927 119.818 28.7927H111.171ZM119.591 20.6562H115.565V24.682H119.364C120.668 24.682 121.594 24.5308 122.142 24.2284C122.69 23.9071 122.965 23.3779 122.965 22.6408C122.965 21.9415 122.709 21.4406 122.199 21.1382C121.689 20.8169 120.819 20.6562 119.591 20.6562ZM119.307 13.0584H115.565V16.6872H119.676C120.545 16.6872 121.207 16.5455 121.66 16.262C122.114 15.9596 122.341 15.5438 122.341 15.0146C122.341 14.3342 122.123 13.8428 121.689 13.5404C121.254 13.219 120.46 13.0584 119.307 13.0584Z" fill="#4C6A3A"/>
<path d="M128.542 13.0584V8.94762H145.665V13.0584H139.287V28.7927H134.892V13.0584H128.542Z" fill="#4C6A3A"/>
<path d="M145.533 18.8702C145.533 15.9974 146.516 13.5687 148.482 11.5842C150.466 9.59968 152.895 8.60742 155.768 8.60742C158.622 8.60742 161.031 9.59023 162.997 11.5558C164.981 13.5026 165.974 15.9407 165.974 18.8702C165.974 21.7808 164.981 24.2189 162.997 26.1845C161.031 28.1501 158.622 29.1329 155.768 29.1329C152.914 29.1329 150.495 28.1596 148.51 26.2129C146.526 24.2473 145.533 21.7997 145.533 18.8702ZM151.742 14.5326C150.646 15.6477 150.098 17.0936 150.098 18.8702C150.098 20.6468 150.646 22.0927 151.742 23.2078C152.857 24.3229 154.199 24.8804 155.768 24.8804C157.374 24.8804 158.716 24.3323 159.793 23.2361C160.871 22.121 161.409 20.6657 161.409 18.8702C161.409 17.0936 160.842 15.6477 159.708 14.5326C158.593 13.4175 157.28 12.8599 155.768 12.8599C154.199 12.8599 152.857 13.4175 151.742 14.5326Z" fill="#4C6A3A"/>
<path d="M173.068 28.7927H168.674V8.94762H176.896C178.502 8.94762 179.882 9.14607 181.035 9.54298C182.188 9.93988 183.057 10.4785 183.643 11.1589C184.248 11.8393 184.673 12.5575 184.919 13.3136C185.183 14.0696 185.316 14.8917 185.316 15.78C185.316 17.67 184.635 19.2765 183.274 20.5995C181.914 21.9037 179.787 22.5557 176.896 22.5557H173.068V28.7927ZM177.009 13.0584H173.068V18.4449H176.839C179.447 18.4449 180.751 17.5472 180.751 15.7517C180.751 13.9562 179.504 13.0584 177.009 13.0584Z" fill="#4C6A3A"/>
<path fill-rule="evenodd" clip-rule="evenodd" d="M13.0224 8.84409L15.2664 8.18793L15.8202 10.4595L16.2361 12.1656L18.2928 8.58989C18.6102 8.03808 19.1671 7.76206 19.7241 7.76206C20.2803 7.76206 20.8365 8.03733 21.1542 8.58811L26.0585 17.0899L22.8903 18.9197L31.9029 21.5535L34.1256 12.4309L30.9463 14.2671L24.6119 3.28623C23.5924 1.5178 21.765 0.461608 19.7238 0.460938H19.7219C17.6815 0.460938 15.8541 1.51601 14.8338 3.2831L11.3548 9.33171L13.0224 8.84409ZM37.996 26.4632L34.4873 20.3842L33.5197 24.3542L29.6 23.2087L31.6778 26.8088C32.3139 27.9096 31.5192 29.2852 30.2486 29.2852H20.4248V25.6201L13.6368 32.1072L20.4248 38.5944V34.9292H33.1078C35.1486 34.9292 36.9755 33.8746 37.9959 32.1072C39.0163 30.3398 39.0163 28.2298 37.996 26.4632ZM13.3557 34.9293H6.41554C4.38598 34.9293 2.4814 33.8785 1.46073 32.1242C0.430464 30.3536 0.427187 28.2357 1.45075 26.4628L7.80852 15.4549L4.63697 13.6238L13.6492 10.9887L15.8732 20.1111L12.6967 18.2771L7.7695 26.8081C7.13374 27.9088 7.92806 29.2849 9.1992 29.2849H13.3559L12.0932 30.4917L10.4032 32.1072L12.0932 33.7226L13.3557 34.9293Z" fill="#7BA562"/>
</svg>
