<svg width="38" height="39" viewBox="0 0 38 39" fill="none" xmlns="http://www.w3.org/2000/svg">
<path fill-rule="evenodd" clip-rule="evenodd" d="M34.8004 6.59479H32.635V3.54145C32.635 2.13516 31.4909 0.990967 30.0846 0.990967H8.84198C7.43569 0.990967 6.29156 2.13516 6.29156 3.54145V6.59479H4.12612C2.36843 6.59479 0.938477 8.0246 0.938477 9.78214V29.0927C0.938477 30.8503 2.36843 32.2801 4.12612 32.2801H15.6389L14.2862 35.8697H12.8662C12.2667 35.8697 11.7808 36.3557 11.7808 36.9551C11.7808 37.5546 12.2667 38.0406 12.8662 38.0406H26.0604C26.6599 38.0406 27.1458 37.5546 27.1458 36.9551C27.1458 36.3557 26.6599 35.8697 26.0604 35.8697H24.6404L23.2877 32.2801H34.8005C36.5582 32.2801 37.9881 30.8503 37.9881 29.0927V9.78214C37.9881 8.0246 36.5581 6.59479 34.8004 6.59479ZM34.8004 8.76566C35.3611 8.76566 35.8172 9.22162 35.8172 9.78214V23.6699H32.635V8.76566H34.8004ZM8.46244 6.9566H30.4642V23.6699H8.46244V6.9566ZM30.4641 3.54145V4.78573H13.3263V3.16184H30.0846C30.2938 3.16184 30.4641 3.33218 30.4641 3.54145ZM8.84198 3.16184H11.1554V4.78573H8.46244V3.54145C8.46244 3.33218 8.63271 3.16184 8.84198 3.16184ZM4.12612 8.76566H6.29149V23.6699H3.10935V9.78214C3.10935 9.22162 3.56545 8.76566 4.12612 8.76566ZM22.3205 35.8697H16.606L17.9588 32.2801H20.9677L22.3205 35.8697ZM34.8004 30.1092H4.12612C3.56545 30.1092 3.10935 29.6532 3.10935 29.0927V25.8407H35.8172V29.0927C35.8172 29.6532 35.3611 30.1092 34.8004 30.1092ZM20.3889 26.8289H18.5377C17.9382 26.8289 17.4522 27.3149 17.4522 27.9144C17.4522 28.5138 17.9382 28.9998 18.5377 28.9998H20.3889C20.9884 28.9998 21.4744 28.5138 21.4744 27.9144C21.4744 27.3149 20.9884 26.8289 20.3889 26.8289ZM18.7699 14.1924H10.9613C10.3619 14.1924 9.87589 13.7064 9.87589 13.107V9.48885C9.87589 8.8894 10.3619 8.40342 10.9613 8.40342H18.7699C19.3693 8.40342 19.8553 8.8894 19.8553 9.48885V13.107C19.8553 13.7064 19.3693 14.1924 18.7699 14.1924ZM17.6845 10.5743H12.0468V12.0215H17.6845V10.5743ZM22.4006 10.5743H27.9269C28.5263 10.5743 29.0123 10.0883 29.0123 9.48885C29.0123 8.8894 28.5263 8.40342 27.9269 8.40342H22.4006C21.8012 8.40342 21.3152 8.8894 21.3152 9.48885C21.3152 10.0883 21.8012 10.5743 22.4006 10.5743ZM27.9269 14.192H22.4006C21.8012 14.192 21.3152 13.706 21.3152 13.1065C21.3152 12.5071 21.8012 12.0211 22.4006 12.0211H27.9269C28.5263 12.0211 29.0123 12.5071 29.0123 13.1065C29.0123 13.706 28.5263 14.192 27.9269 14.192ZM10.9613 17.8101H27.9269C28.5263 17.8101 29.0123 17.3241 29.0123 16.7247C29.0123 16.1252 28.5263 15.6392 27.9269 15.6392H10.9613C10.3619 15.6392 9.87589 16.1252 9.87589 16.7247C9.87589 17.3241 10.3619 17.8101 10.9613 17.8101ZM10.9805 19.2574H27.9461C28.5455 19.2574 29.0314 19.7433 29.0314 20.3428C29.0314 20.9422 28.5454 21.4282 27.946 21.4282H10.9805C10.3811 21.4282 9.89507 20.9422 9.89507 20.3428C9.89507 19.7433 10.3811 19.2574 10.9805 19.2574Z" fill="#F84263"/>
</svg>
