<svg width="494" height="495" viewBox="0 0 494 495" fill="none" xmlns="http://www.w3.org/2000/svg">
<path fill-rule="evenodd" clip-rule="evenodd" d="M401.186 172.696C408.854 186.492 422.911 196.2 438.758 197.988L443.103 198.499C470.962 197.733 493.71 219.959 493.71 247.806C493.71 272.332 475.563 293.025 451.282 296.602C449.748 296.857 448.47 296.857 446.937 297.113C423.934 299.923 409.365 304.011 398.886 328.536C393.518 341.31 396.074 345.908 392.751 357.916C388.918 376.821 374.604 391.383 355.946 395.726C350.835 397.003 346.49 397.514 344.189 397.77C336.266 398.281 330.387 399.303 323.231 402.879C312.752 407.989 304.828 417.186 300.228 427.916C298.183 433.281 296.905 439.157 296.649 445.288C296.138 453.463 294.86 460.361 291.282 467.77C286.937 476.201 280.803 482.843 273.646 487.186L273.391 487.442C265.723 492.296 256.777 494.85 247.32 494.85C233.774 494.85 221.506 489.23 212.56 480.544C203.614 471.602 198.247 459.339 198.247 445.799C198.247 432.259 203.87 419.996 212.56 411.055C221.25 402.368 233.007 397.003 246.042 396.748C246.554 396.748 247.065 396.748 247.32 396.748C248.087 396.748 248.854 396.748 249.621 396.748C275.946 395.982 295.627 374.522 295.627 347.697C295.627 328.281 307.384 310.653 325.02 302.989C337.033 297.113 344.956 299.412 357.736 296.346C369.748 293.536 380.227 286.127 387.128 275.908C392.496 267.989 395.052 259.558 395.563 250.105C395.563 249.083 395.563 247.806 395.563 246.784C395.052 238.609 393.007 229.923 388.406 223.025C388.406 223.025 384.573 217.66 384.061 217.149C377.416 209.229 368.982 203.864 360.036 201.31C354.157 199.521 348.534 199.266 342.656 198.499C318.375 196.711 298.95 177.295 297.16 152.769L296.649 147.404C294.86 120.068 269.812 98.3531 246.298 99.6305C233.263 99.375 221.506 93.7545 212.816 85.3239C203.87 76.3822 198.502 64.1194 198.502 50.5793C198.502 37.0391 204.125 24.7763 212.816 15.8346C220.994 6.38206 233.263 0.761612 246.809 0.761612C260.355 0.761612 272.624 6.38206 281.569 15.0682C290.26 23.7544 295.627 35.5062 295.883 48.7909C296.138 51.6011 296.394 54.1559 296.649 56.9661C297.161 60.0318 297.927 63.353 298.95 66.4187C302.528 76.1268 307.129 82.5136 312.752 87.1122C326.809 98.6086 334.477 98.6086 349.557 99.8859C369.237 101.674 386.106 114.959 392.24 133.609C397.096 147.149 393.263 158.39 401.186 172.696ZM197.225 149.448C197.225 149.959 197.225 150.725 197.225 151.236C198.247 177.295 220.483 198.499 247.32 198.499C251.921 199.01 256.522 199.521 261.122 201.054C281.314 207.696 295.116 226.602 294.86 248.061C294.86 260.324 290.515 272.843 280.803 282.551C269.812 293.792 259.589 296.346 245.02 298.135C218.439 298.39 198.247 319.084 196.969 344.376C196.969 345.142 196.969 345.908 196.969 346.675C196.969 347.441 196.969 348.208 196.969 349.23V349.485C196.202 362.003 190.835 373.244 182.656 381.675C173.71 390.617 161.442 395.982 147.896 395.982C134.349 395.982 122.081 390.361 113.135 381.675C104.189 372.733 98.8221 360.471 98.8221 346.93C98.8221 333.39 104.445 321.127 113.135 312.186C115.435 309.886 117.991 307.843 120.803 306.054C123.103 304.521 125.404 303.244 127.704 302.222C133.582 299.412 140.228 297.879 147.129 297.879C148.407 297.624 149.685 297.624 151.218 297.368C177.033 295.835 197.48 274.375 197.48 248.317C197.48 227.368 184.189 209.229 165.02 202.076C159.653 200.032 155.052 199.521 149.94 199.01C149.173 199.01 148.662 199.01 147.896 199.01C134.349 199.01 122.081 193.39 113.135 184.704C104.445 176.018 99.0777 164.266 98.8221 151.236V149.193C98.8221 149.448 98.8221 149.704 98.8221 150.215V149.959C98.8221 136.419 104.445 124.156 113.135 115.214C122.081 106.273 134.349 100.908 147.896 100.908C161.442 100.908 173.71 106.528 182.656 115.214C191.602 123.645 197.225 135.908 197.225 149.448ZM84.2534 283.062C74.541 292.77 62.017 297.368 49.4931 297.368C22.1449 297.368 0.164062 275.397 0.164062 248.061C0.164062 220.981 22.1449 198.755 49.4931 198.755C76.5857 198.755 98.8221 220.726 98.8221 248.061C98.5665 260.835 93.7103 273.354 84.2534 283.062Z" fill="url(#paint0_linear_422_13446)"/>
<defs>
<linearGradient id="paint0_linear_422_13446" x1="246.937" y1="0.761612" x2="246.937" y2="494.85" gradientUnits="userSpaceOnUse">
<stop stop-color="#CED3D8"/>
<stop offset="1" stop-color="#CED3D8" stop-opacity="0"/>
</linearGradient>
</defs>
</svg>
