<svg width="39" height="38" viewBox="0 0 39 38" fill="none" xmlns="http://www.w3.org/2000/svg">
<path fill-rule="evenodd" clip-rule="evenodd" d="M34.5367 6.72299L37.8699 12.2784C37.9711 12.4472 38.0246 12.6402 38.0246 12.8369V15.7447C38.0246 17.3511 37.0705 18.7389 35.6993 19.3712V36.0898C35.6993 36.6893 35.2133 37.1753 34.6139 37.1753H4.38504C3.78557 37.1753 3.29958 36.6893 3.29958 36.0898V19.3707C1.92893 18.7381 0.975467 17.3507 0.975467 15.7447V12.8794C0.967218 12.672 1.01845 12.4628 1.12902 12.2784L4.46225 6.72307V3.53573C4.46225 1.63733 6.00201 0.125 7.87297 0.125H31.1259C32.9913 0.125 34.5367 1.63227 34.5367 3.53573V6.72299ZM31.8608 11.7515H35.022L32.8366 8.10912H30.4038L31.8608 11.7515ZM7.87297 2.29592C7.19464 2.29592 6.63316 2.84472 6.63316 3.5358H6.63309V5.93821H32.3657V3.5358C32.3657 2.84176 31.801 2.29592 31.1259 2.29592H7.87297ZM30.0405 13.9224H26.3981V15.7447C26.4975 18.1592 29.9408 18.1586 30.0405 15.7447V13.9224ZM25.4741 8.10912L26.2025 11.7515H29.5227L28.0658 8.10912H25.4741ZM24.2272 13.9224H20.5855V15.7447C20.6849 18.1588 24.1274 18.159 24.2272 15.7447V13.9224ZM20.5849 8.10912V11.7515H23.9886L23.2602 8.10912H20.5849ZM18.4146 15.7447V13.9224H14.7723V15.7447C14.8716 18.1592 18.3149 18.1587 18.4146 15.7447ZM15.7387 8.10912L15.0102 11.7515H18.414V8.10912H15.7387ZM10.9332 8.10912L9.47627 11.7515H12.7963L13.5248 8.10912H10.9332ZM12.6013 15.7447V13.9224H8.95959V15.7447C9.05895 18.1589 12.5015 18.1589 12.6013 15.7447ZM8.59509 8.10912H6.16229L3.9769 11.7515H7.13819L8.59509 8.10912ZM3.14638 13.9224V15.7447C3.24574 18.1592 6.6891 18.1586 6.78867 15.7447V13.9224H3.14638ZM22.9103 35.0044H28.8778V24.3862H22.9103V35.0044ZM31.0487 35.0044H33.5284H33.5286V19.7028C32.5864 19.5835 31.7457 19.1353 31.1257 18.4762C29.6176 20.1422 26.8211 20.1439 25.3125 18.4763C23.8045 20.1424 21.0082 20.1437 19.4998 18.4762C17.9917 20.1423 15.1952 20.1439 13.6866 18.4763C12.1786 20.1424 9.38234 20.1437 7.87392 18.4762C7.25383 19.1351 6.41289 19.5831 5.47057 19.7026V35.0044H20.7393V23.3008C20.7393 22.7013 21.2253 22.2153 21.8248 22.2153H29.9632C30.5627 22.2153 31.0487 22.7013 31.0487 23.3008V35.0044ZM32.2114 15.7447C32.3108 18.1592 35.7541 18.1587 35.8537 15.7447V13.9224H32.2114V15.7447ZM9.03564 22.2153H17.1742C17.7737 22.2153 18.2597 22.7012 18.2597 23.3008V31.4393C18.2597 32.0388 17.7737 32.5248 17.1742 32.5248H9.03564C8.43618 32.5248 7.95018 32.0388 7.95018 31.4393V23.3008C7.95018 22.7013 8.43618 22.2153 9.03564 22.2153ZM10.1211 30.3538H16.0887V24.3861H10.1211V30.3538Z" fill="#F84263"/>
</svg>
