<svg width="320" height="363" viewBox="0 0 320 363" fill="none" xmlns="http://www.w3.org/2000/svg">
<path fill-rule="evenodd" clip-rule="evenodd" d="M270.019 126.869C275.638 136.97 285.939 144.078 297.551 145.387L300.735 145.761C321.149 145.2 337.818 161.474 337.818 181.863C337.818 199.82 324.521 214.972 306.728 217.591C305.604 217.778 304.668 217.778 303.544 217.965C286.688 220.022 276.012 223.015 268.334 240.972C264.401 250.325 266.273 253.692 263.839 262.484C261.029 276.326 250.541 286.988 236.869 290.168C233.123 291.103 229.939 291.477 228.254 291.664C222.448 292.038 218.14 292.787 212.896 295.405C205.217 299.147 199.411 305.881 196.04 313.737C194.541 317.665 193.605 321.967 193.418 326.457C193.043 332.442 192.107 337.493 189.484 342.917C186.301 349.09 181.806 353.954 176.561 357.134L176.374 357.321C170.755 360.875 164.2 362.745 157.271 362.745C147.344 362.745 138.354 358.63 131.799 352.27C125.244 345.723 121.311 336.745 121.311 326.831C121.311 316.917 125.431 307.938 131.799 301.391C138.167 295.031 146.782 291.103 156.334 290.916C156.709 290.916 157.083 290.916 157.271 290.916C157.832 290.916 158.394 290.916 158.956 290.916C178.247 290.355 192.668 274.642 192.668 255.002C192.668 240.785 201.284 227.879 214.207 222.267C223.009 217.965 228.815 219.648 238.18 217.404C246.983 215.346 254.661 209.921 259.718 202.439C263.651 196.64 265.524 190.468 265.899 183.547C265.899 182.798 265.899 181.863 265.899 181.115C265.524 175.129 264.026 168.769 260.655 163.719C260.655 163.719 257.845 159.791 257.471 159.416C252.601 153.618 246.421 149.69 239.866 147.819C235.558 146.51 231.437 146.323 227.13 145.761C209.337 144.452 195.103 130.236 193.792 112.279L193.418 108.35C192.107 88.3356 173.752 72.4359 156.521 73.3712C146.97 73.1842 138.354 69.069 131.986 62.8961C125.431 56.3492 121.498 47.3706 121.498 37.4567C121.498 27.5428 125.619 18.5641 131.986 12.0172C137.98 5.09617 146.97 0.980957 156.896 0.980957C166.822 0.980957 175.812 5.09617 182.367 11.456C188.735 17.8159 192.668 26.4204 192.856 36.1473C193.043 38.2049 193.23 40.0754 193.418 42.133C193.792 44.3777 194.354 46.8094 195.103 49.0541C197.725 56.1622 201.096 60.8385 205.217 64.2055C215.518 72.623 221.136 72.623 232.187 73.5583C246.608 74.8677 258.969 84.5945 263.464 98.2495C267.023 108.163 264.213 116.394 270.019 126.869ZM120.562 109.847C120.562 110.221 120.562 110.782 120.562 111.156C121.311 130.236 137.605 145.761 157.271 145.761C160.642 146.136 164.013 146.51 167.384 147.632C182.18 152.495 192.294 166.338 192.107 182.05C192.107 191.029 188.923 200.194 181.806 207.303C173.752 215.533 166.261 217.404 155.585 218.713C136.107 218.9 121.311 234.051 120.374 252.57C120.374 253.131 120.374 253.692 120.374 254.253C120.374 254.814 120.374 255.376 120.374 256.124V256.311C119.813 265.477 115.88 273.707 109.886 279.88C103.331 286.427 94.3411 290.355 84.4148 290.355C74.4884 290.355 65.4985 286.24 58.9433 279.88C52.3882 273.333 48.4551 264.354 48.4551 254.44C48.4551 244.526 52.5755 235.548 58.9433 229.001C60.6289 227.317 62.5018 225.821 64.562 224.512C66.2476 223.389 67.9333 222.454 69.6189 221.706C73.9265 219.648 78.7961 218.526 83.8529 218.526C84.7894 218.339 85.7258 218.339 86.8495 218.152C105.766 217.029 120.749 201.317 120.749 182.237C120.749 166.899 111.01 153.618 96.9632 148.38C93.0301 146.884 89.6589 146.51 85.9131 146.136C85.3512 146.136 84.9766 146.136 84.4148 146.136C74.4884 146.136 65.4985 142.02 58.9433 135.661C52.5755 129.301 48.6424 120.696 48.4551 111.156V109.66C48.4551 109.847 48.4551 110.034 48.4551 110.408V110.221C48.4551 100.307 52.5755 91.3285 58.9433 84.7816C65.4985 78.2346 74.4884 74.3065 84.4148 74.3065C94.3411 74.3065 103.331 78.4217 109.886 84.7816C116.441 90.9544 120.562 99.933 120.562 109.847ZM37.7796 207.677C30.6625 214.785 21.4853 218.152 12.3081 218.152C-7.73193 218.152 -23.8389 202.065 -23.8389 182.05C-23.8389 162.222 -7.73193 145.949 12.3081 145.949C32.1609 145.949 48.4551 162.035 48.4551 182.05C48.2678 191.403 44.7093 200.569 37.7796 207.677Z" fill="url(#paint0_linear_140_1173)"/>
<defs>
<linearGradient id="paint0_linear_140_1173" x1="156.99" y1="0.980957" x2="156.99" y2="362.745" gradientUnits="userSpaceOnUse">
<stop stop-color="#DE3352"/>
<stop offset="1" stop-color="#DE3352" stop-opacity="0"/>
</linearGradient>
</defs>
</svg>
