<svg width="33" height="33" viewBox="0 0 33 33" fill="none" xmlns="http://www.w3.org/2000/svg">
<path d="M32.6474 1.13863L32.2833 0L31.246 0.594129C31.2343 0.600832 30.0011 1.27707 27.3529 1.71819C25.8289 1.97201 24.6877 2.62859 23.961 3.66957C23.4087 4.46087 23.2255 5.29263 23.177 5.91145L18.2279 10.8605V10.2567C19.1794 8.417 19.4022 6.63532 18.8891 4.95754C18.0056 2.06849 15.2381 0.614045 15.1208 0.553523L14.0599 0L13.7464 1.15352C13.7428 1.16621 13.368 2.444 11.902 4.49586C11.0445 5.6963 10.7176 6.91144 10.9303 8.10756C11.0902 9.00591 11.5209 9.68724 11.9038 10.1392V15.4722H10.6217L7.17041 10.1998H0V33H27.3933V15.4723H22.9196L27.7361 10.6558C29.8167 9.99662 31.3098 8.83801 32.1758 7.20895C33.6651 4.4073 32.6897 1.27076 32.6474 1.13863ZM13.8374 15.251V10.9831H16.2943V12.7941L13.8374 15.251ZM13.4754 5.61993C14.2812 4.492 14.7998 3.55652 15.1239 2.87906C15.8011 3.42201 16.6765 4.31971 17.0442 5.53678C17.3709 6.61798 17.243 7.7976 16.666 9.04948H13.5245C13.3546 8.87713 13.0971 8.56788 12.9392 8.14913C12.6479 7.37666 12.8283 6.52569 13.4754 5.61993ZM1.93359 12.1335H6.12517L8.31078 15.4722H1.93359V12.1335ZM25.4598 31.0664H1.93359V17.4059H25.4598V31.0664ZM16.3507 15.4723L20.5366 11.2864L22.4539 13.2036L20.1852 15.4723H16.3507ZM23.8211 11.8364L21.9039 9.91914L23.9385 7.88455L25.8557 9.80177L23.8211 11.8364ZM30.4616 6.31409C29.8859 7.38884 28.8857 8.18851 27.4864 8.69789L25.0946 6.30609C25.0942 6.04783 25.13 5.6051 25.3337 5.15277C25.7011 4.33647 26.4874 3.82259 27.6707 3.62549C29.1577 3.37779 30.2636 3.0554 31.0112 2.78734C31.1209 3.70947 31.1197 5.08567 30.4616 6.31409Z" fill="#F84263"/>
</svg>
