<svg width="39" height="31" viewBox="0 0 39 31" fill="none" xmlns="http://www.w3.org/2000/svg">
<path fill-rule="evenodd" clip-rule="evenodd" d="M4.5509 21.7085V19.4872C3.86591 19.4524 3.17827 19.4331 2.49586 19.433H0V10.3312H2.49586C3.17812 10.3312 3.86576 10.312 4.5509 10.2771V8.05577H15.8659C22.8948 5.60403 27.1577 2.09618 28.9671 0.607315C29.3093 0.325718 29.5637 0.116344 29.7325 0V29.7643C29.5656 29.6492 29.3133 29.4413 28.9734 29.1613C27.1721 27.677 22.9112 24.166 15.8659 21.7085H13.6527V30.8103H6.82634V21.7085H4.5509ZM9.10179 28.5349H11.3772V21.7085H9.10179V28.5349ZM15.9281 19.3267C20.0773 20.699 24.0114 22.6768 27.4571 25.1173V4.64707C24.0114 7.08757 20.0773 9.06531 15.9281 10.4376V19.3267ZM13.6527 10.3313H6.82634V19.4331H13.6527V10.3313ZM2.49586 12.6067H2.27545V17.1576H2.49586C3.17827 17.1576 3.86561 17.1762 4.5509 17.2092V12.5552C3.86545 12.5882 3.17812 12.6067 2.49586 12.6067ZM38.8361 13.7445H34.2852V16.02H38.8361V13.7445ZM31.8633 20.905L33.472 19.2963L36.6895 22.5138L35.0808 24.1225L31.8633 20.905ZM35.0847 5.64506L31.8672 8.86255L33.4759 10.4713L36.6934 7.25381L35.0847 5.64506Z" fill="#F84263"/>
</svg>
