<svg width="23" height="35" viewBox="0 0 23 35" fill="none" xmlns="http://www.w3.org/2000/svg">
<path fill-rule="evenodd" clip-rule="evenodd" d="M18.5853 0H3.71705C1.66747 0 0 1.66747 0 3.71705V30.8853C0 32.9349 1.66747 34.6024 3.71705 34.6024H18.5853C20.6348 34.6024 22.3023 32.9349 22.3023 30.8853V3.71705C22.3023 1.66747 20.6348 0 18.5853 0ZM7.23135 2.02748H15.0709V3.04122C15.0709 3.22755 14.9194 3.37914 14.733 3.37914H7.56927C7.38294 3.37914 7.23135 3.22755 7.23135 3.04122V2.02748ZM20.2748 30.8853C20.2748 31.8169 19.5169 32.5749 18.5853 32.5749H3.71705C2.78542 32.5749 2.02748 31.8169 2.02748 30.8853V3.71705C2.02748 2.78542 2.78542 2.02748 3.71705 2.02748H5.20387V3.04122C5.20387 4.3455 6.26499 5.40662 7.56927 5.40662H14.733C16.0373 5.40662 17.0984 4.3455 17.0984 3.04122V2.02748H18.5853C19.5169 2.02748 20.2748 2.78542 20.2748 3.71705V30.8853ZM5.73607 12.8881C5.82048 12.7732 5.86279 12.6212 5.86279 12.4319V10.8707H6.42035V9.3501H4.37259C4.33211 9.3501 4.28304 9.37037 4.22566 9.41092C4.16815 9.45147 4.13949 9.53257 4.13949 9.65422V11.7729C4.13949 11.8676 4.12084 11.9605 4.08374 12.0517C4.0465 12.143 3.99919 12.2241 3.94182 12.295C3.8843 12.366 3.81841 12.4234 3.74414 12.4674C3.66966 12.5113 3.59877 12.5332 3.53125 12.5332V13.8511C3.67324 13.885 3.81003 13.9694 3.94182 14.1045C4.0736 14.2398 4.13949 14.4155 4.13949 14.6317V16.8619C4.13949 16.9902 4.16822 17.0731 4.22566 17.1103C4.28304 17.1473 4.33211 17.166 4.37266 17.166H6.42035V15.6454H5.86279V13.9728C5.86279 13.7903 5.81879 13.64 5.731 13.5216C5.64308 13.4034 5.54859 13.297 5.44722 13.2023C5.55522 13.1078 5.65152 13.0031 5.73607 12.8881ZM18.3613 12.295C18.4187 12.366 18.483 12.4235 18.554 12.4674C18.625 12.5113 18.6975 12.5332 18.772 12.5332V13.8511C18.6301 13.885 18.4932 13.9694 18.3614 14.1045C18.2296 14.2398 18.1637 14.4155 18.1637 14.6317V16.8619C18.1637 16.9902 18.1349 17.073 18.0776 17.1103C18.0201 17.1474 17.9712 17.166 17.9306 17.166H15.8828V15.6454H16.4404V13.9728C16.4404 13.7903 16.4842 13.6399 16.5722 13.5216C16.6599 13.4035 16.7546 13.297 16.856 13.2023C16.7478 13.1077 16.6515 13.0031 16.5671 12.8881C16.4825 12.7732 16.4404 12.6212 16.4404 12.4319V10.8707H15.8828V9.3501H17.9305C17.9711 9.3501 18.02 9.37037 18.0775 9.41092C18.1348 9.45147 18.1637 9.53257 18.1637 9.65422V11.7729C18.1637 11.8676 18.1822 11.9605 18.2194 12.0517C18.2565 12.143 18.3038 12.2241 18.3613 12.295ZM14.6653 12.2324H7.63672V14.2599H14.6653V12.2324ZM7.63672 8.17749H13.3137V10.205H7.63672V8.17749ZM11.962 16.2875H7.63672V18.315H11.962V16.2875ZM14.1409 25.5317C14.1743 25.7119 14.1926 25.8974 14.1926 26.0871C14.1926 26.2768 14.1743 26.4622 14.1409 26.6425L15.17 27.2366L14.1563 28.9924L13.1257 28.3974C12.8449 28.6377 12.5202 28.8279 12.1652 28.9538V30.1419H10.1377V28.9537C9.7826 28.8278 9.45793 28.6376 9.17712 28.3973L8.14655 28.9923L7.13281 27.2365L8.16196 26.6423C8.12851 26.4622 8.11019 26.2767 8.11019 26.0869C8.11019 25.8972 8.12851 25.7117 8.16196 25.5314L7.13281 24.9373L8.14655 23.1815L9.17712 23.7765C9.45793 23.5362 9.7826 23.346 10.1377 23.2201V22.032H12.1652V23.2202C12.5202 23.3461 12.8449 23.5362 13.1257 23.7766L14.1563 23.1816L15.17 24.9376L14.1409 25.5317ZM10.1377 26.0869C10.1377 26.6459 10.5924 27.1007 11.1514 27.1007C11.7104 27.1007 12.1652 26.6459 12.1652 26.0869C12.1652 25.528 11.7104 25.0732 11.1514 25.0732C10.5924 25.0732 10.1377 25.528 10.1377 26.0869Z" fill="#F84263"/>
</svg>
