<svg width="30" height="30" viewBox="0 0 30 30" fill="none" xmlns="http://www.w3.org/2000/svg">
<path fill-rule="evenodd" clip-rule="evenodd" d="M0 0H6.88469V22.3752H29.3747V29.3747H0V0ZM5.16352 3.44234V1.72117H1.72117V26.4036L5.16352 22.8849V22.3752H3.44234V20.6541H5.16352V18.9329H3.44234V17.2117H5.16352V15.4905H3.44234V13.7694H5.16352V12.0482H3.44234V10.327H5.16352V8.60586H3.44234V6.88469H5.16352V5.16352H3.44234V3.44234H5.16352ZM2.90627 27.6535H27.6535V24.0964H25.875V25.9323H24.1538V24.0964H22.4326V25.9323H20.7114V24.0964H18.9903V25.9323H17.2691V24.0964H15.5479V25.9323H13.8267V24.0964H12.0482V25.9323H10.327V24.0964H8.60586V25.9323H6.88469V24.0964H6.38604L2.90627 27.6535ZM29.3743 10.327H8.60547V0H29.3743V10.327ZM27.6531 2.19382L21.0799 5.16352L27.6531 8.13321V2.19382ZM13.4611 8.60586H24.5187L18.9899 6.10792L13.4611 8.60586ZM13.4611 1.72117L18.9899 4.21911L24.5187 1.72117H13.4611ZM10.3266 8.13321L16.8998 5.16352L10.3266 2.19382V8.13321ZM8.60547 12.0482V20.6541H20.711V12.0482H8.60547ZM18.9899 18.9329H10.3266V13.7694H18.9899V18.9329ZM29.3757 20.6541H22.4336V12.0482H29.3757V20.6541ZM27.6545 13.7694H24.1548V18.9329H27.6545V13.7694Z" fill="#F84263"/>
</svg>
