<svg width="32" height="34" viewBox="0 0 32 34" fill="none" xmlns="http://www.w3.org/2000/svg">
<path fill-rule="evenodd" clip-rule="evenodd" d="M26.9259 6.19298C27.4076 6.4666 27.9637 6.6238 28.5562 6.6238C30.3824 6.6238 31.8681 5.13808 31.8681 3.31193C31.8681 1.48572 30.3824 0 28.5562 0C26.73 0 25.2443 1.48572 25.2443 3.31193C25.2443 3.82059 25.3599 4.30268 25.5656 4.73376L21.9906 7.44123C21.4622 7.08428 20.8257 6.87568 20.1415 6.87568C19.4736 6.87568 18.8518 7.07503 18.331 7.41638L14.826 4.54848C14.963 4.18552 15.0385 3.7927 15.0385 3.38237C15.0385 1.55622 13.5528 0.0705032 11.7267 0.0705032C9.90051 0.0705032 8.41479 1.55622 8.41479 3.38237C8.41479 3.84523 8.5106 4.28609 8.68286 4.68658L4.10405 9.50346C3.85006 9.44089 3.58489 9.40699 3.31187 9.40699C1.48572 9.40699 0 10.8927 0 12.7189C0 14.545 1.48572 16.0307 3.31187 16.0307C5.13801 16.0307 6.62373 14.545 6.62373 12.7189C6.62373 11.8992 6.32375 11.1487 5.82864 10.5697L9.98476 6.19754C10.4912 6.51206 11.0879 6.6943 11.7267 6.6943C12.4221 6.6943 13.0678 6.47836 13.6012 6.11072L17.0706 8.94935C16.9157 9.33212 16.8295 9.74986 16.8295 10.1875C16.8295 12.0137 18.3152 13.4994 20.1414 13.4994C21.9675 13.4994 23.4533 12.0137 23.4533 10.1875C23.4533 9.76624 23.3734 9.36351 23.2293 8.99256L26.9259 6.19298ZM28.5562 1.98453C29.2881 1.98453 29.8836 2.57994 29.8836 3.31193C29.8836 4.04379 29.2882 4.6392 28.5562 4.6392C27.8243 4.6392 27.2288 4.04379 27.2288 3.31193C27.2289 2.58001 27.8243 1.98453 28.5562 1.98453ZM3.31187 14.0462C2.58001 14.0462 1.98453 13.4508 1.98453 12.7189C1.98453 11.9869 2.57994 11.3915 3.31187 11.3915C4.04373 11.3915 4.6392 11.9869 4.6392 12.7189C4.6392 13.4508 4.04373 14.0462 3.31187 14.0462ZM11.7267 4.70971C10.9948 4.70971 10.3993 4.11429 10.3993 3.38237C10.3993 2.65044 10.9947 2.0551 11.7267 2.0551C12.4586 2.0551 13.054 2.65051 13.054 3.38237C13.054 4.11423 12.4585 4.70971 11.7267 4.70971ZM20.1415 11.5148C19.4096 11.5148 18.8141 10.9193 18.8141 10.1875C18.8141 9.45562 19.4095 8.86014 20.1415 8.86014C20.8734 8.86014 21.4688 9.45555 21.4688 10.1875C21.4688 10.9194 20.8733 11.5148 20.1415 11.5148ZM28.4989 12.7946C26.7139 12.7946 25.2617 14.2468 25.2617 16.0317V33.8309H31.7361V16.0317C31.7361 14.2468 30.2838 12.7946 28.4989 12.7946ZM29.7514 31.8463H27.2463V16.0317C27.2463 15.3411 27.8082 14.7792 28.4988 14.7792C29.1895 14.7792 29.7514 15.3411 29.7514 16.0317V31.8463ZM16.9062 24.1399C16.9062 22.3549 18.3585 20.9027 20.1434 20.9027C21.9284 20.9027 23.3806 22.3549 23.3806 24.1398V33.831H16.9062V24.1399ZM18.8908 31.8464H21.3959V24.1398C21.3959 23.4492 20.834 22.8872 20.1433 22.8872C19.4527 22.8872 18.8908 23.4492 18.8908 24.1398V31.8464ZM11.6747 15.4408C9.88972 15.4408 8.4375 16.893 8.4375 18.678V33.831H14.9119V18.678C14.9119 16.893 13.4597 15.4408 11.6747 15.4408ZM10.4221 31.8464V18.678C10.4221 17.9873 10.984 17.4254 11.6747 17.4254C12.3654 17.4254 12.9273 17.9873 12.9273 18.678V31.8464H10.4221ZM0.0820312 27.1123C0.0820312 25.3273 1.53425 23.8751 3.31923 23.8751C5.10415 23.8751 6.55637 25.3273 6.55637 27.1123V33.831H0.0820312V27.1123ZM2.06663 31.8464H4.57177V27.1123C4.57177 26.4216 4.00986 25.8597 3.31923 25.8597C2.62854 25.8597 2.06663 26.4216 2.06663 27.1123V31.8464Z" fill="#F84263"/>
</svg>
