<svg width="349" height="475" viewBox="0 0 349 475" fill="none" xmlns="http://www.w3.org/2000/svg">
<path fill-rule="evenodd" clip-rule="evenodd" d="M385.985 165.106C393.365 178.373 406.895 187.709 422.147 189.429L426.329 189.92C453.143 189.183 475.037 210.558 475.037 237.339C475.037 260.925 457.571 280.826 434.201 284.266C432.725 284.511 431.495 284.511 430.019 284.757C407.879 287.46 393.857 291.391 383.771 314.977C378.605 327.261 381.065 331.684 377.867 343.231C374.178 361.412 360.402 375.417 342.444 379.594C337.524 380.822 333.342 381.313 331.128 381.559C323.502 382.05 317.844 383.033 310.956 386.473C300.87 391.387 293.244 400.231 288.816 410.55C286.848 415.71 285.618 421.361 285.372 427.257C284.88 435.12 283.65 441.753 280.206 448.878C276.024 456.986 270.12 463.374 263.232 467.551L262.986 467.796C255.606 472.464 246.996 474.921 237.894 474.921C224.856 474.921 213.048 469.516 204.438 461.163C195.828 452.564 190.662 440.77 190.662 427.749C190.662 414.727 196.074 402.934 204.438 394.335C212.802 385.981 224.118 380.822 236.664 380.576C237.156 380.576 237.648 380.576 237.894 380.576C238.632 380.576 239.37 380.576 240.108 380.576C265.446 379.839 284.388 359.201 284.388 333.404C284.388 314.731 295.704 297.779 312.678 290.408C324.24 284.757 331.866 286.968 344.166 284.02C355.728 281.317 365.814 274.192 372.456 264.365C377.621 256.748 380.081 248.64 380.573 239.55C380.573 238.567 380.573 237.339 380.573 236.356C380.081 228.494 378.113 220.14 373.685 213.507C373.685 213.507 369.996 208.347 369.504 207.856C363.108 200.239 354.99 195.08 346.38 192.623C340.722 190.903 335.31 190.658 329.652 189.92C306.282 188.201 287.586 169.528 285.864 145.942L285.372 140.782C283.65 114.494 259.542 93.6098 236.91 94.8383C224.364 94.5926 213.048 89.1874 204.684 81.0796C196.074 72.4805 190.908 60.6873 190.908 47.6657C190.908 34.6441 196.32 22.851 204.684 14.2518C212.556 5.16129 224.364 -0.243896 237.402 -0.243896C250.44 -0.243896 262.248 5.16129 270.858 13.5148C279.222 21.8682 284.388 33.17 284.634 45.9459C284.88 48.6485 285.126 51.1054 285.372 53.808C285.864 56.7563 286.602 59.9503 287.586 62.8985C291.03 72.2348 295.458 78.377 300.87 82.7995C314.4 93.8555 321.78 93.8555 336.294 95.084C355.236 96.8038 371.471 109.58 377.375 127.515C382.049 140.537 378.359 151.347 385.985 165.106ZM189.678 142.748C189.678 143.239 189.678 143.976 189.678 144.468C190.662 169.528 212.064 189.92 237.894 189.92C242.322 190.412 246.75 190.903 251.178 192.377C270.612 198.765 283.896 216.946 283.65 237.584C283.65 249.378 279.468 261.416 270.12 270.753C259.542 281.563 249.702 284.02 235.68 285.74C210.096 285.985 190.662 305.886 189.432 330.21C189.432 330.947 189.432 331.684 189.432 332.421C189.432 333.158 189.432 333.895 189.432 334.878V335.124C188.694 347.162 183.528 357.973 175.656 366.081C167.046 374.68 155.238 379.839 142.2 379.839C129.162 379.839 117.354 374.434 108.744 366.081C100.134 357.481 94.9684 345.688 94.9684 332.667C94.9684 319.645 100.38 307.852 108.744 299.253C110.958 297.042 113.418 295.076 116.124 293.356C118.338 291.882 120.552 290.654 122.766 289.671C128.424 286.968 134.82 285.494 141.462 285.494C142.692 285.248 143.922 285.248 145.398 285.003C170.244 283.529 189.924 262.891 189.924 237.83C189.924 217.684 177.132 200.239 158.682 193.36C153.516 191.395 149.088 190.903 144.168 190.412C143.43 190.412 142.938 190.412 142.2 190.412C129.162 190.412 117.354 185.007 108.744 176.653C100.38 168.3 95.2144 156.998 94.9684 144.468V142.502C94.9684 142.748 94.9684 142.994 94.9684 143.485V143.239C94.9684 130.218 100.38 118.425 108.744 109.825C117.354 101.226 129.162 96.0667 142.2 96.0667C155.238 96.0667 167.046 101.472 175.656 109.825C184.266 117.933 189.678 129.726 189.678 142.748ZM80.9464 271.244C71.5985 280.58 59.5445 285.003 47.4905 285.003C21.1686 285.003 0.0126953 263.873 0.0126953 237.584C0.0126953 211.541 21.1686 190.166 47.4905 190.166C73.5665 190.166 94.9684 211.296 94.9684 237.584C94.7224 249.869 90.0484 261.908 80.9464 271.244Z" fill="url(#paint0_linear_92_1420)"/>
<defs>
<linearGradient id="paint0_linear_92_1420" x1="237.525" y1="-0.243896" x2="237.525" y2="474.921" gradientUnits="userSpaceOnUse">
<stop stop-color="#DE3352"/>
<stop offset="1" stop-color="#DE3352" stop-opacity="0"/>
</linearGradient>
</defs>
</svg>
