<svg width="68" height="68" viewBox="0 0 68 68" fill="none" xmlns="http://www.w3.org/2000/svg">
<g clip-path="url(#clip0_60_516)">
<path d="M30.7778 51.5186C30.2327 51.5186 29.791 51.9602 29.791 52.5053V60.0624C29.791 60.6075 30.2327 61.0492 30.7778 61.0492C31.3229 61.0492 31.7646 60.6075 31.7646 60.0624V52.5053C31.7646 51.9602 31.3229 51.5186 30.7778 51.5186Z" fill="#F84263"/>
<path d="M22.7915 51.5186C22.2464 51.5186 21.8047 51.9602 21.8047 52.5053V60.0624C21.8047 60.6075 22.2464 61.0492 22.7915 61.0492C23.3366 61.0492 23.7783 60.6075 23.7783 60.0624V52.5053C23.7783 51.9602 23.3366 51.5186 22.7915 51.5186Z" fill="#F84263"/>
<path d="M26.7846 51.9932C26.2395 51.9932 25.7979 52.4349 25.7979 52.98V64.8426C25.7979 65.3877 26.2395 65.8293 26.7846 65.8293C27.3298 65.8293 27.7714 65.3877 27.7714 64.8426V52.98C27.7714 52.435 27.3296 51.9932 26.7846 51.9932Z" fill="#F84263"/>
<path d="M52.7563 24.7509H60.3133C60.8584 24.7509 61.3001 24.3092 61.3001 23.7641C61.3001 23.219 60.8584 22.7773 60.3133 22.7773H52.7563C52.2112 22.7773 51.7695 23.219 51.7695 23.7641C51.7695 24.3092 52.2112 24.7509 52.7563 24.7509Z" fill="#F84263"/>
<path d="M60.3133 30.7637H52.7563C52.2112 30.7637 51.7695 31.2054 51.7695 31.7505C51.7695 32.2956 52.2112 32.7373 52.7563 32.7373H60.3133C60.8584 32.7373 61.3001 32.2956 61.3001 31.7505C61.3001 31.2054 60.8584 30.7637 60.3133 30.7637Z" fill="#F84263"/>
<path d="M65.1588 26.7705H53.0591C52.514 26.7705 52.0723 27.2122 52.0723 27.7573C52.0723 28.3024 52.514 28.7441 53.0591 28.7441H65.1588C65.7039 28.7441 66.1455 28.3024 66.1455 27.7573C66.1455 27.2122 65.7039 26.7705 65.1588 26.7705Z" fill="#F84263"/>
<path d="M61.9057 67.6456L48.2958 54.0357C47.9782 53.7181 47.9782 53.2031 48.2958 52.8857L52.8964 48.2851C53.214 47.9675 53.729 47.9675 54.0465 48.2851L67.6564 61.895C67.974 62.2126 67.974 62.7276 67.6564 63.045L63.0558 67.6456C62.7382 67.9631 62.2233 67.9631 61.9057 67.6456Z" fill="#CDBFBA"/>
<path d="M52.8967 48.2851L50.0215 51.1603C50.3391 50.8427 50.8541 50.8427 51.1716 51.1603L64.7814 64.7702C65.0991 65.0878 65.0991 65.6028 64.7814 65.9203L67.6567 63.045C67.9743 62.7274 67.9743 62.2126 67.6567 61.895L54.0468 48.2851C53.7292 47.9675 53.2142 47.9675 52.8967 48.2851Z" fill="#B7A49D"/>
<path d="M42.8818 45.7559L45.7567 42.881L52.0228 49.1472L49.148 52.022L42.8818 45.7559Z" fill="#4380A0"/>
<path d="M50.8242 56.5752L56.574 50.8254L59.4488 53.7003L53.6991 59.45L50.8242 56.5752Z" fill="#F85976"/>
<path d="M53.6992 53.7002L56.5741 50.8254L59.4489 53.7002L56.5741 56.575L53.6992 53.7002Z" fill="#F84263"/>
<path d="M26.9603 53.3805C41.5577 53.3805 53.3912 41.5469 53.3912 26.9495C53.3912 12.3521 41.5577 0.518555 26.9603 0.518555C12.3628 0.518555 0.529297 12.3521 0.529297 26.9495C0.529297 41.5469 12.3628 53.3805 26.9603 53.3805Z" fill="#4D8384"/>
<path d="M26.9599 0.518555C26.2759 0.518555 25.5978 0.544606 24.9268 0.595656C38.5743 1.6339 49.3247 13.0362 49.3247 26.9497C49.3247 40.8631 38.5743 52.2654 24.9268 53.3037C25.5978 53.3547 26.2758 53.3808 26.9599 53.3808C41.5574 53.3808 53.3909 41.5472 53.3909 26.9498C53.3909 12.3523 41.5574 0.518555 26.9599 0.518555V0.518555Z" fill="#3A7190"/>
<path d="M26.9604 49.3144C39.3121 49.3144 49.3251 39.3014 49.3251 26.9497C49.3251 14.598 39.3121 4.58496 26.9604 4.58496C14.6087 4.58496 4.5957 14.598 4.5957 26.9497C4.5957 39.3014 14.6087 49.3144 26.9604 49.3144Z" fill="#F3F3F3"/>
<path d="M26.9599 4.58496C26.2745 4.58496 25.5967 4.61772 24.9268 4.67838C36.3094 5.70912 45.2583 15.3031 45.2583 26.9497C45.2583 38.5962 36.3094 48.1902 24.9268 49.221C25.5967 49.2816 26.2745 49.3144 26.9599 49.3144C39.2919 49.3144 49.3247 39.2816 49.3247 26.9497C49.3247 14.6178 39.292 4.58496 26.9599 4.58496Z" fill="#E4E4E4"/>
<path d="M23.2332 27.4242H15.1006V15.4963C15.1006 15.1969 15.3433 14.9541 15.6428 14.9541H22.691C22.9905 14.9541 23.2332 15.1969 23.2332 15.4963V27.4242Z" fill="#4D8384"/>
<path d="M19.167 14.9541V27.4242H23.2332V15.4963C23.2332 15.1969 22.9905 14.9541 22.691 14.9541H19.167Z" fill="#38696A"/>
<path d="M39.4988 27.4249H31.3662V20.6477C31.3662 20.3482 31.609 20.1055 31.9084 20.1055H38.9566C39.2561 20.1055 39.4988 20.3482 39.4988 20.6477V27.4249Z" fill="#F84263"/>
<path d="M35.4326 20.1055V27.4249H39.4989V20.6477C39.4989 20.3482 39.2561 20.1055 38.9567 20.1055H35.4326Z" fill="#D92B4B"/>
<path d="M31.366 27.4244H23.2334V10.3459C23.2334 10.0465 23.4762 9.80371 23.7756 9.80371H30.8238C31.1233 9.80371 31.366 10.0465 31.366 10.3459V27.4244Z" fill="#CDBFBA"/>
<path d="M27.2998 9.80371V27.4244H31.3661V10.3459C31.3661 10.0465 31.1233 9.80371 30.8238 9.80371H27.2998Z" fill="#BCAFAA"/>
<path d="M41.8754 26.4375H12.7231C12.178 26.4375 11.7363 26.8792 11.7363 27.4243C11.7363 27.9694 12.178 28.4111 12.7231 28.4111H41.8754C42.4205 28.4111 42.8622 27.9694 42.8622 27.4243C42.8622 26.8792 42.4205 26.4375 41.8754 26.4375Z" fill="#4D8384"/>
<path d="M38.6848 37.0849H33.8786L31.6972 31.5082C31.5481 31.1271 31.1764 30.8776 30.7694 30.8809C30.36 30.8846 29.9953 31.1407 29.8529 31.5247L26.8532 39.6136L24.7493 33.6505C24.6204 33.2847 24.2891 33.0284 23.9025 32.9955C23.5154 32.9615 23.1462 33.1589 22.957 33.4976L20.9542 37.0848H16.1636C15.6184 37.0848 15.1768 37.5265 15.1768 38.0716C15.1768 38.6167 15.6184 39.0584 16.1636 39.0584H21.5334C21.891 39.0584 22.2208 38.8649 22.3951 38.5526L23.6149 36.3676L25.8993 42.8423C26.0374 43.2342 26.4064 43.4974 26.822 43.5008H26.83C27.2422 43.5008 27.6116 43.2442 27.7551 42.857L30.8026 34.6393L32.2858 38.4311C32.4338 38.8093 32.7984 39.0584 33.2047 39.0584H38.6845C39.2296 39.0584 39.6712 38.6167 39.6712 38.0716C39.6712 37.5265 39.23 37.0849 38.6848 37.0849Z" fill="#CDBFBA"/>
</g>
<defs>
<clipPath id="clip0_60_516">
<rect width="67.3652" height="67.3652" fill="white" transform="translate(0.529297 0.518555)"/>
</clipPath>
</defs>
</svg>
