<svg width="41" height="31" viewBox="0 0 41 31" fill="none" xmlns="http://www.w3.org/2000/svg">
<path fill-rule="evenodd" clip-rule="evenodd" d="M39.5396 24.5539L30.5404 15.5525C32.2289 11.719 31.5064 7.07088 28.3716 3.93527C24.2872 -0.150023 17.6761 -0.150573 13.5913 3.93527C9.5165 8.01097 9.5165 14.6426 13.5913 18.7183C16.8293 21.9571 21.5746 22.5737 25.3629 20.8225L34.3162 29.7778C35.7597 31.2216 38.0964 31.2218 39.5399 29.7775C40.9795 28.3373 40.9793 25.994 39.5396 24.5539ZM15.2587 17.0512C12.103 13.8948 12.103 8.7589 15.2587 5.60238C18.4214 2.43887 23.5408 2.43832 26.7041 5.60238C29.8598 8.7589 29.8598 13.8948 26.7041 17.0512C23.5413 20.2148 18.4219 20.2153 15.2587 17.0512ZM37.8723 28.1106C37.3504 28.6328 36.5056 28.633 35.9836 28.1107L27.4296 19.5547C28.1327 19.0012 28.7594 18.3657 29.3035 17.6503L37.8721 26.2209C38.393 26.742 38.393 27.5896 37.8723 28.1106ZM1.55883 14.9981H6.58603C7.23712 14.9981 7.76498 14.4703 7.76498 13.8192C7.76498 13.1681 7.23712 12.6402 6.58603 12.6402H1.55883C0.907737 12.6402 0.379883 13.1681 0.379883 13.8192C0.379883 14.4703 0.907737 14.9981 1.55883 14.9981ZM8.47125 20.0283H1.55883C0.907737 20.0283 0.379883 19.5005 0.379883 18.8494C0.379883 18.1983 0.907737 17.6704 1.55883 17.6704H8.47125C9.12234 17.6704 9.6502 18.1983 9.6502 18.8494C9.6502 19.5005 9.12234 20.0283 8.47125 20.0283ZM1.55883 25.0585H13.4985C14.1496 25.0585 14.6775 24.5306 14.6775 23.8795C14.6775 23.2285 14.1496 22.7006 13.4985 22.7006H1.55883C0.907737 22.7006 0.379883 23.2285 0.379883 23.8795C0.379883 24.5306 0.907737 25.0585 1.55883 25.0585ZM1.55883 27.7308H27.3235C27.9746 27.7308 28.5024 28.2586 28.5024 28.9097C28.5024 29.5608 27.9746 30.0887 27.3235 30.0887H1.55883C0.907737 30.0887 0.379883 29.5608 0.379883 28.9097C0.379883 28.2586 0.907737 27.7308 1.55883 27.7308Z" fill="#F84263"/>
</svg>
