<svg width="69" height="69" viewBox="0 0 69 69" fill="none" xmlns="http://www.w3.org/2000/svg">
<path fill-rule="evenodd" clip-rule="evenodd" d="M22.0917 37.1241H6.92253C6.37206 37.1241 5.92578 36.6778 5.92578 36.1273V31.832C5.92578 31.2816 6.37206 30.8353 6.92253 30.8353H13.3084C13.8588 30.8353 14.3051 31.2816 14.3051 31.832C14.3051 32.3825 13.8588 32.8288 13.3084 32.8288H7.91928V35.1306H22.0917C22.4143 35.1306 22.7238 34.9946 22.941 34.7575L35.5932 20.9544C35.782 20.7484 36.0485 20.6312 36.328 20.6312H45.1831C45.4909 20.6312 45.7802 20.5116 45.9973 20.2945L57.9037 8.38809C58.1887 8.10302 58.6177 8.01796 58.9899 8.172C59.3624 8.32629 59.6052 8.68977 59.6052 9.09286V13.6513H61.9071V3.90711C61.9071 3.27251 61.3907 2.75619 60.7561 2.75619H51.0133V5.05948H55.5704C55.9735 5.05948 56.337 5.30229 56.4913 5.67481C56.6456 6.04719 56.5602 6.47593 56.2752 6.761L44.9986 18.0375C44.8117 18.2245 44.5582 18.3295 44.2938 18.3295H35.3829C35.0611 18.3295 34.7522 18.4655 34.535 18.7024L21.8815 32.5056C21.6928 32.7116 21.4262 32.8288 21.1468 32.8288H17.9599C17.4094 32.8288 16.9631 32.3825 16.9631 31.832C16.9631 31.2816 17.4094 30.8353 17.9599 30.8353H20.7084L33.0655 17.3554C33.6591 16.7076 34.5039 16.3359 35.383 16.3359H43.8812L53.1642 7.05285H50.0166C49.4662 7.05285 49.0199 6.60657 49.0199 6.0561V1.75944C49.0199 1.20897 49.4662 0.762695 50.0166 0.762695H60.7563C62.4901 0.762695 63.9007 2.17329 63.9007 3.90711V14.6479C63.9007 15.1984 63.4544 15.6447 62.9039 15.6447H58.6086C58.0581 15.6447 57.6119 15.1984 57.6119 14.6479V11.4991L47.4069 21.7041C46.8132 22.2978 46.0234 22.6247 45.1831 22.6247H36.7664L24.4107 36.1045C23.817 36.7524 22.9718 37.1241 22.0917 37.1241ZM63.8997 62.5171H68.005C68.5555 62.5171 69.0018 62.9634 69.0018 63.5139V67.8105C69.0018 68.361 68.5555 68.8073 68.005 68.8073H17.3702C16.8197 68.8073 16.3734 68.361 16.3734 67.8105C16.3734 67.2601 16.8197 66.8138 17.3702 66.8138H67.0083V64.5106H2.95053V66.8138H12.7187C13.2691 66.8138 13.7154 67.2601 13.7154 67.8105C13.7154 68.361 13.2691 68.8073 12.7187 68.8073H1.95378C1.40331 68.8073 0.957031 68.361 0.957031 67.8105V63.5139C0.957031 62.9634 1.40331 62.5171 1.95378 62.5171H6.05853V47.136C6.05853 46.5855 6.5048 46.1392 7.05527 46.1392H17.7954C18.3459 46.1392 18.7922 46.5855 18.7922 47.136V62.5171H21.0947V40.6919C21.0947 40.1414 21.541 39.6952 22.0914 39.6952H32.8315C33.3819 39.6952 33.8282 40.1414 33.8282 40.6919V62.5171H36.1307V32.6369C36.1307 32.0864 36.577 31.6401 37.1275 31.6401H47.8675C48.418 31.6401 48.8642 32.0864 48.8642 32.6369V62.5171H51.1666V27.2668C51.1666 26.7163 51.6129 26.27 52.1633 26.27H62.903C63.4535 26.27 63.8997 26.7163 63.8997 27.2668V42.315C63.8997 42.8655 63.4535 43.3118 62.903 43.3118C62.3525 43.3118 61.9062 42.8655 61.9062 42.315V28.2635H53.1601V62.5171H61.9062V46.9665C61.9062 46.416 62.3525 45.9698 62.903 45.9698C63.4535 45.9698 63.8997 46.416 63.8997 46.9665V62.5171ZM46.8707 33.6336H38.1242V62.5171H46.8707V33.6336ZM31.8346 41.6887H23.088V62.5171H31.8346V41.6887ZM16.7986 48.1327H8.05202V62.5171H16.7986V48.1327Z" fill="#F84263"/>
</svg>
