<svg width="50" height="50" viewBox="0 0 50 50" fill="none" xmlns="http://www.w3.org/2000/svg">
<path fill-rule="evenodd" clip-rule="evenodd" d="M43.9844 5.88242C37.2511 -0.852178 26.295 -0.851987 19.5617 5.88242C16.3 9.14469 14.5035 13.4822 14.5035 18.0958C14.5035 22.2269 15.9448 26.136 18.5878 29.2507L15.4501 32.3889L8.84145 32.9423L1.67228 40.1126C-0.557425 42.3426 -0.557425 45.9712 1.67228 48.2013C2.78732 49.3164 4.25169 49.8738 5.71596 49.8738C7.18043 49.8738 8.6448 49.3164 9.75965 48.2013L16.9288 41.031L17.4821 34.4213L20.6198 31.2831C23.734 33.9266 27.6425 35.368 31.773 35.368C36.3858 35.368 40.7226 33.5714 43.9844 30.3091C47.2461 27.0469 49.0424 22.7094 49.0424 18.0958C49.0424 13.4822 47.2461 9.14479 43.9844 5.88242ZM14.1876 39.3289L10.5434 35.684L14.5205 35.351L14.1876 39.3289ZM7.72775 46.1689C6.61846 47.2783 4.81376 47.2785 3.70446 46.1689C2.59527 45.0595 2.59527 43.2544 3.70446 42.145L8.32191 37.5269L12.3452 41.5508L7.72775 46.1689ZM41.9523 28.2768C39.2333 30.9963 35.6182 32.4939 31.773 32.4939C27.9277 32.4939 24.3127 30.9962 21.5937 28.2768C18.8747 25.5574 17.3773 21.9417 17.3773 18.0959C17.3773 14.2501 18.8747 10.6343 21.5937 7.9148C24.3127 5.19535 27.9278 3.69774 31.773 3.69774C35.6183 3.69774 39.2333 5.19544 41.9523 7.9148C44.6713 10.6343 46.1687 14.25 46.1687 18.0959C46.1687 21.9418 44.6713 25.5574 41.9523 28.2768ZM43.2941 21.1743V15.0174L41.0684 14.5854C40.9953 14.3924 40.9162 14.2016 40.8312 14.0135L42.1019 12.1345L37.7534 7.77653L35.8722 9.04348C35.6781 8.95527 35.4813 8.87346 35.2819 8.79799L34.8499 6.57202H28.6942L28.2621 8.79808C28.0692 8.87117 27.8785 8.95028 27.6904 9.03534L25.8117 7.76446L21.4545 12.1136L22.7213 13.995C22.6331 14.1891 22.5512 14.3861 22.4758 14.5854L20.25 15.0174V21.1743L22.4758 21.6065C22.5489 21.7995 22.628 21.9901 22.7129 22.1782L21.4424 24.0572L25.7907 28.4152L27.672 27.1482C27.866 27.2364 28.0629 27.3183 28.2622 27.3937L28.6942 29.6198H34.8499L35.282 27.3937C35.4749 27.3207 35.6657 27.2415 35.8538 27.1566L37.7323 28.4275L42.0897 24.0783L40.8228 22.1968C40.9111 22.0027 40.993 21.8059 41.0684 21.6065L43.2941 21.1743ZM40.4204 18.8043L38.8186 19.1154L38.5816 19.9738C38.4264 20.536 38.2007 21.0783 37.9113 21.5856L37.4687 22.3607L38.3826 23.7179L37.3798 24.7188L36.0247 23.8021L35.2489 24.243C34.7452 24.5294 34.2072 24.7525 33.6498 24.9065L32.7915 25.1435L32.4807 26.7455H31.0639L30.753 25.1434L29.8947 24.9064C29.3324 24.7511 28.7903 24.5255 28.2833 24.236L27.5084 23.7933L26.1514 24.7073L25.1505 23.7043L26.0671 22.3488L25.6263 21.5729C25.3399 21.0689 25.1166 20.5308 24.9628 19.9736L24.7258 19.1152L23.124 18.8041V17.3871L24.7258 17.0762L24.9628 16.2177C25.1181 15.6555 25.3437 15.1131 25.6333 14.606L26.0758 13.8309L25.162 12.4738L26.1648 11.4728L27.5199 12.3895L28.2957 11.9485C28.7996 11.6621 29.3376 11.4388 29.8946 11.2851L30.7529 11.048L31.0638 9.44598H32.4806L32.7915 11.048L33.6498 11.2851C34.2121 11.4402 34.7542 11.6658 35.2612 11.9555L36.0362 12.3981L37.3931 11.4841L38.394 12.4871L37.4773 13.8425L37.9183 14.6185C38.2045 15.1222 38.4278 15.6603 38.5817 16.2176L38.8187 17.0762L40.4205 17.3871V18.8043H40.4204ZM28.5201 14.8403C29.3893 13.9708 30.5453 13.4919 31.7749 13.4919C33.0044 13.4919 34.1603 13.9708 35.0296 14.8403C35.899 15.7099 36.3778 16.866 36.3778 18.0957C36.3778 19.3254 35.899 20.4815 35.0296 21.3511C34.1603 22.2205 33.0044 22.6994 31.7749 22.6994C30.5453 22.6994 29.3894 22.2206 28.52 21.351C27.6506 20.4815 27.1719 19.3254 27.1719 18.0957C27.1719 16.866 27.6506 15.7099 28.5201 14.8403ZM31.7749 19.8253C32.2366 19.8253 32.6709 19.6454 32.9975 19.3187C33.3243 18.992 33.5042 18.5577 33.5041 18.0958C33.5041 17.6337 33.3242 17.1994 32.9976 16.8727C32.6709 16.5461 32.2367 16.3662 31.7749 16.3662C31.313 16.3662 30.8787 16.5461 30.5521 16.8727C30.2254 17.1994 30.0456 17.6338 30.0456 18.0958C30.0456 18.5577 30.2254 18.9921 30.5521 19.3187C30.8787 19.6454 31.3129 19.8253 31.7749 19.8253Z" fill="#F84263"/>
</svg>
