<svg width="65" height="72" viewBox="0 0 65 72" fill="none" xmlns="http://www.w3.org/2000/svg">
<path d="M51.0471 35.1587H55.9705C57.0835 35.1587 57.9891 34.2531 57.9891 33.14V28.2166C57.9891 27.1036 57.0835 26.198 55.9705 26.198H51.0471C49.934 26.198 49.0285 27.1036 49.0285 28.2166V33.14C49.0285 34.2531 49.934 35.1587 51.0471 35.1587ZM51.0963 28.2658H55.9213V33.0908H51.0963V28.2658ZM51.0471 48.255H55.9705C57.0835 48.255 57.9891 47.3494 57.9891 46.2364V41.313C57.9891 40.1999 57.0835 39.2943 55.9705 39.2943H51.0471C49.934 39.2943 49.0285 40.1999 49.0285 41.313V46.2364C49.0285 47.3494 49.934 48.255 51.0471 48.255ZM51.0963 41.3622H55.9213V46.1872H51.0963V41.3622ZM36.9973 35.1587H41.9207C43.0338 35.1587 43.9394 34.2531 43.9394 33.14V28.2166C43.9394 27.1036 43.0338 26.198 41.9207 26.198H36.9973C35.8843 26.198 34.9787 27.1036 34.9787 28.2166V33.14C34.9787 34.2531 35.8843 35.1587 36.9973 35.1587ZM37.0465 28.2658H41.8715V33.0908H37.0465V28.2658ZM13.8212 51.7767H8.89781C7.78475 51.7767 6.87918 52.6823 6.87918 53.7953V58.7187C6.87918 59.8318 7.78475 60.7373 8.89781 60.7373H13.8212C14.9343 60.7373 15.8398 59.8318 15.8398 58.7187V53.7953C15.8398 52.6823 14.9343 51.7767 13.8212 51.7767ZM13.772 58.6695H8.94702V53.8445H13.772V58.6695ZM13.8212 26.198H8.89781C7.78475 26.198 6.87918 27.1036 6.87918 28.2166V33.14C6.87918 34.2531 7.78475 35.1587 8.89781 35.1587H13.8212C14.9343 35.1587 15.8398 34.2531 15.8398 33.14V28.2166C15.8398 27.1034 14.9343 26.198 13.8212 26.198ZM13.772 33.0908H8.94702V28.2658H13.772V33.0908ZM36.9973 47.948H41.9207C43.0338 47.948 43.9394 47.0424 43.9394 45.9294V41.006C43.9394 39.8929 43.0338 38.9873 41.9207 38.9873H36.9973C35.8843 38.9873 34.9787 39.8929 34.9787 41.006V45.9294C34.9787 47.0424 35.8843 47.948 36.9973 47.948ZM37.0465 41.0552H41.8715V45.8802H37.0465V41.0552ZM59.016 5.21903H54.5955V3.63823C54.5955 1.90455 53.1851 0.494141 51.4514 0.494141H50.9767C49.2431 0.494141 47.8327 1.90455 47.8327 3.63823V5.21903H17.0356V3.63823C17.0356 1.90455 15.6252 0.494141 13.8915 0.494141H13.4167C11.6831 0.494141 10.2726 1.90455 10.2726 3.63823V5.21903H5.85228C2.99797 5.21903 0.675781 7.54122 0.675781 10.3955V65.907C0.675781 68.7576 2.9948 71.0766 5.84539 71.0766H59.0232C61.8738 71.0766 64.1928 68.7576 64.1928 65.907V10.3955C64.1927 7.54122 61.8705 5.21903 59.016 5.21903ZM49.9005 3.63823C49.9005 3.04476 50.3833 2.56199 50.9768 2.56199H51.4516C52.045 2.56199 52.5278 3.04476 52.5278 3.63823V5.21903H49.9005V3.63823ZM12.3406 3.63823C12.3406 3.04476 12.8234 2.56199 13.4169 2.56199H13.8917C14.4851 2.56199 14.9679 3.04476 14.9679 3.63823V5.21903H12.3408V3.63823H12.3406ZM62.1248 65.907C62.1248 67.6173 60.7334 69.0087 59.023 69.0087H5.84525C4.13487 69.0087 2.74349 67.6173 2.74349 65.907V65.9005C3.60978 66.5532 4.68657 66.9409 5.85228 66.9409H47.772C49.1547 66.9409 50.4547 66.4024 51.4324 65.4246L62.1248 54.7322V65.907ZM50.3774 63.5553C50.4584 63.2207 50.5026 62.8718 50.5026 62.5127V55.611C50.5026 54.3097 51.5614 53.2508 52.8629 53.2508H59.7644C60.1236 53.2508 60.4725 53.2067 60.807 53.1256L50.3774 63.5553ZM62.1248 19.9945H18.0695C17.4985 19.9945 17.0356 20.4574 17.0356 21.0284C17.0356 21.5994 17.4985 22.0623 18.0695 22.0623H62.1248V48.8227C62.1248 50.1242 61.0659 51.1831 59.7644 51.1831H52.8629C50.4212 51.1831 48.4347 53.1696 48.4347 55.6112V62.5128C48.4347 63.8143 47.3758 64.8732 46.0745 64.8732H5.85228C4.13818 64.8732 2.74363 63.4786 2.74363 61.7644V22.0623H13.9338C14.5048 22.0623 14.9678 21.5994 14.9678 21.0284C14.9678 20.4574 14.5048 19.9945 13.9338 19.9945H2.74349V10.3955C2.74349 8.68143 4.13804 7.28687 5.85215 7.28687H10.2726V10.3269C10.2726 12.0606 11.6831 13.471 13.4167 13.471C13.9877 13.471 14.4507 13.008 14.4507 12.437C14.4507 11.866 13.9877 11.4031 13.4167 11.4031C12.8233 11.4031 12.3405 10.9204 12.3405 10.3269V7.28687H47.8327V10.3269C47.8327 12.0606 49.2431 13.471 50.9768 13.471C51.5478 13.471 52.0107 13.008 52.0107 12.437C52.0107 11.866 51.5478 11.4031 50.9768 11.4031C50.3833 11.4031 49.9005 10.9204 49.9005 10.3269V7.28687H59.0162C60.7303 7.28687 62.1248 8.68143 62.1248 10.3955V19.9945ZM13.8212 38.9873H8.89781C7.78475 38.9873 6.87918 39.8929 6.87918 41.006V45.9294C6.87918 47.0424 7.78475 47.948 8.89781 47.948H13.8212C14.9343 47.948 15.8398 47.0424 15.8398 45.9294V41.006C15.8398 39.8928 14.9343 38.9873 13.8212 38.9873ZM13.772 45.8802H8.94702V41.0552H13.772V45.8802ZM22.9476 35.1587H27.871C28.984 35.1587 29.8896 34.2531 29.8896 33.14V28.2166C29.8896 27.1036 28.984 26.198 27.871 26.198H22.9476C21.8345 26.198 20.9289 27.1036 20.9289 28.2166V33.14C20.9289 34.2531 21.8345 35.1587 22.9476 35.1587ZM22.9968 28.2658H27.8218V33.0908H22.9968V28.2658ZM37.0453 58.6695C37.0197 58.1212 36.5671 57.6848 36.0125 57.6848C35.4415 57.6848 34.9786 58.1477 34.9786 58.7187C34.9786 59.8318 35.8841 60.7373 36.9972 60.7373H41.9206C43.0336 60.7373 43.9392 59.8318 43.9392 58.7187V53.7953C43.9392 52.6823 43.0336 51.7767 41.9206 51.7767H36.9972C35.8841 51.7767 34.9786 52.6823 34.9786 53.7953V55.2152C34.9786 55.7862 35.4415 56.2492 36.0125 56.2492C36.5835 56.2492 37.0464 55.7862 37.0464 55.2152V53.8445H41.8714V58.6695H37.0453ZM22.9476 47.948H27.871C28.984 47.948 29.8896 47.0424 29.8896 45.9294V41.006C29.8896 39.8929 28.984 38.9873 27.871 38.9873H22.9476C21.8345 38.9873 20.9289 39.8929 20.9289 41.006V45.9294C20.9289 47.0424 21.8345 47.948 22.9476 47.948ZM22.9968 41.0552H27.8218V45.8802H22.9968V41.0552ZM22.9476 60.7373H27.871C28.984 60.7373 29.8896 59.8318 29.8896 58.7187V53.7953C29.8896 52.6823 28.984 51.7767 27.871 51.7767H22.9476C21.8345 51.7767 20.9289 52.6823 20.9289 53.7953V58.7187C20.9289 59.8318 21.8345 60.7373 22.9476 60.7373ZM22.9968 53.8445H27.8218V58.6695H22.9968V53.8445Z" fill="#F84263"/>
</svg>
