<svg width="47" height="48" viewBox="0 0 47 48" fill="none" xmlns="http://www.w3.org/2000/svg">
<path fill-rule="evenodd" clip-rule="evenodd" d="M46.7302 0.494141H0V33.4802H8.24651V36.229H11.6998C11.8453 36.6402 12.0127 37.0439 12.2015 37.438L9.7591 39.8806L15.5903 45.7118L18.0328 43.2693C18.4271 43.4582 18.8306 43.6256 19.2419 43.7711V47.2244H27.4884V43.771C27.8996 43.6255 28.3032 43.4581 28.6974 43.2692L31.1399 45.7117L36.9711 39.8805L34.5287 37.438C34.7175 37.0437 34.8849 36.6402 35.0304 36.2289H38.4837V33.4801H46.7302V0.494141ZM43.9814 3.24298V5.99181H28.8628V8.74065H43.9814V11.4895H2.74884V3.24298H43.9814ZM35.7349 33.4802H32.9487L32.6831 34.512C32.4596 35.3802 32.1135 36.2144 31.6542 36.9915L31.1121 37.909L33.0837 39.8807L31.1399 41.8245L29.1683 39.8528L28.2508 40.395C27.4737 40.8542 26.6394 41.2003 25.7713 41.4239L24.7395 41.6893V44.4755H21.9907V41.6893L20.9589 41.4238C20.0907 41.2003 19.2565 40.8541 18.4793 40.3949L17.5619 39.8527L15.5902 41.8244L13.6464 39.8806L15.6182 37.9089L15.076 36.9915C14.6168 36.2144 14.2707 35.3801 14.0471 34.5119L13.7816 33.4802H10.9953V30.7313H13.7816L14.0471 29.6995C14.2706 28.8314 14.6168 27.9972 15.076 27.22L15.6182 26.3025L13.6464 24.3309L15.5902 22.3872L17.5619 24.3588L18.4793 23.8166C19.2565 23.3574 20.0907 23.0112 20.9588 22.7878L21.9907 22.5223V19.736H24.7395V22.5223L25.7714 22.7878C26.6395 23.0112 27.4737 23.3573 28.2509 23.8166L29.1684 24.3588L31.14 22.3872L33.0838 24.3309L31.1122 26.3025L31.6543 27.22C32.1136 27.9971 32.4596 28.8314 32.6832 29.6995L32.9487 30.7313H35.7349V33.4802ZM38.4837 30.7313V27.9825H35.0304C34.8848 27.5713 34.7174 27.1677 34.5286 26.7735L36.971 24.331L31.1398 18.4998L28.6973 20.9423C28.303 20.7534 27.8995 20.586 27.4883 20.4405V16.9872H19.2418V20.4405C18.8305 20.586 18.4269 20.7534 18.0327 20.9423L15.5902 18.4998L9.75901 24.331L12.2014 26.7735C12.0126 27.1678 11.8452 27.5713 11.6997 27.9825H8.24651V30.7313H2.74884V14.2383H43.9814V30.7313H38.4837ZM5.49609 5.9917H8.24493V8.74054H5.49609V5.9917ZM13.7449 5.9917H10.9961V8.74054H13.7449V5.9917ZM16.4922 5.9917H19.241V8.74054H16.4922V5.9917ZM16.4922 32.106C16.4922 28.3167 19.575 25.2339 23.3643 25.2339C27.1535 25.2339 30.2364 28.3167 30.2364 32.106C30.2364 35.8952 27.1535 38.9781 23.3643 38.9781C19.575 38.9781 16.4922 35.8952 16.4922 32.106ZM19.241 32.106C19.241 34.3796 21.0906 36.2292 23.3643 36.2292C25.6379 36.2292 27.4875 34.3796 27.4875 32.106C27.4875 29.8323 25.6379 27.9827 23.3643 27.9827C21.0906 27.9827 19.241 29.8323 19.241 32.106Z" fill="#F84263"/>
</svg>
