<svg width="43" height="46" viewBox="0 0 43 46" fill="none" xmlns="http://www.w3.org/2000/svg">
<path fill-rule="evenodd" clip-rule="evenodd" d="M25.3537 0.226074H12.0107C9.80356 0.226074 8.00781 2.02182 8.00781 4.22898V25.6668C8.00781 27.8739 9.80356 29.6697 12.0107 29.6697H13.345V41.7674C13.345 43.9745 15.1408 45.7703 17.3479 45.7703H30.691C32.8981 45.7703 34.6939 43.9745 34.6939 41.7674V20.3296C34.6939 18.1224 32.8981 16.3267 30.691 16.3267H29.3567V4.22898C29.3567 2.02182 27.5609 0.226074 25.3537 0.226074ZM21.3508 29.6697H25.3537C25.8214 29.6697 26.2704 29.5884 26.688 29.4403V37.7645H21.3508V29.6697ZM12.0107 27.0011C11.2751 27.0011 10.6764 26.4024 10.6764 25.6668V4.22898C10.6764 3.49338 11.2751 2.89468 12.0107 2.89468H25.3537C26.0893 2.89468 26.688 3.49338 26.688 4.22898V25.6668C26.688 26.4024 26.0893 27.0011 25.3537 27.0011H21.3508V24.3325H24.0194V5.56328H13.345V27.0011H12.0107ZM21.3508 16.3267H17.3479C16.8802 16.3267 16.4313 16.408 16.0136 16.556V8.23189H21.3508V16.3267ZM30.691 18.9953C31.4266 18.9953 32.0253 19.594 32.0253 20.3296V41.7674C32.0253 42.503 31.4266 43.1017 30.691 43.1017H17.3479C16.6123 43.1017 16.0136 42.503 16.0136 41.7674V20.3296C16.0136 19.594 16.6123 18.9953 17.3479 18.9953H21.3508V21.6639H18.6822V40.4331H29.3567V18.9953H30.691ZM0 21.6638H5.33721V24.3324H0V21.6638ZM2.0779 13.8818L0.597656 16.1025L4.60056 18.7712L6.08081 16.5504L2.0779 13.8818ZM2.0779 32.1138L0.597656 29.8935L4.60091 27.2249L6.08115 29.4452L2.0779 32.1138ZM42.7005 21.6638H37.3633V24.3324H42.7005V21.6638ZM38.1013 18.7694L36.6211 16.5487L40.624 13.8801L42.1042 16.1008L38.1013 18.7694ZM40.6243 32.1159L42.1046 29.8952L38.1013 27.2266L36.6211 29.4473L40.6243 32.1159Z" fill="#F84263"/>
</svg>
