<svg width="47" height="42" viewBox="0 0 47 42" fill="none" xmlns="http://www.w3.org/2000/svg">
<path fill-rule="evenodd" clip-rule="evenodd" d="M0 41.4497V0.797852H46.2015V41.4497H0ZM2.70712 38.7426H43.4944V3.50497H2.70712V38.7426ZM5.50391 11.7166H40.6964V36.0806H5.50391V11.7166ZM8.21102 33.3735H37.9893V14.4237H8.21102V33.3735ZM17.6875 6.30237H40.698V9.00949H17.6875V6.30237ZM8.21102 6.30237H5.50391V9.00949H8.21102V6.30237ZM10.918 6.30237H13.6251V9.00949H10.918V6.30237ZM14.1498 23.931L17.5993 27.3427L15.6959 29.2677L10.332 23.9627L15.631 18.5457L17.5662 20.4385L14.1498 23.931ZM28.5605 27.3586L30.496 29.2514L35.7946 23.8344L30.4311 18.5294L28.5273 20.4544L31.9772 23.8661L28.5605 27.3586ZM24.6469 17.9595L19.1875 28.6522L21.5985 29.8831L27.0579 19.1904L24.6469 17.9595Z" fill="#F84263"/>
</svg>
