<svg width="76" height="71" viewBox="0 0 76 71" fill="none" xmlns="http://www.w3.org/2000/svg">
<path fill-rule="evenodd" clip-rule="evenodd" d="M39.8338 70.6073H55.7687C61.2568 70.6073 66.5875 68.6559 70.7793 65.1135C76.2311 60.5048 77.2079 52.4678 73.0035 46.6868C71.147 44.1341 69.6837 42.1371 68.5242 40.5546C65.0196 35.7719 64.2891 34.775 63.8609 33.6617C63.7481 33.3686 63.6563 33.0673 63.5403 32.6868C63.4704 32.4572 63.3916 32.1989 63.2942 31.896C63.26 31.7902 63.2244 31.6795 63.1878 31.5658L63.1737 31.5217C64.7312 30.5079 65.5034 28.5294 64.8881 26.6449L63.7192 23.065C61.9356 17.6016 57.1228 13.7986 51.4945 13.2548V9.10452C52.2154 8.18647 52.6467 7.03084 52.6467 5.77602C52.6467 2.79814 50.2236 0.375 47.2451 0.375C44.2666 0.375 41.8435 2.79814 41.8435 5.77602C41.8435 7.03142 42.2754 8.18705 42.9962 9.10452V13.1844H32.6428V9.10452C33.3637 8.18647 33.795 7.03084 33.795 5.77602C33.795 2.79814 31.3719 0.375 28.394 0.375C25.4155 0.375 22.9924 2.79814 22.9924 5.77602C22.9924 7.03142 23.4237 8.18705 24.1446 9.10452V13.2548C18.5163 13.7986 13.7035 17.6016 11.9193 23.065L10.7504 26.6449C10.1357 28.5283 10.9067 30.5068 12.4654 31.5217C12.3382 31.9161 12.2394 32.2438 12.1531 32.5297C12.0239 32.9579 11.9229 33.2925 11.7974 33.6176C11.3483 34.7807 10.5847 35.8224 7.08934 40.5906C5.93282 42.1682 4.47724 44.1538 2.63503 46.6868C-1.56365 52.4598 -0.599468 60.499 4.8598 65.1135C9.05156 68.6559 14.3822 70.6068 19.8703 70.6068H34.6669C35.2788 70.6068 35.7741 70.1114 35.7741 69.4996C35.7741 68.8883 35.2788 68.3924 34.6669 68.3924H19.8703C14.9047 68.3924 10.0815 66.6272 6.28935 63.4221C1.74467 59.5804 0.926382 52.8017 4.42615 47.9889L12.6897 36.6263C13.5125 35.4951 13.7499 34.7577 14.4599 32.5524L14.5668 32.2206C16.3169 32.31 18.1911 31.2368 18.8295 29.2831L19.9984 25.7026C20.7832 23.2985 23.0097 21.6833 25.5389 21.6833H50.0996C52.6288 21.6833 54.8559 23.2985 55.6407 25.7026L56.8096 29.2831C57.4088 31.1157 59.1791 32.3037 61.0683 32.2079C61.1901 32.5856 61.2908 32.9114 61.3806 33.2015C61.5592 33.7792 61.6942 34.2154 61.8641 34.6374C62.3876 35.938 63.2436 37.1048 66.7371 41.867C67.9052 43.4594 69.3682 45.4537 71.2124 47.9895C74.7127 52.8017 73.8944 59.581 69.3497 63.4221C65.557 66.6272 60.7344 68.393 55.7687 68.393H39.8338C39.222 68.393 38.7266 68.8883 38.7266 69.5001C38.7266 70.1114 39.222 70.6073 39.8338 70.6073ZM47.2451 2.58939C49.0022 2.58939 50.4317 4.01893 50.4317 5.77602C50.4317 6.65255 50.0759 7.44719 49.5016 8.02386C49.5 8.02578 49.4985 8.02719 49.497 8.0286L49.4947 8.03078C48.918 8.60628 48.1222 8.96266 47.2451 8.96266C46.3686 8.96266 45.5733 8.60686 44.9967 8.03193C44.9944 8.02999 44.9923 8.02778 44.9903 8.02567L44.9875 8.0227C44.4137 7.44604 44.0585 6.65197 44.0585 5.77602C44.0585 4.01893 45.488 2.58939 47.2451 2.58939ZM49.2801 10.7786V13.1844H45.2106V10.7786C45.6829 10.9712 46.1886 11.0998 46.7163 11.1511C46.7338 11.1531 46.7512 11.1543 46.7687 11.1555C46.7818 11.1564 46.7949 11.1574 46.808 11.1586L46.8645 11.1629C46.9014 11.1659 46.9382 11.1688 46.9752 11.1707C47.0652 11.1753 47.1546 11.1776 47.2445 11.1776H47.2451C47.3351 11.1776 47.425 11.1753 47.5144 11.1707C47.5615 11.1684 47.608 11.1647 47.6545 11.1609L47.6909 11.158C47.7045 11.1566 47.7182 11.1556 47.7318 11.1546C47.7457 11.1536 47.7596 11.1526 47.7733 11.1511C48.3015 11.0998 48.8073 10.9712 49.2801 10.7786ZM28.3934 2.58939C30.1505 2.58939 31.5806 4.01893 31.5806 5.77602C31.5806 6.65255 31.2242 7.44719 30.6499 8.02386C30.6484 8.02578 30.6468 8.02718 30.6453 8.02859L30.643 8.03078C30.0663 8.60628 29.2711 8.96266 28.3934 8.96266C27.5169 8.96266 26.7217 8.60686 26.145 8.03193L26.1358 8.0227C25.562 7.44604 25.2068 6.65197 25.2068 5.77602C25.2068 4.01893 26.6363 2.58939 28.3934 2.58939ZM30.4285 10.7786V13.1844H26.3589V10.7786C26.8312 10.9712 27.337 11.0998 27.8646 11.1511C27.8822 11.1531 27.8999 11.1543 27.9176 11.1556L27.9177 11.1556C27.9307 11.1565 27.9437 11.1574 27.9569 11.1586L28.0109 11.1628L28.0109 11.1628C28.0484 11.1658 28.086 11.1688 28.1241 11.1707C28.2135 11.1753 28.3034 11.1776 28.3934 11.1776C28.4834 11.1776 28.5733 11.1753 28.6627 11.1707C28.7111 11.1684 28.7592 11.1645 28.8068 11.1606L28.8069 11.1606L28.8392 11.158C28.8528 11.1566 28.8665 11.1556 28.8801 11.1546L28.8801 11.1546C28.8941 11.1536 28.9079 11.1526 28.9216 11.1511C29.4499 11.0998 29.9556 10.9712 30.4285 10.7786ZM61.4806 29.8978C60.438 30.2386 59.2691 29.6793 58.915 28.5951L57.7461 25.0152C56.6626 21.6971 53.5901 19.4683 50.0996 19.4683H25.5389C22.049 19.4683 18.9759 21.6977 17.893 25.0152L16.7241 28.5951C16.3867 29.6291 15.2484 30.2542 14.1579 29.8978C13.0888 29.5489 12.5063 28.4014 12.8558 27.3323L14.0247 23.7518C15.6278 18.842 20.1246 15.5176 25.2679 15.4046H50.3706C55.5139 15.5176 60.0107 18.842 61.6138 23.7518L62.7827 27.3323C63.1322 28.4014 62.5497 29.5489 61.4806 29.8978ZM24.3398 45.038C24.3398 37.918 30.1324 32.126 37.2519 32.126C44.3714 32.126 50.1634 37.918 50.1634 45.038C50.1634 52.1569 44.3714 57.9495 37.2519 57.9495C30.1324 57.9495 24.3398 52.1575 24.3398 45.038ZM26.5548 45.038C26.5548 50.9361 31.3532 55.7351 37.2519 55.7351C43.1506 55.7351 47.949 50.9361 47.949 45.038C47.949 39.1393 43.1506 34.3404 37.2519 34.3404C31.3532 34.3404 26.5548 39.1393 26.5548 45.038ZM37.8143 40.5906V43.6146C39.7577 44.3216 41.0615 45.2097 41.0615 47.2914C41.0615 49.5145 39.6141 50.6557 37.8143 50.9342V51.4665C37.8143 51.7213 37.4955 51.8961 37.2302 51.8961C36.9292 51.8961 36.646 51.7115 36.646 51.4624V50.9769C34.6415 50.9769 32.1792 49.6309 33.287 48.0745C33.8012 47.3531 34.1847 47.639 34.7641 48.0709C35.2184 48.4096 35.7932 48.8381 36.646 48.9412V45.5222C34.8157 44.8233 33.3129 44.1411 33.3129 42.0686C33.3129 41.1079 33.6087 40.2798 34.3267 39.6547C34.9685 39.0965 35.8093 38.8283 36.646 38.7182V38.2372C36.646 37.9841 36.9395 37.8076 37.2302 37.8076C37.4983 37.8076 37.8143 37.9858 37.8143 38.2413V38.6922C39.5103 38.6922 41.4012 39.3098 40.5373 40.7786C40.1518 41.4317 39.7403 41.2493 39.1502 40.9878C38.7853 40.826 38.352 40.634 37.8143 40.5906ZM35.7955 42.7041C36.0532 42.899 36.3825 43.0766 36.7833 43.2369V40.6425C35.036 40.9181 35.2349 42.2808 35.7955 42.7041ZM37.6771 45.934V48.9239C39.3033 48.5797 39.1355 47.0417 38.5963 46.5268C38.3495 46.2921 38.0433 46.0948 37.6771 45.934ZM54.1001 42.2766C54.1981 42.8798 53.7887 43.4489 53.1849 43.547C52.5823 43.645 52.0125 43.2361 51.9145 42.6324C50.7404 35.4229 44.5782 30.1903 37.2615 30.1903C29.0746 30.1903 22.4142 36.8508 22.4142 45.0376C22.4142 53.2251 29.0746 59.8856 37.2615 59.8856C44.5782 59.8856 50.7404 54.6529 51.9145 47.4435C52.0125 46.8397 52.5806 46.4309 53.1849 46.5289C53.7887 46.6269 54.1981 47.1961 54.1001 47.7993C53.4565 51.7506 51.4209 55.3703 48.3669 57.9912C37.3463 67.4491 20.1992 59.5874 20.1992 45.0382C20.1992 30.5057 37.3336 22.6153 48.3669 32.0846C51.4209 34.7056 53.4565 38.3247 54.1001 42.2766Z" fill="#F84263"/>
</svg>
