<svg width="42" height="45" viewBox="0 0 42 45" fill="none" xmlns="http://www.w3.org/2000/svg">
<path fill-rule="evenodd" clip-rule="evenodd" d="M41.0542 5.27599C41.0542 2.51125 38.8092 0.262207 36.0498 0.262207H6.36496V0.263876C3.24774 0.299925 0.722656 2.85004 0.722656 5.98128V40.9389H5.30686V44.0121H37.3783V10.1089C39.4948 9.52408 41.0542 7.57978 41.0542 5.27599ZM3.28613 38.3708V5.98128C3.28613 4.24393 4.69704 2.83035 6.43138 2.83035C7.77754 2.83035 8.87269 3.9275 8.87269 5.27599C8.87269 6.58777 7.85498 7.65722 6.55288 7.7183H5.30719V38.3708H3.28613ZM34.8148 41.4439H7.87066V10.2864L34.8148 10.2894V41.4439ZM36.0505 7.72164L10.8066 7.71863C11.2075 6.99599 11.4362 6.16319 11.4362 5.27599C11.4362 4.38812 11.2038 3.55433 10.798 2.83035H36.0495C37.3956 2.83035 38.4908 3.9275 38.4908 5.27599C38.4908 6.62415 37.3963 7.72097 36.0505 7.72164ZM17.398 14.0532L15.1389 12.8396L13.2891 16.2943L12.0224 15.0266L10.2109 16.8437L13.918 20.5534L17.398 14.0532ZM31.5488 16.5459H20.2695V19.114H31.5488V16.5459ZM20.2695 26.1235H31.5488V28.6917H20.2695V26.1235ZM31.5488 35.0225H20.2695V37.5906H31.5488V35.0225ZM17.398 23.294L15.1389 22.0803L13.2891 25.535L12.0224 24.2673L10.2109 26.0844L13.918 29.7941L17.398 23.294ZM15.1389 31.3213L17.398 32.5353L13.918 39.0351L10.2109 35.3254L12.0224 33.5082L13.2891 34.776L15.1389 31.3213Z" fill="#F84263"/>
</svg>
