<svg width="50" height="50" viewBox="0 0 50 50" fill="none" xmlns="http://www.w3.org/2000/svg">
<path fill-rule="evenodd" clip-rule="evenodd" d="M49.7648 0.263672V8.91817H46.88V40.6513H49.7648V49.3058H41.1103V46.421H9.37715V49.3058H0.722656V40.6513H3.60749V8.91817H0.722656V0.263672H9.37715V3.1485H41.1103V0.263672H49.7648ZM46.88 3.1485H43.9951V6.03334H46.88V3.1485ZM6.49232 3.1485H3.60749V6.03334H6.49232V3.1485ZM3.60749 46.421H6.49232V43.5362H3.60749V46.421ZM43.9951 46.421H46.88V43.5362H43.9951V46.421ZM41.1103 40.6513H43.9951V8.91817H41.1103V6.03334H9.37715V8.91817H6.49232V40.6513H9.37715V43.5362H41.1103V40.6513ZM18.0333 19.0151H15.1484V14.6879H35.3423V19.0151H32.4574V17.5727H26.6878V31.9969H31.015V34.8817H19.4757V31.9969H23.8029V17.5727H18.0333V19.0151Z" fill="#F84263"/>
</svg>
