<svg width="75" height="75" viewBox="0 0 75 75" fill="none" xmlns="http://www.w3.org/2000/svg">
<path fill-rule="evenodd" clip-rule="evenodd" d="M71.377 36.7008H73.4766C74.0756 36.7008 74.5612 37.1863 74.5612 37.7855C74.5612 38.3847 74.0756 38.8701 73.4766 38.8701H71.3771C71.107 47.5072 67.6179 55.588 61.4795 61.7264C55.341 67.8649 47.2602 71.354 38.6232 71.624V73.7236C38.6232 74.3228 38.1376 74.8083 37.5386 74.8083C36.9396 74.8083 36.4539 74.3228 36.4539 73.7236V71.624C32.925 71.5128 29.4644 70.8609 26.1519 69.678C25.5877 69.4764 25.2937 68.8559 25.4952 68.2917C25.6965 67.7277 26.3166 67.4331 26.8814 67.635C29.959 68.7341 33.1744 69.3434 36.4538 69.4537V65.3196C29.6725 65.0557 23.5129 62.3305 18.8448 58.0131L18.4757 58.3822C18.264 58.5939 17.9863 58.6998 17.7088 58.6998C17.4313 58.6998 17.1536 58.5939 16.9419 58.3822C16.5183 57.9586 16.5183 57.2719 16.9419 56.8482L17.3108 56.4791C12.9935 51.8111 10.2682 45.6514 10.0043 38.8701H5.8686C6.25112 50.1323 12.5719 60.347 22.5581 65.7147C23.0856 65.9985 23.2835 66.6561 22.9999 67.1836C22.7163 67.7115 22.0584 67.909 21.531 67.6256C10.8402 61.879 4.08211 50.9322 3.69872 38.8701H1.60028C1.00126 38.8701 0.515625 38.3847 0.515625 37.7855C0.515625 37.1863 1.00126 36.7008 1.60028 36.7008H3.69988C3.96988 28.0638 7.45899 19.983 13.5975 13.8446C19.736 7.70606 27.8168 4.21695 36.4538 3.94695V1.84735C36.4538 1.24819 36.9394 0.762695 37.5384 0.762695C38.1374 0.762695 38.6231 1.24819 38.6231 1.84735V3.94695C47.2601 4.2171 55.3409 7.70606 61.4793 13.8446C67.6179 19.983 71.107 28.0638 71.377 36.7008ZM36.4538 10.2514V6.11784C19.8415 6.67969 6.43262 20.0886 5.87077 36.7008H10.0043C10.2682 29.9196 12.9935 23.7599 17.3108 19.0919L16.9419 18.7228C16.5183 18.2992 16.5183 17.6126 16.9419 17.1888C17.3653 16.7654 18.0521 16.7654 18.4757 17.1888L18.8448 17.5579C23.5129 13.2405 29.6725 10.5153 36.4538 10.2514ZM21.5655 55.2924L20.3788 56.4791C24.6522 60.405 30.2702 62.8875 36.4538 63.1487V60.4034C36.4538 59.8042 36.9394 59.3187 37.5384 59.3187C38.1374 59.3187 38.6231 59.8042 38.6231 60.4034V63.1487C44.8066 62.8875 50.4247 60.4048 54.6981 56.479L53.5113 55.2922C53.0877 54.8686 53.0877 54.182 53.5113 53.7582C53.9348 53.3348 54.6216 53.3348 55.0452 53.7582L56.2319 54.945C60.1579 50.6717 62.6405 45.0537 62.9018 38.8701H60.1565C59.5574 38.8701 59.0718 38.3847 59.0718 37.7855C59.0718 37.1863 59.5574 36.7008 60.1565 36.7008H62.9035C62.7948 34.1129 62.2973 31.578 61.4196 29.1512C61.216 28.5878 61.5074 27.9659 62.0708 27.7623C62.6338 27.5584 63.256 27.8501 63.4597 28.4134C64.4231 31.0774 64.9639 33.8604 65.0738 36.7008H69.2061C68.6442 20.0886 55.2353 6.67969 38.6231 6.11784V10.2518C43.1251 10.4288 47.5219 11.7021 51.4017 13.9652C53.1438 14.9815 54.7653 16.1872 56.2394 17.5507L56.6011 17.189C57.0246 16.7655 57.7114 16.7655 58.135 17.189C58.5586 17.6126 58.5586 18.2992 58.135 18.7229L57.7723 19.0857C59.0996 20.521 60.2784 22.0955 61.2776 23.7862C61.5823 24.3018 61.4112 24.9671 60.8955 25.2718C60.3801 25.5764 59.7148 25.4056 59.4099 24.8897C58.4971 23.3447 57.4279 21.9195 56.2336 20.6243L55.0452 21.8128C54.8334 22.0245 54.5558 22.1303 54.2782 22.1303C54.0007 22.1303 53.723 22.0245 53.5113 21.8128C53.0877 21.3892 53.0877 20.7025 53.5113 20.2788L54.6982 19.0919C50.3299 15.0983 44.6342 12.6846 38.6231 12.4239V15.1677C38.6231 15.7669 38.1374 16.2524 37.5384 16.2524C36.9394 16.2524 36.4538 15.7669 36.4538 15.1677V12.4224C30.2702 12.6836 24.6522 15.1663 20.3788 19.0922L21.5655 20.2789C21.9891 20.7025 21.9891 21.3892 21.5655 21.8129C21.3538 22.0246 21.0762 22.1305 20.7986 22.1305C20.5211 22.1305 20.2434 22.0246 20.0317 21.8129L18.8449 20.6262C14.9189 24.8994 12.4364 30.5175 12.1751 36.701H14.9204C15.5194 36.701 16.005 37.1865 16.005 37.7856C16.005 38.3848 15.5194 38.8703 14.9204 38.8703H12.1751C12.4364 45.0537 14.9191 50.6717 18.8449 54.9451L20.0317 53.7584C20.4552 53.3349 21.142 53.3349 21.5655 53.7584C21.9891 54.182 21.9891 54.8686 21.5655 55.2924ZM38.6231 65.3196V69.4532C55.2353 68.8913 68.6442 55.4824 69.2062 38.8701H65.0725C64.8086 45.6514 62.0834 51.8111 57.766 56.4791L58.135 56.8482C58.5586 57.2718 58.5586 57.9584 58.135 58.3822C57.9232 58.5939 57.6456 58.6998 57.368 58.6998C57.0905 58.6998 56.8128 58.5939 56.6011 58.3822L56.232 58.0131C51.564 62.3305 45.4043 65.0557 38.6231 65.3196ZM40.1875 42.4124C39.3743 42.7614 38.4796 42.9555 37.5401 42.9555C36.6007 42.9555 35.7058 42.7614 34.8924 42.412C32.0292 43.5047 30.1108 46.2832 30.1108 49.3546C30.1108 49.9538 29.6252 50.4393 29.0262 50.4393C28.4272 50.4393 27.9415 49.9538 27.9415 49.3546C27.9415 45.8771 29.8455 42.6899 32.8063 41.0048C32.0958 40.3014 31.5411 39.4415 31.1981 38.4815C30.7953 38.5557 30.3859 38.5967 29.9733 38.5967C29.0185 38.5967 28.1102 38.3957 27.2865 38.0358C27.2238 38.0802 27.1557 38.1191 27.0819 38.1503C24.3254 39.3162 22.5443 42.0034 22.5443 44.996C22.5443 45.5952 22.0587 46.0807 21.4597 46.0807C20.8606 46.0807 20.375 45.5952 20.375 44.996C20.375 41.5046 22.2519 38.3359 25.2383 36.645C24.0055 35.4241 23.2405 33.7319 23.2405 31.8638C23.2405 31.1375 23.3572 30.4198 23.5877 29.7299C23.7775 29.1619 24.392 28.8548 24.9602 29.045C25.5283 29.2348 25.8351 29.8492 25.6453 30.4175C25.4891 30.885 25.4098 31.3718 25.4098 31.8638C25.4098 34.3803 27.4572 36.4276 29.9736 36.4276C30.2559 36.4276 30.5357 36.3995 30.8105 36.3486C30.8098 36.3064 30.8073 36.2646 30.8073 36.2222C30.8073 33.6937 32.2091 31.4874 34.2756 30.3365C33.6387 28.526 31.9358 27.3 29.9736 27.3C29.4395 27.3 28.9163 27.3916 28.4188 27.5719C27.8553 27.7758 27.2336 27.4851 27.0294 26.922C26.8252 26.3588 27.1162 25.7368 27.6793 25.5326C28.4147 25.2661 29.1866 25.1309 29.9736 25.1309C32.8644 25.1309 35.3741 26.9359 36.3168 29.6028C36.7139 29.5296 37.1223 29.4894 37.5403 29.4894C37.9581 29.4894 38.3665 29.5296 38.7635 29.6028C39.7086 26.9411 42.2332 25.1309 45.1068 25.1309C48.8196 25.1309 51.8403 28.1515 51.8403 31.8645C51.8403 33.7329 51.0747 35.4254 49.8411 36.6463C52.8055 38.3291 54.7055 41.5036 54.7055 44.9963C54.7055 45.5955 54.2199 46.081 53.6209 46.081C53.0219 46.081 52.5362 45.5955 52.5362 44.9963C52.5362 41.9116 50.6223 39.1473 47.7541 38.0537C46.9409 38.4027 46.0463 38.5966 45.1068 38.5966C44.6939 38.5966 44.2845 38.5557 43.8822 38.4818C43.5391 39.4418 42.9844 40.3018 42.2738 41.0051C45.2346 42.6904 47.1386 45.8775 47.1386 49.3549C47.1386 49.9541 46.6529 50.4396 46.0539 50.4396C45.4549 50.4396 44.9693 49.9541 44.9693 49.3549C44.9693 46.2838 43.0509 43.505 40.1875 42.4124ZM49.6709 31.8647C49.6709 29.3478 47.6233 27.3003 45.1067 27.3003C43.1563 27.3003 41.4431 28.5296 40.8046 30.3366C42.8713 31.4875 44.2732 33.6938 44.2732 36.2225C44.2732 36.2473 44.2724 36.2719 44.2715 36.2965C44.2709 36.3139 44.2703 36.3313 44.27 36.3488C44.5444 36.3995 44.8241 36.4274 45.1067 36.4274C47.6233 36.4274 49.6709 34.3805 49.6709 31.8647ZM42.1039 36.2225C42.1039 33.7061 40.0565 31.6589 37.5401 31.6589C35.0237 31.6589 32.9763 33.7061 32.9763 36.2225C32.9763 38.7391 35.0236 40.7863 37.5401 40.7863C40.0567 40.7863 42.1039 38.7389 42.1039 36.2225Z" fill="#F84263"/>
</svg>
