<svg width="39" height="34" viewBox="0 0 39 34" fill="none" xmlns="http://www.w3.org/2000/svg">
<path fill-rule="evenodd" clip-rule="evenodd" d="M4.02123 33.7344H35.7487C37.4356 33.7344 38.808 32.362 38.808 30.675V3.50854C38.808 1.82165 37.4357 0.449219 35.7487 0.449219H4.02123C2.33428 0.449219 0.961914 1.82158 0.961914 3.50854V30.675C0.961914 32.362 2.33428 33.7344 4.02123 33.7344ZM3.17945 30.675V11.5369H27.7202V31.5168H4.02123C3.55703 31.5168 3.17945 31.1392 3.17945 30.675ZM35.7486 31.5168H29.9378V11.5369H36.5904V30.675C36.5904 31.1392 36.2128 31.5168 35.7486 31.5168ZM4.02123 2.66676H35.7487C36.2128 2.66676 36.5905 3.04433 36.5905 3.50854V9.31938H3.17945V3.50854C3.17945 3.04433 3.55703 2.66676 4.02123 2.66676ZM6.50577 7.10184C7.11812 7.10184 7.61454 6.60543 7.61454 5.99307C7.61454 5.38071 7.11812 4.8843 6.50577 4.8843C5.89341 4.8843 5.397 5.38071 5.397 5.99307C5.397 6.60543 5.89341 7.10184 6.50577 7.10184ZM12.0496 5.99307C12.0496 6.60543 11.5532 7.10184 10.9408 7.10184C10.3285 7.10184 9.83208 6.60543 9.83208 5.99307C9.83208 5.38071 10.3285 4.8843 10.9408 4.8843C11.5532 4.8843 12.0496 5.38071 12.0496 5.99307ZM33.2641 7.10184C33.8764 7.10184 34.3729 6.60543 34.3729 5.99307C34.3729 5.38071 33.8764 4.8843 33.2641 4.8843C32.6517 4.8843 32.1553 5.38071 32.1553 5.99307C32.1553 6.60543 32.6517 7.10184 33.2641 7.10184ZM34.3729 16.4036C34.3729 17.016 33.8764 17.5124 33.2641 17.5124C32.6517 17.5124 32.1553 17.016 32.1553 16.4036C32.1553 15.7913 32.6517 15.2948 33.2641 15.2948C33.8764 15.2948 34.3729 15.7913 34.3729 16.4036ZM33.2641 21.9475C33.8764 21.9475 34.3729 21.451 34.3729 20.8387C34.3729 20.2263 33.8764 19.7299 33.2641 19.7299C32.6517 19.7299 32.1553 20.2263 32.1553 20.8387C32.1553 21.451 32.6517 21.9475 33.2641 21.9475ZM34.3729 25.2738C34.3729 25.8861 33.8764 26.3825 33.2641 26.3825C32.6517 26.3825 32.1553 25.8861 32.1553 25.2738C32.1553 24.6614 32.6517 24.165 33.2641 24.165C33.8764 24.165 34.3729 24.6614 34.3729 25.2738ZM19.5288 15.972H24.3939C25.0063 15.972 25.5027 15.4756 25.5027 14.8632C25.5027 14.2509 25.0063 13.7545 24.3939 13.7545H19.5288C18.9165 13.7545 18.42 14.2509 18.42 14.8632C18.42 15.4756 18.9164 15.972 19.5288 15.972ZM19.5288 18.1895H24.3939C25.0063 18.1895 25.5027 18.686 25.5027 19.2983C25.5027 19.9107 25.0063 20.4071 24.3939 20.4071H19.5288C18.9165 20.4071 18.42 19.9107 18.42 19.2983C18.42 18.686 18.9165 18.1895 19.5288 18.1895ZM24.3939 22.6246H19.5288C18.9165 22.6246 18.42 23.1211 18.42 23.7334C18.42 24.3457 18.9165 24.8422 19.5288 24.8422H24.3939C25.0063 24.8422 25.5027 24.3457 25.5027 23.7334C25.5027 23.1211 25.0063 22.6246 24.3939 22.6246ZM19.5288 27.0597H24.3939C25.0063 27.0597 25.5027 27.5561 25.5027 28.1685C25.5027 28.7808 25.0063 29.2772 24.3939 29.2772H19.5288C18.9165 29.2772 18.42 28.7808 18.42 28.1685C18.42 27.5561 18.9165 27.0597 19.5288 27.0597ZM15.0937 27.0597H6.50577C5.89343 27.0597 5.397 27.5561 5.397 28.1685C5.397 28.7808 5.89343 29.2772 6.50577 29.2772H15.0937C15.706 29.2772 16.2025 28.7808 16.2025 28.1685C16.2025 27.5561 15.706 27.0597 15.0937 27.0597ZM6.50577 13.7545H15.0937C15.706 13.7545 16.2025 14.2509 16.2025 14.8632V23.7334C16.2025 24.3457 15.706 24.8422 15.0937 24.8422H6.50577C5.89343 24.8422 5.397 24.3457 5.397 23.7334V14.8632C5.397 14.2509 5.89343 13.7545 6.50577 13.7545ZM7.61454 22.6246H13.9849V15.972H7.61454V22.6246Z" fill="#F84263"/>
</svg>
