<svg width="43" height="33" viewBox="0 0 43 33" fill="none" xmlns="http://www.w3.org/2000/svg">
<path fill-rule="evenodd" clip-rule="evenodd" d="M36.3066 6.77313H40.7425C41.4454 6.77313 42.0152 7.34291 42.0152 8.04554V30.8322C42.0152 31.5352 41.4454 32.105 40.7425 32.105H7.73519C7.03225 32.105 6.46246 31.5352 6.46246 30.8322V26.2588H2.02664C1.32369 26.2588 0.753906 25.6891 0.753906 24.9864V2.19973C0.753906 1.49679 1.32369 0.927002 2.02664 0.927002H35.0339C35.7368 0.927002 36.3066 1.49679 36.3066 2.19973V6.77313ZM33.7612 3.47215H3.29905V23.7137H33.7612V3.47215ZM9.00793 29.5598H39.47V9.31827H36.3066V24.9864C36.3066 25.6891 35.7368 26.2588 35.0339 26.2588H9.00793V29.5598ZM17.1253 6.65665V13.5929C17.1253 14.2959 16.5555 14.8657 15.8526 14.8657H6.63403C5.93108 14.8657 5.3613 14.2959 5.3613 13.5929V6.65665C5.3613 5.95402 5.93108 5.38424 6.63403 5.38424H15.8526C16.5555 5.38424 17.1253 5.95402 17.1253 6.65665ZM7.90644 12.3205H14.5802V7.92938H7.90644V12.3205ZM22.4725 21.4761H30.3255C31.0284 21.4761 31.5982 20.9063 31.5982 20.2034C31.5982 19.5007 31.0284 18.931 30.3255 18.931H22.4725C21.7699 18.931 21.2001 19.5007 21.2001 20.2034C21.2001 20.9063 21.7699 21.4761 22.4725 21.4761ZM26.036 17.4439H22.4725C21.7699 17.4439 21.2001 16.8741 21.2001 16.1711C21.2001 15.4685 21.7699 14.8987 22.4725 14.8987H26.036C26.7386 14.8987 27.3084 15.4685 27.3084 16.1711C27.3084 16.8741 26.7386 17.4439 26.036 17.4439Z" fill="#F84263"/>
</svg>
