<svg width="18" height="18" viewBox="0 0 18 18" fill="none" xmlns="http://www.w3.org/2000/svg">
<path d="M9.15561 0.212524H9.15124C4.32934 0.212524 0.408203 4.13476 0.408203 8.95775C0.408203 10.8708 1.02474 12.6439 2.07307 14.0835L0.983202 17.3324L4.34465 16.2578C5.72749 17.1739 7.37705 17.703 9.15561 17.703C13.9775 17.703 17.8986 13.7796 17.8986 8.95775C17.8986 4.13585 13.9775 0.212524 9.15561 0.212524ZM14.2442 12.5619C14.0333 13.1576 13.1959 13.6517 12.528 13.796C12.0711 13.8933 11.4742 13.9709 9.46497 13.138C6.89497 12.0732 5.23994 9.46169 5.11095 9.29225C4.98742 9.12281 4.07245 7.90941 4.07245 6.65447C4.07245 5.39954 4.70976 4.78846 4.96665 4.52611C5.17763 4.31075 5.52634 4.21237 5.86085 4.21237C5.96907 4.21237 6.06636 4.21784 6.15381 4.22221C6.41071 4.23314 6.5397 4.24845 6.70914 4.654C6.92011 5.16232 7.4339 6.41726 7.49511 6.54625C7.55742 6.67524 7.61973 6.85015 7.53228 7.01959C7.45029 7.19449 7.37815 7.27211 7.24915 7.42077C7.12016 7.56944 6.99773 7.68313 6.86874 7.84273C6.75068 7.98156 6.61731 8.13023 6.76598 8.38712C6.91465 8.63855 7.42843 9.47699 8.18489 10.1504C9.16108 11.0194 9.95252 11.2971 10.2356 11.4152C10.4466 11.5026 10.6981 11.4818 10.8522 11.3179C11.0479 11.1069 11.2894 10.7571 11.5354 10.4127C11.7103 10.1657 11.9311 10.1351 12.1629 10.2225C12.399 10.3045 13.6485 10.9221 13.9054 11.05C14.1623 11.179 14.3317 11.2403 14.394 11.3485C14.4552 11.4567 14.4552 11.965 14.2442 12.5619Z" fill="#969494"/>
</svg>
